%TF.GenerationSoftware,KiCad,Pcbnew,6.0.4-6f826c9f35~116~ubuntu20.04.1*%
%TF.CreationDate,2022-04-10T19:12:30+02:00*%
%TF.ProjectId,THEIA,54484549-412e-46b6-9963-61645f706362,rev?*%
%TF.SameCoordinates,Original*%
%TF.FileFunction,Soldermask,Bot*%
%TF.FilePolarity,Negative*%
%FSLAX46Y46*%
G04 Gerber Fmt 4.6, Leading zero omitted, Abs format (unit mm)*
G04 Created by KiCad (PCBNEW 6.0.4-6f826c9f35~116~ubuntu20.04.1) date 2022-04-10 19:12:30*
%MOMM*%
%LPD*%
G01*
G04 APERTURE LIST*
%ADD10R,1.700000X1.700000*%
%ADD11O,1.700000X1.700000*%
%ADD12C,1.701800*%
%ADD13C,0.900000*%
%ADD14C,8.600000*%
%ADD15C,0.660400*%
%ADD16O,2.667000X1.168400*%
%ADD17O,2.159000X1.168400*%
%ADD18C,2.500000*%
%ADD19C,2.710000*%
%ADD20C,2.410000*%
G04 APERTURE END LIST*
D10*
%TO.C,J7*%
X205232000Y-121539000D03*
D11*
X205232000Y-124079000D03*
X205232000Y-126619000D03*
X205232000Y-129159000D03*
X205232000Y-131699000D03*
%TD*%
D10*
%TO.C,J9*%
X205359000Y-106299000D03*
D11*
X205359000Y-108839000D03*
X205359000Y-111379000D03*
X205359000Y-113919000D03*
X205359000Y-116459000D03*
%TD*%
D12*
%TO.C,U2*%
X180306200Y-138069000D03*
X185606200Y-138069000D03*
%TD*%
D13*
%TO.C,H3*%
X208100000Y-52725000D03*
X211325000Y-49500000D03*
X205819581Y-47219581D03*
X210380419Y-47219581D03*
D14*
X208100000Y-49500000D03*
D13*
X208100000Y-46275000D03*
X210380419Y-51780419D03*
X205819581Y-51780419D03*
X204875000Y-49500000D03*
%TD*%
%TO.C,H4*%
X106175000Y-156500000D03*
X111680419Y-158780419D03*
X107119581Y-158780419D03*
X112625000Y-156500000D03*
X107119581Y-154219581D03*
D14*
X109400000Y-156500000D03*
D13*
X109400000Y-159725000D03*
X111680419Y-154219581D03*
X109400000Y-153275000D03*
%TD*%
D10*
%TO.C,JP6*%
X144018000Y-152400000D03*
D11*
X144018000Y-154940000D03*
%TD*%
D10*
%TO.C,J13*%
X135305800Y-153212800D03*
D11*
X132765800Y-153212800D03*
X130225800Y-153212800D03*
X127685800Y-153212800D03*
%TD*%
D10*
%TO.C,J10*%
X138912600Y-157607000D03*
D11*
X141452600Y-157607000D03*
X143992600Y-157607000D03*
X146532600Y-157607000D03*
X149072600Y-157607000D03*
X151612600Y-157607000D03*
%TD*%
D10*
%TO.C,J4*%
X205105000Y-136652000D03*
D11*
X205105000Y-139192000D03*
X205105000Y-141732000D03*
%TD*%
D10*
%TO.C,J14*%
X196977000Y-106172000D03*
D11*
X196977000Y-108712000D03*
X196977000Y-111252000D03*
X196977000Y-113792000D03*
X196977000Y-116332000D03*
X196977000Y-118872000D03*
X196977000Y-121412000D03*
X196977000Y-123952000D03*
X196977000Y-126492000D03*
X196977000Y-129032000D03*
X196977000Y-131572000D03*
X196977000Y-134112000D03*
X196977000Y-136652000D03*
X196977000Y-139192000D03*
X196977000Y-141732000D03*
X196977000Y-144272000D03*
X196977000Y-146812000D03*
X196977000Y-149352000D03*
X196977000Y-151892000D03*
X196977000Y-154432000D03*
%TD*%
D13*
%TO.C,H1*%
X205619581Y-154119581D03*
X207900000Y-153175000D03*
X207900000Y-159625000D03*
D14*
X207900000Y-156400000D03*
D13*
X210180419Y-154119581D03*
X210180419Y-158680419D03*
X204675000Y-156400000D03*
X205619581Y-158680419D03*
X211125000Y-156400000D03*
%TD*%
D15*
%TO.C,J25*%
X112593400Y-136400002D03*
X113584000Y-127759998D03*
X108478000Y-136400002D03*
X106979400Y-136400002D03*
X112593400Y-127759998D03*
X113584000Y-136400002D03*
X106979400Y-127759998D03*
X108478000Y-127759998D03*
D16*
X107728700Y-127759998D03*
X107728700Y-136400002D03*
D17*
X113088700Y-127759998D03*
X113088700Y-136400002D03*
%TD*%
D10*
%TO.C,JP2*%
X114853800Y-150164800D03*
D11*
X117393800Y-150164800D03*
%TD*%
D10*
%TO.C,J22*%
X106324400Y-110475000D03*
D11*
X106324400Y-107935000D03*
X106324400Y-105395000D03*
%TD*%
D18*
%TO.C,TP8*%
X192709800Y-120294400D03*
%TD*%
%TO.C,TP13*%
X188468000Y-115595400D03*
%TD*%
%TO.C,TP5*%
X154406600Y-142341600D03*
%TD*%
D13*
%TO.C,H2*%
X109600000Y-53025000D03*
X112825000Y-49800000D03*
X111880419Y-47519581D03*
X106375000Y-49800000D03*
D14*
X109600000Y-49800000D03*
D13*
X111880419Y-52080419D03*
X107319581Y-52080419D03*
X109600000Y-46575000D03*
X107319581Y-47519581D03*
%TD*%
D10*
%TO.C,JP4*%
X202568236Y-97815401D03*
D11*
X202568236Y-95275401D03*
%TD*%
D18*
%TO.C,TP17*%
X146761200Y-139293600D03*
%TD*%
%TO.C,TP6*%
X159969200Y-155143200D03*
%TD*%
%TO.C,TP11*%
X192354200Y-106019600D03*
%TD*%
%TO.C,TP4*%
X177673000Y-157099000D03*
%TD*%
D12*
%TO.C,U1*%
X166285400Y-143809400D03*
X171585400Y-143809400D03*
%TD*%
D10*
%TO.C,JP10*%
X141478000Y-152395000D03*
D11*
X141478000Y-154935000D03*
%TD*%
D10*
%TO.C,JP1*%
X114858800Y-153873200D03*
D11*
X117398800Y-153873200D03*
%TD*%
D10*
%TO.C,J24*%
X187147200Y-130149600D03*
%TD*%
%TO.C,J12*%
X135305800Y-150545800D03*
D11*
X132765800Y-150545800D03*
X130225800Y-150545800D03*
X127685800Y-150545800D03*
%TD*%
D18*
%TO.C,TP2*%
X156006800Y-151434800D03*
%TD*%
%TO.C,TP7*%
X188544200Y-120319800D03*
%TD*%
D10*
%TO.C,JP7*%
X151612600Y-152400000D03*
D11*
X151612600Y-154940000D03*
%TD*%
D10*
%TO.C,J15*%
X201091800Y-106222800D03*
D11*
X201091800Y-108762800D03*
X201091800Y-111302800D03*
X201091800Y-113842800D03*
X201091800Y-116382800D03*
X201091800Y-118922800D03*
X201091800Y-121462800D03*
X201091800Y-124002800D03*
X201091800Y-126542800D03*
X201091800Y-129082800D03*
X201091800Y-131622800D03*
X201091800Y-134162800D03*
X201091800Y-136702800D03*
X201091800Y-139242800D03*
X201091800Y-141782800D03*
X201091800Y-144322800D03*
X201091800Y-146862800D03*
X201091800Y-149402800D03*
X201091800Y-151942800D03*
X201091800Y-154482800D03*
%TD*%
D10*
%TO.C,J11*%
X135295800Y-155854400D03*
D11*
X132755800Y-155854400D03*
X130215800Y-155854400D03*
X127675800Y-155854400D03*
%TD*%
D18*
%TO.C,TP9*%
X192481200Y-115544600D03*
%TD*%
D19*
%TO.C,J6*%
X166619200Y-49408600D03*
X153319200Y-49408600D03*
%TD*%
D18*
%TO.C,TP15*%
X155923573Y-146743450D03*
%TD*%
D20*
%TO.C,J18*%
X116943112Y-142748040D03*
X109643112Y-142748040D03*
%TD*%
D10*
%TO.C,J20*%
X144830800Y-134670800D03*
%TD*%
%TO.C,J5*%
X205460600Y-84038199D03*
D11*
X205460600Y-86578199D03*
X205460600Y-89118199D03*
%TD*%
D18*
%TO.C,TP12*%
X192379600Y-110921800D03*
%TD*%
D10*
%TO.C,JP9*%
X149098000Y-152400000D03*
D11*
X149098000Y-154940000D03*
%TD*%
D10*
%TO.C,J21*%
X110439200Y-110525800D03*
D11*
X110439200Y-107985800D03*
X110439200Y-105445800D03*
%TD*%
D10*
%TO.C,J3*%
X182382000Y-154305000D03*
D11*
X184922000Y-154305000D03*
X187462000Y-154305000D03*
X190002000Y-154305000D03*
%TD*%
D18*
%TO.C,TP16*%
X149606000Y-125679200D03*
%TD*%
D10*
%TO.C,J1*%
X122504200Y-157581600D03*
D11*
X119964200Y-157581600D03*
X117424200Y-157581600D03*
%TD*%
D10*
%TO.C,JP11*%
X155036600Y-99898200D03*
D11*
X157576600Y-99898200D03*
%TD*%
D20*
%TO.C,SW1*%
X121581112Y-142748040D03*
X128881112Y-142748040D03*
%TD*%
D18*
%TO.C,TP3*%
X156006800Y-155346400D03*
%TD*%
D10*
%TO.C,J19*%
X153416000Y-126339600D03*
%TD*%
%TO.C,J17*%
X188950600Y-94208600D03*
D11*
X188950600Y-96748600D03*
X188950600Y-99288600D03*
%TD*%
D10*
%TO.C,J8*%
X163454000Y-140385800D03*
D11*
X165994000Y-140385800D03*
X168534000Y-140385800D03*
X171074000Y-140385800D03*
X173614000Y-140385800D03*
%TD*%
D10*
%TO.C,JP3*%
X199872601Y-97815401D03*
D11*
X199872601Y-95275401D03*
%TD*%
D10*
%TO.C,J16*%
X184835800Y-94284800D03*
D11*
X184835800Y-96824800D03*
X184835800Y-99364800D03*
%TD*%
D10*
%TO.C,J23*%
X153111200Y-121818400D03*
%TD*%
%TO.C,JP8*%
X146558000Y-152395000D03*
D11*
X146558000Y-154935000D03*
%TD*%
D10*
%TO.C,J2*%
X205206600Y-100355400D03*
D11*
X205206600Y-97815400D03*
X205206600Y-95275400D03*
%TD*%
D18*
%TO.C,TP14*%
X188391800Y-110794800D03*
%TD*%
D10*
%TO.C,JP5*%
X138811000Y-152395000D03*
D11*
X138811000Y-154935000D03*
%TD*%
D18*
%TO.C,TP1*%
X159918400Y-151282400D03*
%TD*%
%TO.C,TP10*%
X188391800Y-106070400D03*
%TD*%
M02*
