%TF.GenerationSoftware,KiCad,Pcbnew,6.0.4-6f826c9f35~116~ubuntu20.04.1*%
%TF.CreationDate,2022-04-10T19:12:30+02:00*%
%TF.ProjectId,THEIA,54484549-412e-46b6-9963-61645f706362,rev?*%
%TF.SameCoordinates,Original*%
%TF.FileFunction,Copper,L4,Bot*%
%TF.FilePolarity,Positive*%
%FSLAX46Y46*%
G04 Gerber Fmt 4.6, Leading zero omitted, Abs format (unit mm)*
G04 Created by KiCad (PCBNEW 6.0.4-6f826c9f35~116~ubuntu20.04.1) date 2022-04-10 19:12:30*
%MOMM*%
%LPD*%
G01*
G04 APERTURE LIST*
%TA.AperFunction,ComponentPad*%
%ADD10R,1.700000X1.700000*%
%TD*%
%TA.AperFunction,ComponentPad*%
%ADD11O,1.700000X1.700000*%
%TD*%
%TA.AperFunction,ComponentPad*%
%ADD12C,1.701800*%
%TD*%
%TA.AperFunction,ComponentPad*%
%ADD13C,0.900000*%
%TD*%
%TA.AperFunction,ComponentPad*%
%ADD14C,8.600000*%
%TD*%
%TA.AperFunction,ComponentPad*%
%ADD15O,2.667000X1.168400*%
%TD*%
%TA.AperFunction,ComponentPad*%
%ADD16O,2.159000X1.168400*%
%TD*%
%TA.AperFunction,ComponentPad*%
%ADD17C,2.500000*%
%TD*%
%TA.AperFunction,ComponentPad*%
%ADD18C,0.500000*%
%TD*%
%TA.AperFunction,SMDPad,CuDef*%
%ADD19R,5.000000X5.000000*%
%TD*%
%TA.AperFunction,ComponentPad*%
%ADD20C,2.710000*%
%TD*%
%TA.AperFunction,ViaPad*%
%ADD21C,0.508000*%
%TD*%
%TA.AperFunction,ViaPad*%
%ADD22C,0.400000*%
%TD*%
%TA.AperFunction,ViaPad*%
%ADD23C,1.508000*%
%TD*%
%TA.AperFunction,ViaPad*%
%ADD24C,1.250000*%
%TD*%
%TA.AperFunction,Conductor*%
%ADD25C,0.200000*%
%TD*%
%TA.AperFunction,Conductor*%
%ADD26C,0.600000*%
%TD*%
%TA.AperFunction,Conductor*%
%ADD27C,0.500000*%
%TD*%
%TA.AperFunction,Conductor*%
%ADD28C,0.300000*%
%TD*%
%TA.AperFunction,Conductor*%
%ADD29C,0.150000*%
%TD*%
G04 APERTURE END LIST*
D10*
%TO.P,J7,1,Pin_1*%
%TO.N,POWER-IN-*%
X205232000Y-121539000D03*
D11*
%TO.P,J7,2,Pin_2*%
X205232000Y-124079000D03*
%TO.P,J7,3,Pin_3*%
X205232000Y-126619000D03*
%TO.P,J7,4,Pin_4*%
X205232000Y-129159000D03*
%TO.P,J7,5,Pin_5*%
X205232000Y-131699000D03*
%TD*%
D10*
%TO.P,J9,1,Pin_1*%
%TO.N,VDD33*%
X205359000Y-106299000D03*
D11*
%TO.P,J9,2,Pin_2*%
X205359000Y-108839000D03*
%TO.P,J9,3,Pin_3*%
X205359000Y-111379000D03*
%TO.P,J9,4,Pin_4*%
X205359000Y-113919000D03*
%TO.P,J9,5,Pin_5*%
X205359000Y-116459000D03*
%TD*%
D12*
%TO.P,U2,1,1*%
%TO.N,POWER-IN-*%
X180306200Y-138069000D03*
%TO.P,U2,6,6*%
%TO.N,Net-(C2-Pad2)*%
X185606200Y-138069000D03*
%TD*%
D13*
%TO.P,H3,1*%
%TO.N,N/C*%
X208100000Y-52725000D03*
X211325000Y-49500000D03*
X205819581Y-47219581D03*
X210380419Y-47219581D03*
D14*
X208100000Y-49500000D03*
D13*
X208100000Y-46275000D03*
X210380419Y-51780419D03*
X205819581Y-51780419D03*
X204875000Y-49500000D03*
%TD*%
%TO.P,H4,1*%
%TO.N,N/C*%
X106175000Y-156500000D03*
X111680419Y-158780419D03*
X107119581Y-158780419D03*
X112625000Y-156500000D03*
X107119581Y-154219581D03*
D14*
X109400000Y-156500000D03*
D13*
X109400000Y-159725000D03*
X111680419Y-154219581D03*
X109400000Y-153275000D03*
%TD*%
D10*
%TO.P,JP6,1,A*%
%TO.N,/ESP32/TXD0*%
X144018000Y-152400000D03*
D11*
%TO.P,JP6,2,B*%
%TO.N,Net-(J10-Pad3)*%
X144018000Y-154940000D03*
%TD*%
D10*
%TO.P,J13,1,Pin_1*%
%TO.N,/ESP32/Micro SUB & USB-UART/RTS*%
X135305800Y-153212800D03*
D11*
%TO.P,J13,2,Pin_2*%
%TO.N,/ESP32/DTR*%
X132765800Y-153212800D03*
%TO.P,J13,3,Pin_3*%
%TO.N,/ESP32/EN*%
X130225800Y-153212800D03*
%TO.P,J13,4,Pin_4*%
%TO.N,/ESP32/IO0*%
X127685800Y-153212800D03*
%TD*%
D10*
%TO.P,J10,1,Pin_1*%
%TO.N,Net-(J10-Pad1)*%
X138912600Y-157607000D03*
D11*
%TO.P,J10,2,Pin_2*%
%TO.N,Net-(J10-Pad2)*%
X141452600Y-157607000D03*
%TO.P,J10,3,Pin_3*%
%TO.N,Net-(J10-Pad3)*%
X143992600Y-157607000D03*
%TO.P,J10,4,Pin_4*%
%TO.N,Net-(J10-Pad4)*%
X146532600Y-157607000D03*
%TO.P,J10,5,Pin_5*%
%TO.N,Net-(J10-Pad5)*%
X149072600Y-157607000D03*
%TO.P,J10,6,Pin_6*%
%TO.N,Net-(J10-Pad6)*%
X151612600Y-157607000D03*
%TD*%
D10*
%TO.P,J4,1,Pin_1*%
%TO.N,POWER-IN-*%
X205105000Y-136652000D03*
D11*
%TO.P,J4,2,Pin_2*%
%TO.N,/TMC5160-SMD/SPI_MODE*%
X205105000Y-139192000D03*
%TO.P,J4,3,Pin_3*%
%TO.N,VDD33*%
X205105000Y-141732000D03*
%TD*%
D10*
%TO.P,J14,1,Pin_1*%
%TO.N,VDD33*%
X196977000Y-106172000D03*
D11*
%TO.P,J14,2,Pin_2*%
%TO.N,/ESP32/EN*%
X196977000Y-108712000D03*
%TO.P,J14,3,Pin_3*%
%TO.N,/ESP32/SENSOR_VP*%
X196977000Y-111252000D03*
%TO.P,J14,4,Pin_4*%
%TO.N,/ESP32/SENSOR_VN*%
X196977000Y-113792000D03*
%TO.P,J14,5,Pin_5*%
%TO.N,/ESP32/IO34*%
X196977000Y-116332000D03*
%TO.P,J14,6,Pin_6*%
%TO.N,/ESP32/IO35*%
X196977000Y-118872000D03*
%TO.P,J14,7,Pin_7*%
%TO.N,/ESP32/IO32*%
X196977000Y-121412000D03*
%TO.P,J14,8,Pin_8*%
%TO.N,/ESP32/IO33*%
X196977000Y-123952000D03*
%TO.P,J14,9,Pin_9*%
%TO.N,/ESP32/IO25*%
X196977000Y-126492000D03*
%TO.P,J14,10,Pin_10*%
%TO.N,/ESP32/IO26*%
X196977000Y-129032000D03*
%TO.P,J14,11,Pin_11*%
%TO.N,/ESP32/IO27*%
X196977000Y-131572000D03*
%TO.P,J14,12,Pin_12*%
%TO.N,/ESP32/IO14*%
X196977000Y-134112000D03*
%TO.P,J14,13,Pin_13*%
%TO.N,/ESP32/IO12*%
X196977000Y-136652000D03*
%TO.P,J14,14,Pin_14*%
%TO.N,POWER-IN-*%
X196977000Y-139192000D03*
%TO.P,J14,15,Pin_15*%
%TO.N,/ESP32/IO13*%
X196977000Y-141732000D03*
%TO.P,J14,16,Pin_16*%
%TO.N,/ESP32/SD2*%
X196977000Y-144272000D03*
%TO.P,J14,17,Pin_17*%
%TO.N,/ESP32/SD3*%
X196977000Y-146812000D03*
%TO.P,J14,18,Pin_18*%
%TO.N,/ESP32/CMD*%
X196977000Y-149352000D03*
%TO.P,J14,19,Pin_19*%
%TO.N,EXT_5V*%
X196977000Y-151892000D03*
%TO.P,J14,20,Pin_20*%
%TO.N,unconnected-(J14-Pad20)*%
X196977000Y-154432000D03*
%TD*%
D13*
%TO.P,H1,1*%
%TO.N,N/C*%
X205619581Y-154119581D03*
X207900000Y-153175000D03*
X207900000Y-159625000D03*
D14*
X207900000Y-156400000D03*
D13*
X210180419Y-154119581D03*
X210180419Y-158680419D03*
X204675000Y-156400000D03*
X205619581Y-158680419D03*
X211125000Y-156400000D03*
%TD*%
D15*
%TO.P,J25,25*%
%TO.N,N/C*%
X107728700Y-127759998D03*
%TO.P,J25,26*%
X107728700Y-136400002D03*
D16*
%TO.P,J25,27*%
X113088700Y-127759998D03*
%TO.P,J25,28*%
X113088700Y-136400002D03*
%TD*%
D10*
%TO.P,JP2,1,A*%
%TO.N,5V-LEDS*%
X114853800Y-150164800D03*
D11*
%TO.P,JP2,2,B*%
%TO.N,Net-(J1-Pad3)*%
X117393800Y-150164800D03*
%TD*%
D10*
%TO.P,J22,1,Pin_1*%
%TO.N,POWER-IN-*%
X106324400Y-110475000D03*
D11*
%TO.P,J22,2,Pin_2*%
%TO.N,/ESP32/Micro SUB & USB-UART/RI*%
X106324400Y-107935000D03*
%TO.P,J22,3,Pin_3*%
%TO.N,VDD33*%
X106324400Y-105395000D03*
%TD*%
D17*
%TO.P,TP8,1,1*%
%TO.N,/ESP32/IO13*%
X192709800Y-120294400D03*
%TD*%
%TO.P,TP13,1,1*%
%TO.N,/MOSI*%
X188468000Y-115595400D03*
%TD*%
D18*
%TO.P,IC1,49,GNDP*%
%TO.N,POWER-IN-*%
X168724800Y-93802200D03*
X169849800Y-93802200D03*
X172099800Y-94927200D03*
X168724800Y-91552200D03*
X167599800Y-93802200D03*
X168724800Y-96052200D03*
X169849800Y-91552200D03*
X168724800Y-94927200D03*
X170974800Y-94927200D03*
X167599800Y-91552200D03*
X167599800Y-94927200D03*
X169849800Y-96052200D03*
X169849800Y-94927200D03*
X167599800Y-92677200D03*
X172099800Y-91552200D03*
X172099800Y-92677200D03*
X168724800Y-92677200D03*
X172099800Y-96052200D03*
X167599800Y-96052200D03*
X169849800Y-92677200D03*
X170974800Y-96052200D03*
D19*
X169849800Y-93802200D03*
D18*
X172099800Y-93802200D03*
X170974800Y-91552200D03*
X170974800Y-93802200D03*
X170974800Y-92677200D03*
%TD*%
D17*
%TO.P,TP5,1,1*%
%TO.N,/ESP32/IO2*%
X154406600Y-142341600D03*
%TD*%
D13*
%TO.P,H2,1*%
%TO.N,N/C*%
X109600000Y-53025000D03*
X112825000Y-49800000D03*
X111880419Y-47519581D03*
X106375000Y-49800000D03*
D14*
X109600000Y-49800000D03*
D13*
X111880419Y-52080419D03*
X107319581Y-52080419D03*
X109600000Y-46575000D03*
X107319581Y-47519581D03*
%TD*%
D10*
%TO.P,JP4,1,A*%
%TO.N,5V-LEDS*%
X202568236Y-97815401D03*
D11*
%TO.P,JP4,2,B*%
%TO.N,Net-(J2-Pad3)*%
X202568236Y-95275401D03*
%TD*%
D17*
%TO.P,TP17,1,1*%
%TO.N,/ESP32/Micro SUB & USB-UART/RTS*%
X146761200Y-139293600D03*
%TD*%
%TO.P,TP6,1,1*%
%TO.N,/ESP32/IO15*%
X159969200Y-155143200D03*
%TD*%
%TO.P,TP11,1,1*%
%TO.N,/CLK*%
X192354200Y-106019600D03*
%TD*%
%TO.P,TP4,1,1*%
%TO.N,/ESP32/IO15*%
X177673000Y-157099000D03*
%TD*%
D12*
%TO.P,U1,1,1*%
%TO.N,POWER-IN-*%
X166285400Y-143809400D03*
%TO.P,U1,6,6*%
%TO.N,Net-(C1-Pad2)*%
X171585400Y-143809400D03*
%TD*%
D10*
%TO.P,JP10,1,A*%
%TO.N,/ESP32/RXD0*%
X141478000Y-152395000D03*
D11*
%TO.P,JP10,2,B*%
%TO.N,Net-(J10-Pad2)*%
X141478000Y-154935000D03*
%TD*%
D10*
%TO.P,JP1,1,A*%
%TO.N,+12V*%
X114858800Y-153873200D03*
D11*
%TO.P,JP1,2,B*%
%TO.N,Net-(J1-Pad3)*%
X117398800Y-153873200D03*
%TD*%
D10*
%TO.P,J24,1,Pin_1*%
%TO.N,/ESP32/IO0*%
X187147200Y-130149600D03*
%TD*%
%TO.P,J12,1,Pin_1*%
%TO.N,VDD33*%
X135305800Y-150545800D03*
D11*
%TO.P,J12,2,Pin_2*%
X132765800Y-150545800D03*
%TO.P,J12,3,Pin_3*%
X130225800Y-150545800D03*
%TO.P,J12,4,Pin_4*%
X127685800Y-150545800D03*
%TD*%
D17*
%TO.P,TP2,1,1*%
%TO.N,/CS*%
X156006800Y-151434800D03*
%TD*%
%TO.P,TP7,1,1*%
%TO.N,/ESP32/RXD0*%
X188544200Y-120319800D03*
%TD*%
D10*
%TO.P,JP7,1,A*%
%TO.N,POWER-IN-*%
X151612600Y-152400000D03*
D11*
%TO.P,JP7,2,B*%
%TO.N,Net-(J10-Pad6)*%
X151612600Y-154940000D03*
%TD*%
D10*
%TO.P,J15,1,Pin_1*%
%TO.N,POWER-IN-*%
X201091800Y-106222800D03*
D11*
%TO.P,J15,2,Pin_2*%
%TO.N,/MOSI*%
X201091800Y-108762800D03*
%TO.P,J15,3,Pin_3*%
%TO.N,/ESP32/IO22*%
X201091800Y-111302800D03*
%TO.P,J15,4,Pin_4*%
%TO.N,/ESP32/TXD0*%
X201091800Y-113842800D03*
%TO.P,J15,5,Pin_5*%
%TO.N,/ESP32/RXD0*%
X201091800Y-116382800D03*
%TO.P,J15,6,Pin_6*%
%TO.N,/ESP32/IO21*%
X201091800Y-118922800D03*
%TO.P,J15,7,Pin_7*%
%TO.N,POWER-IN-*%
X201091800Y-121462800D03*
%TO.P,J15,8,Pin_8*%
%TO.N,/MISO*%
X201091800Y-124002800D03*
%TO.P,J15,9,Pin_9*%
%TO.N,/CLK*%
X201091800Y-126542800D03*
%TO.P,J15,10,Pin_10*%
%TO.N,/CS*%
X201091800Y-129082800D03*
%TO.P,J15,11,Pin_11*%
%TO.N,/ESP32/IO17*%
X201091800Y-131622800D03*
%TO.P,J15,12,Pin_12*%
%TO.N,/ESP32/IO16*%
X201091800Y-134162800D03*
%TO.P,J15,13,Pin_13*%
%TO.N,/ESP32/IO4*%
X201091800Y-136702800D03*
%TO.P,J15,14,Pin_14*%
%TO.N,/ESP32/IO0*%
X201091800Y-139242800D03*
%TO.P,J15,15,Pin_15*%
%TO.N,/ESP32/IO2*%
X201091800Y-141782800D03*
%TO.P,J15,16,Pin_16*%
%TO.N,/ESP32/IO15*%
X201091800Y-144322800D03*
%TO.P,J15,17,Pin_17*%
%TO.N,/ESP32/SD1*%
X201091800Y-146862800D03*
%TO.P,J15,18,Pin_18*%
%TO.N,/ESP32/SD0*%
X201091800Y-149402800D03*
%TO.P,J15,19,Pin_19*%
%TO.N,/ESP32/CLK*%
X201091800Y-151942800D03*
%TO.P,J15,20,Pin_20*%
%TO.N,unconnected-(J15-Pad20)*%
X201091800Y-154482800D03*
%TD*%
D10*
%TO.P,J11,1,Pin_1*%
%TO.N,POWER-IN-*%
X135295800Y-155854400D03*
D11*
%TO.P,J11,2,Pin_2*%
X132755800Y-155854400D03*
%TO.P,J11,3,Pin_3*%
X130215800Y-155854400D03*
%TO.P,J11,4,Pin_4*%
X127675800Y-155854400D03*
%TD*%
D17*
%TO.P,TP9,1,1*%
%TO.N,/ESP32/TXD0*%
X192481200Y-115544600D03*
%TD*%
D20*
%TO.P,J6,MP*%
%TO.N,N/C*%
X166619200Y-49408600D03*
X153319200Y-49408600D03*
%TD*%
D17*
%TO.P,TP15,1,1*%
%TO.N,/CS*%
X155923573Y-146743450D03*
%TD*%
D10*
%TO.P,J20,1,Pin_1*%
%TO.N,/ESP32/Micro SUB & USB-UART/RTS*%
X144830800Y-134670800D03*
%TD*%
%TO.P,J5,1,Pin_1*%
%TO.N,POWER-IN-*%
X205460600Y-84038199D03*
D11*
%TO.P,J5,2,Pin_2*%
%TO.N,/TMC5160-SMD/SD_MODE*%
X205460600Y-86578199D03*
%TO.P,J5,3,Pin_3*%
%TO.N,VDD33*%
X205460600Y-89118199D03*
%TD*%
D17*
%TO.P,TP12,1,1*%
%TO.N,/ESP32/IO35*%
X192379600Y-110921800D03*
%TD*%
D10*
%TO.P,JP9,1,A*%
%TO.N,/ESP32/CTS*%
X149098000Y-152400000D03*
D11*
%TO.P,JP9,2,B*%
%TO.N,Net-(J10-Pad5)*%
X149098000Y-154940000D03*
%TD*%
D10*
%TO.P,J21,1,Pin_1*%
%TO.N,POWER-IN-*%
X110439200Y-110525800D03*
D11*
%TO.P,J21,2,Pin_2*%
%TO.N,/ESP32/Micro SUB & USB-UART/DCD*%
X110439200Y-107985800D03*
%TO.P,J21,3,Pin_3*%
%TO.N,VDD33*%
X110439200Y-105445800D03*
%TD*%
D10*
%TO.P,J3,1,Pin_1*%
%TO.N,VDD33*%
X182382000Y-154305000D03*
D11*
%TO.P,J3,2,Pin_2*%
%TO.N,/ESP32/IO33*%
X184922000Y-154305000D03*
%TO.P,J3,3,Pin_3*%
%TO.N,/ESP32/IO32*%
X187462000Y-154305000D03*
%TO.P,J3,4,Pin_4*%
%TO.N,POWER-IN-*%
X190002000Y-154305000D03*
%TD*%
D17*
%TO.P,TP16,1,1*%
%TO.N,/ESP32/DTR*%
X149606000Y-125679200D03*
%TD*%
D10*
%TO.P,J1,1,Pin_1*%
%TO.N,POWER-IN-*%
X122504200Y-157581600D03*
D11*
%TO.P,J1,2,Pin_2*%
%TO.N,/ESP32/IO17*%
X119964200Y-157581600D03*
%TO.P,J1,3,Pin_3*%
%TO.N,Net-(J1-Pad3)*%
X117424200Y-157581600D03*
%TD*%
D10*
%TO.P,JP11,1,A*%
%TO.N,POWER-IN-*%
X155036600Y-99898200D03*
D11*
%TO.P,JP11,2,B*%
%TO.N,/TMC5160-SMD/CLK*%
X157576600Y-99898200D03*
%TD*%
D17*
%TO.P,TP3,1,1*%
%TO.N,/ESP32/IO0*%
X156006800Y-155346400D03*
%TD*%
D10*
%TO.P,J19,1,Pin_1*%
%TO.N,/ESP32/DTR*%
X153416000Y-126339600D03*
%TD*%
%TO.P,J17,1,Pin_1*%
%TO.N,VDD33*%
X188950600Y-94208600D03*
D11*
%TO.P,J17,2,Pin_2*%
%TO.N,/TMC5160-SMD/SPI_MODE*%
X188950600Y-96748600D03*
%TO.P,J17,3,Pin_3*%
%TO.N,POWER-IN-*%
X188950600Y-99288600D03*
%TD*%
D10*
%TO.P,J8,1,Pin_1*%
%TO.N,/ESP32/IO12*%
X163454000Y-140385800D03*
D11*
%TO.P,J8,2,Pin_2*%
%TO.N,/ESP32/IO15*%
X165994000Y-140385800D03*
%TO.P,J8,3,Pin_3*%
%TO.N,/ESP32/IO2*%
X168534000Y-140385800D03*
%TO.P,J8,4,Pin_4*%
%TO.N,/ESP32/IO0*%
X171074000Y-140385800D03*
%TO.P,J8,5,Pin_5*%
%TO.N,/CS*%
X173614000Y-140385800D03*
%TD*%
D10*
%TO.P,JP3,1,A*%
%TO.N,+12V*%
X199872601Y-97815401D03*
D11*
%TO.P,JP3,2,B*%
%TO.N,Net-(J2-Pad3)*%
X199872601Y-95275401D03*
%TD*%
D10*
%TO.P,J16,1,Pin_1*%
%TO.N,VDD33*%
X184835800Y-94284800D03*
D11*
%TO.P,J16,2,Pin_2*%
%TO.N,/TMC5160-SMD/SD_MODE*%
X184835800Y-96824800D03*
%TO.P,J16,3,Pin_3*%
%TO.N,POWER-IN-*%
X184835800Y-99364800D03*
%TD*%
D10*
%TO.P,J23,1,Pin_1*%
%TO.N,/ESP32/EN*%
X153111200Y-121818400D03*
%TD*%
%TO.P,JP8,1,A*%
%TO.N,VDD33*%
X146558000Y-152395000D03*
D11*
%TO.P,JP8,2,B*%
%TO.N,Net-(J10-Pad4)*%
X146558000Y-154935000D03*
%TD*%
D10*
%TO.P,J2,1,Pin_1*%
%TO.N,POWER-IN-*%
X205206600Y-100355400D03*
D11*
%TO.P,J2,2,Pin_2*%
%TO.N,unconnected-(J2-Pad2)*%
X205206600Y-97815400D03*
%TO.P,J2,3,Pin_3*%
%TO.N,Net-(J2-Pad3)*%
X205206600Y-95275400D03*
%TD*%
D17*
%TO.P,TP14,1,1*%
%TO.N,/ESP32/IO34*%
X188391800Y-110794800D03*
%TD*%
D10*
%TO.P,JP5,1,A*%
%TO.N,/ESP32/DTR*%
X138811000Y-152395000D03*
D11*
%TO.P,JP5,2,B*%
%TO.N,Net-(J10-Pad1)*%
X138811000Y-154935000D03*
%TD*%
D17*
%TO.P,TP1,1,1*%
%TO.N,/ESP32/IO12*%
X159918400Y-151282400D03*
%TD*%
%TO.P,TP10,1,1*%
%TO.N,/MISO*%
X188391800Y-106070400D03*
%TD*%
D21*
%TO.N,/ESP32/IO14*%
X176500000Y-113600000D03*
%TO.N,POWER-IN-*%
X177100000Y-112300000D03*
X166300000Y-99700000D03*
%TO.N,/ESP32/IO27*%
X169599800Y-97082342D03*
%TO.N,/ESP32/IO26*%
X169331977Y-100948589D03*
%TO.N,POWER-IN-*%
X170100000Y-100600000D03*
X172877446Y-93703650D03*
D22*
%TO.N,/ESP32/Micro SUB & USB-UART/USB-D_P*%
X112500000Y-132300000D03*
X113284000Y-131572000D03*
D21*
%TO.N,POWER-IN-*%
X114200000Y-128900000D03*
X116600000Y-130300000D03*
%TO.N,*%
X155092400Y-108686600D03*
%TO.N,POWER-IN-*%
X154300000Y-138800000D03*
X140900000Y-93700000D03*
X165500000Y-65600000D03*
X137500000Y-103900000D03*
X113710259Y-135420404D03*
X129400000Y-94500000D03*
X187000000Y-99200000D03*
X174900000Y-135400000D03*
X115200000Y-133500000D03*
X120650000Y-69977000D03*
X145440400Y-97140400D03*
X155800000Y-144300000D03*
X163700000Y-87700000D03*
X204400000Y-78300000D03*
X151074750Y-103725250D03*
X124714000Y-57404000D03*
X164900000Y-127600000D03*
X116900000Y-137300000D03*
X191900000Y-99800000D03*
X159000000Y-63700000D03*
X124200000Y-138600000D03*
X122400000Y-125300000D03*
X177800000Y-98400000D03*
X149400000Y-119200000D03*
X123300000Y-155600000D03*
X155036600Y-101636600D03*
X170800000Y-80100000D03*
X127900000Y-139100000D03*
X206200000Y-68000000D03*
X180900000Y-140300000D03*
X174900000Y-90000000D03*
X184300000Y-66600000D03*
X112700000Y-122100000D03*
X121919189Y-131820267D03*
X160767253Y-94546136D03*
X113000000Y-143800000D03*
X166800000Y-93400000D03*
X151200000Y-65500000D03*
X124400000Y-136700000D03*
X172200000Y-117500000D03*
X149900000Y-104900000D03*
X193700000Y-77500000D03*
X155642400Y-91557600D03*
X172216420Y-80800000D03*
X166200000Y-120600000D03*
X114700000Y-123000000D03*
X131100000Y-102000000D03*
X138800000Y-89400000D03*
X162600000Y-111900000D03*
X108900000Y-90300000D03*
X203400000Y-84600000D03*
X161600000Y-96800000D03*
X123700000Y-106600000D03*
X182500000Y-90900000D03*
X125800000Y-156500000D03*
X119045569Y-129500000D03*
X127700000Y-87200000D03*
X123500000Y-109200000D03*
X125800000Y-156500000D03*
%TO.N,Net-(C1-Pad2)*%
X173329600Y-137718800D03*
%TO.N,Net-(C2-Pad2)*%
X158851600Y-127939800D03*
X175738111Y-123626289D03*
X177948500Y-134848600D03*
%TO.N,/ESP32/IO0*%
X176250600Y-130860800D03*
X162542600Y-144492600D03*
X179273200Y-130860800D03*
X178625200Y-128169600D03*
X171077629Y-136326915D03*
%TO.N,/ESP32/EN*%
X156340900Y-126187200D03*
X148717000Y-130048000D03*
X143383000Y-141596611D03*
X152273000Y-127889000D03*
X161125200Y-114199600D03*
X180943599Y-113302542D03*
X147447000Y-131191000D03*
X144272000Y-137922000D03*
X168376600Y-114274600D03*
X164007800Y-114274600D03*
%TO.N,VDD33*%
X164871400Y-134874000D03*
X165760400Y-101836000D03*
X164363400Y-138353800D03*
X170611800Y-100798589D03*
X152501600Y-114960400D03*
X152501600Y-117475000D03*
X163830000Y-146431000D03*
X149047200Y-100380800D03*
X148971000Y-138557000D03*
X154330400Y-111912400D03*
X149047200Y-92659200D03*
X119583200Y-134772400D03*
%TO.N,+24V*%
X160248600Y-91236800D03*
D23*
X134366000Y-96672400D03*
X134620000Y-132207000D03*
X134569200Y-105867200D03*
D21*
X194919600Y-59994800D03*
D23*
X126492000Y-90805000D03*
D21*
X162204400Y-92557600D03*
X181330600Y-87223600D03*
D23*
X134518400Y-121818400D03*
X125603000Y-111760000D03*
X139141200Y-119380000D03*
D21*
X177507900Y-64452500D03*
D23*
X128828800Y-122478800D03*
D21*
X184663522Y-60636478D03*
X144780000Y-59690000D03*
X176606200Y-92456000D03*
%TO.N,5V-LEDS*%
X112420400Y-115100600D03*
%TO.N,/TMC5160-SMD/GREEN*%
X167081200Y-86487000D03*
X152685800Y-80175800D03*
%TO.N,Net-(C16-Pad2)*%
X163830000Y-88519000D03*
X164490400Y-91555700D03*
%TO.N,/TMC5160-SMD/BLUE*%
X176254500Y-81813400D03*
X170459400Y-86842600D03*
X176504600Y-76555600D03*
%TO.N,Net-(C17-Pad2)*%
X178329500Y-81813400D03*
X171119800Y-90780700D03*
%TO.N,/TMC5160-SMD/BLACK*%
X168599800Y-87559200D03*
X166128700Y-82715100D03*
X162890200Y-79476600D03*
%TO.N,Net-(C18-Pad2)*%
X163859300Y-82931000D03*
X169824400Y-88011000D03*
%TO.N,/TMC5160-SMD/RED*%
X172599800Y-87636800D03*
X177266600Y-83900100D03*
D23*
%TO.N,+12V*%
X125831600Y-81127600D03*
X122377200Y-85699600D03*
D21*
%TO.N,Net-(D2-Pad2)*%
X137972800Y-134772400D03*
X129844800Y-136067200D03*
%TO.N,Net-(IC1-Pad1)*%
X148158200Y-88239600D03*
X144164400Y-82213400D03*
%TO.N,/CS*%
X180289200Y-102641400D03*
X167106600Y-99339400D03*
X181991000Y-120878600D03*
X174091600Y-143637000D03*
X168833800Y-102641400D03*
X176784000Y-124129800D03*
%TO.N,/CLK*%
X184378600Y-119659400D03*
X185623200Y-131140200D03*
X181457600Y-104673400D03*
X184323300Y-115849400D03*
X180382600Y-114672800D03*
%TO.N,/MOSI*%
X179882800Y-112953800D03*
X179044600Y-101955600D03*
%TO.N,/MISO*%
X182519900Y-104419400D03*
X182519900Y-116919900D03*
X198400000Y-122200000D03*
X182519900Y-118991389D03*
X195400000Y-117700000D03*
X198800000Y-123700000D03*
%TO.N,/ESP32/IO26*%
X179778702Y-127666100D03*
X159138940Y-103364811D03*
X176072800Y-126161800D03*
X164134800Y-125399800D03*
X162504700Y-103073200D03*
X167800580Y-103193110D03*
X177481341Y-126361915D03*
X160070800Y-124333000D03*
%TO.N,/ESP32/IO27*%
X159588200Y-129870200D03*
X165455600Y-98856800D03*
X162610800Y-133853500D03*
X158351882Y-103292800D03*
X159994600Y-125476000D03*
%TO.N,/TMC5160-SMD/SD_MODE*%
X180238400Y-100965000D03*
%TO.N,/TMC5160-SMD/SPI_MODE*%
X177362120Y-100461500D03*
%TO.N,/ESP32/IO4*%
X183235600Y-123825000D03*
X183305884Y-104474548D03*
%TO.N,/ESP32/IO16*%
X184124600Y-104470200D03*
X186385211Y-124460000D03*
X183819800Y-122580400D03*
%TO.N,/ESP32/IO14*%
X194800000Y-114700000D03*
X194800000Y-112000000D03*
X174472600Y-98983800D03*
X189500000Y-132000000D03*
X189300000Y-128100000D03*
X185400000Y-108900000D03*
X179875818Y-111137212D03*
%TO.N,/ESP32/IO35*%
X177000000Y-96900000D03*
X182900000Y-100400000D03*
X173508800Y-98069400D03*
X195459968Y-111505653D03*
X194300000Y-108115989D03*
X175500000Y-98000000D03*
X163119901Y-111302798D03*
%TO.N,/ESP32/IO34*%
X180094450Y-109494450D03*
X192345244Y-108054756D03*
X175615600Y-96062800D03*
X196587129Y-110060670D03*
X162585400Y-117856000D03*
X179569151Y-108130850D03*
X180067616Y-112029796D03*
%TO.N,/ESP32/IO25*%
X163550600Y-124129789D03*
X186385200Y-125272800D03*
X157099000Y-112217200D03*
X159877261Y-111429800D03*
X170405704Y-96826810D03*
X157424700Y-121437400D03*
X180167029Y-122559829D03*
X182702200Y-121539000D03*
%TO.N,Net-(IC1-Pad36)*%
X173039164Y-80639164D03*
X175206993Y-87806993D03*
X175546392Y-84346392D03*
X190100000Y-72300000D03*
%TO.N,Net-(IC1-Pad38)*%
X194900000Y-87200000D03*
X173431200Y-86106000D03*
X172872400Y-83702400D03*
%TO.N,Net-(IC1-Pad39)*%
X176936400Y-86995000D03*
X186842400Y-79730600D03*
%TO.N,Net-(IC1-Pad41)*%
X170713400Y-83677000D03*
X179851000Y-54336600D03*
X171000000Y-73500000D03*
X170546300Y-88341200D03*
%TO.N,Net-(IC1-Pad44)*%
X144103400Y-70586600D03*
X146672729Y-88455929D03*
%TO.N,Net-(IC1-Pad46)*%
X167081200Y-66894400D03*
X169734220Y-85877400D03*
%TO.N,Net-(IC1-Pad47)*%
X155244800Y-65176400D03*
X167653300Y-88568264D03*
X155219400Y-67741800D03*
X159054800Y-81381600D03*
%TO.N,/ESP32/IO17*%
X181900000Y-124200000D03*
X162585400Y-128168400D03*
X188700000Y-126400000D03*
X178625200Y-124359600D03*
X182600000Y-125500000D03*
X180200000Y-125400000D03*
%TO.N,/ESP32/IO33*%
X186371600Y-123102000D03*
X194700000Y-140100000D03*
X180289200Y-120904000D03*
X162458400Y-122097800D03*
X184785000Y-121573389D03*
%TO.N,/ESP32/IO32*%
X190754000Y-131752611D03*
X190754000Y-129667000D03*
X192913000Y-142748000D03*
X180162200Y-123367800D03*
X164317100Y-123122789D03*
X185674000Y-135382000D03*
X190754000Y-134620000D03*
%TO.N,/ESP32/IO12*%
X162356800Y-129184400D03*
X170100000Y-150900000D03*
X163700000Y-152300000D03*
%TO.N,/ESP32/IO15*%
X169164000Y-136702800D03*
X168351200Y-144043400D03*
X165938200Y-142113000D03*
X174244000Y-130962400D03*
%TO.N,/ESP32/IO2*%
X175234600Y-130454400D03*
X160604200Y-143560800D03*
X159031871Y-143045871D03*
%TO.N,/ESP32/Micro SUB & USB-UART/RTS*%
X149352000Y-131572000D03*
X132166500Y-125933200D03*
%TO.N,/ESP32/DTR*%
X156921200Y-119634000D03*
X119253000Y-135763000D03*
X120742878Y-128489878D03*
X154432000Y-133350000D03*
%TO.N,/ESP32/SENSOR_VP*%
X168300000Y-110900000D03*
X184323300Y-109000000D03*
X184429400Y-113461800D03*
X162382200Y-115544600D03*
X178493971Y-110960089D03*
%TO.N,/ESP32/SENSOR_VN*%
X186169826Y-108815153D03*
X180446100Y-108068360D03*
X187400000Y-108400000D03*
X190300000Y-107066411D03*
X186700000Y-106600000D03*
X162500000Y-116600000D03*
%TO.N,/ESP32/IO13*%
X183400000Y-130900000D03*
X184886600Y-128498600D03*
X177287500Y-127889000D03*
X177368200Y-130302000D03*
%TO.N,/ESP32/SD2*%
X166928800Y-130860800D03*
X191300000Y-139300000D03*
X166776400Y-138049000D03*
%TO.N,/ESP32/SD3*%
X168224200Y-130911600D03*
%TO.N,/ESP32/CMD*%
X190029083Y-136970213D03*
X167538400Y-138150600D03*
X195908529Y-142491471D03*
X169595800Y-130683000D03*
%TO.N,/ESP32/IO22*%
X190500000Y-114800000D03*
%TO.N,/ESP32/TXD0*%
X180797200Y-116382800D03*
X159130800Y-132130800D03*
X195373989Y-115300000D03*
X180797200Y-132130800D03*
%TO.N,/ESP32/RXD0*%
X180136800Y-132638800D03*
X161442400Y-132638800D03*
X148234400Y-137261600D03*
X181400000Y-117896500D03*
X196188999Y-117811001D03*
X148234400Y-137261600D03*
%TO.N,/ESP32/IO21*%
X185700000Y-119000000D03*
X192100000Y-122580389D03*
X180000000Y-117800000D03*
%TO.N,/ESP32/SD1*%
X169138600Y-135940800D03*
X176987200Y-138433269D03*
X193522600Y-146100800D03*
X172262800Y-130860800D03*
%TO.N,/ESP32/SD0*%
X194818000Y-146308500D03*
X181944700Y-129570580D03*
%TO.N,/ESP32/CLK*%
X181989721Y-128673100D03*
D24*
%TO.N,POWER-IN+*%
X123707112Y-146589040D03*
X114817112Y-146589040D03*
D21*
%TO.N,/ESP32/CTS*%
X130800000Y-142000000D03*
%TO.N,Net-(Q2-Pad3)*%
X141325600Y-87807800D03*
X146304000Y-72136000D03*
X142976600Y-91948000D03*
%TO.N,Net-(Q4-Pad3)*%
X169037000Y-70612000D03*
X152908000Y-89281000D03*
X171450000Y-71755000D03*
X185998200Y-72294800D03*
%TO.N,Net-(Q11-Pad2)*%
X154700000Y-116800000D03*
X155400000Y-115800000D03*
%TO.N,/ESP32/Micro SUB & USB-UART/TXD*%
X129108800Y-128676400D03*
X128473200Y-130911600D03*
%TO.N,Net-(R32-Pad1)*%
X121822807Y-128122007D03*
X126008800Y-128676400D03*
%TO.N,EXT_5V*%
X123571000Y-140462000D03*
D23*
%TO.N,+5V*%
X128219200Y-97637600D03*
D21*
X176199800Y-94538800D03*
X178005193Y-85008793D03*
X145656300Y-90309700D03*
D23*
X128473200Y-107188000D03*
D21*
X174523400Y-85369400D03*
X158191200Y-97053400D03*
%TO.N,Net-(J25-PadB5)*%
X119065800Y-126212600D03*
%TD*%
D25*
%TO.N,/ESP32/IO14*%
X179875818Y-111137212D02*
X177413030Y-113600000D01*
X177413030Y-113600000D02*
X176500000Y-113600000D01*
%TO.N,/ESP32/IO26*%
X169343636Y-100960248D02*
X169343636Y-102843636D01*
X169331977Y-100948589D02*
X169343636Y-100960248D01*
%TO.N,/ESP32/IO27*%
X169600000Y-97082142D02*
X169599800Y-97082342D01*
X169600000Y-98700000D02*
X169600000Y-97082142D01*
%TO.N,/ESP32/IO25*%
X159877261Y-111429800D02*
X162001200Y-109305861D01*
X170405704Y-96657415D02*
X170405704Y-96826810D01*
X162001200Y-109305861D02*
X162001200Y-101599127D01*
X162001200Y-101599127D02*
X167048616Y-96551711D01*
X167048616Y-96551711D02*
X170300000Y-96551711D01*
X170300000Y-96551711D02*
X170405704Y-96657415D01*
%TO.N,/ESP32/IO27*%
X165612400Y-98700000D02*
X169600000Y-98700000D01*
X165455600Y-98856800D02*
X165612400Y-98700000D01*
D26*
%TO.N,POWER-IN-*%
X180306200Y-138069000D02*
X180306200Y-139706200D01*
X188950600Y-99288600D02*
X191388600Y-99288600D01*
X122504200Y-157581600D02*
X122504200Y-156395800D01*
X127675800Y-155854400D02*
X135295800Y-155854400D01*
X205460600Y-84038199D02*
X203961801Y-84038199D01*
D25*
X168322600Y-93400000D02*
X168724800Y-93802200D01*
D26*
X191388600Y-99288600D02*
X191900000Y-99800000D01*
X180306200Y-139706200D02*
X180900000Y-140300000D01*
X203961801Y-84038199D02*
X203400000Y-84600000D01*
D25*
X166800000Y-93400000D02*
X168322600Y-93400000D01*
D26*
X122504200Y-156395800D02*
X123300000Y-155600000D01*
D25*
%TO.N,Net-(C1-Pad2)*%
X172514489Y-140108711D02*
X172514489Y-138533911D01*
X171585400Y-143809400D02*
X172514489Y-142880311D01*
X172514489Y-142880311D02*
X172514489Y-140108711D01*
X172514489Y-138533911D02*
X173329600Y-137718800D01*
%TO.N,Net-(C2-Pad2)*%
X158851600Y-127939800D02*
X163165111Y-123626289D01*
X182385800Y-134848600D02*
X185606200Y-138069000D01*
X175738111Y-123626289D02*
X176992562Y-123626289D01*
X177948500Y-134115027D02*
X177948500Y-134848600D01*
X176992562Y-123626289D02*
X180340000Y-126973727D01*
X180340000Y-131723527D02*
X177948500Y-134115027D01*
X177948500Y-134848600D02*
X182385800Y-134848600D01*
X163165111Y-123626289D02*
X175738111Y-123626289D01*
X180340000Y-126973727D02*
X180340000Y-131723527D01*
%TO.N,/ESP32/IO0*%
X179273200Y-130860800D02*
X179273200Y-128817600D01*
X171074000Y-136037400D02*
X176250600Y-130860800D01*
X160539519Y-152781911D02*
X162542600Y-150778830D01*
X162542600Y-150778830D02*
X162542600Y-144492600D01*
X179273200Y-128817600D02*
X178625200Y-128169600D01*
X158571289Y-152781911D02*
X160539519Y-152781911D01*
X171074000Y-140385800D02*
X171074000Y-136037400D01*
X156006800Y-155346400D02*
X158571289Y-152781911D01*
%TO.N,/ESP32/EN*%
X130225800Y-153212800D02*
X131666289Y-151772311D01*
X140160045Y-141596611D02*
X143383000Y-141596611D01*
X196977000Y-108686600D02*
X196748400Y-108458000D01*
X143510000Y-137160000D02*
X143510000Y-131826000D01*
X131666289Y-150090367D02*
X140160045Y-141596611D01*
X131666289Y-151772311D02*
X131666289Y-150090367D01*
X161200200Y-114274600D02*
X161125200Y-114199600D01*
X179971541Y-114274600D02*
X168376600Y-114274600D01*
X180943599Y-113302542D02*
X179971541Y-114274600D01*
X150876000Y-127889000D02*
X152273000Y-127889000D01*
X196977000Y-108712000D02*
X196977000Y-108686600D01*
X148717000Y-130048000D02*
X150876000Y-127889000D01*
X143510000Y-131826000D02*
X144145000Y-131191000D01*
X144272000Y-137922000D02*
X143510000Y-137160000D01*
X164007800Y-114274600D02*
X161200200Y-114274600D01*
X144145000Y-131191000D02*
X147447000Y-131191000D01*
D27*
%TO.N,VDD33*%
X164363400Y-135382000D02*
X164871400Y-134874000D01*
X164363400Y-138353800D02*
X164363400Y-135382000D01*
D25*
%TO.N,Net-(C16-Pad2)*%
X163830000Y-90895300D02*
X164490400Y-91555700D01*
X163830000Y-88519000D02*
X163830000Y-90895300D01*
%TO.N,Net-(C17-Pad2)*%
X174019889Y-85160838D02*
X177367327Y-81813400D01*
X177367327Y-81813400D02*
X178329500Y-81813400D01*
X174019889Y-87880611D02*
X174019889Y-85160838D01*
X171119800Y-90780700D02*
X174019889Y-87880611D01*
%TO.N,Net-(C18-Pad2)*%
X169824400Y-88011000D02*
X164744400Y-82931000D01*
X164744400Y-82931000D02*
X163859300Y-82931000D01*
%TO.N,Net-(D2-Pad2)*%
X136678000Y-136067200D02*
X129844800Y-136067200D01*
X137972800Y-134772400D02*
X136678000Y-136067200D01*
%TO.N,Net-(IC1-Pad1)*%
X148158200Y-88239600D02*
X144164400Y-84245800D01*
X144164400Y-84245800D02*
X144164400Y-82213400D01*
%TO.N,/CS*%
X181991000Y-120878600D02*
X181991000Y-120023800D01*
X167106600Y-100914200D02*
X167106600Y-99339400D01*
X182016400Y-119998400D02*
X182016400Y-104368600D01*
X173614000Y-143159400D02*
X173614000Y-140385800D01*
X176784000Y-137215800D02*
X176784000Y-124129800D01*
X156006800Y-151434800D02*
X156006800Y-146826677D01*
X182016400Y-104368600D02*
X180289200Y-102641400D01*
X181991000Y-120023800D02*
X182016400Y-119998400D01*
X156006800Y-146826677D02*
X155923573Y-146743450D01*
X173614000Y-140385800D02*
X176784000Y-137215800D01*
X174091600Y-143637000D02*
X173614000Y-143159400D01*
X168833800Y-102641400D02*
X167106600Y-100914200D01*
%TO.N,/CLK*%
X195403967Y-131249111D02*
X196521567Y-130131511D01*
X197503089Y-130131511D02*
X201091800Y-126542800D01*
X196521567Y-130131511D02*
X197503089Y-130131511D01*
X185623200Y-131140200D02*
X185732111Y-131249111D01*
X181559200Y-104775000D02*
X181457600Y-104673400D01*
X184383089Y-127986984D02*
X186888711Y-125481362D01*
X185623200Y-131140200D02*
X184383089Y-129900089D01*
X184383089Y-129900089D02*
X184383089Y-127986984D01*
X184378600Y-119659400D02*
X184378600Y-115904700D01*
X181559200Y-112496600D02*
X181559200Y-104775000D01*
X186888711Y-125481362D02*
X186888711Y-122169511D01*
X180293700Y-114761700D02*
X180382600Y-114672800D01*
X181559200Y-113496200D02*
X181559200Y-112496600D01*
X185732111Y-131249111D02*
X195403967Y-131249111D01*
X184378600Y-115904700D02*
X184323300Y-115849400D01*
X186888711Y-122169511D02*
X184378600Y-119659400D01*
X180382600Y-114672800D02*
X181559200Y-113496200D01*
%TO.N,/MOSI*%
X180009800Y-112953800D02*
X179882800Y-112953800D01*
X180949600Y-112014000D02*
X180009800Y-112953800D01*
X179044600Y-101955600D02*
X179044600Y-102144350D01*
X179044600Y-102144350D02*
X180949600Y-104049350D01*
X180949600Y-104049350D02*
X180949600Y-112014000D01*
%TO.N,/MISO*%
X198400000Y-121280056D02*
X197319944Y-120200000D01*
X197319944Y-120200000D02*
X196750056Y-120200000D01*
X182519900Y-116919900D02*
X182519900Y-117919900D01*
X201091800Y-124002800D02*
X199102800Y-124002800D01*
X198400000Y-122200000D02*
X198400000Y-121280056D01*
X199102800Y-124002800D02*
X198800000Y-123700000D01*
X182519900Y-118181700D02*
X182549800Y-118211600D01*
X196750056Y-120200000D02*
X195400000Y-118849944D01*
X182519900Y-117919900D02*
X182519900Y-118181700D01*
X182519900Y-104419400D02*
X182519900Y-116919900D01*
X182519900Y-118991389D02*
X182519900Y-117919900D01*
X195400000Y-118849944D02*
X195400000Y-117700000D01*
%TO.N,/ESP32/IO26*%
X177481341Y-126361915D02*
X178883415Y-126361915D01*
X159373761Y-123635961D02*
X160070800Y-124333000D01*
X178883415Y-126361915D02*
X178883415Y-126770813D01*
X169337311Y-102849962D02*
X168834673Y-103352600D01*
X167960070Y-103352600D02*
X167800580Y-103193110D01*
X158292800Y-106070400D02*
X159373761Y-107151361D01*
X158292800Y-104210951D02*
X158292800Y-106070400D01*
X159138940Y-103364811D02*
X158292800Y-104210951D01*
X162560000Y-103251000D02*
X162504700Y-103195700D01*
X159373761Y-107151361D02*
X159373761Y-123635961D01*
X162617890Y-103193110D02*
X162560000Y-103251000D01*
X168834673Y-103352600D02*
X167960070Y-103352600D01*
X167800580Y-103193110D02*
X162617890Y-103193110D01*
X175310800Y-125399800D02*
X176072800Y-126161800D01*
X164134800Y-125399800D02*
X175310800Y-125399800D01*
X178883415Y-126770813D02*
X179778702Y-127666100D01*
X162504700Y-103195700D02*
X162504700Y-103073200D01*
%TO.N,/ESP32/IO27*%
X157943280Y-103701402D02*
X157943280Y-123424680D01*
X160172400Y-129870200D02*
X162610800Y-132308600D01*
X158351882Y-103292800D02*
X157943280Y-103701402D01*
X159588200Y-129870200D02*
X160172400Y-129870200D01*
X157943280Y-123424680D02*
X159994600Y-125476000D01*
X162610800Y-132308600D02*
X162610800Y-133853500D01*
X165476511Y-98835889D02*
X165455600Y-98856800D01*
%TO.N,/TMC5160-SMD/SD_MODE*%
X180695600Y-100965000D02*
X184835800Y-96824800D01*
X180238400Y-100965000D02*
X180695600Y-100965000D01*
%TO.N,/TMC5160-SMD/SPI_MODE*%
X187586311Y-95384311D02*
X188950600Y-96748600D01*
X177362120Y-100461500D02*
X182439309Y-95384311D01*
X203192000Y-139192000D02*
X205105000Y-139192000D01*
X182439309Y-95384311D02*
X187586311Y-95384311D01*
X203000000Y-105931978D02*
X203000000Y-139000000D01*
X188950600Y-96748600D02*
X193816622Y-96748600D01*
X177516100Y-100461500D02*
X177362120Y-100461500D01*
X193816622Y-96748600D02*
X203000000Y-105931978D01*
X203000000Y-139000000D02*
X203192000Y-139192000D01*
%TO.N,/ESP32/IO4*%
X183305884Y-123754716D02*
X183235600Y-123825000D01*
X183305884Y-104474548D02*
X183305884Y-123754716D01*
%TO.N,/ESP32/IO16*%
X184124600Y-104470200D02*
X183819800Y-104775000D01*
X183819800Y-122580400D02*
X184505611Y-122580400D01*
X183819800Y-104775000D02*
X183819800Y-122580400D01*
X184505611Y-122580400D02*
X186385211Y-124460000D01*
%TO.N,/ESP32/IO14*%
X194800000Y-111221570D02*
X191148341Y-107569911D01*
X184531911Y-107569911D02*
X184429400Y-107467400D01*
X184429400Y-107467400D02*
X184628111Y-107268689D01*
X194800000Y-114700000D02*
X194800000Y-122600000D01*
X185400000Y-108900000D02*
X185730089Y-108569911D01*
X184628111Y-107268689D02*
X184628111Y-103221111D01*
X183134000Y-101727000D02*
X179528073Y-101727000D01*
X176479200Y-100990400D02*
X174472600Y-98983800D01*
X179528073Y-101727000D02*
X178791473Y-100990400D01*
X189500000Y-134078073D02*
X189500000Y-132000000D01*
X179685806Y-110947200D02*
X179875818Y-111137212D01*
X185730089Y-107569911D02*
X184531911Y-107569911D01*
X196977000Y-134112000D02*
X195965489Y-135123511D01*
X190545438Y-135123511D02*
X189500000Y-134078073D01*
X191148341Y-107569911D02*
X185730089Y-107569911D01*
X189300000Y-128100000D02*
X194800000Y-122600000D01*
X195965489Y-135123511D02*
X190545438Y-135123511D01*
X178791473Y-100990400D02*
X176479200Y-100990400D01*
X185730089Y-108569911D02*
X185730089Y-107569911D01*
X184628111Y-103221111D02*
X183134000Y-101727000D01*
X194800000Y-112000000D02*
X194800000Y-111221570D01*
%TO.N,/ESP32/IO35*%
X195500000Y-112012073D02*
X195008562Y-112503511D01*
X177000000Y-96900000D02*
X176600000Y-96900000D01*
X193961311Y-112503511D02*
X192379600Y-110921800D01*
X188955230Y-100500000D02*
X183000000Y-100500000D01*
X163112384Y-109569184D02*
X163112384Y-111295281D01*
X176600000Y-96900000D02*
X175500000Y-98000000D01*
X173508800Y-98069400D02*
X173508800Y-99172768D01*
X194300000Y-105844770D02*
X188955230Y-100500000D01*
X195008562Y-112503511D02*
X193961311Y-112503511D01*
X183000000Y-100500000D02*
X182900000Y-100400000D01*
X194300000Y-108115989D02*
X194300000Y-105844770D01*
X163112384Y-111295281D02*
X163119901Y-111302798D01*
X173508800Y-99172768D02*
X163112384Y-109569184D01*
%TO.N,/ESP32/IO34*%
X173969089Y-98649111D02*
X175615600Y-97002600D01*
X173969089Y-106472311D02*
X175001511Y-106472311D01*
X180379329Y-109779329D02*
X180094450Y-109494450D01*
X175001511Y-106472311D02*
X175922990Y-106472311D01*
X194351158Y-110060670D02*
X192345244Y-108054756D01*
X180379329Y-111718083D02*
X180379329Y-109779329D01*
X175922990Y-106472311D02*
X177910612Y-106472311D01*
X162585400Y-117856000D02*
X173969089Y-106472311D01*
X180067616Y-112029796D02*
X180379329Y-111718083D01*
X177910612Y-106472311D02*
X179569151Y-108130850D01*
X173969089Y-106472311D02*
X173969089Y-98649111D01*
X175615600Y-97002600D02*
X175615600Y-96062800D01*
X196587129Y-110060670D02*
X194351158Y-110060670D01*
%TO.N,/ESP32/IO25*%
X159237078Y-128443311D02*
X158643038Y-128443311D01*
X158348089Y-127731238D02*
X158643038Y-127436289D01*
X157593760Y-121268340D02*
X157424700Y-121437400D01*
X182702200Y-124003673D02*
X183971327Y-125272800D01*
X182702200Y-121539000D02*
X182702200Y-124003673D01*
X157593760Y-112711960D02*
X157593760Y-121268340D01*
X183971327Y-125272800D02*
X186385200Y-125272800D01*
X158348089Y-128148362D02*
X158348089Y-127731238D01*
X157099000Y-112217200D02*
X157593760Y-112711960D01*
X158643038Y-128443311D02*
X158348089Y-128148362D01*
X163550600Y-124129789D02*
X159237078Y-128443311D01*
X158643038Y-127436289D02*
X158860815Y-127436289D01*
X163737275Y-122559829D02*
X180167029Y-122559829D01*
X158860815Y-127436289D02*
X163737275Y-122559829D01*
%TO.N,Net-(IC1-Pad36)*%
X175200758Y-78477569D02*
X173039164Y-80639164D01*
X175546392Y-87467594D02*
X175546392Y-84346392D01*
X190100000Y-72300000D02*
X183922431Y-78477569D01*
X175206993Y-87806993D02*
X175546392Y-87467594D01*
X179900000Y-78477569D02*
X175200758Y-78477569D01*
X183922431Y-78477569D02*
X179900000Y-78477569D01*
D26*
%TO.N,Net-(IC1-Pad38)*%
X177547711Y-79027089D02*
X172872400Y-83702400D01*
D25*
X173431200Y-86106000D02*
X173431200Y-84261200D01*
X173431200Y-84261200D02*
X172872400Y-83702400D01*
D26*
X194900000Y-87200000D02*
X194900000Y-86793284D01*
X187133805Y-79027089D02*
X177547711Y-79027089D01*
X194900000Y-86793284D02*
X187133805Y-79027089D01*
D28*
%TO.N,Net-(IC1-Pad39)*%
X180721000Y-86995000D02*
X180721000Y-86979705D01*
X186842400Y-80858305D02*
X186842400Y-79730600D01*
D25*
X176936400Y-86995000D02*
X180721000Y-86995000D01*
D28*
X180721000Y-86979705D02*
X186842400Y-80858305D01*
D25*
%TO.N,Net-(IC1-Pad41)*%
X170946489Y-63241111D02*
X179851000Y-54336600D01*
X170962911Y-83926511D02*
X170713400Y-83677000D01*
X170962911Y-87924589D02*
X170962911Y-83926511D01*
X170546300Y-88341200D02*
X170962911Y-87924589D01*
X171000000Y-73500000D02*
X170946489Y-73446489D01*
X170946489Y-73446489D02*
X170946489Y-63241111D01*
%TO.N,Net-(IC1-Pad44)*%
X143660889Y-70816711D02*
X143891000Y-70586600D01*
X143891000Y-70586600D02*
X144103400Y-70586600D01*
X146672729Y-88455929D02*
X143660889Y-85444089D01*
X143660889Y-85444089D02*
X143660889Y-70816711D01*
%TO.N,Net-(IC1-Pad46)*%
X169734220Y-85877400D02*
X169734220Y-69547420D01*
X169734220Y-69547420D02*
X167081200Y-66894400D01*
%TO.N,Net-(IC1-Pad47)*%
X165887400Y-88214200D02*
X166241464Y-88568264D01*
X155219400Y-65201800D02*
X155244800Y-65176400D01*
X155219400Y-67741800D02*
X155219400Y-65201800D01*
X166241464Y-88568264D02*
X167653300Y-88568264D01*
X159054800Y-81381600D02*
X165887400Y-88214200D01*
%TO.N,/ESP32/IO17*%
X190433073Y-130700000D02*
X190000000Y-130700000D01*
X147382319Y-137794089D02*
X148260711Y-138672481D01*
X148260711Y-139914719D02*
X148260711Y-139751711D01*
X182600000Y-125500000D02*
X182600000Y-124900000D01*
X191257511Y-127742489D02*
X191257511Y-129875562D01*
X147382319Y-136551851D02*
X147382319Y-137794089D01*
X162585400Y-128168400D02*
X161544000Y-129209800D01*
X190000000Y-130700000D02*
X188700000Y-129400000D01*
X191257511Y-129875562D02*
X190433073Y-130700000D01*
X119964200Y-157581600D02*
X121793000Y-155752800D01*
X188700000Y-129400000D02*
X188700000Y-126400000D01*
X158470600Y-129209800D02*
X158470600Y-130023473D01*
X158470600Y-130023473D02*
X153918793Y-134575280D01*
X201496433Y-122852489D02*
X196147511Y-122852489D01*
X202540830Y-130173770D02*
X202540830Y-123896886D01*
X180200000Y-125400000D02*
X179159600Y-124359600D01*
X179159600Y-124359600D02*
X178625200Y-124359600D01*
X128195584Y-140793111D02*
X147382319Y-140793111D01*
X149358890Y-134575280D02*
X147382319Y-136551851D01*
X202540830Y-123896886D02*
X201496433Y-122852489D01*
X153918793Y-134575280D02*
X149358890Y-134575280D01*
X196147511Y-122852489D02*
X191257511Y-127742489D01*
X121793000Y-147195695D02*
X128195584Y-140793111D01*
X121793000Y-155752800D02*
X121793000Y-147195695D01*
X182600000Y-124900000D02*
X181900000Y-124200000D01*
X147382319Y-140793111D02*
X148260711Y-139914719D01*
X161544000Y-129209800D02*
X158470600Y-129209800D01*
X201091800Y-131622800D02*
X202540830Y-130173770D01*
X148260711Y-138672481D02*
X148260711Y-139914719D01*
%TO.N,/ESP32/IO33*%
X202191311Y-126998233D02*
X202191311Y-126087367D01*
X200636367Y-127642311D02*
X201547233Y-127642311D01*
X197432433Y-140291511D02*
X198823575Y-138900369D01*
X201547233Y-125443289D02*
X198468289Y-125443289D01*
X194891511Y-140291511D02*
X197432433Y-140291511D01*
X184785000Y-121573389D02*
X186313611Y-123102000D01*
X198823575Y-129455103D02*
X200636367Y-127642311D01*
X198823575Y-138900369D02*
X198823575Y-129455103D01*
X198468289Y-125443289D02*
X196977000Y-123952000D01*
X179095400Y-122097800D02*
X180187600Y-121005600D01*
X180187600Y-121005600D02*
X180289200Y-120904000D01*
X194700000Y-140100000D02*
X194891511Y-140291511D01*
X201547233Y-127642311D02*
X202191311Y-126998233D01*
X162458400Y-122097800D02*
X179095400Y-122097800D01*
X202191311Y-126087367D02*
X201547233Y-125443289D01*
X186313611Y-123102000D02*
X186371600Y-123102000D01*
%TO.N,/ESP32/IO32*%
X190754000Y-127635000D02*
X196977000Y-121412000D01*
X185674000Y-135509000D02*
X185674000Y-135382000D01*
X190754000Y-129667000D02*
X190754000Y-127635000D01*
X192913000Y-142748000D02*
X185674000Y-135509000D01*
X164317100Y-123122789D02*
X176983357Y-123122789D01*
X190754000Y-134620000D02*
X190754000Y-131752611D01*
X177228368Y-123367800D02*
X180162200Y-123367800D01*
X176983357Y-123122789D02*
X177228368Y-123367800D01*
%TO.N,/ESP32/IO12*%
X165100000Y-150900000D02*
X163700000Y-152300000D01*
X162404000Y-140385800D02*
X158107689Y-144682111D01*
X163454000Y-140385800D02*
X162404000Y-140385800D01*
X163454000Y-130281600D02*
X162356800Y-129184400D01*
X158107689Y-149471689D02*
X159918400Y-151282400D01*
X158107689Y-144682111D02*
X158107689Y-149471689D01*
X170100000Y-150900000D02*
X165100000Y-150900000D01*
X163454000Y-140385800D02*
X163454000Y-130281600D01*
%TO.N,/ESP32/IO15*%
X164997169Y-143054031D02*
X165938200Y-142113000D01*
X174244000Y-131622800D02*
X174244000Y-130962400D01*
X201091800Y-144322800D02*
X203000000Y-146231000D01*
X164997169Y-150115231D02*
X164997169Y-143054031D01*
X201001000Y-157099000D02*
X177673000Y-157099000D01*
D26*
X177673000Y-157099000D02*
X161925000Y-157099000D01*
D25*
X203000000Y-146231000D02*
X203000000Y-155100000D01*
X203000000Y-155100000D02*
X201001000Y-157099000D01*
X169164000Y-136702800D02*
X174244000Y-131622800D01*
X159969200Y-155143200D02*
X164997169Y-150115231D01*
D26*
X161925000Y-157099000D02*
X159969200Y-155143200D01*
D25*
%TO.N,/ESP32/IO2*%
X178767799Y-153042311D02*
X201547233Y-153042311D01*
X172054238Y-130357289D02*
X174121489Y-130357289D01*
X174121489Y-130357289D02*
X174218600Y-130454400D01*
X162679689Y-141485311D02*
X167434489Y-141485311D01*
X199821800Y-143052800D02*
X201091800Y-141782800D01*
X201547233Y-150843289D02*
X200636367Y-150843289D01*
X202191311Y-152398233D02*
X202191311Y-151487367D01*
X160604200Y-143560800D02*
X162679689Y-141485311D01*
X168534000Y-140385800D02*
X168534000Y-133877527D01*
X168534000Y-142808512D02*
X178767799Y-153042311D01*
X201547233Y-153042311D02*
X202191311Y-152398233D01*
X168534000Y-133877527D02*
X172054238Y-130357289D01*
X202191311Y-151487367D02*
X201547233Y-150843289D01*
X174039927Y-130454400D02*
X175234600Y-130454400D01*
X200636367Y-150843289D02*
X199821800Y-150028722D01*
X154406600Y-142341600D02*
X158327600Y-142341600D01*
X168534000Y-140385800D02*
X168534000Y-142808512D01*
X158327600Y-142341600D02*
X159031871Y-143045871D01*
X199821800Y-150028722D02*
X199821800Y-143052800D01*
X167434489Y-141485311D02*
X168534000Y-140385800D01*
%TO.N,Net-(J10-Pad1)*%
X138811000Y-157505400D02*
X138912600Y-157607000D01*
X138811000Y-154935000D02*
X138811000Y-157505400D01*
%TO.N,Net-(J10-Pad2)*%
X141478000Y-154935000D02*
X141478000Y-157581600D01*
X141478000Y-157581600D02*
X141452600Y-157607000D01*
%TO.N,Net-(J10-Pad3)*%
X144018000Y-154940000D02*
X144018000Y-157581600D01*
X144018000Y-157581600D02*
X143992600Y-157607000D01*
%TO.N,Net-(J10-Pad4)*%
X146558000Y-154935000D02*
X146558000Y-157581600D01*
X146558000Y-157581600D02*
X146532600Y-157607000D01*
%TO.N,Net-(J10-Pad5)*%
X149098000Y-154940000D02*
X149098000Y-157581600D01*
X149098000Y-157581600D02*
X149072600Y-157607000D01*
%TO.N,Net-(J10-Pad6)*%
X151612600Y-154940000D02*
X151612600Y-157607000D01*
%TO.N,/ESP32/Micro SUB & USB-UART/RTS*%
X144830800Y-134670800D02*
X144830800Y-137363200D01*
X149022073Y-131572000D02*
X149352000Y-131572000D01*
X143383273Y-125933200D02*
X149022073Y-131572000D01*
X144830800Y-134670800D02*
X146253200Y-134670800D01*
X144830800Y-137363200D02*
X146761200Y-139293600D01*
X132166500Y-125933200D02*
X143383273Y-125933200D01*
X146253200Y-134670800D02*
X149352000Y-131572000D01*
%TO.N,/ESP32/DTR*%
X149606000Y-125679200D02*
X152755600Y-125679200D01*
X138811000Y-152395000D02*
X138529289Y-152113289D01*
X156921200Y-122834400D02*
X153416000Y-126339600D01*
X133865311Y-152113289D02*
X132765800Y-153212800D01*
X120742878Y-134324795D02*
X120742878Y-128489878D01*
X153416000Y-132334000D02*
X153416000Y-126339600D01*
X138529289Y-152113289D02*
X133865311Y-152113289D01*
X156921200Y-119634000D02*
X156921200Y-122834400D01*
X152755600Y-125679200D02*
X153416000Y-126339600D01*
X119304673Y-135763000D02*
X120742878Y-134324795D01*
X119253000Y-135763000D02*
X119304673Y-135763000D01*
X154432000Y-133350000D02*
X153416000Y-132334000D01*
%TO.N,/ESP32/SENSOR_VP*%
X184450000Y-109126700D02*
X184323300Y-109000000D01*
X184429400Y-113461800D02*
X184429400Y-111170600D01*
X165964671Y-113235329D02*
X168300000Y-110900000D01*
X194767200Y-113461800D02*
X184429400Y-113461800D01*
X162382200Y-115544600D02*
X164184742Y-115544600D01*
X184450000Y-111150000D02*
X184450000Y-109126700D01*
X164184742Y-115544600D02*
X165964671Y-113764671D01*
X196977000Y-111252000D02*
X194767200Y-113461800D01*
X165964671Y-113764671D02*
X165964671Y-113235329D01*
X184429400Y-111170600D02*
X184450000Y-111150000D01*
%TO.N,/ESP32/SENSOR_VN*%
X195515573Y-107612489D02*
X194508562Y-108619500D01*
X190586363Y-106513637D02*
X190586363Y-106780048D01*
X200023233Y-110203289D02*
X197432433Y-107612489D01*
X162500000Y-116600000D02*
X162081889Y-117018111D01*
X179300000Y-109214460D02*
X180446100Y-108068360D01*
X172600000Y-111463589D02*
X178836411Y-111463589D01*
X189891311Y-105391311D02*
X188800000Y-104300000D01*
X162376838Y-118359511D02*
X164586638Y-118359511D01*
X179300000Y-110500000D02*
X179300000Y-109214460D01*
X202191311Y-111758233D02*
X202191311Y-110847367D01*
X190586363Y-106513637D02*
X189891311Y-105818585D01*
X194508562Y-108619500D02*
X193622060Y-108619500D01*
X190586363Y-106780048D02*
X190300000Y-107066411D01*
X167873089Y-115073060D02*
X167873089Y-113900807D01*
X162081889Y-117018111D02*
X162081889Y-118064562D01*
X202191311Y-110847367D02*
X201547233Y-110203289D01*
X187400000Y-108400000D02*
X186584979Y-108400000D01*
X189891311Y-105818585D02*
X189891311Y-105391311D01*
X188800000Y-104300000D02*
X188041570Y-104300000D01*
X167873089Y-113900807D02*
X170310307Y-111463589D01*
X164586638Y-118359511D02*
X167873089Y-115073060D01*
X201547233Y-110203289D02*
X200023233Y-110203289D01*
X197432433Y-107612489D02*
X195515573Y-107612489D01*
X192553806Y-107551245D02*
X191623971Y-107551245D01*
X178836411Y-111463589D02*
X179300000Y-111000000D01*
X188041570Y-104300000D02*
X186700000Y-105641570D01*
X193622060Y-108619500D02*
X192553806Y-107551245D01*
X200636367Y-112402311D02*
X201547233Y-112402311D01*
X186584979Y-108400000D02*
X186169826Y-108815153D01*
X196977000Y-113792000D02*
X199246678Y-113792000D01*
X201547233Y-112402311D02*
X202191311Y-111758233D01*
X170310307Y-111463589D02*
X172600000Y-111463589D01*
X162081889Y-118064562D02*
X162376838Y-118359511D01*
X199246678Y-113792000D02*
X200636367Y-112402311D01*
X186700000Y-105641570D02*
X186700000Y-106600000D01*
X191623971Y-107551245D02*
X190586363Y-106513637D01*
X179300000Y-111000000D02*
X179300000Y-110500000D01*
%TO.N,/ESP32/IO13*%
X177368200Y-127969700D02*
X177368200Y-130302000D01*
X184670927Y-130900000D02*
X183400000Y-130900000D01*
X195502927Y-141732000D02*
X184670927Y-130900000D01*
X184886600Y-128498600D02*
X184886600Y-128117600D01*
X196977000Y-141732000D02*
X195502927Y-141732000D01*
X184886600Y-128117600D02*
X192709800Y-120294400D01*
X177287500Y-127889000D02*
X177368200Y-127969700D01*
%TO.N,/ESP32/SD2*%
X196977000Y-144272000D02*
X192025279Y-139320279D01*
X167792400Y-131724400D02*
X167792400Y-137033000D01*
X191300000Y-139300000D02*
X192005000Y-139300000D01*
X192005000Y-139300000D02*
X192025279Y-139320279D01*
X166928800Y-130860800D02*
X167792400Y-131724400D01*
X192025279Y-139320279D02*
X191957299Y-139320279D01*
X167792400Y-137033000D02*
X166776400Y-138049000D01*
X166776400Y-138049000D02*
X166776400Y-138074400D01*
%TO.N,/ESP32/SD3*%
X168224200Y-130911600D02*
X169184911Y-129950889D01*
X169633511Y-136983593D02*
X169633511Y-143413728D01*
X175443162Y-129950889D02*
X175738111Y-130245838D01*
X169184911Y-129950889D02*
X175443162Y-129950889D01*
X175738111Y-130245838D02*
X175738111Y-130878993D01*
X169633511Y-143413728D02*
X173031783Y-146812000D01*
X173031783Y-146812000D02*
X196977000Y-146812000D01*
X175738111Y-130878993D02*
X169633511Y-136983593D01*
%TO.N,/ESP32/CMD*%
X168184481Y-137504519D02*
X167538400Y-138150600D01*
X189958870Y-136900000D02*
X190029083Y-136970213D01*
X190099296Y-136900000D02*
X189958870Y-136900000D01*
X168184481Y-137144808D02*
X168184481Y-137504519D01*
X195690767Y-142491471D02*
X190099296Y-136900000D01*
X195908529Y-142491471D02*
X195690767Y-142491471D01*
X169595800Y-130683000D02*
X168184481Y-132094319D01*
X168184481Y-132094319D02*
X168184481Y-137144808D01*
%TO.N,/ESP32/IO22*%
X199702111Y-112692489D02*
X196030807Y-112692489D01*
X196030807Y-112692489D02*
X194678207Y-114045089D01*
X191254911Y-114045089D02*
X190500000Y-114800000D01*
X194678207Y-114045089D02*
X191254911Y-114045089D01*
X201091800Y-111302800D02*
X199702111Y-112692489D01*
%TO.N,/ESP32/TXD0*%
X195523509Y-115150480D02*
X195373989Y-115300000D01*
X180797200Y-132130800D02*
X180797200Y-116382800D01*
X144018000Y-152400000D02*
X144018000Y-150557495D01*
X161945911Y-132430238D02*
X161646473Y-132130800D01*
X201091800Y-113842800D02*
X199784120Y-115150480D01*
X161569208Y-134277387D02*
X161945911Y-133900684D01*
X161646473Y-132130800D02*
X159130800Y-132130800D01*
X199784120Y-115150480D02*
X195523509Y-115150480D01*
X161945911Y-133900684D02*
X161945911Y-132430238D01*
X160298108Y-134277387D02*
X161569208Y-134277387D01*
X144018000Y-150557495D02*
X160298108Y-134277387D01*
%TO.N,/ESP32/RXD0*%
X150571200Y-134924800D02*
X159156400Y-134924800D01*
X180141289Y-132634311D02*
X180136800Y-132638800D01*
X181005762Y-132634311D02*
X181356000Y-132284073D01*
X148234400Y-137261600D02*
X150571200Y-134924800D01*
X200043089Y-117431511D02*
X201091800Y-116382800D01*
X161442400Y-132638800D02*
X161437911Y-132634311D01*
X181356000Y-132284073D02*
X181356000Y-118160800D01*
X196188999Y-117811001D02*
X196568489Y-117431511D01*
X196568489Y-117431511D02*
X200043089Y-117431511D01*
X159156400Y-134924800D02*
X161442400Y-132638800D01*
X181005762Y-132634311D02*
X180141289Y-132634311D01*
%TO.N,/ESP32/IO21*%
X192100000Y-122580389D02*
X192544441Y-122580389D01*
X192544441Y-122580389D02*
X194209311Y-120915519D01*
X194209311Y-119109311D02*
X193500000Y-118400000D01*
X186300000Y-118400000D02*
X185700000Y-119000000D01*
X193500000Y-118400000D02*
X186300000Y-118400000D01*
X194209311Y-120915519D02*
X194209311Y-119109311D01*
%TO.N,/ESP32/SD1*%
X172262800Y-130860800D02*
X168935400Y-134188200D01*
X168883520Y-134214680D02*
X168883520Y-135685720D01*
X184654731Y-146100800D02*
X193522600Y-146100800D01*
X168910000Y-134188200D02*
X168883520Y-134214680D01*
X168935400Y-134188200D02*
X168910000Y-134188200D01*
X176987200Y-138433269D02*
X184654731Y-146100800D01*
X168883520Y-135685720D02*
X169138600Y-135940800D01*
%TO.N,/ESP32/SD0*%
X194818000Y-145724583D02*
X194818000Y-146308500D01*
X181944700Y-129570580D02*
X181944700Y-132851283D01*
X181944700Y-132851283D02*
X194818000Y-145724583D01*
%TO.N,/ESP32/CLK*%
X198678800Y-149529800D02*
X201091800Y-151942800D01*
X182448200Y-129570580D02*
X182448200Y-131298144D01*
X182448200Y-131298144D02*
X196742856Y-145592800D01*
X182448200Y-129570580D02*
X182448200Y-129131579D01*
X196742856Y-145592800D02*
X198678800Y-145592800D01*
X198678800Y-145592800D02*
X198678800Y-149529800D01*
X182448200Y-129131579D02*
X181989721Y-128673100D01*
%TO.N,/ESP32/CTS*%
X142918489Y-153499511D02*
X142918489Y-151618489D01*
X149098000Y-152400000D02*
X147998489Y-153499511D01*
X130800000Y-143027578D02*
X130800000Y-142000000D01*
X133865311Y-151001233D02*
X133221233Y-151645311D01*
X129126289Y-153668233D02*
X129126289Y-144701289D01*
X133221233Y-151645311D02*
X132437367Y-151645311D01*
X142918489Y-151618489D02*
X136775476Y-145475476D01*
X131325311Y-153668233D02*
X130681233Y-154312311D01*
X136775476Y-145475476D02*
X133865311Y-148385641D01*
X132437367Y-151645311D02*
X131325311Y-152757367D01*
X129126289Y-144701289D02*
X130800000Y-143027578D01*
X129770367Y-154312311D02*
X129126289Y-153668233D01*
X131325311Y-152757367D02*
X131325311Y-153668233D01*
X130681233Y-154312311D02*
X129770367Y-154312311D01*
X133865311Y-148385641D02*
X133865311Y-151001233D01*
X147998489Y-153499511D02*
X142918489Y-153499511D01*
%TO.N,Net-(Q2-Pad3)*%
X146304000Y-72136000D02*
X146304000Y-72075127D01*
X142976600Y-91948000D02*
X141325600Y-90297000D01*
X143894838Y-70083089D02*
X141325600Y-72652327D01*
X141325600Y-72652327D02*
X141325600Y-87807800D01*
X141325600Y-90297000D02*
X141325600Y-87807800D01*
X146304000Y-72075127D02*
X144311962Y-70083089D01*
X144311962Y-70083089D02*
X143894838Y-70083089D01*
%TO.N,Net-(Q4-Pad3)*%
X152908000Y-89281000D02*
X152908000Y-86816327D01*
X185458400Y-71755000D02*
X185998200Y-72294800D01*
X171450000Y-71755000D02*
X185458400Y-71755000D01*
X169037000Y-70687327D02*
X169037000Y-70612000D01*
X152908000Y-86816327D02*
X169037000Y-70687327D01*
%TO.N,Net-(Q11-Pad2)*%
X155400000Y-116100000D02*
X154700000Y-116800000D01*
X155400000Y-115800000D02*
X155400000Y-116100000D01*
%TO.N,/ESP32/Micro SUB & USB-UART/TXD*%
X128473200Y-130911600D02*
X129108800Y-130276000D01*
X129108800Y-130276000D02*
X129108800Y-128676400D01*
%TO.N,Net-(R32-Pad1)*%
X125454407Y-128122007D02*
X126008800Y-128676400D01*
X121822807Y-128122007D02*
X125454407Y-128122007D01*
D29*
%TO.N,/ESP32/Micro SUB & USB-UART/USB-D_P*%
X112522000Y-132334000D02*
X113284000Y-131572000D01*
D25*
%TO.N,+5V*%
X178739800Y-91998800D02*
X178739800Y-89585800D01*
X176432889Y-86581097D02*
X178005193Y-85008793D01*
X177157313Y-88003313D02*
X176432889Y-87278889D01*
X176199800Y-94538800D02*
X178739800Y-91998800D01*
X176432889Y-87278889D02*
X176432889Y-86581097D01*
X178739800Y-89585800D02*
X177157313Y-88003313D01*
%TO.N,Net-(J25-PadB5)*%
X117576600Y-126212600D02*
X119065800Y-126212600D01*
X111759680Y-132029520D02*
X117576600Y-126212600D01*
X112166400Y-132842000D02*
X111759680Y-132435280D01*
X111759680Y-132435280D02*
X111759680Y-132029520D01*
%TD*%
M02*
