%TF.GenerationSoftware,KiCad,Pcbnew,6.0.4-6f826c9f35~116~ubuntu20.04.1*%
%TF.CreationDate,2022-04-10T19:12:30+02:00*%
%TF.ProjectId,THEIA,54484549-412e-46b6-9963-61645f706362,rev?*%
%TF.SameCoordinates,Original*%
%TF.FileFunction,Legend,Top*%
%TF.FilePolarity,Positive*%
%FSLAX46Y46*%
G04 Gerber Fmt 4.6, Leading zero omitted, Abs format (unit mm)*
G04 Created by KiCad (PCBNEW 6.0.4-6f826c9f35~116~ubuntu20.04.1) date 2022-04-10 19:12:30*
%MOMM*%
%LPD*%
G01*
G04 APERTURE LIST*
%ADD10C,0.150000*%
%ADD11C,0.098425*%
%ADD12C,0.120000*%
%ADD13C,0.127000*%
%ADD14C,0.100000*%
G04 APERTURE END LIST*
D10*
%TO.C,U3*%
X169038095Y-102352380D02*
X169038095Y-103161904D01*
X169085714Y-103257142D01*
X169133333Y-103304761D01*
X169228571Y-103352380D01*
X169419047Y-103352380D01*
X169514285Y-103304761D01*
X169561904Y-103257142D01*
X169609523Y-103161904D01*
X169609523Y-102352380D01*
X169990476Y-102352380D02*
X170609523Y-102352380D01*
X170276190Y-102733333D01*
X170419047Y-102733333D01*
X170514285Y-102780952D01*
X170561904Y-102828571D01*
X170609523Y-102923809D01*
X170609523Y-103161904D01*
X170561904Y-103257142D01*
X170514285Y-103304761D01*
X170419047Y-103352380D01*
X170133333Y-103352380D01*
X170038095Y-103304761D01*
X169990476Y-103257142D01*
X165038095Y-107366666D02*
X165514285Y-107366666D01*
X164942857Y-107652380D02*
X165276190Y-106652380D01*
X165609523Y-107652380D01*
X165942857Y-106985714D02*
X165942857Y-107652380D01*
X165942857Y-107080952D02*
X165990476Y-107033333D01*
X166085714Y-106985714D01*
X166228571Y-106985714D01*
X166323809Y-107033333D01*
X166371428Y-107128571D01*
X166371428Y-107652380D01*
X166704761Y-106985714D02*
X167085714Y-106985714D01*
X166847619Y-106652380D02*
X166847619Y-107509523D01*
X166895238Y-107604761D01*
X166990476Y-107652380D01*
X167085714Y-107652380D01*
X167800000Y-107604761D02*
X167704761Y-107652380D01*
X167514285Y-107652380D01*
X167419047Y-107604761D01*
X167371428Y-107509523D01*
X167371428Y-107128571D01*
X167419047Y-107033333D01*
X167514285Y-106985714D01*
X167704761Y-106985714D01*
X167800000Y-107033333D01*
X167847619Y-107128571D01*
X167847619Y-107223809D01*
X167371428Y-107319047D01*
X168276190Y-106985714D02*
X168276190Y-107652380D01*
X168276190Y-107080952D02*
X168323809Y-107033333D01*
X168419047Y-106985714D01*
X168561904Y-106985714D01*
X168657142Y-107033333D01*
X168704761Y-107128571D01*
X168704761Y-107652380D01*
X169180952Y-106985714D02*
X169180952Y-107652380D01*
X169180952Y-107080952D02*
X169228571Y-107033333D01*
X169323809Y-106985714D01*
X169466666Y-106985714D01*
X169561904Y-107033333D01*
X169609523Y-107128571D01*
X169609523Y-107652380D01*
X170514285Y-107652380D02*
X170514285Y-107128571D01*
X170466666Y-107033333D01*
X170371428Y-106985714D01*
X170180952Y-106985714D01*
X170085714Y-107033333D01*
X170514285Y-107604761D02*
X170419047Y-107652380D01*
X170180952Y-107652380D01*
X170085714Y-107604761D01*
X170038095Y-107509523D01*
X170038095Y-107414285D01*
X170085714Y-107319047D01*
X170180952Y-107271428D01*
X170419047Y-107271428D01*
X170514285Y-107223809D01*
X171704761Y-107366666D02*
X172180952Y-107366666D01*
X171609523Y-107652380D02*
X171942857Y-106652380D01*
X172276190Y-107652380D01*
X172609523Y-107652380D02*
X172609523Y-106985714D01*
X172609523Y-107176190D02*
X172657142Y-107080952D01*
X172704761Y-107033333D01*
X172800000Y-106985714D01*
X172895238Y-106985714D01*
X173609523Y-107604761D02*
X173514285Y-107652380D01*
X173323809Y-107652380D01*
X173228571Y-107604761D01*
X173180952Y-107509523D01*
X173180952Y-107128571D01*
X173228571Y-107033333D01*
X173323809Y-106985714D01*
X173514285Y-106985714D01*
X173609523Y-107033333D01*
X173657142Y-107128571D01*
X173657142Y-107223809D01*
X173180952Y-107319047D01*
X174514285Y-107652380D02*
X174514285Y-107128571D01*
X174466666Y-107033333D01*
X174371428Y-106985714D01*
X174180952Y-106985714D01*
X174085714Y-107033333D01*
X174514285Y-107604761D02*
X174419047Y-107652380D01*
X174180952Y-107652380D01*
X174085714Y-107604761D01*
X174038095Y-107509523D01*
X174038095Y-107414285D01*
X174085714Y-107319047D01*
X174180952Y-107271428D01*
X174419047Y-107271428D01*
X174514285Y-107223809D01*
%TO.C,J7*%
X204898666Y-118661380D02*
X204898666Y-119375666D01*
X204851047Y-119518523D01*
X204755809Y-119613761D01*
X204612952Y-119661380D01*
X204517714Y-119661380D01*
X205279619Y-118661380D02*
X205946285Y-118661380D01*
X205517714Y-119661380D01*
%TO.C,J9*%
X205025666Y-103421380D02*
X205025666Y-104135666D01*
X204978047Y-104278523D01*
X204882809Y-104373761D01*
X204739952Y-104421380D01*
X204644714Y-104421380D01*
X205549476Y-104421380D02*
X205739952Y-104421380D01*
X205835190Y-104373761D01*
X205882809Y-104326142D01*
X205978047Y-104183285D01*
X206025666Y-103992809D01*
X206025666Y-103611857D01*
X205978047Y-103516619D01*
X205930428Y-103469000D01*
X205835190Y-103421380D01*
X205644714Y-103421380D01*
X205549476Y-103469000D01*
X205501857Y-103516619D01*
X205454238Y-103611857D01*
X205454238Y-103849952D01*
X205501857Y-103945190D01*
X205549476Y-103992809D01*
X205644714Y-104040428D01*
X205835190Y-104040428D01*
X205930428Y-103992809D01*
X205978047Y-103945190D01*
X206025666Y-103849952D01*
%TO.C,R3*%
X171994533Y-133684180D02*
X171661200Y-133207990D01*
X171423104Y-133684180D02*
X171423104Y-132684180D01*
X171804057Y-132684180D01*
X171899295Y-132731800D01*
X171946914Y-132779419D01*
X171994533Y-132874657D01*
X171994533Y-133017514D01*
X171946914Y-133112752D01*
X171899295Y-133160371D01*
X171804057Y-133207990D01*
X171423104Y-133207990D01*
X172327866Y-132684180D02*
X172946914Y-132684180D01*
X172613580Y-133065133D01*
X172756438Y-133065133D01*
X172851676Y-133112752D01*
X172899295Y-133160371D01*
X172946914Y-133255609D01*
X172946914Y-133493704D01*
X172899295Y-133588942D01*
X172851676Y-133636561D01*
X172756438Y-133684180D01*
X172470723Y-133684180D01*
X172375485Y-133636561D01*
X172327866Y-133588942D01*
%TO.C,D1*%
X165682704Y-137146380D02*
X165682704Y-136146380D01*
X165920800Y-136146380D01*
X166063657Y-136194000D01*
X166158895Y-136289238D01*
X166206514Y-136384476D01*
X166254133Y-136574952D01*
X166254133Y-136717809D01*
X166206514Y-136908285D01*
X166158895Y-137003523D01*
X166063657Y-137098761D01*
X165920800Y-137146380D01*
X165682704Y-137146380D01*
X167206514Y-137146380D02*
X166635085Y-137146380D01*
X166920800Y-137146380D02*
X166920800Y-136146380D01*
X166825561Y-136289238D01*
X166730323Y-136384476D01*
X166635085Y-136432095D01*
%TO.C,U2*%
X182408580Y-145536904D02*
X183218104Y-145536904D01*
X183313342Y-145489285D01*
X183360961Y-145441666D01*
X183408580Y-145346428D01*
X183408580Y-145155952D01*
X183360961Y-145060714D01*
X183313342Y-145013095D01*
X183218104Y-144965476D01*
X182408580Y-144965476D01*
X182503819Y-144536904D02*
X182456200Y-144489285D01*
X182408580Y-144394047D01*
X182408580Y-144155952D01*
X182456200Y-144060714D01*
X182503819Y-144013095D01*
X182599057Y-143965476D01*
X182694295Y-143965476D01*
X182837152Y-144013095D01*
X183408580Y-144584523D01*
X183408580Y-143965476D01*
X182456200Y-149227380D02*
X182408580Y-149322619D01*
X182408580Y-149465476D01*
X182456200Y-149608333D01*
X182551438Y-149703571D01*
X182646676Y-149751190D01*
X182837152Y-149798809D01*
X182980009Y-149798809D01*
X183170485Y-149751190D01*
X183265723Y-149703571D01*
X183360961Y-149608333D01*
X183408580Y-149465476D01*
X183408580Y-149370238D01*
X183360961Y-149227380D01*
X183313342Y-149179761D01*
X182980009Y-149179761D01*
X182980009Y-149370238D01*
X183408580Y-148751190D02*
X182408580Y-148751190D01*
X182408580Y-148370238D01*
X182456200Y-148275000D01*
X182503819Y-148227380D01*
X182599057Y-148179761D01*
X182741914Y-148179761D01*
X182837152Y-148227380D01*
X182884771Y-148275000D01*
X182932390Y-148370238D01*
X182932390Y-148751190D01*
X182408580Y-147894047D02*
X182408580Y-147322619D01*
X183408580Y-147608333D02*
X182408580Y-147608333D01*
X183360961Y-147036904D02*
X183408580Y-146894047D01*
X183408580Y-146655952D01*
X183360961Y-146560714D01*
X183313342Y-146513095D01*
X183218104Y-146465476D01*
X183122866Y-146465476D01*
X183027628Y-146513095D01*
X182980009Y-146560714D01*
X182932390Y-146655952D01*
X182884771Y-146846428D01*
X182837152Y-146941666D01*
X182789533Y-146989285D01*
X182694295Y-147036904D01*
X182599057Y-147036904D01*
X182503819Y-146989285D01*
X182456200Y-146941666D01*
X182408580Y-146846428D01*
X182408580Y-146608333D01*
X182456200Y-146465476D01*
X182503819Y-146084523D02*
X182456200Y-146036904D01*
X182408580Y-145941666D01*
X182408580Y-145703571D01*
X182456200Y-145608333D01*
X182503819Y-145560714D01*
X182599057Y-145513095D01*
X182694295Y-145513095D01*
X182837152Y-145560714D01*
X183408580Y-146132142D01*
X183408580Y-145513095D01*
X182408580Y-144894047D02*
X182408580Y-144798809D01*
X182456200Y-144703571D01*
X182503819Y-144655952D01*
X182599057Y-144608333D01*
X182789533Y-144560714D01*
X183027628Y-144560714D01*
X183218104Y-144608333D01*
X183313342Y-144655952D01*
X183360961Y-144703571D01*
X183408580Y-144798809D01*
X183408580Y-144894047D01*
X183360961Y-144989285D01*
X183313342Y-145036904D01*
X183218104Y-145084523D01*
X183027628Y-145132142D01*
X182789533Y-145132142D01*
X182599057Y-145084523D01*
X182503819Y-145036904D01*
X182456200Y-144989285D01*
X182408580Y-144894047D01*
X182408580Y-144227380D02*
X182408580Y-143608333D01*
X182789533Y-143941666D01*
X182789533Y-143798809D01*
X182837152Y-143703571D01*
X182884771Y-143655952D01*
X182980009Y-143608333D01*
X183218104Y-143608333D01*
X183313342Y-143655952D01*
X183360961Y-143703571D01*
X183408580Y-143798809D01*
X183408580Y-144084523D01*
X183360961Y-144179761D01*
X183313342Y-144227380D01*
X182503819Y-143227380D02*
X182456200Y-143179761D01*
X182408580Y-143084523D01*
X182408580Y-142846428D01*
X182456200Y-142751190D01*
X182503819Y-142703571D01*
X182599057Y-142655952D01*
X182694295Y-142655952D01*
X182837152Y-142703571D01*
X183408580Y-143275000D01*
X183408580Y-142655952D01*
X183408580Y-141703571D02*
X183408580Y-142275000D01*
X183408580Y-141989285D02*
X182408580Y-141989285D01*
X182551438Y-142084523D01*
X182646676Y-142179761D01*
X182694295Y-142275000D01*
X183408580Y-140751190D02*
X183408580Y-141322619D01*
X183408580Y-141036904D02*
X182408580Y-141036904D01*
X182551438Y-141132142D01*
X182646676Y-141227380D01*
X182694295Y-141322619D01*
X182884771Y-139989285D02*
X182932390Y-139846428D01*
X182980009Y-139798809D01*
X183075247Y-139751190D01*
X183218104Y-139751190D01*
X183313342Y-139798809D01*
X183360961Y-139846428D01*
X183408580Y-139941666D01*
X183408580Y-140322619D01*
X182408580Y-140322619D01*
X182408580Y-139989285D01*
X182456200Y-139894047D01*
X182503819Y-139846428D01*
X182599057Y-139798809D01*
X182694295Y-139798809D01*
X182789533Y-139846428D01*
X182837152Y-139894047D01*
X182884771Y-139989285D01*
X182884771Y-140322619D01*
X179758580Y-138069000D02*
X179996676Y-138069000D01*
X179901438Y-138307095D02*
X179996676Y-138069000D01*
X179901438Y-137830904D01*
X180187152Y-138211857D02*
X179996676Y-138069000D01*
X180187152Y-137926142D01*
%TO.C,H3*%
X207338095Y-55252380D02*
X207338095Y-54252380D01*
X207338095Y-54728571D02*
X207909523Y-54728571D01*
X207909523Y-55252380D02*
X207909523Y-54252380D01*
X208290476Y-54252380D02*
X208909523Y-54252380D01*
X208576190Y-54633333D01*
X208719047Y-54633333D01*
X208814285Y-54680952D01*
X208861904Y-54728571D01*
X208909523Y-54823809D01*
X208909523Y-55061904D01*
X208861904Y-55157142D01*
X208814285Y-55204761D01*
X208719047Y-55252380D01*
X208433333Y-55252380D01*
X208338095Y-55204761D01*
X208290476Y-55157142D01*
%TO.C,R27*%
X132173742Y-132964180D02*
X131840409Y-132487990D01*
X131602314Y-132964180D02*
X131602314Y-131964180D01*
X131983266Y-131964180D01*
X132078504Y-132011800D01*
X132126123Y-132059419D01*
X132173742Y-132154657D01*
X132173742Y-132297514D01*
X132126123Y-132392752D01*
X132078504Y-132440371D01*
X131983266Y-132487990D01*
X131602314Y-132487990D01*
X132554695Y-132059419D02*
X132602314Y-132011800D01*
X132697552Y-131964180D01*
X132935647Y-131964180D01*
X133030885Y-132011800D01*
X133078504Y-132059419D01*
X133126123Y-132154657D01*
X133126123Y-132249895D01*
X133078504Y-132392752D01*
X132507076Y-132964180D01*
X133126123Y-132964180D01*
X133459457Y-131964180D02*
X134126123Y-131964180D01*
X133697552Y-132964180D01*
%TO.C,D4*%
X113358704Y-139847580D02*
X113358704Y-138847580D01*
X113596800Y-138847580D01*
X113739657Y-138895200D01*
X113834895Y-138990438D01*
X113882514Y-139085676D01*
X113930133Y-139276152D01*
X113930133Y-139419009D01*
X113882514Y-139609485D01*
X113834895Y-139704723D01*
X113739657Y-139799961D01*
X113596800Y-139847580D01*
X113358704Y-139847580D01*
X114787276Y-139180914D02*
X114787276Y-139847580D01*
X114549180Y-138799961D02*
X114311085Y-139514247D01*
X114930133Y-139514247D01*
%TO.C,Q6*%
X171738819Y-72764638D02*
X171691200Y-72859876D01*
X171595961Y-72955114D01*
X171453104Y-73097971D01*
X171405485Y-73193209D01*
X171405485Y-73288447D01*
X171643580Y-73240828D02*
X171595961Y-73336066D01*
X171500723Y-73431304D01*
X171310247Y-73478923D01*
X170976914Y-73478923D01*
X170786438Y-73431304D01*
X170691200Y-73336066D01*
X170643580Y-73240828D01*
X170643580Y-73050352D01*
X170691200Y-72955114D01*
X170786438Y-72859876D01*
X170976914Y-72812257D01*
X171310247Y-72812257D01*
X171500723Y-72859876D01*
X171595961Y-72955114D01*
X171643580Y-73050352D01*
X171643580Y-73240828D01*
X170643580Y-71955114D02*
X170643580Y-72145590D01*
X170691200Y-72240828D01*
X170738819Y-72288447D01*
X170881676Y-72383685D01*
X171072152Y-72431304D01*
X171453104Y-72431304D01*
X171548342Y-72383685D01*
X171595961Y-72336066D01*
X171643580Y-72240828D01*
X171643580Y-72050352D01*
X171595961Y-71955114D01*
X171548342Y-71907495D01*
X171453104Y-71859876D01*
X171215009Y-71859876D01*
X171119771Y-71907495D01*
X171072152Y-71955114D01*
X171024533Y-72050352D01*
X171024533Y-72240828D01*
X171072152Y-72336066D01*
X171119771Y-72383685D01*
X171215009Y-72431304D01*
%TO.C,R21*%
X111421942Y-97581980D02*
X111088609Y-97105790D01*
X110850514Y-97581980D02*
X110850514Y-96581980D01*
X111231466Y-96581980D01*
X111326704Y-96629600D01*
X111374323Y-96677219D01*
X111421942Y-96772457D01*
X111421942Y-96915314D01*
X111374323Y-97010552D01*
X111326704Y-97058171D01*
X111231466Y-97105790D01*
X110850514Y-97105790D01*
X111802895Y-96677219D02*
X111850514Y-96629600D01*
X111945752Y-96581980D01*
X112183847Y-96581980D01*
X112279085Y-96629600D01*
X112326704Y-96677219D01*
X112374323Y-96772457D01*
X112374323Y-96867695D01*
X112326704Y-97010552D01*
X111755276Y-97581980D01*
X112374323Y-97581980D01*
X113326704Y-97581980D02*
X112755276Y-97581980D01*
X113040990Y-97581980D02*
X113040990Y-96581980D01*
X112945752Y-96724838D01*
X112850514Y-96820076D01*
X112755276Y-96867695D01*
%TO.C,D5*%
X118054380Y-131903695D02*
X117054380Y-131903695D01*
X117054380Y-131665600D01*
X117102000Y-131522742D01*
X117197238Y-131427504D01*
X117292476Y-131379885D01*
X117482952Y-131332266D01*
X117625809Y-131332266D01*
X117816285Y-131379885D01*
X117911523Y-131427504D01*
X118006761Y-131522742D01*
X118054380Y-131665600D01*
X118054380Y-131903695D01*
X117054380Y-130427504D02*
X117054380Y-130903695D01*
X117530571Y-130951314D01*
X117482952Y-130903695D01*
X117435333Y-130808457D01*
X117435333Y-130570361D01*
X117482952Y-130475123D01*
X117530571Y-130427504D01*
X117625809Y-130379885D01*
X117863904Y-130379885D01*
X117959142Y-130427504D01*
X118006761Y-130475123D01*
X118054380Y-130570361D01*
X118054380Y-130808457D01*
X118006761Y-130903695D01*
X117959142Y-130951314D01*
%TO.C,H4*%
X108638095Y-151652380D02*
X108638095Y-150652380D01*
X108638095Y-151128571D02*
X109209523Y-151128571D01*
X109209523Y-151652380D02*
X109209523Y-150652380D01*
X110114285Y-150985714D02*
X110114285Y-151652380D01*
X109876190Y-150604761D02*
X109638095Y-151319047D01*
X110257142Y-151319047D01*
%TO.C,JP6*%
X143184666Y-149522380D02*
X143184666Y-150236666D01*
X143137047Y-150379523D01*
X143041809Y-150474761D01*
X142898952Y-150522380D01*
X142803714Y-150522380D01*
X143660857Y-150522380D02*
X143660857Y-149522380D01*
X144041809Y-149522380D01*
X144137047Y-149570000D01*
X144184666Y-149617619D01*
X144232285Y-149712857D01*
X144232285Y-149855714D01*
X144184666Y-149950952D01*
X144137047Y-149998571D01*
X144041809Y-150046190D01*
X143660857Y-150046190D01*
X145089428Y-149522380D02*
X144898952Y-149522380D01*
X144803714Y-149570000D01*
X144756095Y-149617619D01*
X144660857Y-149760476D01*
X144613238Y-149950952D01*
X144613238Y-150331904D01*
X144660857Y-150427142D01*
X144708476Y-150474761D01*
X144803714Y-150522380D01*
X144994190Y-150522380D01*
X145089428Y-150474761D01*
X145137047Y-150427142D01*
X145184666Y-150331904D01*
X145184666Y-150093809D01*
X145137047Y-149998571D01*
X145089428Y-149950952D01*
X144994190Y-149903333D01*
X144803714Y-149903333D01*
X144708476Y-149950952D01*
X144660857Y-149998571D01*
X144613238Y-150093809D01*
D11*
%TO.C,C25*%
X142231007Y-113292293D02*
X142249755Y-113311041D01*
X142268502Y-113367284D01*
X142268502Y-113404779D01*
X142249755Y-113461022D01*
X142212259Y-113498517D01*
X142174764Y-113517265D01*
X142099773Y-113536013D01*
X142043530Y-113536013D01*
X141968540Y-113517265D01*
X141931044Y-113498517D01*
X141893549Y-113461022D01*
X141874801Y-113404779D01*
X141874801Y-113367284D01*
X141893549Y-113311041D01*
X141912297Y-113292293D01*
X141912297Y-113142312D02*
X141893549Y-113123564D01*
X141874801Y-113086069D01*
X141874801Y-112992330D01*
X141893549Y-112954835D01*
X141912297Y-112936087D01*
X141949792Y-112917340D01*
X141987287Y-112917340D01*
X142043530Y-112936087D01*
X142268502Y-113161059D01*
X142268502Y-112917340D01*
X141874801Y-112561134D02*
X141874801Y-112748611D01*
X142062278Y-112767358D01*
X142043530Y-112748611D01*
X142024783Y-112711115D01*
X142024783Y-112617377D01*
X142043530Y-112579882D01*
X142062278Y-112561134D01*
X142099773Y-112542386D01*
X142193512Y-112542386D01*
X142231007Y-112561134D01*
X142249755Y-112579882D01*
X142268502Y-112617377D01*
X142268502Y-112711115D01*
X142249755Y-112748611D01*
X142231007Y-112767358D01*
D10*
%TO.C,C7*%
X141797589Y-108221712D02*
X141864932Y-108221712D01*
X141999619Y-108289056D01*
X142066963Y-108356400D01*
X142134306Y-108491087D01*
X142134306Y-108625774D01*
X142100635Y-108726789D01*
X141999619Y-108895148D01*
X141898604Y-108996163D01*
X141730245Y-109097178D01*
X141629230Y-109130850D01*
X141494543Y-109130850D01*
X141359856Y-109063506D01*
X141292512Y-108996163D01*
X141225169Y-108861476D01*
X141225169Y-108794132D01*
X140922123Y-108625774D02*
X140450719Y-108154369D01*
X141460871Y-107750308D01*
%TO.C,R2*%
X149617133Y-113253780D02*
X149283800Y-112777590D01*
X149045704Y-113253780D02*
X149045704Y-112253780D01*
X149426657Y-112253780D01*
X149521895Y-112301400D01*
X149569514Y-112349019D01*
X149617133Y-112444257D01*
X149617133Y-112587114D01*
X149569514Y-112682352D01*
X149521895Y-112729971D01*
X149426657Y-112777590D01*
X149045704Y-112777590D01*
X149998085Y-112349019D02*
X150045704Y-112301400D01*
X150140942Y-112253780D01*
X150379038Y-112253780D01*
X150474276Y-112301400D01*
X150521895Y-112349019D01*
X150569514Y-112444257D01*
X150569514Y-112539495D01*
X150521895Y-112682352D01*
X149950466Y-113253780D01*
X150569514Y-113253780D01*
%TO.C,C2*%
X176744333Y-133525742D02*
X176696714Y-133573361D01*
X176553857Y-133620980D01*
X176458619Y-133620980D01*
X176315761Y-133573361D01*
X176220523Y-133478123D01*
X176172904Y-133382885D01*
X176125285Y-133192409D01*
X176125285Y-133049552D01*
X176172904Y-132859076D01*
X176220523Y-132763838D01*
X176315761Y-132668600D01*
X176458619Y-132620980D01*
X176553857Y-132620980D01*
X176696714Y-132668600D01*
X176744333Y-132716219D01*
X177125285Y-132716219D02*
X177172904Y-132668600D01*
X177268142Y-132620980D01*
X177506238Y-132620980D01*
X177601476Y-132668600D01*
X177649095Y-132716219D01*
X177696714Y-132811457D01*
X177696714Y-132906695D01*
X177649095Y-133049552D01*
X177077666Y-133620980D01*
X177696714Y-133620980D01*
%TO.C,U8*%
X121157284Y-131272647D02*
X121157284Y-132082171D01*
X121204903Y-132177409D01*
X121252522Y-132225028D01*
X121347760Y-132272647D01*
X121538236Y-132272647D01*
X121633474Y-132225028D01*
X121681093Y-132177409D01*
X121728712Y-132082171D01*
X121728712Y-131272647D01*
X122347760Y-131701219D02*
X122252522Y-131653600D01*
X122204903Y-131605981D01*
X122157284Y-131510743D01*
X122157284Y-131463124D01*
X122204903Y-131367886D01*
X122252522Y-131320267D01*
X122347760Y-131272647D01*
X122538236Y-131272647D01*
X122633474Y-131320267D01*
X122681093Y-131367886D01*
X122728712Y-131463124D01*
X122728712Y-131510743D01*
X122681093Y-131605981D01*
X122633474Y-131653600D01*
X122538236Y-131701219D01*
X122347760Y-131701219D01*
X122252522Y-131748838D01*
X122204903Y-131796457D01*
X122157284Y-131891695D01*
X122157284Y-132082171D01*
X122204903Y-132177409D01*
X122252522Y-132225028D01*
X122347760Y-132272647D01*
X122538236Y-132272647D01*
X122633474Y-132225028D01*
X122681093Y-132177409D01*
X122728712Y-132082171D01*
X122728712Y-131891695D01*
X122681093Y-131796457D01*
X122633474Y-131748838D01*
X122538236Y-131701219D01*
X118477489Y-129522647D02*
X118477489Y-129760743D01*
X118239393Y-129665505D02*
X118477489Y-129760743D01*
X118715584Y-129665505D01*
X118334631Y-129951219D02*
X118477489Y-129760743D01*
X118620346Y-129951219D01*
X118477489Y-129522647D02*
X118477489Y-129760743D01*
X118239393Y-129665505D02*
X118477489Y-129760743D01*
X118715584Y-129665505D01*
X118334631Y-129951219D02*
X118477489Y-129760743D01*
X118620346Y-129951219D01*
%TO.C,J13*%
X137221092Y-154036286D02*
X137935378Y-154036286D01*
X138078235Y-154083905D01*
X138173473Y-154179143D01*
X138221092Y-154322001D01*
X138221092Y-154417239D01*
X138221092Y-153036286D02*
X138221092Y-153607715D01*
X138221092Y-153322001D02*
X137221092Y-153322001D01*
X137363950Y-153417239D01*
X137459188Y-153512477D01*
X137506807Y-153607715D01*
X137221092Y-152702953D02*
X137221092Y-152083905D01*
X137602045Y-152417239D01*
X137602045Y-152274382D01*
X137649664Y-152179143D01*
X137697283Y-152131524D01*
X137792521Y-152083905D01*
X138030616Y-152083905D01*
X138125854Y-152131524D01*
X138173473Y-152179143D01*
X138221092Y-152274382D01*
X138221092Y-152560096D01*
X138173473Y-152655334D01*
X138125854Y-152702953D01*
%TO.C,J10*%
X144190476Y-154452380D02*
X144190476Y-155166666D01*
X144142857Y-155309523D01*
X144047619Y-155404761D01*
X143904761Y-155452380D01*
X143809523Y-155452380D01*
X145190476Y-155452380D02*
X144619047Y-155452380D01*
X144904761Y-155452380D02*
X144904761Y-154452380D01*
X144809523Y-154595238D01*
X144714285Y-154690476D01*
X144619047Y-154738095D01*
X145809523Y-154452380D02*
X145904761Y-154452380D01*
X146000000Y-154500000D01*
X146047619Y-154547619D01*
X146095238Y-154642857D01*
X146142857Y-154833333D01*
X146142857Y-155071428D01*
X146095238Y-155261904D01*
X146047619Y-155357142D01*
X146000000Y-155404761D01*
X145904761Y-155452380D01*
X145809523Y-155452380D01*
X145714285Y-155404761D01*
X145666666Y-155357142D01*
X145619047Y-155261904D01*
X145571428Y-155071428D01*
X145571428Y-154833333D01*
X145619047Y-154642857D01*
X145666666Y-154547619D01*
X145714285Y-154500000D01*
X145809523Y-154452380D01*
%TO.C,R13*%
X190161942Y-78228180D02*
X189828609Y-77751990D01*
X189590514Y-78228180D02*
X189590514Y-77228180D01*
X189971466Y-77228180D01*
X190066704Y-77275800D01*
X190114323Y-77323419D01*
X190161942Y-77418657D01*
X190161942Y-77561514D01*
X190114323Y-77656752D01*
X190066704Y-77704371D01*
X189971466Y-77751990D01*
X189590514Y-77751990D01*
X191114323Y-78228180D02*
X190542895Y-78228180D01*
X190828609Y-78228180D02*
X190828609Y-77228180D01*
X190733371Y-77371038D01*
X190638133Y-77466276D01*
X190542895Y-77513895D01*
X191447657Y-77228180D02*
X192066704Y-77228180D01*
X191733371Y-77609133D01*
X191876228Y-77609133D01*
X191971466Y-77656752D01*
X192019085Y-77704371D01*
X192066704Y-77799609D01*
X192066704Y-78037704D01*
X192019085Y-78132942D01*
X191971466Y-78180561D01*
X191876228Y-78228180D01*
X191590514Y-78228180D01*
X191495276Y-78180561D01*
X191447657Y-78132942D01*
%TO.C,C20*%
X202069942Y-65412857D02*
X202117561Y-65460476D01*
X202165180Y-65603333D01*
X202165180Y-65698571D01*
X202117561Y-65841428D01*
X202022323Y-65936666D01*
X201927085Y-65984285D01*
X201736609Y-66031904D01*
X201593752Y-66031904D01*
X201403276Y-65984285D01*
X201308038Y-65936666D01*
X201212800Y-65841428D01*
X201165180Y-65698571D01*
X201165180Y-65603333D01*
X201212800Y-65460476D01*
X201260419Y-65412857D01*
X201260419Y-65031904D02*
X201212800Y-64984285D01*
X201165180Y-64889047D01*
X201165180Y-64650952D01*
X201212800Y-64555714D01*
X201260419Y-64508095D01*
X201355657Y-64460476D01*
X201450895Y-64460476D01*
X201593752Y-64508095D01*
X202165180Y-65079523D01*
X202165180Y-64460476D01*
X201165180Y-63841428D02*
X201165180Y-63746190D01*
X201212800Y-63650952D01*
X201260419Y-63603333D01*
X201355657Y-63555714D01*
X201546133Y-63508095D01*
X201784228Y-63508095D01*
X201974704Y-63555714D01*
X202069942Y-63603333D01*
X202117561Y-63650952D01*
X202165180Y-63746190D01*
X202165180Y-63841428D01*
X202117561Y-63936666D01*
X202069942Y-63984285D01*
X201974704Y-64031904D01*
X201784228Y-64079523D01*
X201546133Y-64079523D01*
X201355657Y-64031904D01*
X201260419Y-63984285D01*
X201212800Y-63936666D01*
X201165180Y-63841428D01*
%TO.C,C24*%
X187076142Y-64727057D02*
X187123761Y-64774676D01*
X187171380Y-64917533D01*
X187171380Y-65012771D01*
X187123761Y-65155628D01*
X187028523Y-65250866D01*
X186933285Y-65298485D01*
X186742809Y-65346104D01*
X186599952Y-65346104D01*
X186409476Y-65298485D01*
X186314238Y-65250866D01*
X186219000Y-65155628D01*
X186171380Y-65012771D01*
X186171380Y-64917533D01*
X186219000Y-64774676D01*
X186266619Y-64727057D01*
X186266619Y-64346104D02*
X186219000Y-64298485D01*
X186171380Y-64203247D01*
X186171380Y-63965152D01*
X186219000Y-63869914D01*
X186266619Y-63822295D01*
X186361857Y-63774676D01*
X186457095Y-63774676D01*
X186599952Y-63822295D01*
X187171380Y-64393723D01*
X187171380Y-63774676D01*
X186504714Y-62917533D02*
X187171380Y-62917533D01*
X186123761Y-63155628D02*
X186838047Y-63393723D01*
X186838047Y-62774676D01*
%TO.C,J4*%
X204771666Y-133774380D02*
X204771666Y-134488666D01*
X204724047Y-134631523D01*
X204628809Y-134726761D01*
X204485952Y-134774380D01*
X204390714Y-134774380D01*
X205676428Y-134107714D02*
X205676428Y-134774380D01*
X205438333Y-133726761D02*
X205200238Y-134441047D01*
X205819285Y-134441047D01*
%TO.C,C3*%
X176185533Y-137745742D02*
X176137914Y-137793361D01*
X175995057Y-137840980D01*
X175899819Y-137840980D01*
X175756961Y-137793361D01*
X175661723Y-137698123D01*
X175614104Y-137602885D01*
X175566485Y-137412409D01*
X175566485Y-137269552D01*
X175614104Y-137079076D01*
X175661723Y-136983838D01*
X175756961Y-136888600D01*
X175899819Y-136840980D01*
X175995057Y-136840980D01*
X176137914Y-136888600D01*
X176185533Y-136936219D01*
X176518866Y-136840980D02*
X177137914Y-136840980D01*
X176804580Y-137221933D01*
X176947438Y-137221933D01*
X177042676Y-137269552D01*
X177090295Y-137317171D01*
X177137914Y-137412409D01*
X177137914Y-137650504D01*
X177090295Y-137745742D01*
X177042676Y-137793361D01*
X176947438Y-137840980D01*
X176661723Y-137840980D01*
X176566485Y-137793361D01*
X176518866Y-137745742D01*
%TO.C,C34*%
X124426742Y-138279142D02*
X124379123Y-138326761D01*
X124236266Y-138374380D01*
X124141028Y-138374380D01*
X123998171Y-138326761D01*
X123902933Y-138231523D01*
X123855314Y-138136285D01*
X123807695Y-137945809D01*
X123807695Y-137802952D01*
X123855314Y-137612476D01*
X123902933Y-137517238D01*
X123998171Y-137422000D01*
X124141028Y-137374380D01*
X124236266Y-137374380D01*
X124379123Y-137422000D01*
X124426742Y-137469619D01*
X124760076Y-137374380D02*
X125379123Y-137374380D01*
X125045790Y-137755333D01*
X125188647Y-137755333D01*
X125283885Y-137802952D01*
X125331504Y-137850571D01*
X125379123Y-137945809D01*
X125379123Y-138183904D01*
X125331504Y-138279142D01*
X125283885Y-138326761D01*
X125188647Y-138374380D01*
X124902933Y-138374380D01*
X124807695Y-138326761D01*
X124760076Y-138279142D01*
X126236266Y-137707714D02*
X126236266Y-138374380D01*
X125998171Y-137326761D02*
X125760076Y-138041047D01*
X126379123Y-138041047D01*
%TO.C,J14*%
X196167476Y-103294380D02*
X196167476Y-104008666D01*
X196119857Y-104151523D01*
X196024619Y-104246761D01*
X195881761Y-104294380D01*
X195786523Y-104294380D01*
X197167476Y-104294380D02*
X196596047Y-104294380D01*
X196881761Y-104294380D02*
X196881761Y-103294380D01*
X196786523Y-103437238D01*
X196691285Y-103532476D01*
X196596047Y-103580095D01*
X198024619Y-103627714D02*
X198024619Y-104294380D01*
X197786523Y-103246761D02*
X197548428Y-103961047D01*
X198167476Y-103961047D01*
%TO.C,R6*%
X156195733Y-64105780D02*
X155862400Y-63629590D01*
X155624304Y-64105780D02*
X155624304Y-63105780D01*
X156005257Y-63105780D01*
X156100495Y-63153400D01*
X156148114Y-63201019D01*
X156195733Y-63296257D01*
X156195733Y-63439114D01*
X156148114Y-63534352D01*
X156100495Y-63581971D01*
X156005257Y-63629590D01*
X155624304Y-63629590D01*
X157052876Y-63105780D02*
X156862400Y-63105780D01*
X156767161Y-63153400D01*
X156719542Y-63201019D01*
X156624304Y-63343876D01*
X156576685Y-63534352D01*
X156576685Y-63915304D01*
X156624304Y-64010542D01*
X156671923Y-64058161D01*
X156767161Y-64105780D01*
X156957638Y-64105780D01*
X157052876Y-64058161D01*
X157100495Y-64010542D01*
X157148114Y-63915304D01*
X157148114Y-63677209D01*
X157100495Y-63581971D01*
X157052876Y-63534352D01*
X156957638Y-63486733D01*
X156767161Y-63486733D01*
X156671923Y-63534352D01*
X156624304Y-63581971D01*
X156576685Y-63677209D01*
%TO.C,R19*%
X165117542Y-64789580D02*
X164784209Y-64313390D01*
X164546114Y-64789580D02*
X164546114Y-63789580D01*
X164927066Y-63789580D01*
X165022304Y-63837200D01*
X165069923Y-63884819D01*
X165117542Y-63980057D01*
X165117542Y-64122914D01*
X165069923Y-64218152D01*
X165022304Y-64265771D01*
X164927066Y-64313390D01*
X164546114Y-64313390D01*
X166069923Y-64789580D02*
X165498495Y-64789580D01*
X165784209Y-64789580D02*
X165784209Y-63789580D01*
X165688971Y-63932438D01*
X165593733Y-64027676D01*
X165498495Y-64075295D01*
X166546114Y-64789580D02*
X166736590Y-64789580D01*
X166831828Y-64741961D01*
X166879447Y-64694342D01*
X166974685Y-64551485D01*
X167022304Y-64361009D01*
X167022304Y-63980057D01*
X166974685Y-63884819D01*
X166927066Y-63837200D01*
X166831828Y-63789580D01*
X166641352Y-63789580D01*
X166546114Y-63837200D01*
X166498495Y-63884819D01*
X166450876Y-63980057D01*
X166450876Y-64218152D01*
X166498495Y-64313390D01*
X166546114Y-64361009D01*
X166641352Y-64408628D01*
X166831828Y-64408628D01*
X166927066Y-64361009D01*
X166974685Y-64313390D01*
X167022304Y-64218152D01*
%TO.C,H1*%
X207138095Y-151552380D02*
X207138095Y-150552380D01*
X207138095Y-151028571D02*
X207709523Y-151028571D01*
X207709523Y-151552380D02*
X207709523Y-150552380D01*
X208709523Y-151552380D02*
X208138095Y-151552380D01*
X208423809Y-151552380D02*
X208423809Y-150552380D01*
X208328571Y-150695238D01*
X208233333Y-150790476D01*
X208138095Y-150838095D01*
%TO.C,J25*%
X109180380Y-132889523D02*
X109894666Y-132889523D01*
X110037523Y-132937142D01*
X110132761Y-133032380D01*
X110180380Y-133175238D01*
X110180380Y-133270476D01*
X109275619Y-132460952D02*
X109228000Y-132413333D01*
X109180380Y-132318095D01*
X109180380Y-132080000D01*
X109228000Y-131984761D01*
X109275619Y-131937142D01*
X109370857Y-131889523D01*
X109466095Y-131889523D01*
X109608952Y-131937142D01*
X110180380Y-132508571D01*
X110180380Y-131889523D01*
X109180380Y-130984761D02*
X109180380Y-131460952D01*
X109656571Y-131508571D01*
X109608952Y-131460952D01*
X109561333Y-131365714D01*
X109561333Y-131127619D01*
X109608952Y-131032380D01*
X109656571Y-130984761D01*
X109751809Y-130937142D01*
X109989904Y-130937142D01*
X110085142Y-130984761D01*
X110132761Y-131032380D01*
X110180380Y-131127619D01*
X110180380Y-131365714D01*
X110132761Y-131460952D01*
X110085142Y-131508571D01*
X113749128Y-132341904D02*
X113701509Y-132294285D01*
X113653890Y-132199047D01*
X113749128Y-132008571D01*
X113701509Y-131913333D01*
X113653890Y-131865714D01*
X109180380Y-132080000D02*
X109418476Y-132080000D01*
X109323238Y-132318095D02*
X109418476Y-132080000D01*
X109323238Y-131841904D01*
X109608952Y-132222857D02*
X109418476Y-132080000D01*
X109608952Y-131937142D01*
%TO.C,JP2*%
X111976180Y-150998133D02*
X112690466Y-150998133D01*
X112833323Y-151045752D01*
X112928561Y-151140990D01*
X112976180Y-151283847D01*
X112976180Y-151379085D01*
X112976180Y-150521942D02*
X111976180Y-150521942D01*
X111976180Y-150140990D01*
X112023800Y-150045752D01*
X112071419Y-149998133D01*
X112166657Y-149950514D01*
X112309514Y-149950514D01*
X112404752Y-149998133D01*
X112452371Y-150045752D01*
X112499990Y-150140990D01*
X112499990Y-150521942D01*
X112071419Y-149569561D02*
X112023800Y-149521942D01*
X111976180Y-149426704D01*
X111976180Y-149188609D01*
X112023800Y-149093371D01*
X112071419Y-149045752D01*
X112166657Y-148998133D01*
X112261895Y-148998133D01*
X112404752Y-149045752D01*
X112976180Y-149617180D01*
X112976180Y-148998133D01*
%TO.C,Q3*%
X184508619Y-60206838D02*
X184461000Y-60302076D01*
X184365761Y-60397314D01*
X184222904Y-60540171D01*
X184175285Y-60635409D01*
X184175285Y-60730647D01*
X184413380Y-60683028D02*
X184365761Y-60778266D01*
X184270523Y-60873504D01*
X184080047Y-60921123D01*
X183746714Y-60921123D01*
X183556238Y-60873504D01*
X183461000Y-60778266D01*
X183413380Y-60683028D01*
X183413380Y-60492552D01*
X183461000Y-60397314D01*
X183556238Y-60302076D01*
X183746714Y-60254457D01*
X184080047Y-60254457D01*
X184270523Y-60302076D01*
X184365761Y-60397314D01*
X184413380Y-60492552D01*
X184413380Y-60683028D01*
X183413380Y-59921123D02*
X183413380Y-59302076D01*
X183794333Y-59635409D01*
X183794333Y-59492552D01*
X183841952Y-59397314D01*
X183889571Y-59349695D01*
X183984809Y-59302076D01*
X184222904Y-59302076D01*
X184318142Y-59349695D01*
X184365761Y-59397314D01*
X184413380Y-59492552D01*
X184413380Y-59778266D01*
X184365761Y-59873504D01*
X184318142Y-59921123D01*
%TO.C,R24*%
X155313142Y-131871980D02*
X154979809Y-131395790D01*
X154741714Y-131871980D02*
X154741714Y-130871980D01*
X155122666Y-130871980D01*
X155217904Y-130919600D01*
X155265523Y-130967219D01*
X155313142Y-131062457D01*
X155313142Y-131205314D01*
X155265523Y-131300552D01*
X155217904Y-131348171D01*
X155122666Y-131395790D01*
X154741714Y-131395790D01*
X155694095Y-130967219D02*
X155741714Y-130919600D01*
X155836952Y-130871980D01*
X156075047Y-130871980D01*
X156170285Y-130919600D01*
X156217904Y-130967219D01*
X156265523Y-131062457D01*
X156265523Y-131157695D01*
X156217904Y-131300552D01*
X155646476Y-131871980D01*
X156265523Y-131871980D01*
X157122666Y-131205314D02*
X157122666Y-131871980D01*
X156884571Y-130824361D02*
X156646476Y-131538647D01*
X157265523Y-131538647D01*
%TO.C,J22*%
X105514876Y-112257380D02*
X105514876Y-112971666D01*
X105467257Y-113114523D01*
X105372019Y-113209761D01*
X105229161Y-113257380D01*
X105133923Y-113257380D01*
X105943447Y-112352619D02*
X105991066Y-112305000D01*
X106086304Y-112257380D01*
X106324400Y-112257380D01*
X106419638Y-112305000D01*
X106467257Y-112352619D01*
X106514876Y-112447857D01*
X106514876Y-112543095D01*
X106467257Y-112685952D01*
X105895828Y-113257380D01*
X106514876Y-113257380D01*
X106895828Y-112352619D02*
X106943447Y-112305000D01*
X107038685Y-112257380D01*
X107276780Y-112257380D01*
X107372019Y-112305000D01*
X107419638Y-112352619D01*
X107467257Y-112447857D01*
X107467257Y-112543095D01*
X107419638Y-112685952D01*
X106848209Y-113257380D01*
X107467257Y-113257380D01*
%TO.C,TP8*%
X191447895Y-117598780D02*
X192019323Y-117598780D01*
X191733609Y-118598780D02*
X191733609Y-117598780D01*
X192352657Y-118598780D02*
X192352657Y-117598780D01*
X192733609Y-117598780D01*
X192828847Y-117646400D01*
X192876466Y-117694019D01*
X192924085Y-117789257D01*
X192924085Y-117932114D01*
X192876466Y-118027352D01*
X192828847Y-118074971D01*
X192733609Y-118122590D01*
X192352657Y-118122590D01*
X193495514Y-118027352D02*
X193400276Y-117979733D01*
X193352657Y-117932114D01*
X193305038Y-117836876D01*
X193305038Y-117789257D01*
X193352657Y-117694019D01*
X193400276Y-117646400D01*
X193495514Y-117598780D01*
X193685990Y-117598780D01*
X193781228Y-117646400D01*
X193828847Y-117694019D01*
X193876466Y-117789257D01*
X193876466Y-117836876D01*
X193828847Y-117932114D01*
X193781228Y-117979733D01*
X193685990Y-118027352D01*
X193495514Y-118027352D01*
X193400276Y-118074971D01*
X193352657Y-118122590D01*
X193305038Y-118217828D01*
X193305038Y-118408304D01*
X193352657Y-118503542D01*
X193400276Y-118551161D01*
X193495514Y-118598780D01*
X193685990Y-118598780D01*
X193781228Y-118551161D01*
X193828847Y-118503542D01*
X193876466Y-118408304D01*
X193876466Y-118217828D01*
X193828847Y-118122590D01*
X193781228Y-118074971D01*
X193685990Y-118027352D01*
D11*
%TO.C,C27*%
X153350607Y-117667493D02*
X153369355Y-117686241D01*
X153388102Y-117742484D01*
X153388102Y-117779979D01*
X153369355Y-117836222D01*
X153331859Y-117873717D01*
X153294364Y-117892465D01*
X153219373Y-117911213D01*
X153163130Y-117911213D01*
X153088140Y-117892465D01*
X153050644Y-117873717D01*
X153013149Y-117836222D01*
X152994401Y-117779979D01*
X152994401Y-117742484D01*
X153013149Y-117686241D01*
X153031897Y-117667493D01*
X153031897Y-117517512D02*
X153013149Y-117498764D01*
X152994401Y-117461269D01*
X152994401Y-117367530D01*
X153013149Y-117330035D01*
X153031897Y-117311287D01*
X153069392Y-117292540D01*
X153106887Y-117292540D01*
X153163130Y-117311287D01*
X153388102Y-117536259D01*
X153388102Y-117292540D01*
X152994401Y-117161306D02*
X152994401Y-116898839D01*
X153388102Y-117067568D01*
D10*
%TO.C,Q5*%
X138233161Y-75244219D02*
X138137923Y-75196600D01*
X138042685Y-75101361D01*
X137899828Y-74958504D01*
X137804590Y-74910885D01*
X137709352Y-74910885D01*
X137756971Y-75148980D02*
X137661733Y-75101361D01*
X137566495Y-75006123D01*
X137518876Y-74815647D01*
X137518876Y-74482314D01*
X137566495Y-74291838D01*
X137661733Y-74196600D01*
X137756971Y-74148980D01*
X137947447Y-74148980D01*
X138042685Y-74196600D01*
X138137923Y-74291838D01*
X138185542Y-74482314D01*
X138185542Y-74815647D01*
X138137923Y-75006123D01*
X138042685Y-75101361D01*
X137947447Y-75148980D01*
X137756971Y-75148980D01*
X139090304Y-74148980D02*
X138614114Y-74148980D01*
X138566495Y-74625171D01*
X138614114Y-74577552D01*
X138709352Y-74529933D01*
X138947447Y-74529933D01*
X139042685Y-74577552D01*
X139090304Y-74625171D01*
X139137923Y-74720409D01*
X139137923Y-74958504D01*
X139090304Y-75053742D01*
X139042685Y-75101361D01*
X138947447Y-75148980D01*
X138709352Y-75148980D01*
X138614114Y-75101361D01*
X138566495Y-75053742D01*
D11*
%TO.C,C30*%
X142231007Y-122791893D02*
X142249755Y-122810641D01*
X142268502Y-122866884D01*
X142268502Y-122904379D01*
X142249755Y-122960622D01*
X142212259Y-122998117D01*
X142174764Y-123016865D01*
X142099773Y-123035613D01*
X142043530Y-123035613D01*
X141968540Y-123016865D01*
X141931044Y-122998117D01*
X141893549Y-122960622D01*
X141874801Y-122904379D01*
X141874801Y-122866884D01*
X141893549Y-122810641D01*
X141912297Y-122791893D01*
X141874801Y-122660659D02*
X141874801Y-122416940D01*
X142024783Y-122548173D01*
X142024783Y-122491930D01*
X142043530Y-122454435D01*
X142062278Y-122435687D01*
X142099773Y-122416940D01*
X142193512Y-122416940D01*
X142231007Y-122435687D01*
X142249755Y-122454435D01*
X142268502Y-122491930D01*
X142268502Y-122604416D01*
X142249755Y-122641912D01*
X142231007Y-122660659D01*
X141874801Y-122173220D02*
X141874801Y-122135725D01*
X141893549Y-122098229D01*
X141912297Y-122079482D01*
X141949792Y-122060734D01*
X142024783Y-122041986D01*
X142118521Y-122041986D01*
X142193512Y-122060734D01*
X142231007Y-122079482D01*
X142249755Y-122098229D01*
X142268502Y-122135725D01*
X142268502Y-122173220D01*
X142249755Y-122210715D01*
X142231007Y-122229463D01*
X142193512Y-122248211D01*
X142118521Y-122266958D01*
X142024783Y-122266958D01*
X141949792Y-122248211D01*
X141912297Y-122229463D01*
X141893549Y-122210715D01*
X141874801Y-122173220D01*
D10*
%TO.C,Q10*%
X179108171Y-132246019D02*
X179012933Y-132198400D01*
X178917695Y-132103161D01*
X178774838Y-131960304D01*
X178679600Y-131912685D01*
X178584361Y-131912685D01*
X178631980Y-132150780D02*
X178536742Y-132103161D01*
X178441504Y-132007923D01*
X178393885Y-131817447D01*
X178393885Y-131484114D01*
X178441504Y-131293638D01*
X178536742Y-131198400D01*
X178631980Y-131150780D01*
X178822457Y-131150780D01*
X178917695Y-131198400D01*
X179012933Y-131293638D01*
X179060552Y-131484114D01*
X179060552Y-131817447D01*
X179012933Y-132007923D01*
X178917695Y-132103161D01*
X178822457Y-132150780D01*
X178631980Y-132150780D01*
X180012933Y-132150780D02*
X179441504Y-132150780D01*
X179727219Y-132150780D02*
X179727219Y-131150780D01*
X179631980Y-131293638D01*
X179536742Y-131388876D01*
X179441504Y-131436495D01*
X180631980Y-131150780D02*
X180727219Y-131150780D01*
X180822457Y-131198400D01*
X180870076Y-131246019D01*
X180917695Y-131341257D01*
X180965314Y-131531733D01*
X180965314Y-131769828D01*
X180917695Y-131960304D01*
X180870076Y-132055542D01*
X180822457Y-132103161D01*
X180727219Y-132150780D01*
X180631980Y-132150780D01*
X180536742Y-132103161D01*
X180489123Y-132055542D01*
X180441504Y-131960304D01*
X180393885Y-131769828D01*
X180393885Y-131531733D01*
X180441504Y-131341257D01*
X180489123Y-131246019D01*
X180536742Y-131198400D01*
X180631980Y-131150780D01*
%TO.C,TP13*%
X186729904Y-112899780D02*
X187301333Y-112899780D01*
X187015619Y-113899780D02*
X187015619Y-112899780D01*
X187634666Y-113899780D02*
X187634666Y-112899780D01*
X188015619Y-112899780D01*
X188110857Y-112947400D01*
X188158476Y-112995019D01*
X188206095Y-113090257D01*
X188206095Y-113233114D01*
X188158476Y-113328352D01*
X188110857Y-113375971D01*
X188015619Y-113423590D01*
X187634666Y-113423590D01*
X189158476Y-113899780D02*
X188587047Y-113899780D01*
X188872761Y-113899780D02*
X188872761Y-112899780D01*
X188777523Y-113042638D01*
X188682285Y-113137876D01*
X188587047Y-113185495D01*
X189491809Y-112899780D02*
X190110857Y-112899780D01*
X189777523Y-113280733D01*
X189920380Y-113280733D01*
X190015619Y-113328352D01*
X190063238Y-113375971D01*
X190110857Y-113471209D01*
X190110857Y-113709304D01*
X190063238Y-113804542D01*
X190015619Y-113852161D01*
X189920380Y-113899780D01*
X189634666Y-113899780D01*
X189539428Y-113852161D01*
X189491809Y-113804542D01*
%TO.C,IC1*%
X168873609Y-88404580D02*
X168873609Y-87404580D01*
X169921228Y-88309342D02*
X169873609Y-88356961D01*
X169730752Y-88404580D01*
X169635514Y-88404580D01*
X169492657Y-88356961D01*
X169397419Y-88261723D01*
X169349800Y-88166485D01*
X169302180Y-87976009D01*
X169302180Y-87833152D01*
X169349800Y-87642676D01*
X169397419Y-87547438D01*
X169492657Y-87452200D01*
X169635514Y-87404580D01*
X169730752Y-87404580D01*
X169873609Y-87452200D01*
X169921228Y-87499819D01*
X170873609Y-88404580D02*
X170302180Y-88404580D01*
X170587895Y-88404580D02*
X170587895Y-87404580D01*
X170492657Y-87547438D01*
X170397419Y-87642676D01*
X170302180Y-87690295D01*
%TO.C,TP5*%
X156430541Y-142102261D02*
X156026480Y-141698200D01*
X156935617Y-141193124D02*
X156228510Y-141900231D01*
X156497884Y-140755391D02*
X155790777Y-141462498D01*
X155521403Y-141193124D01*
X155487732Y-141092109D01*
X155487732Y-141024765D01*
X155521403Y-140923750D01*
X155622419Y-140822735D01*
X155723434Y-140789063D01*
X155790777Y-140789063D01*
X155891793Y-140822735D01*
X156161167Y-141092109D01*
X154746953Y-140418673D02*
X155083671Y-140755391D01*
X155454060Y-140452345D01*
X155386716Y-140452345D01*
X155285701Y-140418673D01*
X155117342Y-140250315D01*
X155083671Y-140149299D01*
X155083671Y-140081956D01*
X155117342Y-139980941D01*
X155285701Y-139812582D01*
X155386716Y-139778910D01*
X155454060Y-139778910D01*
X155555075Y-139812582D01*
X155723434Y-139980941D01*
X155757106Y-140081956D01*
X155757106Y-140149299D01*
%TO.C,C11*%
X177157142Y-96873542D02*
X177109523Y-96921161D01*
X176966666Y-96968780D01*
X176871428Y-96968780D01*
X176728571Y-96921161D01*
X176633333Y-96825923D01*
X176585714Y-96730685D01*
X176538095Y-96540209D01*
X176538095Y-96397352D01*
X176585714Y-96206876D01*
X176633333Y-96111638D01*
X176728571Y-96016400D01*
X176871428Y-95968780D01*
X176966666Y-95968780D01*
X177109523Y-96016400D01*
X177157142Y-96064019D01*
X178109523Y-96968780D02*
X177538095Y-96968780D01*
X177823809Y-96968780D02*
X177823809Y-95968780D01*
X177728571Y-96111638D01*
X177633333Y-96206876D01*
X177538095Y-96254495D01*
X179061904Y-96968780D02*
X178490476Y-96968780D01*
X178776190Y-96968780D02*
X178776190Y-95968780D01*
X178680952Y-96111638D01*
X178585714Y-96206876D01*
X178490476Y-96254495D01*
%TO.C,R8*%
X169515780Y-82843666D02*
X169039590Y-83177000D01*
X169515780Y-83415095D02*
X168515780Y-83415095D01*
X168515780Y-83034142D01*
X168563400Y-82938904D01*
X168611019Y-82891285D01*
X168706257Y-82843666D01*
X168849114Y-82843666D01*
X168944352Y-82891285D01*
X168991971Y-82938904D01*
X169039590Y-83034142D01*
X169039590Y-83415095D01*
X168944352Y-82272238D02*
X168896733Y-82367476D01*
X168849114Y-82415095D01*
X168753876Y-82462714D01*
X168706257Y-82462714D01*
X168611019Y-82415095D01*
X168563400Y-82367476D01*
X168515780Y-82272238D01*
X168515780Y-82081761D01*
X168563400Y-81986523D01*
X168611019Y-81938904D01*
X168706257Y-81891285D01*
X168753876Y-81891285D01*
X168849114Y-81938904D01*
X168896733Y-81986523D01*
X168944352Y-82081761D01*
X168944352Y-82272238D01*
X168991971Y-82367476D01*
X169039590Y-82415095D01*
X169134828Y-82462714D01*
X169325304Y-82462714D01*
X169420542Y-82415095D01*
X169468161Y-82367476D01*
X169515780Y-82272238D01*
X169515780Y-82081761D01*
X169468161Y-81986523D01*
X169420542Y-81938904D01*
X169325304Y-81891285D01*
X169134828Y-81891285D01*
X169039590Y-81938904D01*
X168991971Y-81986523D01*
X168944352Y-82081761D01*
%TO.C,R26*%
X126907262Y-124633375D02*
X126573929Y-124157185D01*
X126335834Y-124633375D02*
X126335834Y-123633375D01*
X126716786Y-123633375D01*
X126812024Y-123680995D01*
X126859643Y-123728614D01*
X126907262Y-123823852D01*
X126907262Y-123966709D01*
X126859643Y-124061947D01*
X126812024Y-124109566D01*
X126716786Y-124157185D01*
X126335834Y-124157185D01*
X127288215Y-123728614D02*
X127335834Y-123680995D01*
X127431072Y-123633375D01*
X127669167Y-123633375D01*
X127764405Y-123680995D01*
X127812024Y-123728614D01*
X127859643Y-123823852D01*
X127859643Y-123919090D01*
X127812024Y-124061947D01*
X127240596Y-124633375D01*
X127859643Y-124633375D01*
X128716786Y-123633375D02*
X128526310Y-123633375D01*
X128431072Y-123680995D01*
X128383453Y-123728614D01*
X128288215Y-123871471D01*
X128240596Y-124061947D01*
X128240596Y-124442899D01*
X128288215Y-124538137D01*
X128335834Y-124585756D01*
X128431072Y-124633375D01*
X128621548Y-124633375D01*
X128716786Y-124585756D01*
X128764405Y-124538137D01*
X128812024Y-124442899D01*
X128812024Y-124204804D01*
X128764405Y-124109566D01*
X128716786Y-124061947D01*
X128621548Y-124014328D01*
X128431072Y-124014328D01*
X128335834Y-124061947D01*
X128288215Y-124109566D01*
X128240596Y-124204804D01*
%TO.C,H2*%
X108838095Y-55552380D02*
X108838095Y-54552380D01*
X108838095Y-55028571D02*
X109409523Y-55028571D01*
X109409523Y-55552380D02*
X109409523Y-54552380D01*
X109838095Y-54647619D02*
X109885714Y-54600000D01*
X109980952Y-54552380D01*
X110219047Y-54552380D01*
X110314285Y-54600000D01*
X110361904Y-54647619D01*
X110409523Y-54742857D01*
X110409523Y-54838095D01*
X110361904Y-54980952D01*
X109790476Y-55552380D01*
X110409523Y-55552380D01*
%TO.C,Q7*%
X191979561Y-93659219D02*
X191884323Y-93611600D01*
X191789085Y-93516361D01*
X191646228Y-93373504D01*
X191550990Y-93325885D01*
X191455752Y-93325885D01*
X191503371Y-93563980D02*
X191408133Y-93516361D01*
X191312895Y-93421123D01*
X191265276Y-93230647D01*
X191265276Y-92897314D01*
X191312895Y-92706838D01*
X191408133Y-92611600D01*
X191503371Y-92563980D01*
X191693847Y-92563980D01*
X191789085Y-92611600D01*
X191884323Y-92706838D01*
X191931942Y-92897314D01*
X191931942Y-93230647D01*
X191884323Y-93421123D01*
X191789085Y-93516361D01*
X191693847Y-93563980D01*
X191503371Y-93563980D01*
X192265276Y-92563980D02*
X192931942Y-92563980D01*
X192503371Y-93563980D01*
%TO.C,R5*%
X156848980Y-95594466D02*
X156372790Y-95927800D01*
X156848980Y-96165895D02*
X155848980Y-96165895D01*
X155848980Y-95784942D01*
X155896600Y-95689704D01*
X155944219Y-95642085D01*
X156039457Y-95594466D01*
X156182314Y-95594466D01*
X156277552Y-95642085D01*
X156325171Y-95689704D01*
X156372790Y-95784942D01*
X156372790Y-96165895D01*
X155848980Y-94689704D02*
X155848980Y-95165895D01*
X156325171Y-95213514D01*
X156277552Y-95165895D01*
X156229933Y-95070657D01*
X156229933Y-94832561D01*
X156277552Y-94737323D01*
X156325171Y-94689704D01*
X156420409Y-94642085D01*
X156658504Y-94642085D01*
X156753742Y-94689704D01*
X156801361Y-94737323D01*
X156848980Y-94832561D01*
X156848980Y-95070657D01*
X156801361Y-95165895D01*
X156753742Y-95213514D01*
%TO.C,C14*%
X178782742Y-91572142D02*
X178735123Y-91619761D01*
X178592266Y-91667380D01*
X178497028Y-91667380D01*
X178354171Y-91619761D01*
X178258933Y-91524523D01*
X178211314Y-91429285D01*
X178163695Y-91238809D01*
X178163695Y-91095952D01*
X178211314Y-90905476D01*
X178258933Y-90810238D01*
X178354171Y-90715000D01*
X178497028Y-90667380D01*
X178592266Y-90667380D01*
X178735123Y-90715000D01*
X178782742Y-90762619D01*
X179735123Y-91667380D02*
X179163695Y-91667380D01*
X179449409Y-91667380D02*
X179449409Y-90667380D01*
X179354171Y-90810238D01*
X179258933Y-90905476D01*
X179163695Y-90953095D01*
X180592266Y-91000714D02*
X180592266Y-91667380D01*
X180354171Y-90619761D02*
X180116076Y-91334047D01*
X180735123Y-91334047D01*
%TO.C,JP4*%
X203316419Y-93317159D02*
X204030705Y-93317159D01*
X204173562Y-93364778D01*
X204268800Y-93460016D01*
X204316419Y-93602873D01*
X204316419Y-93698111D01*
X204316419Y-92840968D02*
X203316419Y-92840968D01*
X203316419Y-92460016D01*
X203364039Y-92364778D01*
X203411658Y-92317159D01*
X203506896Y-92269540D01*
X203649753Y-92269540D01*
X203744991Y-92317159D01*
X203792610Y-92364778D01*
X203840229Y-92460016D01*
X203840229Y-92840968D01*
X203649753Y-91412397D02*
X204316419Y-91412397D01*
X203268800Y-91650492D02*
X203983086Y-91888587D01*
X203983086Y-91269540D01*
%TO.C,R12*%
X150029942Y-89352380D02*
X149696609Y-88876190D01*
X149458514Y-89352380D02*
X149458514Y-88352380D01*
X149839466Y-88352380D01*
X149934704Y-88400000D01*
X149982323Y-88447619D01*
X150029942Y-88542857D01*
X150029942Y-88685714D01*
X149982323Y-88780952D01*
X149934704Y-88828571D01*
X149839466Y-88876190D01*
X149458514Y-88876190D01*
X150982323Y-89352380D02*
X150410895Y-89352380D01*
X150696609Y-89352380D02*
X150696609Y-88352380D01*
X150601371Y-88495238D01*
X150506133Y-88590476D01*
X150410895Y-88638095D01*
X151363276Y-88447619D02*
X151410895Y-88400000D01*
X151506133Y-88352380D01*
X151744228Y-88352380D01*
X151839466Y-88400000D01*
X151887085Y-88447619D01*
X151934704Y-88542857D01*
X151934704Y-88638095D01*
X151887085Y-88780952D01*
X151315657Y-89352380D01*
X151934704Y-89352380D01*
%TO.C,C19*%
X179303742Y-85580457D02*
X179351361Y-85628076D01*
X179398980Y-85770933D01*
X179398980Y-85866171D01*
X179351361Y-86009028D01*
X179256123Y-86104266D01*
X179160885Y-86151885D01*
X178970409Y-86199504D01*
X178827552Y-86199504D01*
X178637076Y-86151885D01*
X178541838Y-86104266D01*
X178446600Y-86009028D01*
X178398980Y-85866171D01*
X178398980Y-85770933D01*
X178446600Y-85628076D01*
X178494219Y-85580457D01*
X179398980Y-84628076D02*
X179398980Y-85199504D01*
X179398980Y-84913790D02*
X178398980Y-84913790D01*
X178541838Y-85009028D01*
X178637076Y-85104266D01*
X178684695Y-85199504D01*
X179398980Y-84151885D02*
X179398980Y-83961409D01*
X179351361Y-83866171D01*
X179303742Y-83818552D01*
X179160885Y-83723314D01*
X178970409Y-83675695D01*
X178589457Y-83675695D01*
X178494219Y-83723314D01*
X178446600Y-83770933D01*
X178398980Y-83866171D01*
X178398980Y-84056647D01*
X178446600Y-84151885D01*
X178494219Y-84199504D01*
X178589457Y-84247123D01*
X178827552Y-84247123D01*
X178922790Y-84199504D01*
X178970409Y-84151885D01*
X179018028Y-84056647D01*
X179018028Y-83866171D01*
X178970409Y-83770933D01*
X178922790Y-83723314D01*
X178827552Y-83675695D01*
%TO.C,R23*%
X116501942Y-105151180D02*
X116168609Y-104674990D01*
X115930514Y-105151180D02*
X115930514Y-104151180D01*
X116311466Y-104151180D01*
X116406704Y-104198800D01*
X116454323Y-104246419D01*
X116501942Y-104341657D01*
X116501942Y-104484514D01*
X116454323Y-104579752D01*
X116406704Y-104627371D01*
X116311466Y-104674990D01*
X115930514Y-104674990D01*
X116882895Y-104246419D02*
X116930514Y-104198800D01*
X117025752Y-104151180D01*
X117263847Y-104151180D01*
X117359085Y-104198800D01*
X117406704Y-104246419D01*
X117454323Y-104341657D01*
X117454323Y-104436895D01*
X117406704Y-104579752D01*
X116835276Y-105151180D01*
X117454323Y-105151180D01*
X117787657Y-104151180D02*
X118406704Y-104151180D01*
X118073371Y-104532133D01*
X118216228Y-104532133D01*
X118311466Y-104579752D01*
X118359085Y-104627371D01*
X118406704Y-104722609D01*
X118406704Y-104960704D01*
X118359085Y-105055942D01*
X118311466Y-105103561D01*
X118216228Y-105151180D01*
X117930514Y-105151180D01*
X117835276Y-105103561D01*
X117787657Y-105055942D01*
%TO.C,TP17*%
X145023104Y-140893980D02*
X145594533Y-140893980D01*
X145308819Y-141893980D02*
X145308819Y-140893980D01*
X145927866Y-141893980D02*
X145927866Y-140893980D01*
X146308819Y-140893980D01*
X146404057Y-140941600D01*
X146451676Y-140989219D01*
X146499295Y-141084457D01*
X146499295Y-141227314D01*
X146451676Y-141322552D01*
X146404057Y-141370171D01*
X146308819Y-141417790D01*
X145927866Y-141417790D01*
X147451676Y-141893980D02*
X146880247Y-141893980D01*
X147165961Y-141893980D02*
X147165961Y-140893980D01*
X147070723Y-141036838D01*
X146975485Y-141132076D01*
X146880247Y-141179695D01*
X147785009Y-140893980D02*
X148451676Y-140893980D01*
X148023104Y-141893980D01*
%TO.C,R17*%
X175128180Y-83192857D02*
X174651990Y-83526190D01*
X175128180Y-83764285D02*
X174128180Y-83764285D01*
X174128180Y-83383333D01*
X174175800Y-83288095D01*
X174223419Y-83240476D01*
X174318657Y-83192857D01*
X174461514Y-83192857D01*
X174556752Y-83240476D01*
X174604371Y-83288095D01*
X174651990Y-83383333D01*
X174651990Y-83764285D01*
X175128180Y-82240476D02*
X175128180Y-82811904D01*
X175128180Y-82526190D02*
X174128180Y-82526190D01*
X174271038Y-82621428D01*
X174366276Y-82716666D01*
X174413895Y-82811904D01*
X174128180Y-81907142D02*
X174128180Y-81240476D01*
X175128180Y-81669047D01*
%TO.C,C15*%
X180353642Y-94950342D02*
X180306023Y-94997961D01*
X180163166Y-95045580D01*
X180067928Y-95045580D01*
X179925071Y-94997961D01*
X179829833Y-94902723D01*
X179782214Y-94807485D01*
X179734595Y-94617009D01*
X179734595Y-94474152D01*
X179782214Y-94283676D01*
X179829833Y-94188438D01*
X179925071Y-94093200D01*
X180067928Y-94045580D01*
X180163166Y-94045580D01*
X180306023Y-94093200D01*
X180353642Y-94140819D01*
X181306023Y-95045580D02*
X180734595Y-95045580D01*
X181020309Y-95045580D02*
X181020309Y-94045580D01*
X180925071Y-94188438D01*
X180829833Y-94283676D01*
X180734595Y-94331295D01*
X182210785Y-94045580D02*
X181734595Y-94045580D01*
X181686976Y-94521771D01*
X181734595Y-94474152D01*
X181829833Y-94426533D01*
X182067928Y-94426533D01*
X182163166Y-94474152D01*
X182210785Y-94521771D01*
X182258404Y-94617009D01*
X182258404Y-94855104D01*
X182210785Y-94950342D01*
X182163166Y-94997961D01*
X182067928Y-95045580D01*
X181829833Y-95045580D01*
X181734595Y-94997961D01*
X181686976Y-94950342D01*
%TO.C,D3*%
X108910380Y-98223295D02*
X107910380Y-98223295D01*
X107910380Y-97985200D01*
X107958000Y-97842342D01*
X108053238Y-97747104D01*
X108148476Y-97699485D01*
X108338952Y-97651866D01*
X108481809Y-97651866D01*
X108672285Y-97699485D01*
X108767523Y-97747104D01*
X108862761Y-97842342D01*
X108910380Y-97985200D01*
X108910380Y-98223295D01*
X107910380Y-97318533D02*
X107910380Y-96699485D01*
X108291333Y-97032819D01*
X108291333Y-96889961D01*
X108338952Y-96794723D01*
X108386571Y-96747104D01*
X108481809Y-96699485D01*
X108719904Y-96699485D01*
X108815142Y-96747104D01*
X108862761Y-96794723D01*
X108910380Y-96889961D01*
X108910380Y-97175676D01*
X108862761Y-97270914D01*
X108815142Y-97318533D01*
%TO.C,TP6*%
X158707295Y-157237180D02*
X159278723Y-157237180D01*
X158993009Y-158237180D02*
X158993009Y-157237180D01*
X159612057Y-158237180D02*
X159612057Y-157237180D01*
X159993009Y-157237180D01*
X160088247Y-157284800D01*
X160135866Y-157332419D01*
X160183485Y-157427657D01*
X160183485Y-157570514D01*
X160135866Y-157665752D01*
X160088247Y-157713371D01*
X159993009Y-157760990D01*
X159612057Y-157760990D01*
X161040628Y-157237180D02*
X160850152Y-157237180D01*
X160754914Y-157284800D01*
X160707295Y-157332419D01*
X160612057Y-157475276D01*
X160564438Y-157665752D01*
X160564438Y-158046704D01*
X160612057Y-158141942D01*
X160659676Y-158189561D01*
X160754914Y-158237180D01*
X160945390Y-158237180D01*
X161040628Y-158189561D01*
X161088247Y-158141942D01*
X161135866Y-158046704D01*
X161135866Y-157808609D01*
X161088247Y-157713371D01*
X161040628Y-157665752D01*
X160945390Y-157618133D01*
X160754914Y-157618133D01*
X160659676Y-157665752D01*
X160612057Y-157713371D01*
X160564438Y-157808609D01*
%TO.C,R11*%
X152341342Y-95482580D02*
X152008009Y-95006390D01*
X151769914Y-95482580D02*
X151769914Y-94482580D01*
X152150866Y-94482580D01*
X152246104Y-94530200D01*
X152293723Y-94577819D01*
X152341342Y-94673057D01*
X152341342Y-94815914D01*
X152293723Y-94911152D01*
X152246104Y-94958771D01*
X152150866Y-95006390D01*
X151769914Y-95006390D01*
X153293723Y-95482580D02*
X152722295Y-95482580D01*
X153008009Y-95482580D02*
X153008009Y-94482580D01*
X152912771Y-94625438D01*
X152817533Y-94720676D01*
X152722295Y-94768295D01*
X154246104Y-95482580D02*
X153674676Y-95482580D01*
X153960390Y-95482580D02*
X153960390Y-94482580D01*
X153865152Y-94625438D01*
X153769914Y-94720676D01*
X153674676Y-94768295D01*
%TO.C,D2*%
X142152380Y-129008095D02*
X141152380Y-129008095D01*
X141152380Y-128770000D01*
X141200000Y-128627142D01*
X141295238Y-128531904D01*
X141390476Y-128484285D01*
X141580952Y-128436666D01*
X141723809Y-128436666D01*
X141914285Y-128484285D01*
X142009523Y-128531904D01*
X142104761Y-128627142D01*
X142152380Y-128770000D01*
X142152380Y-129008095D01*
X141247619Y-128055714D02*
X141200000Y-128008095D01*
X141152380Y-127912857D01*
X141152380Y-127674761D01*
X141200000Y-127579523D01*
X141247619Y-127531904D01*
X141342857Y-127484285D01*
X141438095Y-127484285D01*
X141580952Y-127531904D01*
X142152380Y-128103333D01*
X142152380Y-127484285D01*
%TO.C,TP11*%
X190616104Y-103323980D02*
X191187533Y-103323980D01*
X190901819Y-104323980D02*
X190901819Y-103323980D01*
X191520866Y-104323980D02*
X191520866Y-103323980D01*
X191901819Y-103323980D01*
X191997057Y-103371600D01*
X192044676Y-103419219D01*
X192092295Y-103514457D01*
X192092295Y-103657314D01*
X192044676Y-103752552D01*
X191997057Y-103800171D01*
X191901819Y-103847790D01*
X191520866Y-103847790D01*
X193044676Y-104323980D02*
X192473247Y-104323980D01*
X192758961Y-104323980D02*
X192758961Y-103323980D01*
X192663723Y-103466838D01*
X192568485Y-103562076D01*
X192473247Y-103609695D01*
X193997057Y-104323980D02*
X193425628Y-104323980D01*
X193711342Y-104323980D02*
X193711342Y-103323980D01*
X193616104Y-103466838D01*
X193520866Y-103562076D01*
X193425628Y-103609695D01*
%TO.C,R9*%
X161758333Y-99715580D02*
X161425000Y-99239390D01*
X161186904Y-99715580D02*
X161186904Y-98715580D01*
X161567857Y-98715580D01*
X161663095Y-98763200D01*
X161710714Y-98810819D01*
X161758333Y-98906057D01*
X161758333Y-99048914D01*
X161710714Y-99144152D01*
X161663095Y-99191771D01*
X161567857Y-99239390D01*
X161186904Y-99239390D01*
X162234523Y-99715580D02*
X162425000Y-99715580D01*
X162520238Y-99667961D01*
X162567857Y-99620342D01*
X162663095Y-99477485D01*
X162710714Y-99287009D01*
X162710714Y-98906057D01*
X162663095Y-98810819D01*
X162615476Y-98763200D01*
X162520238Y-98715580D01*
X162329761Y-98715580D01*
X162234523Y-98763200D01*
X162186904Y-98810819D01*
X162139285Y-98906057D01*
X162139285Y-99144152D01*
X162186904Y-99239390D01*
X162234523Y-99287009D01*
X162329761Y-99334628D01*
X162520238Y-99334628D01*
X162615476Y-99287009D01*
X162663095Y-99239390D01*
X162710714Y-99144152D01*
%TO.C,TP4*%
X176411095Y-154403380D02*
X176982523Y-154403380D01*
X176696809Y-155403380D02*
X176696809Y-154403380D01*
X177315857Y-155403380D02*
X177315857Y-154403380D01*
X177696809Y-154403380D01*
X177792047Y-154451000D01*
X177839666Y-154498619D01*
X177887285Y-154593857D01*
X177887285Y-154736714D01*
X177839666Y-154831952D01*
X177792047Y-154879571D01*
X177696809Y-154927190D01*
X177315857Y-154927190D01*
X178744428Y-154736714D02*
X178744428Y-155403380D01*
X178506333Y-154355761D02*
X178268238Y-155070047D01*
X178887285Y-155070047D01*
%TO.C,U1*%
X168387780Y-151277304D02*
X169197304Y-151277304D01*
X169292542Y-151229685D01*
X169340161Y-151182066D01*
X169387780Y-151086828D01*
X169387780Y-150896352D01*
X169340161Y-150801114D01*
X169292542Y-150753495D01*
X169197304Y-150705876D01*
X168387780Y-150705876D01*
X169387780Y-149705876D02*
X169387780Y-150277304D01*
X169387780Y-149991590D02*
X168387780Y-149991590D01*
X168530638Y-150086828D01*
X168625876Y-150182066D01*
X168673495Y-150277304D01*
X168435400Y-154967780D02*
X168387780Y-155063019D01*
X168387780Y-155205876D01*
X168435400Y-155348733D01*
X168530638Y-155443971D01*
X168625876Y-155491590D01*
X168816352Y-155539209D01*
X168959209Y-155539209D01*
X169149685Y-155491590D01*
X169244923Y-155443971D01*
X169340161Y-155348733D01*
X169387780Y-155205876D01*
X169387780Y-155110638D01*
X169340161Y-154967780D01*
X169292542Y-154920161D01*
X168959209Y-154920161D01*
X168959209Y-155110638D01*
X169387780Y-154491590D02*
X168387780Y-154491590D01*
X168387780Y-154110638D01*
X168435400Y-154015400D01*
X168483019Y-153967780D01*
X168578257Y-153920161D01*
X168721114Y-153920161D01*
X168816352Y-153967780D01*
X168863971Y-154015400D01*
X168911590Y-154110638D01*
X168911590Y-154491590D01*
X168387780Y-153634447D02*
X168387780Y-153063019D01*
X169387780Y-153348733D02*
X168387780Y-153348733D01*
X169340161Y-152777304D02*
X169387780Y-152634447D01*
X169387780Y-152396352D01*
X169340161Y-152301114D01*
X169292542Y-152253495D01*
X169197304Y-152205876D01*
X169102066Y-152205876D01*
X169006828Y-152253495D01*
X168959209Y-152301114D01*
X168911590Y-152396352D01*
X168863971Y-152586828D01*
X168816352Y-152682066D01*
X168768733Y-152729685D01*
X168673495Y-152777304D01*
X168578257Y-152777304D01*
X168483019Y-152729685D01*
X168435400Y-152682066D01*
X168387780Y-152586828D01*
X168387780Y-152348733D01*
X168435400Y-152205876D01*
X168483019Y-151824923D02*
X168435400Y-151777304D01*
X168387780Y-151682066D01*
X168387780Y-151443971D01*
X168435400Y-151348733D01*
X168483019Y-151301114D01*
X168578257Y-151253495D01*
X168673495Y-151253495D01*
X168816352Y-151301114D01*
X169387780Y-151872542D01*
X169387780Y-151253495D01*
X168387780Y-150634447D02*
X168387780Y-150539209D01*
X168435400Y-150443971D01*
X168483019Y-150396352D01*
X168578257Y-150348733D01*
X168768733Y-150301114D01*
X169006828Y-150301114D01*
X169197304Y-150348733D01*
X169292542Y-150396352D01*
X169340161Y-150443971D01*
X169387780Y-150539209D01*
X169387780Y-150634447D01*
X169340161Y-150729685D01*
X169292542Y-150777304D01*
X169197304Y-150824923D01*
X169006828Y-150872542D01*
X168768733Y-150872542D01*
X168578257Y-150824923D01*
X168483019Y-150777304D01*
X168435400Y-150729685D01*
X168387780Y-150634447D01*
X168387780Y-149967780D02*
X168387780Y-149348733D01*
X168768733Y-149682066D01*
X168768733Y-149539209D01*
X168816352Y-149443971D01*
X168863971Y-149396352D01*
X168959209Y-149348733D01*
X169197304Y-149348733D01*
X169292542Y-149396352D01*
X169340161Y-149443971D01*
X169387780Y-149539209D01*
X169387780Y-149824923D01*
X169340161Y-149920161D01*
X169292542Y-149967780D01*
X168483019Y-148967780D02*
X168435400Y-148920161D01*
X168387780Y-148824923D01*
X168387780Y-148586828D01*
X168435400Y-148491590D01*
X168483019Y-148443971D01*
X168578257Y-148396352D01*
X168673495Y-148396352D01*
X168816352Y-148443971D01*
X169387780Y-149015400D01*
X169387780Y-148396352D01*
X169387780Y-147443971D02*
X169387780Y-148015400D01*
X169387780Y-147729685D02*
X168387780Y-147729685D01*
X168530638Y-147824923D01*
X168625876Y-147920161D01*
X168673495Y-148015400D01*
X169387780Y-146491590D02*
X169387780Y-147063019D01*
X169387780Y-146777304D02*
X168387780Y-146777304D01*
X168530638Y-146872542D01*
X168625876Y-146967780D01*
X168673495Y-147063019D01*
X168863971Y-145729685D02*
X168911590Y-145586828D01*
X168959209Y-145539209D01*
X169054447Y-145491590D01*
X169197304Y-145491590D01*
X169292542Y-145539209D01*
X169340161Y-145586828D01*
X169387780Y-145682066D01*
X169387780Y-146063019D01*
X168387780Y-146063019D01*
X168387780Y-145729685D01*
X168435400Y-145634447D01*
X168483019Y-145586828D01*
X168578257Y-145539209D01*
X168673495Y-145539209D01*
X168768733Y-145586828D01*
X168816352Y-145634447D01*
X168863971Y-145729685D01*
X168863971Y-146063019D01*
X165737780Y-143809400D02*
X165975876Y-143809400D01*
X165880638Y-144047495D02*
X165975876Y-143809400D01*
X165880638Y-143571304D01*
X166166352Y-143952257D02*
X165975876Y-143809400D01*
X166166352Y-143666542D01*
%TO.C,R20*%
X128366780Y-138260057D02*
X127890590Y-138593390D01*
X128366780Y-138831485D02*
X127366780Y-138831485D01*
X127366780Y-138450533D01*
X127414400Y-138355295D01*
X127462019Y-138307676D01*
X127557257Y-138260057D01*
X127700114Y-138260057D01*
X127795352Y-138307676D01*
X127842971Y-138355295D01*
X127890590Y-138450533D01*
X127890590Y-138831485D01*
X127462019Y-137879104D02*
X127414400Y-137831485D01*
X127366780Y-137736247D01*
X127366780Y-137498152D01*
X127414400Y-137402914D01*
X127462019Y-137355295D01*
X127557257Y-137307676D01*
X127652495Y-137307676D01*
X127795352Y-137355295D01*
X128366780Y-137926723D01*
X128366780Y-137307676D01*
X127366780Y-136688628D02*
X127366780Y-136593390D01*
X127414400Y-136498152D01*
X127462019Y-136450533D01*
X127557257Y-136402914D01*
X127747733Y-136355295D01*
X127985828Y-136355295D01*
X128176304Y-136402914D01*
X128271542Y-136450533D01*
X128319161Y-136498152D01*
X128366780Y-136593390D01*
X128366780Y-136688628D01*
X128319161Y-136783866D01*
X128271542Y-136831485D01*
X128176304Y-136879104D01*
X127985828Y-136926723D01*
X127747733Y-136926723D01*
X127557257Y-136879104D01*
X127462019Y-136831485D01*
X127414400Y-136783866D01*
X127366780Y-136688628D01*
%TO.C,C29*%
X122597942Y-95505542D02*
X122550323Y-95553161D01*
X122407466Y-95600780D01*
X122312228Y-95600780D01*
X122169371Y-95553161D01*
X122074133Y-95457923D01*
X122026514Y-95362685D01*
X121978895Y-95172209D01*
X121978895Y-95029352D01*
X122026514Y-94838876D01*
X122074133Y-94743638D01*
X122169371Y-94648400D01*
X122312228Y-94600780D01*
X122407466Y-94600780D01*
X122550323Y-94648400D01*
X122597942Y-94696019D01*
X122978895Y-94696019D02*
X123026514Y-94648400D01*
X123121752Y-94600780D01*
X123359847Y-94600780D01*
X123455085Y-94648400D01*
X123502704Y-94696019D01*
X123550323Y-94791257D01*
X123550323Y-94886495D01*
X123502704Y-95029352D01*
X122931276Y-95600780D01*
X123550323Y-95600780D01*
X124026514Y-95600780D02*
X124216990Y-95600780D01*
X124312228Y-95553161D01*
X124359847Y-95505542D01*
X124455085Y-95362685D01*
X124502704Y-95172209D01*
X124502704Y-94791257D01*
X124455085Y-94696019D01*
X124407466Y-94648400D01*
X124312228Y-94600780D01*
X124121752Y-94600780D01*
X124026514Y-94648400D01*
X123978895Y-94696019D01*
X123931276Y-94791257D01*
X123931276Y-95029352D01*
X123978895Y-95124590D01*
X124026514Y-95172209D01*
X124121752Y-95219828D01*
X124312228Y-95219828D01*
X124407466Y-95172209D01*
X124455085Y-95124590D01*
X124502704Y-95029352D01*
%TO.C,U6*%
X113944495Y-98055180D02*
X113944495Y-98864704D01*
X113992114Y-98959942D01*
X114039733Y-99007561D01*
X114134971Y-99055180D01*
X114325447Y-99055180D01*
X114420685Y-99007561D01*
X114468304Y-98959942D01*
X114515923Y-98864704D01*
X114515923Y-98055180D01*
X115420685Y-98055180D02*
X115230209Y-98055180D01*
X115134971Y-98102800D01*
X115087352Y-98150419D01*
X114992114Y-98293276D01*
X114944495Y-98483752D01*
X114944495Y-98864704D01*
X114992114Y-98959942D01*
X115039733Y-99007561D01*
X115134971Y-99055180D01*
X115325447Y-99055180D01*
X115420685Y-99007561D01*
X115468304Y-98959942D01*
X115515923Y-98864704D01*
X115515923Y-98626609D01*
X115468304Y-98531371D01*
X115420685Y-98483752D01*
X115325447Y-98436133D01*
X115134971Y-98436133D01*
X115039733Y-98483752D01*
X114992114Y-98531371D01*
X114944495Y-98626609D01*
%TO.C,JP10*%
X140168476Y-149517380D02*
X140168476Y-150231666D01*
X140120857Y-150374523D01*
X140025619Y-150469761D01*
X139882761Y-150517380D01*
X139787523Y-150517380D01*
X140644666Y-150517380D02*
X140644666Y-149517380D01*
X141025619Y-149517380D01*
X141120857Y-149565000D01*
X141168476Y-149612619D01*
X141216095Y-149707857D01*
X141216095Y-149850714D01*
X141168476Y-149945952D01*
X141120857Y-149993571D01*
X141025619Y-150041190D01*
X140644666Y-150041190D01*
X142168476Y-150517380D02*
X141597047Y-150517380D01*
X141882761Y-150517380D02*
X141882761Y-149517380D01*
X141787523Y-149660238D01*
X141692285Y-149755476D01*
X141597047Y-149803095D01*
X142787523Y-149517380D02*
X142882761Y-149517380D01*
X142978000Y-149565000D01*
X143025619Y-149612619D01*
X143073238Y-149707857D01*
X143120857Y-149898333D01*
X143120857Y-150136428D01*
X143073238Y-150326904D01*
X143025619Y-150422142D01*
X142978000Y-150469761D01*
X142882761Y-150517380D01*
X142787523Y-150517380D01*
X142692285Y-150469761D01*
X142644666Y-150422142D01*
X142597047Y-150326904D01*
X142549428Y-150136428D01*
X142549428Y-149898333D01*
X142597047Y-149707857D01*
X142644666Y-149612619D01*
X142692285Y-149565000D01*
X142787523Y-149517380D01*
%TO.C,JP1*%
X119695980Y-154731933D02*
X120410266Y-154731933D01*
X120553123Y-154779552D01*
X120648361Y-154874790D01*
X120695980Y-155017647D01*
X120695980Y-155112885D01*
X120695980Y-154255742D02*
X119695980Y-154255742D01*
X119695980Y-153874790D01*
X119743600Y-153779552D01*
X119791219Y-153731933D01*
X119886457Y-153684314D01*
X120029314Y-153684314D01*
X120124552Y-153731933D01*
X120172171Y-153779552D01*
X120219790Y-153874790D01*
X120219790Y-154255742D01*
X120695980Y-152731933D02*
X120695980Y-153303361D01*
X120695980Y-153017647D02*
X119695980Y-153017647D01*
X119838838Y-153112885D01*
X119934076Y-153208123D01*
X119981695Y-153303361D01*
%TO.C,J24*%
X186337676Y-127271980D02*
X186337676Y-127986266D01*
X186290057Y-128129123D01*
X186194819Y-128224361D01*
X186051961Y-128271980D01*
X185956723Y-128271980D01*
X186766247Y-127367219D02*
X186813866Y-127319600D01*
X186909104Y-127271980D01*
X187147200Y-127271980D01*
X187242438Y-127319600D01*
X187290057Y-127367219D01*
X187337676Y-127462457D01*
X187337676Y-127557695D01*
X187290057Y-127700552D01*
X186718628Y-128271980D01*
X187337676Y-128271980D01*
X188194819Y-127605314D02*
X188194819Y-128271980D01*
X187956723Y-127224361D02*
X187718628Y-127938647D01*
X188337676Y-127938647D01*
%TO.C,J12*%
X137088180Y-151355323D02*
X137802466Y-151355323D01*
X137945323Y-151402942D01*
X138040561Y-151498180D01*
X138088180Y-151641038D01*
X138088180Y-151736276D01*
X138088180Y-150355323D02*
X138088180Y-150926752D01*
X138088180Y-150641038D02*
X137088180Y-150641038D01*
X137231038Y-150736276D01*
X137326276Y-150831514D01*
X137373895Y-150926752D01*
X137183419Y-149974371D02*
X137135800Y-149926752D01*
X137088180Y-149831514D01*
X137088180Y-149593419D01*
X137135800Y-149498180D01*
X137183419Y-149450561D01*
X137278657Y-149402942D01*
X137373895Y-149402942D01*
X137516752Y-149450561D01*
X138088180Y-150021990D01*
X138088180Y-149402942D01*
%TO.C,C6*%
X150887133Y-101343942D02*
X150839514Y-101391561D01*
X150696657Y-101439180D01*
X150601419Y-101439180D01*
X150458561Y-101391561D01*
X150363323Y-101296323D01*
X150315704Y-101201085D01*
X150268085Y-101010609D01*
X150268085Y-100867752D01*
X150315704Y-100677276D01*
X150363323Y-100582038D01*
X150458561Y-100486800D01*
X150601419Y-100439180D01*
X150696657Y-100439180D01*
X150839514Y-100486800D01*
X150887133Y-100534419D01*
X151744276Y-100439180D02*
X151553800Y-100439180D01*
X151458561Y-100486800D01*
X151410942Y-100534419D01*
X151315704Y-100677276D01*
X151268085Y-100867752D01*
X151268085Y-101248704D01*
X151315704Y-101343942D01*
X151363323Y-101391561D01*
X151458561Y-101439180D01*
X151649038Y-101439180D01*
X151744276Y-101391561D01*
X151791895Y-101343942D01*
X151839514Y-101248704D01*
X151839514Y-101010609D01*
X151791895Y-100915371D01*
X151744276Y-100867752D01*
X151649038Y-100820133D01*
X151458561Y-100820133D01*
X151363323Y-100867752D01*
X151315704Y-100915371D01*
X151268085Y-101010609D01*
%TO.C,R32*%
X126103142Y-130906780D02*
X125769809Y-130430590D01*
X125531714Y-130906780D02*
X125531714Y-129906780D01*
X125912666Y-129906780D01*
X126007904Y-129954400D01*
X126055523Y-130002019D01*
X126103142Y-130097257D01*
X126103142Y-130240114D01*
X126055523Y-130335352D01*
X126007904Y-130382971D01*
X125912666Y-130430590D01*
X125531714Y-130430590D01*
X126436476Y-129906780D02*
X127055523Y-129906780D01*
X126722190Y-130287733D01*
X126865047Y-130287733D01*
X126960285Y-130335352D01*
X127007904Y-130382971D01*
X127055523Y-130478209D01*
X127055523Y-130716304D01*
X127007904Y-130811542D01*
X126960285Y-130859161D01*
X126865047Y-130906780D01*
X126579333Y-130906780D01*
X126484095Y-130859161D01*
X126436476Y-130811542D01*
X127436476Y-130002019D02*
X127484095Y-129954400D01*
X127579333Y-129906780D01*
X127817428Y-129906780D01*
X127912666Y-129954400D01*
X127960285Y-130002019D01*
X128007904Y-130097257D01*
X128007904Y-130192495D01*
X127960285Y-130335352D01*
X127388857Y-130906780D01*
X128007904Y-130906780D01*
%TO.C,TP2*%
X154744895Y-148739180D02*
X155316323Y-148739180D01*
X155030609Y-149739180D02*
X155030609Y-148739180D01*
X155649657Y-149739180D02*
X155649657Y-148739180D01*
X156030609Y-148739180D01*
X156125847Y-148786800D01*
X156173466Y-148834419D01*
X156221085Y-148929657D01*
X156221085Y-149072514D01*
X156173466Y-149167752D01*
X156125847Y-149215371D01*
X156030609Y-149262990D01*
X155649657Y-149262990D01*
X156602038Y-148834419D02*
X156649657Y-148786800D01*
X156744895Y-148739180D01*
X156982990Y-148739180D01*
X157078228Y-148786800D01*
X157125847Y-148834419D01*
X157173466Y-148929657D01*
X157173466Y-149024895D01*
X157125847Y-149167752D01*
X156554419Y-149739180D01*
X157173466Y-149739180D01*
%TO.C,C1*%
X180935333Y-137596942D02*
X180887714Y-137644561D01*
X180744857Y-137692180D01*
X180649619Y-137692180D01*
X180506761Y-137644561D01*
X180411523Y-137549323D01*
X180363904Y-137454085D01*
X180316285Y-137263609D01*
X180316285Y-137120752D01*
X180363904Y-136930276D01*
X180411523Y-136835038D01*
X180506761Y-136739800D01*
X180649619Y-136692180D01*
X180744857Y-136692180D01*
X180887714Y-136739800D01*
X180935333Y-136787419D01*
X181887714Y-137692180D02*
X181316285Y-137692180D01*
X181602000Y-137692180D02*
X181602000Y-136692180D01*
X181506761Y-136835038D01*
X181411523Y-136930276D01*
X181316285Y-136977895D01*
D11*
%TO.C,C28*%
X125536906Y-82687807D02*
X125518158Y-82706555D01*
X125461915Y-82725302D01*
X125424420Y-82725302D01*
X125368177Y-82706555D01*
X125330682Y-82669059D01*
X125311934Y-82631564D01*
X125293186Y-82556573D01*
X125293186Y-82500330D01*
X125311934Y-82425340D01*
X125330682Y-82387844D01*
X125368177Y-82350349D01*
X125424420Y-82331601D01*
X125461915Y-82331601D01*
X125518158Y-82350349D01*
X125536906Y-82369097D01*
X125686887Y-82369097D02*
X125705635Y-82350349D01*
X125743130Y-82331601D01*
X125836869Y-82331601D01*
X125874364Y-82350349D01*
X125893112Y-82369097D01*
X125911859Y-82406592D01*
X125911859Y-82444087D01*
X125893112Y-82500330D01*
X125668140Y-82725302D01*
X125911859Y-82725302D01*
X126136831Y-82500330D02*
X126099336Y-82481583D01*
X126080588Y-82462835D01*
X126061841Y-82425340D01*
X126061841Y-82406592D01*
X126080588Y-82369097D01*
X126099336Y-82350349D01*
X126136831Y-82331601D01*
X126211822Y-82331601D01*
X126249317Y-82350349D01*
X126268065Y-82369097D01*
X126286813Y-82406592D01*
X126286813Y-82425340D01*
X126268065Y-82462835D01*
X126249317Y-82481583D01*
X126211822Y-82500330D01*
X126136831Y-82500330D01*
X126099336Y-82519078D01*
X126080588Y-82537826D01*
X126061841Y-82575321D01*
X126061841Y-82650312D01*
X126080588Y-82687807D01*
X126099336Y-82706555D01*
X126136831Y-82725302D01*
X126211822Y-82725302D01*
X126249317Y-82706555D01*
X126268065Y-82687807D01*
X126286813Y-82650312D01*
X126286813Y-82575321D01*
X126268065Y-82537826D01*
X126249317Y-82519078D01*
X126211822Y-82500330D01*
D10*
%TO.C,TP7*%
X187282295Y-117624180D02*
X187853723Y-117624180D01*
X187568009Y-118624180D02*
X187568009Y-117624180D01*
X188187057Y-118624180D02*
X188187057Y-117624180D01*
X188568009Y-117624180D01*
X188663247Y-117671800D01*
X188710866Y-117719419D01*
X188758485Y-117814657D01*
X188758485Y-117957514D01*
X188710866Y-118052752D01*
X188663247Y-118100371D01*
X188568009Y-118147990D01*
X188187057Y-118147990D01*
X189091819Y-117624180D02*
X189758485Y-117624180D01*
X189329914Y-118624180D01*
%TO.C,U8*%
X121158095Y-131278380D02*
X121158095Y-132087904D01*
X121205714Y-132183142D01*
X121253333Y-132230761D01*
X121348571Y-132278380D01*
X121539047Y-132278380D01*
X121634285Y-132230761D01*
X121681904Y-132183142D01*
X121729523Y-132087904D01*
X121729523Y-131278380D01*
X122348571Y-131706952D02*
X122253333Y-131659333D01*
X122205714Y-131611714D01*
X122158095Y-131516476D01*
X122158095Y-131468857D01*
X122205714Y-131373619D01*
X122253333Y-131326000D01*
X122348571Y-131278380D01*
X122539047Y-131278380D01*
X122634285Y-131326000D01*
X122681904Y-131373619D01*
X122729523Y-131468857D01*
X122729523Y-131516476D01*
X122681904Y-131611714D01*
X122634285Y-131659333D01*
X122539047Y-131706952D01*
X122348571Y-131706952D01*
X122253333Y-131754571D01*
X122205714Y-131802190D01*
X122158095Y-131897428D01*
X122158095Y-132087904D01*
X122205714Y-132183142D01*
X122253333Y-132230761D01*
X122348571Y-132278380D01*
X122539047Y-132278380D01*
X122634285Y-132230761D01*
X122681904Y-132183142D01*
X122729523Y-132087904D01*
X122729523Y-131897428D01*
X122681904Y-131802190D01*
X122634285Y-131754571D01*
X122539047Y-131706952D01*
X125347885Y-134824742D02*
X125300266Y-134872361D01*
X125157409Y-134919980D01*
X125062171Y-134919980D01*
X124919314Y-134872361D01*
X124824076Y-134777123D01*
X124776457Y-134681885D01*
X124728838Y-134491409D01*
X124728838Y-134348552D01*
X124776457Y-134158076D01*
X124824076Y-134062838D01*
X124919314Y-133967600D01*
X125062171Y-133919980D01*
X125157409Y-133919980D01*
X125300266Y-133967600D01*
X125347885Y-134015219D01*
X125776457Y-134919980D02*
X125776457Y-133919980D01*
X126157409Y-133919980D01*
X126252647Y-133967600D01*
X126300266Y-134015219D01*
X126347885Y-134110457D01*
X126347885Y-134253314D01*
X126300266Y-134348552D01*
X126252647Y-134396171D01*
X126157409Y-134443790D01*
X125776457Y-134443790D01*
X126728838Y-134015219D02*
X126776457Y-133967600D01*
X126871695Y-133919980D01*
X127109790Y-133919980D01*
X127205028Y-133967600D01*
X127252647Y-134015219D01*
X127300266Y-134110457D01*
X127300266Y-134205695D01*
X127252647Y-134348552D01*
X126681219Y-134919980D01*
X127300266Y-134919980D01*
X128252647Y-134919980D02*
X127681219Y-134919980D01*
X127966933Y-134919980D02*
X127966933Y-133919980D01*
X127871695Y-134062838D01*
X127776457Y-134158076D01*
X127681219Y-134205695D01*
X128871695Y-133919980D02*
X128966933Y-133919980D01*
X129062171Y-133967600D01*
X129109790Y-134015219D01*
X129157409Y-134110457D01*
X129205028Y-134300933D01*
X129205028Y-134539028D01*
X129157409Y-134729504D01*
X129109790Y-134824742D01*
X129062171Y-134872361D01*
X128966933Y-134919980D01*
X128871695Y-134919980D01*
X128776457Y-134872361D01*
X128728838Y-134824742D01*
X128681219Y-134729504D01*
X128633600Y-134539028D01*
X128633600Y-134300933D01*
X128681219Y-134110457D01*
X128728838Y-134015219D01*
X128776457Y-133967600D01*
X128871695Y-133919980D01*
X129585980Y-134015219D02*
X129633600Y-133967600D01*
X129728838Y-133919980D01*
X129966933Y-133919980D01*
X130062171Y-133967600D01*
X130109790Y-134015219D01*
X130157409Y-134110457D01*
X130157409Y-134205695D01*
X130109790Y-134348552D01*
X129538361Y-134919980D01*
X130157409Y-134919980D01*
X130585980Y-134539028D02*
X131347885Y-134539028D01*
X132347885Y-133967600D02*
X132252647Y-133919980D01*
X132109790Y-133919980D01*
X131966933Y-133967600D01*
X131871695Y-134062838D01*
X131824076Y-134158076D01*
X131776457Y-134348552D01*
X131776457Y-134491409D01*
X131824076Y-134681885D01*
X131871695Y-134777123D01*
X131966933Y-134872361D01*
X132109790Y-134919980D01*
X132205028Y-134919980D01*
X132347885Y-134872361D01*
X132395504Y-134824742D01*
X132395504Y-134491409D01*
X132205028Y-134491409D01*
X132824076Y-134919980D02*
X132824076Y-133919980D01*
X133157409Y-134634266D01*
X133490742Y-133919980D01*
X133490742Y-134919980D01*
X118478300Y-129528380D02*
X118478300Y-129766476D01*
X118240204Y-129671238D02*
X118478300Y-129766476D01*
X118716395Y-129671238D01*
X118335442Y-129956952D02*
X118478300Y-129766476D01*
X118621157Y-129956952D01*
X118478300Y-129528380D02*
X118478300Y-129766476D01*
X118240204Y-129671238D02*
X118478300Y-129766476D01*
X118716395Y-129671238D01*
X118335442Y-129956952D02*
X118478300Y-129766476D01*
X118621157Y-129956952D01*
%TO.C,C12*%
X164564542Y-102475357D02*
X164612161Y-102522976D01*
X164659780Y-102665833D01*
X164659780Y-102761071D01*
X164612161Y-102903928D01*
X164516923Y-102999166D01*
X164421685Y-103046785D01*
X164231209Y-103094404D01*
X164088352Y-103094404D01*
X163897876Y-103046785D01*
X163802638Y-102999166D01*
X163707400Y-102903928D01*
X163659780Y-102761071D01*
X163659780Y-102665833D01*
X163707400Y-102522976D01*
X163755019Y-102475357D01*
X164659780Y-101522976D02*
X164659780Y-102094404D01*
X164659780Y-101808690D02*
X163659780Y-101808690D01*
X163802638Y-101903928D01*
X163897876Y-101999166D01*
X163945495Y-102094404D01*
X163755019Y-101142023D02*
X163707400Y-101094404D01*
X163659780Y-100999166D01*
X163659780Y-100761071D01*
X163707400Y-100665833D01*
X163755019Y-100618214D01*
X163850257Y-100570595D01*
X163945495Y-100570595D01*
X164088352Y-100618214D01*
X164659780Y-101189642D01*
X164659780Y-100570595D01*
%TO.C,C16*%
X167285942Y-87764857D02*
X167333561Y-87812476D01*
X167381180Y-87955333D01*
X167381180Y-88050571D01*
X167333561Y-88193428D01*
X167238323Y-88288666D01*
X167143085Y-88336285D01*
X166952609Y-88383904D01*
X166809752Y-88383904D01*
X166619276Y-88336285D01*
X166524038Y-88288666D01*
X166428800Y-88193428D01*
X166381180Y-88050571D01*
X166381180Y-87955333D01*
X166428800Y-87812476D01*
X166476419Y-87764857D01*
X167381180Y-86812476D02*
X167381180Y-87383904D01*
X167381180Y-87098190D02*
X166381180Y-87098190D01*
X166524038Y-87193428D01*
X166619276Y-87288666D01*
X166666895Y-87383904D01*
X166381180Y-85955333D02*
X166381180Y-86145809D01*
X166428800Y-86241047D01*
X166476419Y-86288666D01*
X166619276Y-86383904D01*
X166809752Y-86431523D01*
X167190704Y-86431523D01*
X167285942Y-86383904D01*
X167333561Y-86336285D01*
X167381180Y-86241047D01*
X167381180Y-86050571D01*
X167333561Y-85955333D01*
X167285942Y-85907714D01*
X167190704Y-85860095D01*
X166952609Y-85860095D01*
X166857371Y-85907714D01*
X166809752Y-85955333D01*
X166762133Y-86050571D01*
X166762133Y-86241047D01*
X166809752Y-86336285D01*
X166857371Y-86383904D01*
X166952609Y-86431523D01*
%TO.C,JP7*%
X150779266Y-149522380D02*
X150779266Y-150236666D01*
X150731647Y-150379523D01*
X150636409Y-150474761D01*
X150493552Y-150522380D01*
X150398314Y-150522380D01*
X151255457Y-150522380D02*
X151255457Y-149522380D01*
X151636409Y-149522380D01*
X151731647Y-149570000D01*
X151779266Y-149617619D01*
X151826885Y-149712857D01*
X151826885Y-149855714D01*
X151779266Y-149950952D01*
X151731647Y-149998571D01*
X151636409Y-150046190D01*
X151255457Y-150046190D01*
X152160219Y-149522380D02*
X152826885Y-149522380D01*
X152398314Y-150522380D01*
%TO.C,J15*%
X200282276Y-103345180D02*
X200282276Y-104059466D01*
X200234657Y-104202323D01*
X200139419Y-104297561D01*
X199996561Y-104345180D01*
X199901323Y-104345180D01*
X201282276Y-104345180D02*
X200710847Y-104345180D01*
X200996561Y-104345180D02*
X200996561Y-103345180D01*
X200901323Y-103488038D01*
X200806085Y-103583276D01*
X200710847Y-103630895D01*
X202187038Y-103345180D02*
X201710847Y-103345180D01*
X201663228Y-103821371D01*
X201710847Y-103773752D01*
X201806085Y-103726133D01*
X202044180Y-103726133D01*
X202139419Y-103773752D01*
X202187038Y-103821371D01*
X202234657Y-103916609D01*
X202234657Y-104154704D01*
X202187038Y-104249942D01*
X202139419Y-104297561D01*
X202044180Y-104345180D01*
X201806085Y-104345180D01*
X201710847Y-104297561D01*
X201663228Y-104249942D01*
%TO.C,J11*%
X137078180Y-156663923D02*
X137792466Y-156663923D01*
X137935323Y-156711542D01*
X138030561Y-156806780D01*
X138078180Y-156949638D01*
X138078180Y-157044876D01*
X138078180Y-155663923D02*
X138078180Y-156235352D01*
X138078180Y-155949638D02*
X137078180Y-155949638D01*
X137221038Y-156044876D01*
X137316276Y-156140114D01*
X137363895Y-156235352D01*
X138078180Y-154711542D02*
X138078180Y-155282971D01*
X138078180Y-154997257D02*
X137078180Y-154997257D01*
X137221038Y-155092495D01*
X137316276Y-155187733D01*
X137363895Y-155282971D01*
%TO.C,TP9*%
X191219295Y-112848980D02*
X191790723Y-112848980D01*
X191505009Y-113848980D02*
X191505009Y-112848980D01*
X192124057Y-113848980D02*
X192124057Y-112848980D01*
X192505009Y-112848980D01*
X192600247Y-112896600D01*
X192647866Y-112944219D01*
X192695485Y-113039457D01*
X192695485Y-113182314D01*
X192647866Y-113277552D01*
X192600247Y-113325171D01*
X192505009Y-113372790D01*
X192124057Y-113372790D01*
X193171676Y-113848980D02*
X193362152Y-113848980D01*
X193457390Y-113801361D01*
X193505009Y-113753742D01*
X193600247Y-113610885D01*
X193647866Y-113420409D01*
X193647866Y-113039457D01*
X193600247Y-112944219D01*
X193552628Y-112896600D01*
X193457390Y-112848980D01*
X193266914Y-112848980D01*
X193171676Y-112896600D01*
X193124057Y-112944219D01*
X193076438Y-113039457D01*
X193076438Y-113277552D01*
X193124057Y-113372790D01*
X193171676Y-113420409D01*
X193266914Y-113468028D01*
X193457390Y-113468028D01*
X193552628Y-113420409D01*
X193600247Y-113372790D01*
X193647866Y-113277552D01*
%TO.C,C37*%
X112387142Y-138380742D02*
X112339523Y-138428361D01*
X112196666Y-138475980D01*
X112101428Y-138475980D01*
X111958571Y-138428361D01*
X111863333Y-138333123D01*
X111815714Y-138237885D01*
X111768095Y-138047409D01*
X111768095Y-137904552D01*
X111815714Y-137714076D01*
X111863333Y-137618838D01*
X111958571Y-137523600D01*
X112101428Y-137475980D01*
X112196666Y-137475980D01*
X112339523Y-137523600D01*
X112387142Y-137571219D01*
X112720476Y-137475980D02*
X113339523Y-137475980D01*
X113006190Y-137856933D01*
X113149047Y-137856933D01*
X113244285Y-137904552D01*
X113291904Y-137952171D01*
X113339523Y-138047409D01*
X113339523Y-138285504D01*
X113291904Y-138380742D01*
X113244285Y-138428361D01*
X113149047Y-138475980D01*
X112863333Y-138475980D01*
X112768095Y-138428361D01*
X112720476Y-138380742D01*
X113672857Y-137475980D02*
X114339523Y-137475980D01*
X113910952Y-138475980D01*
%TO.C,D6*%
X115330380Y-133732495D02*
X114330380Y-133732495D01*
X114330380Y-133494400D01*
X114378000Y-133351542D01*
X114473238Y-133256304D01*
X114568476Y-133208685D01*
X114758952Y-133161066D01*
X114901809Y-133161066D01*
X115092285Y-133208685D01*
X115187523Y-133256304D01*
X115282761Y-133351542D01*
X115330380Y-133494400D01*
X115330380Y-133732495D01*
X114330380Y-132303923D02*
X114330380Y-132494400D01*
X114378000Y-132589638D01*
X114425619Y-132637257D01*
X114568476Y-132732495D01*
X114758952Y-132780114D01*
X115139904Y-132780114D01*
X115235142Y-132732495D01*
X115282761Y-132684876D01*
X115330380Y-132589638D01*
X115330380Y-132399161D01*
X115282761Y-132303923D01*
X115235142Y-132256304D01*
X115139904Y-132208685D01*
X114901809Y-132208685D01*
X114806571Y-132256304D01*
X114758952Y-132303923D01*
X114711333Y-132399161D01*
X114711333Y-132589638D01*
X114758952Y-132684876D01*
X114806571Y-132732495D01*
X114901809Y-132780114D01*
%TO.C,J6*%
X159635866Y-43060980D02*
X159635866Y-43775266D01*
X159588247Y-43918123D01*
X159493009Y-44013361D01*
X159350152Y-44060980D01*
X159254914Y-44060980D01*
X160540628Y-43060980D02*
X160350152Y-43060980D01*
X160254914Y-43108600D01*
X160207295Y-43156219D01*
X160112057Y-43299076D01*
X160064438Y-43489552D01*
X160064438Y-43870504D01*
X160112057Y-43965742D01*
X160159676Y-44013361D01*
X160254914Y-44060980D01*
X160445390Y-44060980D01*
X160540628Y-44013361D01*
X160588247Y-43965742D01*
X160635866Y-43870504D01*
X160635866Y-43632409D01*
X160588247Y-43537171D01*
X160540628Y-43489552D01*
X160445390Y-43441933D01*
X160254914Y-43441933D01*
X160159676Y-43489552D01*
X160112057Y-43537171D01*
X160064438Y-43632409D01*
%TO.C,TP15*%
X158027904Y-146264380D02*
X158599333Y-146264380D01*
X158313619Y-147264380D02*
X158313619Y-146264380D01*
X158932666Y-147264380D02*
X158932666Y-146264380D01*
X159313619Y-146264380D01*
X159408857Y-146312000D01*
X159456476Y-146359619D01*
X159504095Y-146454857D01*
X159504095Y-146597714D01*
X159456476Y-146692952D01*
X159408857Y-146740571D01*
X159313619Y-146788190D01*
X158932666Y-146788190D01*
X160456476Y-147264380D02*
X159885047Y-147264380D01*
X160170761Y-147264380D02*
X160170761Y-146264380D01*
X160075523Y-146407238D01*
X159980285Y-146502476D01*
X159885047Y-146550095D01*
X161361238Y-146264380D02*
X160885047Y-146264380D01*
X160837428Y-146740571D01*
X160885047Y-146692952D01*
X160980285Y-146645333D01*
X161218380Y-146645333D01*
X161313619Y-146692952D01*
X161361238Y-146740571D01*
X161408857Y-146835809D01*
X161408857Y-147073904D01*
X161361238Y-147169142D01*
X161313619Y-147216761D01*
X161218380Y-147264380D01*
X160980285Y-147264380D01*
X160885047Y-147216761D01*
X160837428Y-147169142D01*
%TO.C,J18*%
X110747276Y-139050780D02*
X110747276Y-139765066D01*
X110699657Y-139907923D01*
X110604419Y-140003161D01*
X110461561Y-140050780D01*
X110366323Y-140050780D01*
X111747276Y-140050780D02*
X111175847Y-140050780D01*
X111461561Y-140050780D02*
X111461561Y-139050780D01*
X111366323Y-139193638D01*
X111271085Y-139288876D01*
X111175847Y-139336495D01*
X112318704Y-139479352D02*
X112223466Y-139431733D01*
X112175847Y-139384114D01*
X112128228Y-139288876D01*
X112128228Y-139241257D01*
X112175847Y-139146019D01*
X112223466Y-139098400D01*
X112318704Y-139050780D01*
X112509180Y-139050780D01*
X112604419Y-139098400D01*
X112652038Y-139146019D01*
X112699657Y-139241257D01*
X112699657Y-139288876D01*
X112652038Y-139384114D01*
X112604419Y-139431733D01*
X112509180Y-139479352D01*
X112318704Y-139479352D01*
X112223466Y-139526971D01*
X112175847Y-139574590D01*
X112128228Y-139669828D01*
X112128228Y-139860304D01*
X112175847Y-139955542D01*
X112223466Y-140003161D01*
X112318704Y-140050780D01*
X112509180Y-140050780D01*
X112604419Y-140003161D01*
X112652038Y-139955542D01*
X112699657Y-139860304D01*
X112699657Y-139669828D01*
X112652038Y-139574590D01*
X112604419Y-139526971D01*
X112509180Y-139479352D01*
%TO.C,U5*%
X117983095Y-94367380D02*
X117983095Y-95176904D01*
X118030714Y-95272142D01*
X118078333Y-95319761D01*
X118173571Y-95367380D01*
X118364047Y-95367380D01*
X118459285Y-95319761D01*
X118506904Y-95272142D01*
X118554523Y-95176904D01*
X118554523Y-94367380D01*
X119506904Y-94367380D02*
X119030714Y-94367380D01*
X118983095Y-94843571D01*
X119030714Y-94795952D01*
X119125952Y-94748333D01*
X119364047Y-94748333D01*
X119459285Y-94795952D01*
X119506904Y-94843571D01*
X119554523Y-94938809D01*
X119554523Y-95176904D01*
X119506904Y-95272142D01*
X119459285Y-95319761D01*
X119364047Y-95367380D01*
X119125952Y-95367380D01*
X119030714Y-95319761D01*
X118983095Y-95272142D01*
%TO.C,C8*%
X158925742Y-90387466D02*
X158973361Y-90435085D01*
X159020980Y-90577942D01*
X159020980Y-90673180D01*
X158973361Y-90816038D01*
X158878123Y-90911276D01*
X158782885Y-90958895D01*
X158592409Y-91006514D01*
X158449552Y-91006514D01*
X158259076Y-90958895D01*
X158163838Y-90911276D01*
X158068600Y-90816038D01*
X158020980Y-90673180D01*
X158020980Y-90577942D01*
X158068600Y-90435085D01*
X158116219Y-90387466D01*
X158449552Y-89816038D02*
X158401933Y-89911276D01*
X158354314Y-89958895D01*
X158259076Y-90006514D01*
X158211457Y-90006514D01*
X158116219Y-89958895D01*
X158068600Y-89911276D01*
X158020980Y-89816038D01*
X158020980Y-89625561D01*
X158068600Y-89530323D01*
X158116219Y-89482704D01*
X158211457Y-89435085D01*
X158259076Y-89435085D01*
X158354314Y-89482704D01*
X158401933Y-89530323D01*
X158449552Y-89625561D01*
X158449552Y-89816038D01*
X158497171Y-89911276D01*
X158544790Y-89958895D01*
X158640028Y-90006514D01*
X158830504Y-90006514D01*
X158925742Y-89958895D01*
X158973361Y-89911276D01*
X159020980Y-89816038D01*
X159020980Y-89625561D01*
X158973361Y-89530323D01*
X158925742Y-89482704D01*
X158830504Y-89435085D01*
X158640028Y-89435085D01*
X158544790Y-89482704D01*
X158497171Y-89530323D01*
X158449552Y-89625561D01*
%TO.C,R31*%
X119422942Y-125014980D02*
X119089609Y-124538790D01*
X118851514Y-125014980D02*
X118851514Y-124014980D01*
X119232466Y-124014980D01*
X119327704Y-124062600D01*
X119375323Y-124110219D01*
X119422942Y-124205457D01*
X119422942Y-124348314D01*
X119375323Y-124443552D01*
X119327704Y-124491171D01*
X119232466Y-124538790D01*
X118851514Y-124538790D01*
X119756276Y-124014980D02*
X120375323Y-124014980D01*
X120041990Y-124395933D01*
X120184847Y-124395933D01*
X120280085Y-124443552D01*
X120327704Y-124491171D01*
X120375323Y-124586409D01*
X120375323Y-124824504D01*
X120327704Y-124919742D01*
X120280085Y-124967361D01*
X120184847Y-125014980D01*
X119899133Y-125014980D01*
X119803895Y-124967361D01*
X119756276Y-124919742D01*
X121327704Y-125014980D02*
X120756276Y-125014980D01*
X121041990Y-125014980D02*
X121041990Y-124014980D01*
X120946752Y-124157838D01*
X120851514Y-124253076D01*
X120756276Y-124300695D01*
%TO.C,Q8*%
X188537819Y-66389238D02*
X188490200Y-66484476D01*
X188394961Y-66579714D01*
X188252104Y-66722571D01*
X188204485Y-66817809D01*
X188204485Y-66913047D01*
X188442580Y-66865428D02*
X188394961Y-66960666D01*
X188299723Y-67055904D01*
X188109247Y-67103523D01*
X187775914Y-67103523D01*
X187585438Y-67055904D01*
X187490200Y-66960666D01*
X187442580Y-66865428D01*
X187442580Y-66674952D01*
X187490200Y-66579714D01*
X187585438Y-66484476D01*
X187775914Y-66436857D01*
X188109247Y-66436857D01*
X188299723Y-66484476D01*
X188394961Y-66579714D01*
X188442580Y-66674952D01*
X188442580Y-66865428D01*
X187871152Y-65865428D02*
X187823533Y-65960666D01*
X187775914Y-66008285D01*
X187680676Y-66055904D01*
X187633057Y-66055904D01*
X187537819Y-66008285D01*
X187490200Y-65960666D01*
X187442580Y-65865428D01*
X187442580Y-65674952D01*
X187490200Y-65579714D01*
X187537819Y-65532095D01*
X187633057Y-65484476D01*
X187680676Y-65484476D01*
X187775914Y-65532095D01*
X187823533Y-65579714D01*
X187871152Y-65674952D01*
X187871152Y-65865428D01*
X187918771Y-65960666D01*
X187966390Y-66008285D01*
X188061628Y-66055904D01*
X188252104Y-66055904D01*
X188347342Y-66008285D01*
X188394961Y-65960666D01*
X188442580Y-65865428D01*
X188442580Y-65674952D01*
X188394961Y-65579714D01*
X188347342Y-65532095D01*
X188252104Y-65484476D01*
X188061628Y-65484476D01*
X187966390Y-65532095D01*
X187918771Y-65579714D01*
X187871152Y-65674952D01*
%TO.C,J20*%
X144021276Y-136453180D02*
X144021276Y-137167466D01*
X143973657Y-137310323D01*
X143878419Y-137405561D01*
X143735561Y-137453180D01*
X143640323Y-137453180D01*
X144449847Y-136548419D02*
X144497466Y-136500800D01*
X144592704Y-136453180D01*
X144830800Y-136453180D01*
X144926038Y-136500800D01*
X144973657Y-136548419D01*
X145021276Y-136643657D01*
X145021276Y-136738895D01*
X144973657Y-136881752D01*
X144402228Y-137453180D01*
X145021276Y-137453180D01*
X145640323Y-136453180D02*
X145735561Y-136453180D01*
X145830800Y-136500800D01*
X145878419Y-136548419D01*
X145926038Y-136643657D01*
X145973657Y-136834133D01*
X145973657Y-137072228D01*
X145926038Y-137262704D01*
X145878419Y-137357942D01*
X145830800Y-137405561D01*
X145735561Y-137453180D01*
X145640323Y-137453180D01*
X145545085Y-137405561D01*
X145497466Y-137357942D01*
X145449847Y-137262704D01*
X145402228Y-137072228D01*
X145402228Y-136834133D01*
X145449847Y-136643657D01*
X145497466Y-136548419D01*
X145545085Y-136500800D01*
X145640323Y-136453180D01*
%TO.C,R25*%
X135958342Y-114710380D02*
X135625009Y-114234190D01*
X135386914Y-114710380D02*
X135386914Y-113710380D01*
X135767866Y-113710380D01*
X135863104Y-113758000D01*
X135910723Y-113805619D01*
X135958342Y-113900857D01*
X135958342Y-114043714D01*
X135910723Y-114138952D01*
X135863104Y-114186571D01*
X135767866Y-114234190D01*
X135386914Y-114234190D01*
X136339295Y-113805619D02*
X136386914Y-113758000D01*
X136482152Y-113710380D01*
X136720247Y-113710380D01*
X136815485Y-113758000D01*
X136863104Y-113805619D01*
X136910723Y-113900857D01*
X136910723Y-113996095D01*
X136863104Y-114138952D01*
X136291676Y-114710380D01*
X136910723Y-114710380D01*
X137815485Y-113710380D02*
X137339295Y-113710380D01*
X137291676Y-114186571D01*
X137339295Y-114138952D01*
X137434533Y-114091333D01*
X137672628Y-114091333D01*
X137767866Y-114138952D01*
X137815485Y-114186571D01*
X137863104Y-114281809D01*
X137863104Y-114519904D01*
X137815485Y-114615142D01*
X137767866Y-114662761D01*
X137672628Y-114710380D01*
X137434533Y-114710380D01*
X137339295Y-114662761D01*
X137291676Y-114615142D01*
%TO.C,C36*%
X116908342Y-137669542D02*
X116860723Y-137717161D01*
X116717866Y-137764780D01*
X116622628Y-137764780D01*
X116479771Y-137717161D01*
X116384533Y-137621923D01*
X116336914Y-137526685D01*
X116289295Y-137336209D01*
X116289295Y-137193352D01*
X116336914Y-137002876D01*
X116384533Y-136907638D01*
X116479771Y-136812400D01*
X116622628Y-136764780D01*
X116717866Y-136764780D01*
X116860723Y-136812400D01*
X116908342Y-136860019D01*
X117241676Y-136764780D02*
X117860723Y-136764780D01*
X117527390Y-137145733D01*
X117670247Y-137145733D01*
X117765485Y-137193352D01*
X117813104Y-137240971D01*
X117860723Y-137336209D01*
X117860723Y-137574304D01*
X117813104Y-137669542D01*
X117765485Y-137717161D01*
X117670247Y-137764780D01*
X117384533Y-137764780D01*
X117289295Y-137717161D01*
X117241676Y-137669542D01*
X118717866Y-136764780D02*
X118527390Y-136764780D01*
X118432152Y-136812400D01*
X118384533Y-136860019D01*
X118289295Y-137002876D01*
X118241676Y-137193352D01*
X118241676Y-137574304D01*
X118289295Y-137669542D01*
X118336914Y-137717161D01*
X118432152Y-137764780D01*
X118622628Y-137764780D01*
X118717866Y-137717161D01*
X118765485Y-137669542D01*
X118813104Y-137574304D01*
X118813104Y-137336209D01*
X118765485Y-137240971D01*
X118717866Y-137193352D01*
X118622628Y-137145733D01*
X118432152Y-137145733D01*
X118336914Y-137193352D01*
X118289295Y-137240971D01*
X118241676Y-137336209D01*
%TO.C,J5*%
X205127266Y-81160579D02*
X205127266Y-81874865D01*
X205079647Y-82017722D01*
X204984409Y-82112960D01*
X204841552Y-82160579D01*
X204746314Y-82160579D01*
X206079647Y-81160579D02*
X205603457Y-81160579D01*
X205555838Y-81636770D01*
X205603457Y-81589151D01*
X205698695Y-81541532D01*
X205936790Y-81541532D01*
X206032028Y-81589151D01*
X206079647Y-81636770D01*
X206127266Y-81732008D01*
X206127266Y-81970103D01*
X206079647Y-82065341D01*
X206032028Y-82112960D01*
X205936790Y-82160579D01*
X205698695Y-82160579D01*
X205603457Y-82112960D01*
X205555838Y-82065341D01*
D11*
%TO.C,C32*%
X115911007Y-115356693D02*
X115929755Y-115375441D01*
X115948502Y-115431684D01*
X115948502Y-115469179D01*
X115929755Y-115525422D01*
X115892259Y-115562917D01*
X115854764Y-115581665D01*
X115779773Y-115600413D01*
X115723530Y-115600413D01*
X115648540Y-115581665D01*
X115611044Y-115562917D01*
X115573549Y-115525422D01*
X115554801Y-115469179D01*
X115554801Y-115431684D01*
X115573549Y-115375441D01*
X115592297Y-115356693D01*
X115554801Y-115225459D02*
X115554801Y-114981740D01*
X115704783Y-115112973D01*
X115704783Y-115056730D01*
X115723530Y-115019235D01*
X115742278Y-115000487D01*
X115779773Y-114981740D01*
X115873512Y-114981740D01*
X115911007Y-115000487D01*
X115929755Y-115019235D01*
X115948502Y-115056730D01*
X115948502Y-115169216D01*
X115929755Y-115206712D01*
X115911007Y-115225459D01*
X115592297Y-114831758D02*
X115573549Y-114813011D01*
X115554801Y-114775515D01*
X115554801Y-114681777D01*
X115573549Y-114644282D01*
X115592297Y-114625534D01*
X115629792Y-114606786D01*
X115667287Y-114606786D01*
X115723530Y-114625534D01*
X115948502Y-114850506D01*
X115948502Y-114606786D01*
D10*
%TO.C,C22*%
X120896142Y-71570142D02*
X120848523Y-71617761D01*
X120705666Y-71665380D01*
X120610428Y-71665380D01*
X120467571Y-71617761D01*
X120372333Y-71522523D01*
X120324714Y-71427285D01*
X120277095Y-71236809D01*
X120277095Y-71093952D01*
X120324714Y-70903476D01*
X120372333Y-70808238D01*
X120467571Y-70713000D01*
X120610428Y-70665380D01*
X120705666Y-70665380D01*
X120848523Y-70713000D01*
X120896142Y-70760619D01*
X121277095Y-70760619D02*
X121324714Y-70713000D01*
X121419952Y-70665380D01*
X121658047Y-70665380D01*
X121753285Y-70713000D01*
X121800904Y-70760619D01*
X121848523Y-70855857D01*
X121848523Y-70951095D01*
X121800904Y-71093952D01*
X121229476Y-71665380D01*
X121848523Y-71665380D01*
X122229476Y-70760619D02*
X122277095Y-70713000D01*
X122372333Y-70665380D01*
X122610428Y-70665380D01*
X122705666Y-70713000D01*
X122753285Y-70760619D01*
X122800904Y-70855857D01*
X122800904Y-70951095D01*
X122753285Y-71093952D01*
X122181857Y-71665380D01*
X122800904Y-71665380D01*
%TO.C,R1*%
X157907980Y-140222266D02*
X157431790Y-140555600D01*
X157907980Y-140793695D02*
X156907980Y-140793695D01*
X156907980Y-140412742D01*
X156955600Y-140317504D01*
X157003219Y-140269885D01*
X157098457Y-140222266D01*
X157241314Y-140222266D01*
X157336552Y-140269885D01*
X157384171Y-140317504D01*
X157431790Y-140412742D01*
X157431790Y-140793695D01*
X157907980Y-139269885D02*
X157907980Y-139841314D01*
X157907980Y-139555600D02*
X156907980Y-139555600D01*
X157050838Y-139650838D01*
X157146076Y-139746076D01*
X157193695Y-139841314D01*
%TO.C,C18*%
X164253942Y-84968142D02*
X164206323Y-85015761D01*
X164063466Y-85063380D01*
X163968228Y-85063380D01*
X163825371Y-85015761D01*
X163730133Y-84920523D01*
X163682514Y-84825285D01*
X163634895Y-84634809D01*
X163634895Y-84491952D01*
X163682514Y-84301476D01*
X163730133Y-84206238D01*
X163825371Y-84111000D01*
X163968228Y-84063380D01*
X164063466Y-84063380D01*
X164206323Y-84111000D01*
X164253942Y-84158619D01*
X165206323Y-85063380D02*
X164634895Y-85063380D01*
X164920609Y-85063380D02*
X164920609Y-84063380D01*
X164825371Y-84206238D01*
X164730133Y-84301476D01*
X164634895Y-84349095D01*
X165777752Y-84491952D02*
X165682514Y-84444333D01*
X165634895Y-84396714D01*
X165587276Y-84301476D01*
X165587276Y-84253857D01*
X165634895Y-84158619D01*
X165682514Y-84111000D01*
X165777752Y-84063380D01*
X165968228Y-84063380D01*
X166063466Y-84111000D01*
X166111085Y-84158619D01*
X166158704Y-84253857D01*
X166158704Y-84301476D01*
X166111085Y-84396714D01*
X166063466Y-84444333D01*
X165968228Y-84491952D01*
X165777752Y-84491952D01*
X165682514Y-84539571D01*
X165634895Y-84587190D01*
X165587276Y-84682428D01*
X165587276Y-84872904D01*
X165634895Y-84968142D01*
X165682514Y-85015761D01*
X165777752Y-85063380D01*
X165968228Y-85063380D01*
X166063466Y-85015761D01*
X166111085Y-84968142D01*
X166158704Y-84872904D01*
X166158704Y-84682428D01*
X166111085Y-84587190D01*
X166063466Y-84539571D01*
X165968228Y-84491952D01*
%TO.C,C13*%
X177842942Y-97591942D02*
X177795323Y-97639561D01*
X177652466Y-97687180D01*
X177557228Y-97687180D01*
X177414371Y-97639561D01*
X177319133Y-97544323D01*
X177271514Y-97449085D01*
X177223895Y-97258609D01*
X177223895Y-97115752D01*
X177271514Y-96925276D01*
X177319133Y-96830038D01*
X177414371Y-96734800D01*
X177557228Y-96687180D01*
X177652466Y-96687180D01*
X177795323Y-96734800D01*
X177842942Y-96782419D01*
X178795323Y-97687180D02*
X178223895Y-97687180D01*
X178509609Y-97687180D02*
X178509609Y-96687180D01*
X178414371Y-96830038D01*
X178319133Y-96925276D01*
X178223895Y-96972895D01*
X179128657Y-96687180D02*
X179747704Y-96687180D01*
X179414371Y-97068133D01*
X179557228Y-97068133D01*
X179652466Y-97115752D01*
X179700085Y-97163371D01*
X179747704Y-97258609D01*
X179747704Y-97496704D01*
X179700085Y-97591942D01*
X179652466Y-97639561D01*
X179557228Y-97687180D01*
X179271514Y-97687180D01*
X179176276Y-97639561D01*
X179128657Y-97591942D01*
%TO.C,R4*%
X157922933Y-141905980D02*
X157589600Y-141429790D01*
X157351504Y-141905980D02*
X157351504Y-140905980D01*
X157732457Y-140905980D01*
X157827695Y-140953600D01*
X157875314Y-141001219D01*
X157922933Y-141096457D01*
X157922933Y-141239314D01*
X157875314Y-141334552D01*
X157827695Y-141382171D01*
X157732457Y-141429790D01*
X157351504Y-141429790D01*
X158780076Y-141239314D02*
X158780076Y-141905980D01*
X158541980Y-140858361D02*
X158303885Y-141572647D01*
X158922933Y-141572647D01*
%TO.C,R10*%
X153789142Y-89403180D02*
X153455809Y-88926990D01*
X153217714Y-89403180D02*
X153217714Y-88403180D01*
X153598666Y-88403180D01*
X153693904Y-88450800D01*
X153741523Y-88498419D01*
X153789142Y-88593657D01*
X153789142Y-88736514D01*
X153741523Y-88831752D01*
X153693904Y-88879371D01*
X153598666Y-88926990D01*
X153217714Y-88926990D01*
X154741523Y-89403180D02*
X154170095Y-89403180D01*
X154455809Y-89403180D02*
X154455809Y-88403180D01*
X154360571Y-88546038D01*
X154265333Y-88641276D01*
X154170095Y-88688895D01*
X155360571Y-88403180D02*
X155455809Y-88403180D01*
X155551047Y-88450800D01*
X155598666Y-88498419D01*
X155646285Y-88593657D01*
X155693904Y-88784133D01*
X155693904Y-89022228D01*
X155646285Y-89212704D01*
X155598666Y-89307942D01*
X155551047Y-89355561D01*
X155455809Y-89403180D01*
X155360571Y-89403180D01*
X155265333Y-89355561D01*
X155217714Y-89307942D01*
X155170095Y-89212704D01*
X155122476Y-89022228D01*
X155122476Y-88784133D01*
X155170095Y-88593657D01*
X155217714Y-88498419D01*
X155265333Y-88450800D01*
X155360571Y-88403180D01*
%TO.C,Q1*%
X138294161Y-86871019D02*
X138198923Y-86823400D01*
X138103685Y-86728161D01*
X137960828Y-86585304D01*
X137865590Y-86537685D01*
X137770352Y-86537685D01*
X137817971Y-86775780D02*
X137722733Y-86728161D01*
X137627495Y-86632923D01*
X137579876Y-86442447D01*
X137579876Y-86109114D01*
X137627495Y-85918638D01*
X137722733Y-85823400D01*
X137817971Y-85775780D01*
X138008447Y-85775780D01*
X138103685Y-85823400D01*
X138198923Y-85918638D01*
X138246542Y-86109114D01*
X138246542Y-86442447D01*
X138198923Y-86632923D01*
X138103685Y-86728161D01*
X138008447Y-86775780D01*
X137817971Y-86775780D01*
X139198923Y-86775780D02*
X138627495Y-86775780D01*
X138913209Y-86775780D02*
X138913209Y-85775780D01*
X138817971Y-85918638D01*
X138722733Y-86013876D01*
X138627495Y-86061495D01*
%TO.C,TP12*%
X190641504Y-108226180D02*
X191212933Y-108226180D01*
X190927219Y-109226180D02*
X190927219Y-108226180D01*
X191546266Y-109226180D02*
X191546266Y-108226180D01*
X191927219Y-108226180D01*
X192022457Y-108273800D01*
X192070076Y-108321419D01*
X192117695Y-108416657D01*
X192117695Y-108559514D01*
X192070076Y-108654752D01*
X192022457Y-108702371D01*
X191927219Y-108749990D01*
X191546266Y-108749990D01*
X193070076Y-109226180D02*
X192498647Y-109226180D01*
X192784361Y-109226180D02*
X192784361Y-108226180D01*
X192689123Y-108369038D01*
X192593885Y-108464276D01*
X192498647Y-108511895D01*
X193451028Y-108321419D02*
X193498647Y-108273800D01*
X193593885Y-108226180D01*
X193831980Y-108226180D01*
X193927219Y-108273800D01*
X193974838Y-108321419D01*
X194022457Y-108416657D01*
X194022457Y-108511895D01*
X193974838Y-108654752D01*
X193403409Y-109226180D01*
X194022457Y-109226180D01*
%TO.C,JP9*%
X148264666Y-149522380D02*
X148264666Y-150236666D01*
X148217047Y-150379523D01*
X148121809Y-150474761D01*
X147978952Y-150522380D01*
X147883714Y-150522380D01*
X148740857Y-150522380D02*
X148740857Y-149522380D01*
X149121809Y-149522380D01*
X149217047Y-149570000D01*
X149264666Y-149617619D01*
X149312285Y-149712857D01*
X149312285Y-149855714D01*
X149264666Y-149950952D01*
X149217047Y-149998571D01*
X149121809Y-150046190D01*
X148740857Y-150046190D01*
X149788476Y-150522380D02*
X149978952Y-150522380D01*
X150074190Y-150474761D01*
X150121809Y-150427142D01*
X150217047Y-150284285D01*
X150264666Y-150093809D01*
X150264666Y-149712857D01*
X150217047Y-149617619D01*
X150169428Y-149570000D01*
X150074190Y-149522380D01*
X149883714Y-149522380D01*
X149788476Y-149570000D01*
X149740857Y-149617619D01*
X149693238Y-149712857D01*
X149693238Y-149950952D01*
X149740857Y-150046190D01*
X149788476Y-150093809D01*
X149883714Y-150141428D01*
X150074190Y-150141428D01*
X150169428Y-150093809D01*
X150217047Y-150046190D01*
X150264666Y-149950952D01*
%TO.C,J21*%
X109629676Y-112308180D02*
X109629676Y-113022466D01*
X109582057Y-113165323D01*
X109486819Y-113260561D01*
X109343961Y-113308180D01*
X109248723Y-113308180D01*
X110058247Y-112403419D02*
X110105866Y-112355800D01*
X110201104Y-112308180D01*
X110439200Y-112308180D01*
X110534438Y-112355800D01*
X110582057Y-112403419D01*
X110629676Y-112498657D01*
X110629676Y-112593895D01*
X110582057Y-112736752D01*
X110010628Y-113308180D01*
X110629676Y-113308180D01*
X111582057Y-113308180D02*
X111010628Y-113308180D01*
X111296342Y-113308180D02*
X111296342Y-112308180D01*
X111201104Y-112451038D01*
X111105866Y-112546276D01*
X111010628Y-112593895D01*
%TO.C,C21*%
X134840742Y-51893742D02*
X134793123Y-51941361D01*
X134650266Y-51988980D01*
X134555028Y-51988980D01*
X134412171Y-51941361D01*
X134316933Y-51846123D01*
X134269314Y-51750885D01*
X134221695Y-51560409D01*
X134221695Y-51417552D01*
X134269314Y-51227076D01*
X134316933Y-51131838D01*
X134412171Y-51036600D01*
X134555028Y-50988980D01*
X134650266Y-50988980D01*
X134793123Y-51036600D01*
X134840742Y-51084219D01*
X135221695Y-51084219D02*
X135269314Y-51036600D01*
X135364552Y-50988980D01*
X135602647Y-50988980D01*
X135697885Y-51036600D01*
X135745504Y-51084219D01*
X135793123Y-51179457D01*
X135793123Y-51274695D01*
X135745504Y-51417552D01*
X135174076Y-51988980D01*
X135793123Y-51988980D01*
X136745504Y-51988980D02*
X136174076Y-51988980D01*
X136459790Y-51988980D02*
X136459790Y-50988980D01*
X136364552Y-51131838D01*
X136269314Y-51227076D01*
X136174076Y-51274695D01*
%TO.C,C9*%
X156602133Y-88749142D02*
X156554514Y-88796761D01*
X156411657Y-88844380D01*
X156316419Y-88844380D01*
X156173561Y-88796761D01*
X156078323Y-88701523D01*
X156030704Y-88606285D01*
X155983085Y-88415809D01*
X155983085Y-88272952D01*
X156030704Y-88082476D01*
X156078323Y-87987238D01*
X156173561Y-87892000D01*
X156316419Y-87844380D01*
X156411657Y-87844380D01*
X156554514Y-87892000D01*
X156602133Y-87939619D01*
X157078323Y-88844380D02*
X157268800Y-88844380D01*
X157364038Y-88796761D01*
X157411657Y-88749142D01*
X157506895Y-88606285D01*
X157554514Y-88415809D01*
X157554514Y-88034857D01*
X157506895Y-87939619D01*
X157459276Y-87892000D01*
X157364038Y-87844380D01*
X157173561Y-87844380D01*
X157078323Y-87892000D01*
X157030704Y-87939619D01*
X156983085Y-88034857D01*
X156983085Y-88272952D01*
X157030704Y-88368190D01*
X157078323Y-88415809D01*
X157173561Y-88463428D01*
X157364038Y-88463428D01*
X157459276Y-88415809D01*
X157506895Y-88368190D01*
X157554514Y-88272952D01*
%TO.C,C17*%
X180078142Y-82221342D02*
X180030523Y-82268961D01*
X179887666Y-82316580D01*
X179792428Y-82316580D01*
X179649571Y-82268961D01*
X179554333Y-82173723D01*
X179506714Y-82078485D01*
X179459095Y-81888009D01*
X179459095Y-81745152D01*
X179506714Y-81554676D01*
X179554333Y-81459438D01*
X179649571Y-81364200D01*
X179792428Y-81316580D01*
X179887666Y-81316580D01*
X180030523Y-81364200D01*
X180078142Y-81411819D01*
X181030523Y-82316580D02*
X180459095Y-82316580D01*
X180744809Y-82316580D02*
X180744809Y-81316580D01*
X180649571Y-81459438D01*
X180554333Y-81554676D01*
X180459095Y-81602295D01*
X181363857Y-81316580D02*
X182030523Y-81316580D01*
X181601952Y-82316580D01*
%TO.C,C10*%
X160901142Y-95915542D02*
X160853523Y-95963161D01*
X160710666Y-96010780D01*
X160615428Y-96010780D01*
X160472571Y-95963161D01*
X160377333Y-95867923D01*
X160329714Y-95772685D01*
X160282095Y-95582209D01*
X160282095Y-95439352D01*
X160329714Y-95248876D01*
X160377333Y-95153638D01*
X160472571Y-95058400D01*
X160615428Y-95010780D01*
X160710666Y-95010780D01*
X160853523Y-95058400D01*
X160901142Y-95106019D01*
X161853523Y-96010780D02*
X161282095Y-96010780D01*
X161567809Y-96010780D02*
X161567809Y-95010780D01*
X161472571Y-95153638D01*
X161377333Y-95248876D01*
X161282095Y-95296495D01*
X162472571Y-95010780D02*
X162567809Y-95010780D01*
X162663047Y-95058400D01*
X162710666Y-95106019D01*
X162758285Y-95201257D01*
X162805904Y-95391733D01*
X162805904Y-95629828D01*
X162758285Y-95820304D01*
X162710666Y-95915542D01*
X162663047Y-95963161D01*
X162567809Y-96010780D01*
X162472571Y-96010780D01*
X162377333Y-95963161D01*
X162329714Y-95915542D01*
X162282095Y-95820304D01*
X162234476Y-95629828D01*
X162234476Y-95391733D01*
X162282095Y-95201257D01*
X162329714Y-95106019D01*
X162377333Y-95058400D01*
X162472571Y-95010780D01*
%TO.C,J3*%
X179504380Y-154638333D02*
X180218666Y-154638333D01*
X180361523Y-154685952D01*
X180456761Y-154781190D01*
X180504380Y-154924047D01*
X180504380Y-155019285D01*
X179504380Y-154257380D02*
X179504380Y-153638333D01*
X179885333Y-153971666D01*
X179885333Y-153828809D01*
X179932952Y-153733571D01*
X179980571Y-153685952D01*
X180075809Y-153638333D01*
X180313904Y-153638333D01*
X180409142Y-153685952D01*
X180456761Y-153733571D01*
X180504380Y-153828809D01*
X180504380Y-154114523D01*
X180456761Y-154209761D01*
X180409142Y-154257380D01*
%TO.C,TP16*%
X147867904Y-122983580D02*
X148439333Y-122983580D01*
X148153619Y-123983580D02*
X148153619Y-122983580D01*
X148772666Y-123983580D02*
X148772666Y-122983580D01*
X149153619Y-122983580D01*
X149248857Y-123031200D01*
X149296476Y-123078819D01*
X149344095Y-123174057D01*
X149344095Y-123316914D01*
X149296476Y-123412152D01*
X149248857Y-123459771D01*
X149153619Y-123507390D01*
X148772666Y-123507390D01*
X150296476Y-123983580D02*
X149725047Y-123983580D01*
X150010761Y-123983580D02*
X150010761Y-122983580D01*
X149915523Y-123126438D01*
X149820285Y-123221676D01*
X149725047Y-123269295D01*
X151153619Y-122983580D02*
X150963142Y-122983580D01*
X150867904Y-123031200D01*
X150820285Y-123078819D01*
X150725047Y-123221676D01*
X150677428Y-123412152D01*
X150677428Y-123793104D01*
X150725047Y-123888342D01*
X150772666Y-123935961D01*
X150867904Y-123983580D01*
X151058380Y-123983580D01*
X151153619Y-123935961D01*
X151201238Y-123888342D01*
X151248857Y-123793104D01*
X151248857Y-123555009D01*
X151201238Y-123459771D01*
X151153619Y-123412152D01*
X151058380Y-123364533D01*
X150867904Y-123364533D01*
X150772666Y-123412152D01*
X150725047Y-123459771D01*
X150677428Y-123555009D01*
%TO.C,R7*%
X161208980Y-87136266D02*
X160732790Y-87469600D01*
X161208980Y-87707695D02*
X160208980Y-87707695D01*
X160208980Y-87326742D01*
X160256600Y-87231504D01*
X160304219Y-87183885D01*
X160399457Y-87136266D01*
X160542314Y-87136266D01*
X160637552Y-87183885D01*
X160685171Y-87231504D01*
X160732790Y-87326742D01*
X160732790Y-87707695D01*
X160208980Y-86802933D02*
X160208980Y-86136266D01*
X161208980Y-86564838D01*
%TO.C,C23*%
X138980942Y-94130342D02*
X138933323Y-94177961D01*
X138790466Y-94225580D01*
X138695228Y-94225580D01*
X138552371Y-94177961D01*
X138457133Y-94082723D01*
X138409514Y-93987485D01*
X138361895Y-93797009D01*
X138361895Y-93654152D01*
X138409514Y-93463676D01*
X138457133Y-93368438D01*
X138552371Y-93273200D01*
X138695228Y-93225580D01*
X138790466Y-93225580D01*
X138933323Y-93273200D01*
X138980942Y-93320819D01*
X139361895Y-93320819D02*
X139409514Y-93273200D01*
X139504752Y-93225580D01*
X139742847Y-93225580D01*
X139838085Y-93273200D01*
X139885704Y-93320819D01*
X139933323Y-93416057D01*
X139933323Y-93511295D01*
X139885704Y-93654152D01*
X139314276Y-94225580D01*
X139933323Y-94225580D01*
X140266657Y-93225580D02*
X140885704Y-93225580D01*
X140552371Y-93606533D01*
X140695228Y-93606533D01*
X140790466Y-93654152D01*
X140838085Y-93701771D01*
X140885704Y-93797009D01*
X140885704Y-94035104D01*
X140838085Y-94130342D01*
X140790466Y-94177961D01*
X140695228Y-94225580D01*
X140409514Y-94225580D01*
X140314276Y-94177961D01*
X140266657Y-94130342D01*
%TO.C,J1*%
X122966666Y-153352380D02*
X122966666Y-154066666D01*
X122919047Y-154209523D01*
X122823809Y-154304761D01*
X122680952Y-154352380D01*
X122585714Y-154352380D01*
X123966666Y-154352380D02*
X123395238Y-154352380D01*
X123680952Y-154352380D02*
X123680952Y-153352380D01*
X123585714Y-153495238D01*
X123490476Y-153590476D01*
X123395238Y-153638095D01*
%TO.C,JP11*%
X152158980Y-101207723D02*
X152873266Y-101207723D01*
X153016123Y-101255342D01*
X153111361Y-101350580D01*
X153158980Y-101493438D01*
X153158980Y-101588676D01*
X153158980Y-100731533D02*
X152158980Y-100731533D01*
X152158980Y-100350580D01*
X152206600Y-100255342D01*
X152254219Y-100207723D01*
X152349457Y-100160104D01*
X152492314Y-100160104D01*
X152587552Y-100207723D01*
X152635171Y-100255342D01*
X152682790Y-100350580D01*
X152682790Y-100731533D01*
X153158980Y-99207723D02*
X153158980Y-99779152D01*
X153158980Y-99493438D02*
X152158980Y-99493438D01*
X152301838Y-99588676D01*
X152397076Y-99683914D01*
X152444695Y-99779152D01*
X153158980Y-98255342D02*
X153158980Y-98826771D01*
X153158980Y-98541057D02*
X152158980Y-98541057D01*
X152301838Y-98636295D01*
X152397076Y-98731533D01*
X152444695Y-98826771D01*
%TO.C,SW1*%
X123897778Y-140057801D02*
X124040635Y-140105420D01*
X124278731Y-140105420D01*
X124373969Y-140057801D01*
X124421588Y-140010182D01*
X124469207Y-139914944D01*
X124469207Y-139819706D01*
X124421588Y-139724468D01*
X124373969Y-139676849D01*
X124278731Y-139629230D01*
X124088254Y-139581611D01*
X123993016Y-139533992D01*
X123945397Y-139486373D01*
X123897778Y-139391135D01*
X123897778Y-139295897D01*
X123945397Y-139200659D01*
X123993016Y-139153040D01*
X124088254Y-139105420D01*
X124326350Y-139105420D01*
X124469207Y-139153040D01*
X124802540Y-139105420D02*
X125040635Y-140105420D01*
X125231112Y-139391135D01*
X125421588Y-140105420D01*
X125659683Y-139105420D01*
X126564445Y-140105420D02*
X125993016Y-140105420D01*
X126278731Y-140105420D02*
X126278731Y-139105420D01*
X126183492Y-139248278D01*
X126088254Y-139343516D01*
X125993016Y-139391135D01*
%TO.C,Q4*%
X180127961Y-82032419D02*
X180032723Y-81984800D01*
X179937485Y-81889561D01*
X179794628Y-81746704D01*
X179699390Y-81699085D01*
X179604152Y-81699085D01*
X179651771Y-81937180D02*
X179556533Y-81889561D01*
X179461295Y-81794323D01*
X179413676Y-81603847D01*
X179413676Y-81270514D01*
X179461295Y-81080038D01*
X179556533Y-80984800D01*
X179651771Y-80937180D01*
X179842247Y-80937180D01*
X179937485Y-80984800D01*
X180032723Y-81080038D01*
X180080342Y-81270514D01*
X180080342Y-81603847D01*
X180032723Y-81794323D01*
X179937485Y-81889561D01*
X179842247Y-81937180D01*
X179651771Y-81937180D01*
X180937485Y-81270514D02*
X180937485Y-81937180D01*
X180699390Y-80889561D02*
X180461295Y-81603847D01*
X181080342Y-81603847D01*
%TO.C,TP3*%
X154821095Y-157338780D02*
X155392523Y-157338780D01*
X155106809Y-158338780D02*
X155106809Y-157338780D01*
X155725857Y-158338780D02*
X155725857Y-157338780D01*
X156106809Y-157338780D01*
X156202047Y-157386400D01*
X156249666Y-157434019D01*
X156297285Y-157529257D01*
X156297285Y-157672114D01*
X156249666Y-157767352D01*
X156202047Y-157814971D01*
X156106809Y-157862590D01*
X155725857Y-157862590D01*
X156630619Y-157338780D02*
X157249666Y-157338780D01*
X156916333Y-157719733D01*
X157059190Y-157719733D01*
X157154428Y-157767352D01*
X157202047Y-157814971D01*
X157249666Y-157910209D01*
X157249666Y-158148304D01*
X157202047Y-158243542D01*
X157154428Y-158291161D01*
X157059190Y-158338780D01*
X156773476Y-158338780D01*
X156678238Y-158291161D01*
X156630619Y-158243542D01*
%TO.C,R29*%
X131995942Y-131059180D02*
X131662609Y-130582990D01*
X131424514Y-131059180D02*
X131424514Y-130059180D01*
X131805466Y-130059180D01*
X131900704Y-130106800D01*
X131948323Y-130154419D01*
X131995942Y-130249657D01*
X131995942Y-130392514D01*
X131948323Y-130487752D01*
X131900704Y-130535371D01*
X131805466Y-130582990D01*
X131424514Y-130582990D01*
X132376895Y-130154419D02*
X132424514Y-130106800D01*
X132519752Y-130059180D01*
X132757847Y-130059180D01*
X132853085Y-130106800D01*
X132900704Y-130154419D01*
X132948323Y-130249657D01*
X132948323Y-130344895D01*
X132900704Y-130487752D01*
X132329276Y-131059180D01*
X132948323Y-131059180D01*
X133424514Y-131059180D02*
X133614990Y-131059180D01*
X133710228Y-131011561D01*
X133757847Y-130963942D01*
X133853085Y-130821085D01*
X133900704Y-130630609D01*
X133900704Y-130249657D01*
X133853085Y-130154419D01*
X133805466Y-130106800D01*
X133710228Y-130059180D01*
X133519752Y-130059180D01*
X133424514Y-130106800D01*
X133376895Y-130154419D01*
X133329276Y-130249657D01*
X133329276Y-130487752D01*
X133376895Y-130582990D01*
X133424514Y-130630609D01*
X133519752Y-130678228D01*
X133710228Y-130678228D01*
X133805466Y-130630609D01*
X133853085Y-130582990D01*
X133900704Y-130487752D01*
%TO.C,J19*%
X152606476Y-123461980D02*
X152606476Y-124176266D01*
X152558857Y-124319123D01*
X152463619Y-124414361D01*
X152320761Y-124461980D01*
X152225523Y-124461980D01*
X153606476Y-124461980D02*
X153035047Y-124461980D01*
X153320761Y-124461980D02*
X153320761Y-123461980D01*
X153225523Y-123604838D01*
X153130285Y-123700076D01*
X153035047Y-123747695D01*
X154082666Y-124461980D02*
X154273142Y-124461980D01*
X154368380Y-124414361D01*
X154416000Y-124366742D01*
X154511238Y-124223885D01*
X154558857Y-124033409D01*
X154558857Y-123652457D01*
X154511238Y-123557219D01*
X154463619Y-123509600D01*
X154368380Y-123461980D01*
X154177904Y-123461980D01*
X154082666Y-123509600D01*
X154035047Y-123557219D01*
X153987428Y-123652457D01*
X153987428Y-123890552D01*
X154035047Y-123985790D01*
X154082666Y-124033409D01*
X154177904Y-124081028D01*
X154368380Y-124081028D01*
X154463619Y-124033409D01*
X154511238Y-123985790D01*
X154558857Y-123890552D01*
%TO.C,J17*%
X187734676Y-101534980D02*
X187734676Y-102249266D01*
X187687057Y-102392123D01*
X187591819Y-102487361D01*
X187448961Y-102534980D01*
X187353723Y-102534980D01*
X188734676Y-102534980D02*
X188163247Y-102534980D01*
X188448961Y-102534980D02*
X188448961Y-101534980D01*
X188353723Y-101677838D01*
X188258485Y-101773076D01*
X188163247Y-101820695D01*
X189068009Y-101534980D02*
X189734676Y-101534980D01*
X189306104Y-102534980D01*
%TO.C,C31*%
X128795542Y-106021142D02*
X128747923Y-106068761D01*
X128605066Y-106116380D01*
X128509828Y-106116380D01*
X128366971Y-106068761D01*
X128271733Y-105973523D01*
X128224114Y-105878285D01*
X128176495Y-105687809D01*
X128176495Y-105544952D01*
X128224114Y-105354476D01*
X128271733Y-105259238D01*
X128366971Y-105164000D01*
X128509828Y-105116380D01*
X128605066Y-105116380D01*
X128747923Y-105164000D01*
X128795542Y-105211619D01*
X129128876Y-105116380D02*
X129747923Y-105116380D01*
X129414590Y-105497333D01*
X129557447Y-105497333D01*
X129652685Y-105544952D01*
X129700304Y-105592571D01*
X129747923Y-105687809D01*
X129747923Y-105925904D01*
X129700304Y-106021142D01*
X129652685Y-106068761D01*
X129557447Y-106116380D01*
X129271733Y-106116380D01*
X129176495Y-106068761D01*
X129128876Y-106021142D01*
X130700304Y-106116380D02*
X130128876Y-106116380D01*
X130414590Y-106116380D02*
X130414590Y-105116380D01*
X130319352Y-105259238D01*
X130224114Y-105354476D01*
X130128876Y-105402095D01*
%TO.C,R16*%
X174404542Y-87727780D02*
X174071209Y-87251590D01*
X173833114Y-87727780D02*
X173833114Y-86727780D01*
X174214066Y-86727780D01*
X174309304Y-86775400D01*
X174356923Y-86823019D01*
X174404542Y-86918257D01*
X174404542Y-87061114D01*
X174356923Y-87156352D01*
X174309304Y-87203971D01*
X174214066Y-87251590D01*
X173833114Y-87251590D01*
X175356923Y-87727780D02*
X174785495Y-87727780D01*
X175071209Y-87727780D02*
X175071209Y-86727780D01*
X174975971Y-86870638D01*
X174880733Y-86965876D01*
X174785495Y-87013495D01*
X176214066Y-86727780D02*
X176023590Y-86727780D01*
X175928352Y-86775400D01*
X175880733Y-86823019D01*
X175785495Y-86965876D01*
X175737876Y-87156352D01*
X175737876Y-87537304D01*
X175785495Y-87632542D01*
X175833114Y-87680161D01*
X175928352Y-87727780D01*
X176118828Y-87727780D01*
X176214066Y-87680161D01*
X176261685Y-87632542D01*
X176309304Y-87537304D01*
X176309304Y-87299209D01*
X176261685Y-87203971D01*
X176214066Y-87156352D01*
X176118828Y-87108733D01*
X175928352Y-87108733D01*
X175833114Y-87156352D01*
X175785495Y-87203971D01*
X175737876Y-87299209D01*
%TO.C,J8*%
X160576380Y-140719133D02*
X161290666Y-140719133D01*
X161433523Y-140766752D01*
X161528761Y-140861990D01*
X161576380Y-141004847D01*
X161576380Y-141100085D01*
X161004952Y-140100085D02*
X160957333Y-140195323D01*
X160909714Y-140242942D01*
X160814476Y-140290561D01*
X160766857Y-140290561D01*
X160671619Y-140242942D01*
X160624000Y-140195323D01*
X160576380Y-140100085D01*
X160576380Y-139909609D01*
X160624000Y-139814371D01*
X160671619Y-139766752D01*
X160766857Y-139719133D01*
X160814476Y-139719133D01*
X160909714Y-139766752D01*
X160957333Y-139814371D01*
X161004952Y-139909609D01*
X161004952Y-140100085D01*
X161052571Y-140195323D01*
X161100190Y-140242942D01*
X161195428Y-140290561D01*
X161385904Y-140290561D01*
X161481142Y-140242942D01*
X161528761Y-140195323D01*
X161576380Y-140100085D01*
X161576380Y-139909609D01*
X161528761Y-139814371D01*
X161481142Y-139766752D01*
X161385904Y-139719133D01*
X161195428Y-139719133D01*
X161100190Y-139766752D01*
X161052571Y-139814371D01*
X161004952Y-139909609D01*
%TO.C,C35*%
X124375942Y-136399542D02*
X124328323Y-136447161D01*
X124185466Y-136494780D01*
X124090228Y-136494780D01*
X123947371Y-136447161D01*
X123852133Y-136351923D01*
X123804514Y-136256685D01*
X123756895Y-136066209D01*
X123756895Y-135923352D01*
X123804514Y-135732876D01*
X123852133Y-135637638D01*
X123947371Y-135542400D01*
X124090228Y-135494780D01*
X124185466Y-135494780D01*
X124328323Y-135542400D01*
X124375942Y-135590019D01*
X124709276Y-135494780D02*
X125328323Y-135494780D01*
X124994990Y-135875733D01*
X125137847Y-135875733D01*
X125233085Y-135923352D01*
X125280704Y-135970971D01*
X125328323Y-136066209D01*
X125328323Y-136304304D01*
X125280704Y-136399542D01*
X125233085Y-136447161D01*
X125137847Y-136494780D01*
X124852133Y-136494780D01*
X124756895Y-136447161D01*
X124709276Y-136399542D01*
X126233085Y-135494780D02*
X125756895Y-135494780D01*
X125709276Y-135970971D01*
X125756895Y-135923352D01*
X125852133Y-135875733D01*
X126090228Y-135875733D01*
X126185466Y-135923352D01*
X126233085Y-135970971D01*
X126280704Y-136066209D01*
X126280704Y-136304304D01*
X126233085Y-136399542D01*
X126185466Y-136447161D01*
X126090228Y-136494780D01*
X125852133Y-136494780D01*
X125756895Y-136447161D01*
X125709276Y-136399542D01*
%TO.C,R30*%
X116451142Y-127529580D02*
X116117809Y-127053390D01*
X115879714Y-127529580D02*
X115879714Y-126529580D01*
X116260666Y-126529580D01*
X116355904Y-126577200D01*
X116403523Y-126624819D01*
X116451142Y-126720057D01*
X116451142Y-126862914D01*
X116403523Y-126958152D01*
X116355904Y-127005771D01*
X116260666Y-127053390D01*
X115879714Y-127053390D01*
X116784476Y-126529580D02*
X117403523Y-126529580D01*
X117070190Y-126910533D01*
X117213047Y-126910533D01*
X117308285Y-126958152D01*
X117355904Y-127005771D01*
X117403523Y-127101009D01*
X117403523Y-127339104D01*
X117355904Y-127434342D01*
X117308285Y-127481961D01*
X117213047Y-127529580D01*
X116927333Y-127529580D01*
X116832095Y-127481961D01*
X116784476Y-127434342D01*
X118022571Y-126529580D02*
X118117809Y-126529580D01*
X118213047Y-126577200D01*
X118260666Y-126624819D01*
X118308285Y-126720057D01*
X118355904Y-126910533D01*
X118355904Y-127148628D01*
X118308285Y-127339104D01*
X118260666Y-127434342D01*
X118213047Y-127481961D01*
X118117809Y-127529580D01*
X118022571Y-127529580D01*
X117927333Y-127481961D01*
X117879714Y-127434342D01*
X117832095Y-127339104D01*
X117784476Y-127148628D01*
X117784476Y-126910533D01*
X117832095Y-126720057D01*
X117879714Y-126624819D01*
X117927333Y-126577200D01*
X118022571Y-126529580D01*
%TO.C,R28*%
X131995942Y-124556780D02*
X131662609Y-124080590D01*
X131424514Y-124556780D02*
X131424514Y-123556780D01*
X131805466Y-123556780D01*
X131900704Y-123604400D01*
X131948323Y-123652019D01*
X131995942Y-123747257D01*
X131995942Y-123890114D01*
X131948323Y-123985352D01*
X131900704Y-124032971D01*
X131805466Y-124080590D01*
X131424514Y-124080590D01*
X132376895Y-123652019D02*
X132424514Y-123604400D01*
X132519752Y-123556780D01*
X132757847Y-123556780D01*
X132853085Y-123604400D01*
X132900704Y-123652019D01*
X132948323Y-123747257D01*
X132948323Y-123842495D01*
X132900704Y-123985352D01*
X132329276Y-124556780D01*
X132948323Y-124556780D01*
X133519752Y-123985352D02*
X133424514Y-123937733D01*
X133376895Y-123890114D01*
X133329276Y-123794876D01*
X133329276Y-123747257D01*
X133376895Y-123652019D01*
X133424514Y-123604400D01*
X133519752Y-123556780D01*
X133710228Y-123556780D01*
X133805466Y-123604400D01*
X133853085Y-123652019D01*
X133900704Y-123747257D01*
X133900704Y-123794876D01*
X133853085Y-123890114D01*
X133805466Y-123937733D01*
X133710228Y-123985352D01*
X133519752Y-123985352D01*
X133424514Y-124032971D01*
X133376895Y-124080590D01*
X133329276Y-124175828D01*
X133329276Y-124366304D01*
X133376895Y-124461542D01*
X133424514Y-124509161D01*
X133519752Y-124556780D01*
X133710228Y-124556780D01*
X133805466Y-124509161D01*
X133853085Y-124461542D01*
X133900704Y-124366304D01*
X133900704Y-124175828D01*
X133853085Y-124080590D01*
X133805466Y-124032971D01*
X133710228Y-123985352D01*
%TO.C,C4*%
X157211733Y-124864342D02*
X157164114Y-124911961D01*
X157021257Y-124959580D01*
X156926019Y-124959580D01*
X156783161Y-124911961D01*
X156687923Y-124816723D01*
X156640304Y-124721485D01*
X156592685Y-124531009D01*
X156592685Y-124388152D01*
X156640304Y-124197676D01*
X156687923Y-124102438D01*
X156783161Y-124007200D01*
X156926019Y-123959580D01*
X157021257Y-123959580D01*
X157164114Y-124007200D01*
X157211733Y-124054819D01*
X158068876Y-124292914D02*
X158068876Y-124959580D01*
X157830780Y-123911961D02*
X157592685Y-124626247D01*
X158211733Y-124626247D01*
%TO.C,C5*%
X151217333Y-138224742D02*
X151169714Y-138272361D01*
X151026857Y-138319980D01*
X150931619Y-138319980D01*
X150788761Y-138272361D01*
X150693523Y-138177123D01*
X150645904Y-138081885D01*
X150598285Y-137891409D01*
X150598285Y-137748552D01*
X150645904Y-137558076D01*
X150693523Y-137462838D01*
X150788761Y-137367600D01*
X150931619Y-137319980D01*
X151026857Y-137319980D01*
X151169714Y-137367600D01*
X151217333Y-137415219D01*
X152122095Y-137319980D02*
X151645904Y-137319980D01*
X151598285Y-137796171D01*
X151645904Y-137748552D01*
X151741142Y-137700933D01*
X151979238Y-137700933D01*
X152074476Y-137748552D01*
X152122095Y-137796171D01*
X152169714Y-137891409D01*
X152169714Y-138129504D01*
X152122095Y-138224742D01*
X152074476Y-138272361D01*
X151979238Y-138319980D01*
X151741142Y-138319980D01*
X151645904Y-138272361D01*
X151598285Y-138224742D01*
%TO.C,R18*%
X148251942Y-66061580D02*
X147918609Y-65585390D01*
X147680514Y-66061580D02*
X147680514Y-65061580D01*
X148061466Y-65061580D01*
X148156704Y-65109200D01*
X148204323Y-65156819D01*
X148251942Y-65252057D01*
X148251942Y-65394914D01*
X148204323Y-65490152D01*
X148156704Y-65537771D01*
X148061466Y-65585390D01*
X147680514Y-65585390D01*
X149204323Y-66061580D02*
X148632895Y-66061580D01*
X148918609Y-66061580D02*
X148918609Y-65061580D01*
X148823371Y-65204438D01*
X148728133Y-65299676D01*
X148632895Y-65347295D01*
X149775752Y-65490152D02*
X149680514Y-65442533D01*
X149632895Y-65394914D01*
X149585276Y-65299676D01*
X149585276Y-65252057D01*
X149632895Y-65156819D01*
X149680514Y-65109200D01*
X149775752Y-65061580D01*
X149966228Y-65061580D01*
X150061466Y-65109200D01*
X150109085Y-65156819D01*
X150156704Y-65252057D01*
X150156704Y-65299676D01*
X150109085Y-65394914D01*
X150061466Y-65442533D01*
X149966228Y-65490152D01*
X149775752Y-65490152D01*
X149680514Y-65537771D01*
X149632895Y-65585390D01*
X149585276Y-65680628D01*
X149585276Y-65871104D01*
X149632895Y-65966342D01*
X149680514Y-66013961D01*
X149775752Y-66061580D01*
X149966228Y-66061580D01*
X150061466Y-66013961D01*
X150109085Y-65966342D01*
X150156704Y-65871104D01*
X150156704Y-65680628D01*
X150109085Y-65585390D01*
X150061466Y-65537771D01*
X149966228Y-65490152D01*
%TO.C,JP3*%
X196792175Y-98731631D02*
X197506461Y-98731631D01*
X197649318Y-98779250D01*
X197744556Y-98874488D01*
X197792175Y-99017345D01*
X197792175Y-99112583D01*
X197792175Y-98255440D02*
X196792175Y-98255440D01*
X196792175Y-97874488D01*
X196839795Y-97779250D01*
X196887414Y-97731631D01*
X196982652Y-97684012D01*
X197125509Y-97684012D01*
X197220747Y-97731631D01*
X197268366Y-97779250D01*
X197315985Y-97874488D01*
X197315985Y-98255440D01*
X196792175Y-97350678D02*
X196792175Y-96731631D01*
X197173128Y-97064964D01*
X197173128Y-96922107D01*
X197220747Y-96826869D01*
X197268366Y-96779250D01*
X197363604Y-96731631D01*
X197601699Y-96731631D01*
X197696937Y-96779250D01*
X197744556Y-96826869D01*
X197792175Y-96922107D01*
X197792175Y-97207821D01*
X197744556Y-97303059D01*
X197696937Y-97350678D01*
%TO.C,U4*%
X120650095Y-113426380D02*
X120650095Y-114235904D01*
X120697714Y-114331142D01*
X120745333Y-114378761D01*
X120840571Y-114426380D01*
X121031047Y-114426380D01*
X121126285Y-114378761D01*
X121173904Y-114331142D01*
X121221523Y-114235904D01*
X121221523Y-113426380D01*
X122126285Y-113759714D02*
X122126285Y-114426380D01*
X121888190Y-113378761D02*
X121650095Y-114093047D01*
X122269142Y-114093047D01*
%TO.C,Q11*%
X156248171Y-120054019D02*
X156152933Y-120006400D01*
X156057695Y-119911161D01*
X155914838Y-119768304D01*
X155819600Y-119720685D01*
X155724361Y-119720685D01*
X155771980Y-119958780D02*
X155676742Y-119911161D01*
X155581504Y-119815923D01*
X155533885Y-119625447D01*
X155533885Y-119292114D01*
X155581504Y-119101638D01*
X155676742Y-119006400D01*
X155771980Y-118958780D01*
X155962457Y-118958780D01*
X156057695Y-119006400D01*
X156152933Y-119101638D01*
X156200552Y-119292114D01*
X156200552Y-119625447D01*
X156152933Y-119815923D01*
X156057695Y-119911161D01*
X155962457Y-119958780D01*
X155771980Y-119958780D01*
X157152933Y-119958780D02*
X156581504Y-119958780D01*
X156867219Y-119958780D02*
X156867219Y-118958780D01*
X156771980Y-119101638D01*
X156676742Y-119196876D01*
X156581504Y-119244495D01*
X158105314Y-119958780D02*
X157533885Y-119958780D01*
X157819600Y-119958780D02*
X157819600Y-118958780D01*
X157724361Y-119101638D01*
X157629123Y-119196876D01*
X157533885Y-119244495D01*
%TO.C,J16*%
X183670676Y-101534980D02*
X183670676Y-102249266D01*
X183623057Y-102392123D01*
X183527819Y-102487361D01*
X183384961Y-102534980D01*
X183289723Y-102534980D01*
X184670676Y-102534980D02*
X184099247Y-102534980D01*
X184384961Y-102534980D02*
X184384961Y-101534980D01*
X184289723Y-101677838D01*
X184194485Y-101773076D01*
X184099247Y-101820695D01*
X185527819Y-101534980D02*
X185337342Y-101534980D01*
X185242104Y-101582600D01*
X185194485Y-101630219D01*
X185099247Y-101773076D01*
X185051628Y-101963552D01*
X185051628Y-102344504D01*
X185099247Y-102439742D01*
X185146866Y-102487361D01*
X185242104Y-102534980D01*
X185432580Y-102534980D01*
X185527819Y-102487361D01*
X185575438Y-102439742D01*
X185623057Y-102344504D01*
X185623057Y-102106409D01*
X185575438Y-102011171D01*
X185527819Y-101963552D01*
X185432580Y-101915933D01*
X185242104Y-101915933D01*
X185146866Y-101963552D01*
X185099247Y-102011171D01*
X185051628Y-102106409D01*
%TO.C,Q9*%
X144376619Y-139607238D02*
X144329000Y-139702476D01*
X144233761Y-139797714D01*
X144090904Y-139940571D01*
X144043285Y-140035809D01*
X144043285Y-140131047D01*
X144281380Y-140083428D02*
X144233761Y-140178666D01*
X144138523Y-140273904D01*
X143948047Y-140321523D01*
X143614714Y-140321523D01*
X143424238Y-140273904D01*
X143329000Y-140178666D01*
X143281380Y-140083428D01*
X143281380Y-139892952D01*
X143329000Y-139797714D01*
X143424238Y-139702476D01*
X143614714Y-139654857D01*
X143948047Y-139654857D01*
X144138523Y-139702476D01*
X144233761Y-139797714D01*
X144281380Y-139892952D01*
X144281380Y-140083428D01*
X144281380Y-139178666D02*
X144281380Y-138988190D01*
X144233761Y-138892952D01*
X144186142Y-138845333D01*
X144043285Y-138750095D01*
X143852809Y-138702476D01*
X143471857Y-138702476D01*
X143376619Y-138750095D01*
X143329000Y-138797714D01*
X143281380Y-138892952D01*
X143281380Y-139083428D01*
X143329000Y-139178666D01*
X143376619Y-139226285D01*
X143471857Y-139273904D01*
X143709952Y-139273904D01*
X143805190Y-139226285D01*
X143852809Y-139178666D01*
X143900428Y-139083428D01*
X143900428Y-138892952D01*
X143852809Y-138797714D01*
X143805190Y-138750095D01*
X143709952Y-138702476D01*
%TO.C,C33*%
X149743142Y-109024057D02*
X149790761Y-109071676D01*
X149838380Y-109214533D01*
X149838380Y-109309771D01*
X149790761Y-109452628D01*
X149695523Y-109547866D01*
X149600285Y-109595485D01*
X149409809Y-109643104D01*
X149266952Y-109643104D01*
X149076476Y-109595485D01*
X148981238Y-109547866D01*
X148886000Y-109452628D01*
X148838380Y-109309771D01*
X148838380Y-109214533D01*
X148886000Y-109071676D01*
X148933619Y-109024057D01*
X148838380Y-108690723D02*
X148838380Y-108071676D01*
X149219333Y-108405009D01*
X149219333Y-108262152D01*
X149266952Y-108166914D01*
X149314571Y-108119295D01*
X149409809Y-108071676D01*
X149647904Y-108071676D01*
X149743142Y-108119295D01*
X149790761Y-108166914D01*
X149838380Y-108262152D01*
X149838380Y-108547866D01*
X149790761Y-108643104D01*
X149743142Y-108690723D01*
X148838380Y-107738342D02*
X148838380Y-107119295D01*
X149219333Y-107452628D01*
X149219333Y-107309771D01*
X149266952Y-107214533D01*
X149314571Y-107166914D01*
X149409809Y-107119295D01*
X149647904Y-107119295D01*
X149743142Y-107166914D01*
X149790761Y-107214533D01*
X149838380Y-107309771D01*
X149838380Y-107595485D01*
X149790761Y-107690723D01*
X149743142Y-107738342D01*
%TO.C,J23*%
X152301676Y-118940780D02*
X152301676Y-119655066D01*
X152254057Y-119797923D01*
X152158819Y-119893161D01*
X152015961Y-119940780D01*
X151920723Y-119940780D01*
X152730247Y-119036019D02*
X152777866Y-118988400D01*
X152873104Y-118940780D01*
X153111200Y-118940780D01*
X153206438Y-118988400D01*
X153254057Y-119036019D01*
X153301676Y-119131257D01*
X153301676Y-119226495D01*
X153254057Y-119369352D01*
X152682628Y-119940780D01*
X153301676Y-119940780D01*
X153635009Y-118940780D02*
X154254057Y-118940780D01*
X153920723Y-119321733D01*
X154063580Y-119321733D01*
X154158819Y-119369352D01*
X154206438Y-119416971D01*
X154254057Y-119512209D01*
X154254057Y-119750304D01*
X154206438Y-119845542D01*
X154158819Y-119893161D01*
X154063580Y-119940780D01*
X153777866Y-119940780D01*
X153682628Y-119893161D01*
X153635009Y-119845542D01*
%TO.C,R22*%
X131507580Y-103004857D02*
X131031390Y-103338190D01*
X131507580Y-103576285D02*
X130507580Y-103576285D01*
X130507580Y-103195333D01*
X130555200Y-103100095D01*
X130602819Y-103052476D01*
X130698057Y-103004857D01*
X130840914Y-103004857D01*
X130936152Y-103052476D01*
X130983771Y-103100095D01*
X131031390Y-103195333D01*
X131031390Y-103576285D01*
X130602819Y-102623904D02*
X130555200Y-102576285D01*
X130507580Y-102481047D01*
X130507580Y-102242952D01*
X130555200Y-102147714D01*
X130602819Y-102100095D01*
X130698057Y-102052476D01*
X130793295Y-102052476D01*
X130936152Y-102100095D01*
X131507580Y-102671523D01*
X131507580Y-102052476D01*
X130602819Y-101671523D02*
X130555200Y-101623904D01*
X130507580Y-101528666D01*
X130507580Y-101290571D01*
X130555200Y-101195333D01*
X130602819Y-101147714D01*
X130698057Y-101100095D01*
X130793295Y-101100095D01*
X130936152Y-101147714D01*
X131507580Y-101719142D01*
X131507580Y-101100095D01*
%TO.C,JP8*%
X145724666Y-149517380D02*
X145724666Y-150231666D01*
X145677047Y-150374523D01*
X145581809Y-150469761D01*
X145438952Y-150517380D01*
X145343714Y-150517380D01*
X146200857Y-150517380D02*
X146200857Y-149517380D01*
X146581809Y-149517380D01*
X146677047Y-149565000D01*
X146724666Y-149612619D01*
X146772285Y-149707857D01*
X146772285Y-149850714D01*
X146724666Y-149945952D01*
X146677047Y-149993571D01*
X146581809Y-150041190D01*
X146200857Y-150041190D01*
X147343714Y-149945952D02*
X147248476Y-149898333D01*
X147200857Y-149850714D01*
X147153238Y-149755476D01*
X147153238Y-149707857D01*
X147200857Y-149612619D01*
X147248476Y-149565000D01*
X147343714Y-149517380D01*
X147534190Y-149517380D01*
X147629428Y-149565000D01*
X147677047Y-149612619D01*
X147724666Y-149707857D01*
X147724666Y-149755476D01*
X147677047Y-149850714D01*
X147629428Y-149898333D01*
X147534190Y-149945952D01*
X147343714Y-149945952D01*
X147248476Y-149993571D01*
X147200857Y-150041190D01*
X147153238Y-150136428D01*
X147153238Y-150326904D01*
X147200857Y-150422142D01*
X147248476Y-150469761D01*
X147343714Y-150517380D01*
X147534190Y-150517380D01*
X147629428Y-150469761D01*
X147677047Y-150422142D01*
X147724666Y-150326904D01*
X147724666Y-150136428D01*
X147677047Y-150041190D01*
X147629428Y-149993571D01*
X147534190Y-149945952D01*
%TO.C,J2*%
X204873266Y-102137780D02*
X204873266Y-102852066D01*
X204825647Y-102994923D01*
X204730409Y-103090161D01*
X204587552Y-103137780D01*
X204492314Y-103137780D01*
X205301838Y-102233019D02*
X205349457Y-102185400D01*
X205444695Y-102137780D01*
X205682790Y-102137780D01*
X205778028Y-102185400D01*
X205825647Y-102233019D01*
X205873266Y-102328257D01*
X205873266Y-102423495D01*
X205825647Y-102566352D01*
X205254219Y-103137780D01*
X205873266Y-103137780D01*
D11*
%TO.C,C26*%
X142281807Y-104402293D02*
X142300555Y-104421041D01*
X142319302Y-104477284D01*
X142319302Y-104514779D01*
X142300555Y-104571022D01*
X142263059Y-104608517D01*
X142225564Y-104627265D01*
X142150573Y-104646013D01*
X142094330Y-104646013D01*
X142019340Y-104627265D01*
X141981844Y-104608517D01*
X141944349Y-104571022D01*
X141925601Y-104514779D01*
X141925601Y-104477284D01*
X141944349Y-104421041D01*
X141963097Y-104402293D01*
X141963097Y-104252312D02*
X141944349Y-104233564D01*
X141925601Y-104196069D01*
X141925601Y-104102330D01*
X141944349Y-104064835D01*
X141963097Y-104046087D01*
X142000592Y-104027340D01*
X142038087Y-104027340D01*
X142094330Y-104046087D01*
X142319302Y-104271059D01*
X142319302Y-104027340D01*
X141925601Y-103689882D02*
X141925601Y-103764872D01*
X141944349Y-103802368D01*
X141963097Y-103821115D01*
X142019340Y-103858611D01*
X142094330Y-103877358D01*
X142244312Y-103877358D01*
X142281807Y-103858611D01*
X142300555Y-103839863D01*
X142319302Y-103802368D01*
X142319302Y-103727377D01*
X142300555Y-103689882D01*
X142281807Y-103671134D01*
X142244312Y-103652386D01*
X142150573Y-103652386D01*
X142113078Y-103671134D01*
X142094330Y-103689882D01*
X142075583Y-103727377D01*
X142075583Y-103802368D01*
X142094330Y-103839863D01*
X142113078Y-103858611D01*
X142150573Y-103877358D01*
D10*
%TO.C,TP14*%
X186653704Y-108099180D02*
X187225133Y-108099180D01*
X186939419Y-109099180D02*
X186939419Y-108099180D01*
X187558466Y-109099180D02*
X187558466Y-108099180D01*
X187939419Y-108099180D01*
X188034657Y-108146800D01*
X188082276Y-108194419D01*
X188129895Y-108289657D01*
X188129895Y-108432514D01*
X188082276Y-108527752D01*
X188034657Y-108575371D01*
X187939419Y-108622990D01*
X187558466Y-108622990D01*
X189082276Y-109099180D02*
X188510847Y-109099180D01*
X188796561Y-109099180D02*
X188796561Y-108099180D01*
X188701323Y-108242038D01*
X188606085Y-108337276D01*
X188510847Y-108384895D01*
X189939419Y-108432514D02*
X189939419Y-109099180D01*
X189701323Y-108051561D02*
X189463228Y-108765847D01*
X190082276Y-108765847D01*
%TO.C,R15*%
X200271142Y-81545780D02*
X199937809Y-81069590D01*
X199699714Y-81545780D02*
X199699714Y-80545780D01*
X200080666Y-80545780D01*
X200175904Y-80593400D01*
X200223523Y-80641019D01*
X200271142Y-80736257D01*
X200271142Y-80879114D01*
X200223523Y-80974352D01*
X200175904Y-81021971D01*
X200080666Y-81069590D01*
X199699714Y-81069590D01*
X201223523Y-81545780D02*
X200652095Y-81545780D01*
X200937809Y-81545780D02*
X200937809Y-80545780D01*
X200842571Y-80688638D01*
X200747333Y-80783876D01*
X200652095Y-80831495D01*
X202128285Y-80545780D02*
X201652095Y-80545780D01*
X201604476Y-81021971D01*
X201652095Y-80974352D01*
X201747333Y-80926733D01*
X201985428Y-80926733D01*
X202080666Y-80974352D01*
X202128285Y-81021971D01*
X202175904Y-81117209D01*
X202175904Y-81355304D01*
X202128285Y-81450542D01*
X202080666Y-81498161D01*
X201985428Y-81545780D01*
X201747333Y-81545780D01*
X201652095Y-81498161D01*
X201604476Y-81450542D01*
%TO.C,JP5*%
X137977666Y-149517380D02*
X137977666Y-150231666D01*
X137930047Y-150374523D01*
X137834809Y-150469761D01*
X137691952Y-150517380D01*
X137596714Y-150517380D01*
X138453857Y-150517380D02*
X138453857Y-149517380D01*
X138834809Y-149517380D01*
X138930047Y-149565000D01*
X138977666Y-149612619D01*
X139025285Y-149707857D01*
X139025285Y-149850714D01*
X138977666Y-149945952D01*
X138930047Y-149993571D01*
X138834809Y-150041190D01*
X138453857Y-150041190D01*
X139930047Y-149517380D02*
X139453857Y-149517380D01*
X139406238Y-149993571D01*
X139453857Y-149945952D01*
X139549095Y-149898333D01*
X139787190Y-149898333D01*
X139882428Y-149945952D01*
X139930047Y-149993571D01*
X139977666Y-150088809D01*
X139977666Y-150326904D01*
X139930047Y-150422142D01*
X139882428Y-150469761D01*
X139787190Y-150517380D01*
X139549095Y-150517380D01*
X139453857Y-150469761D01*
X139406238Y-150422142D01*
%TO.C,U7*%
X123037695Y-119670580D02*
X123037695Y-120480104D01*
X123085314Y-120575342D01*
X123132933Y-120622961D01*
X123228171Y-120670580D01*
X123418647Y-120670580D01*
X123513885Y-120622961D01*
X123561504Y-120575342D01*
X123609123Y-120480104D01*
X123609123Y-119670580D01*
X123990076Y-119670580D02*
X124656742Y-119670580D01*
X124228171Y-120670580D01*
%TO.C,TP1*%
X158656495Y-148586780D02*
X159227923Y-148586780D01*
X158942209Y-149586780D02*
X158942209Y-148586780D01*
X159561257Y-149586780D02*
X159561257Y-148586780D01*
X159942209Y-148586780D01*
X160037447Y-148634400D01*
X160085066Y-148682019D01*
X160132685Y-148777257D01*
X160132685Y-148920114D01*
X160085066Y-149015352D01*
X160037447Y-149062971D01*
X159942209Y-149110590D01*
X159561257Y-149110590D01*
X161085066Y-149586780D02*
X160513638Y-149586780D01*
X160799352Y-149586780D02*
X160799352Y-148586780D01*
X160704114Y-148729638D01*
X160608876Y-148824876D01*
X160513638Y-148872495D01*
%TO.C,Q2*%
X159883419Y-76896038D02*
X159835800Y-76991276D01*
X159740561Y-77086514D01*
X159597704Y-77229371D01*
X159550085Y-77324609D01*
X159550085Y-77419847D01*
X159788180Y-77372228D02*
X159740561Y-77467466D01*
X159645323Y-77562704D01*
X159454847Y-77610323D01*
X159121514Y-77610323D01*
X158931038Y-77562704D01*
X158835800Y-77467466D01*
X158788180Y-77372228D01*
X158788180Y-77181752D01*
X158835800Y-77086514D01*
X158931038Y-76991276D01*
X159121514Y-76943657D01*
X159454847Y-76943657D01*
X159645323Y-76991276D01*
X159740561Y-77086514D01*
X159788180Y-77181752D01*
X159788180Y-77372228D01*
X158883419Y-76562704D02*
X158835800Y-76515085D01*
X158788180Y-76419847D01*
X158788180Y-76181752D01*
X158835800Y-76086514D01*
X158883419Y-76038895D01*
X158978657Y-75991276D01*
X159073895Y-75991276D01*
X159216752Y-76038895D01*
X159788180Y-76610323D01*
X159788180Y-75991276D01*
%TO.C,R14*%
X139107942Y-89809580D02*
X138774609Y-89333390D01*
X138536514Y-89809580D02*
X138536514Y-88809580D01*
X138917466Y-88809580D01*
X139012704Y-88857200D01*
X139060323Y-88904819D01*
X139107942Y-89000057D01*
X139107942Y-89142914D01*
X139060323Y-89238152D01*
X139012704Y-89285771D01*
X138917466Y-89333390D01*
X138536514Y-89333390D01*
X140060323Y-89809580D02*
X139488895Y-89809580D01*
X139774609Y-89809580D02*
X139774609Y-88809580D01*
X139679371Y-88952438D01*
X139584133Y-89047676D01*
X139488895Y-89095295D01*
X140917466Y-89142914D02*
X140917466Y-89809580D01*
X140679371Y-88761961D02*
X140441276Y-89476247D01*
X141060323Y-89476247D01*
%TO.C,TP10*%
X186653704Y-103374780D02*
X187225133Y-103374780D01*
X186939419Y-104374780D02*
X186939419Y-103374780D01*
X187558466Y-104374780D02*
X187558466Y-103374780D01*
X187939419Y-103374780D01*
X188034657Y-103422400D01*
X188082276Y-103470019D01*
X188129895Y-103565257D01*
X188129895Y-103708114D01*
X188082276Y-103803352D01*
X188034657Y-103850971D01*
X187939419Y-103898590D01*
X187558466Y-103898590D01*
X189082276Y-104374780D02*
X188510847Y-104374780D01*
X188796561Y-104374780D02*
X188796561Y-103374780D01*
X188701323Y-103517638D01*
X188606085Y-103612876D01*
X188510847Y-103660495D01*
X189701323Y-103374780D02*
X189796561Y-103374780D01*
X189891800Y-103422400D01*
X189939419Y-103470019D01*
X189987038Y-103565257D01*
X190034657Y-103755733D01*
X190034657Y-103993828D01*
X189987038Y-104184304D01*
X189939419Y-104279542D01*
X189891800Y-104327161D01*
X189796561Y-104374780D01*
X189701323Y-104374780D01*
X189606085Y-104327161D01*
X189558466Y-104279542D01*
X189510847Y-104184304D01*
X189463228Y-103993828D01*
X189463228Y-103755733D01*
X189510847Y-103565257D01*
X189558466Y-103470019D01*
X189606085Y-103422400D01*
X189701323Y-103374780D01*
D12*
%TO.C,U3*%
X160800000Y-104200000D02*
X160800000Y-110950000D01*
X178800000Y-128950000D02*
X178800000Y-129700000D01*
X178800000Y-110140000D02*
X160800000Y-110140000D01*
X160800000Y-128950000D02*
X160800000Y-129700000D01*
X178050000Y-129700000D02*
X176300000Y-129700000D01*
X160800000Y-104200000D02*
X178800000Y-104200000D01*
X178800000Y-104200000D02*
X178800000Y-110950000D01*
X161550000Y-129700000D02*
X163300000Y-129700000D01*
X178800000Y-129700000D02*
X178050000Y-129700000D01*
X160800000Y-129700000D02*
X161550000Y-129700000D01*
%TO.C,J7*%
X206562000Y-122809000D02*
X206562000Y-133029000D01*
X203902000Y-122809000D02*
X206562000Y-122809000D01*
X203902000Y-121539000D02*
X203902000Y-120209000D01*
X203902000Y-133029000D02*
X206562000Y-133029000D01*
X203902000Y-122809000D02*
X203902000Y-133029000D01*
X203902000Y-120209000D02*
X205232000Y-120209000D01*
%TO.C,J9*%
X204029000Y-107569000D02*
X206689000Y-107569000D01*
X206689000Y-107569000D02*
X206689000Y-117789000D01*
X204029000Y-106299000D02*
X204029000Y-104969000D01*
X204029000Y-117789000D02*
X206689000Y-117789000D01*
X204029000Y-104969000D02*
X205359000Y-104969000D01*
X204029000Y-107569000D02*
X204029000Y-117789000D01*
%TO.C,R3*%
X171434136Y-134141800D02*
X172888264Y-134141800D01*
X171434136Y-135961800D02*
X172888264Y-135961800D01*
%TO.C,D1*%
X168880800Y-133739000D02*
X164820800Y-133739000D01*
X168880800Y-136009000D02*
X168880800Y-133739000D01*
X164820800Y-136009000D02*
X168880800Y-136009000D01*
%TO.C,U2*%
X181427657Y-150896400D02*
X186727657Y-150896400D01*
X189077600Y-138653600D02*
X186727657Y-138653600D01*
X176834800Y-138653600D02*
X176834800Y-150896400D01*
X176834800Y-150896400D02*
X181427657Y-150896400D01*
X189077600Y-150896400D02*
X189077600Y-138653600D01*
X184484742Y-138653600D02*
X181427657Y-138653600D01*
X186727657Y-150896400D02*
X189077600Y-150896400D01*
X179184743Y-138653600D02*
X176834800Y-138653600D01*
X180509400Y-152674400D02*
G75*
G03*
X180509400Y-152674400I-203200J0D01*
G01*
%TO.C,R27*%
X129529864Y-133091600D02*
X128075736Y-133091600D01*
X129529864Y-131271600D02*
X128075736Y-131271600D01*
%TO.C,D4*%
X119598800Y-140039600D02*
X115748800Y-140039600D01*
X119598800Y-140039600D02*
X119598800Y-138039600D01*
X119598800Y-138039600D02*
X115748800Y-138039600D01*
%TO.C,Q6*%
X167931200Y-69719400D02*
X167931200Y-64594400D01*
X159341200Y-71219400D02*
X159341200Y-69719400D01*
X161151200Y-69719400D02*
X161151200Y-68619400D01*
X169741200Y-71219400D02*
X169741200Y-69719400D01*
X169741200Y-69719400D02*
X167931200Y-69719400D01*
X159341200Y-69719400D02*
X161151200Y-69719400D01*
%TO.C,R21*%
X112506136Y-96109200D02*
X113960264Y-96109200D01*
X112506136Y-94289200D02*
X113960264Y-94289200D01*
%TO.C,D5*%
X116478000Y-130365600D02*
X115678000Y-130365600D01*
X115678000Y-131665600D02*
X115678000Y-130365600D01*
X116478000Y-131665600D02*
X116478000Y-130365600D01*
%TO.C,JP6*%
X142688000Y-153670000D02*
X142688000Y-156270000D01*
X142688000Y-156270000D02*
X145348000Y-156270000D01*
X142688000Y-153670000D02*
X145348000Y-153670000D01*
X142688000Y-152400000D02*
X142688000Y-151070000D01*
X142688000Y-151070000D02*
X144018000Y-151070000D01*
X145348000Y-153670000D02*
X145348000Y-156270000D01*
D13*
%TO.C,C25*%
X142690400Y-111719200D02*
X142690400Y-109159200D01*
X148190400Y-111719200D02*
X148190400Y-109159200D01*
D12*
%TO.C,C7*%
X139848634Y-105636787D02*
X139479167Y-105267320D01*
X138809187Y-106676234D02*
X138439720Y-106306767D01*
%TO.C,R2*%
X149534200Y-116652664D02*
X149534200Y-115198536D01*
X151354200Y-116652664D02*
X151354200Y-115198536D01*
%TO.C,C2*%
X176649748Y-135583600D02*
X177172252Y-135583600D01*
X176649748Y-134113600D02*
X177172252Y-134113600D01*
%TO.C,U8*%
X124548089Y-129860527D02*
X124548089Y-129191367D01*
X124548089Y-134449167D02*
X124548089Y-133780007D01*
X119290289Y-129191367D02*
X119290289Y-129860527D01*
X119959449Y-129191367D02*
X119290289Y-129191367D01*
X124548089Y-129191367D02*
X123878929Y-129191367D01*
X119290289Y-133780007D02*
X119290289Y-134449167D01*
X119290289Y-134449167D02*
X119959449Y-134449167D01*
X123878929Y-134449167D02*
X124548089Y-134449167D01*
G36*
X121609690Y-135134967D02*
G01*
X121228690Y-135134967D01*
X121228690Y-134880967D01*
X121609690Y-134880967D01*
X121609690Y-135134967D01*
G37*
D14*
X121609690Y-135134967D02*
X121228690Y-135134967D01*
X121228690Y-134880967D01*
X121609690Y-134880967D01*
X121609690Y-135134967D01*
G36*
X125233889Y-131010766D02*
G01*
X124979889Y-131010766D01*
X124979889Y-130629766D01*
X125233889Y-130629766D01*
X125233889Y-131010766D01*
G37*
X125233889Y-131010766D02*
X124979889Y-131010766D01*
X124979889Y-130629766D01*
X125233889Y-130629766D01*
X125233889Y-131010766D01*
D12*
%TO.C,J13*%
X134035800Y-154542800D02*
X126355800Y-154542800D01*
X134035800Y-151882800D02*
X134035800Y-154542800D01*
X126355800Y-151882800D02*
X126355800Y-154542800D01*
X135305800Y-151882800D02*
X136635800Y-151882800D01*
X136635800Y-151882800D02*
X136635800Y-153212800D01*
X134035800Y-151882800D02*
X126355800Y-151882800D01*
%TO.C,J10*%
X140182600Y-158937000D02*
X152942600Y-158937000D01*
X140182600Y-158937000D02*
X140182600Y-156277000D01*
X152942600Y-158937000D02*
X152942600Y-156277000D01*
X138912600Y-158937000D02*
X137582600Y-158937000D01*
X137582600Y-158937000D02*
X137582600Y-157607000D01*
X140182600Y-156277000D02*
X152942600Y-156277000D01*
%TO.C,R13*%
X190577736Y-80160800D02*
X191031864Y-80160800D01*
X190577736Y-78690800D02*
X191031864Y-78690800D01*
%TO.C,C20*%
X205372800Y-65481252D02*
X205372800Y-64058748D01*
X202652800Y-65481252D02*
X202652800Y-64058748D01*
%TO.C,C24*%
X185774000Y-63822948D02*
X185774000Y-64345452D01*
X184304000Y-63822948D02*
X184304000Y-64345452D01*
%TO.C,J4*%
X203775000Y-137922000D02*
X206435000Y-137922000D01*
X206435000Y-137922000D02*
X206435000Y-143062000D01*
X203775000Y-143062000D02*
X206435000Y-143062000D01*
X203775000Y-136652000D02*
X203775000Y-135322000D01*
X203775000Y-137922000D02*
X203775000Y-143062000D01*
X203775000Y-135322000D02*
X205105000Y-135322000D01*
%TO.C,C3*%
X173017548Y-136679000D02*
X173540052Y-136679000D01*
X173017548Y-138149000D02*
X173540052Y-138149000D01*
%TO.C,C34*%
X121876452Y-137796600D02*
X121353948Y-137796600D01*
X121876452Y-139266600D02*
X121353948Y-139266600D01*
%TO.C,J14*%
X195647000Y-107442000D02*
X195647000Y-155762000D01*
X195647000Y-107442000D02*
X198307000Y-107442000D01*
X198307000Y-107442000D02*
X198307000Y-155762000D01*
X195647000Y-106172000D02*
X195647000Y-104842000D01*
X195647000Y-155762000D02*
X198307000Y-155762000D01*
X195647000Y-104842000D02*
X196977000Y-104842000D01*
%TO.C,R6*%
X156135336Y-64568400D02*
X156589464Y-64568400D01*
X156135336Y-66038400D02*
X156589464Y-66038400D01*
%TO.C,R19*%
X165987464Y-63422200D02*
X165533336Y-63422200D01*
X165987464Y-61952200D02*
X165533336Y-61952200D01*
%TO.C,J25*%
X109645288Y-127482600D02*
X111693412Y-127482600D01*
X111693412Y-136677400D02*
X109645288Y-136677400D01*
X105651300Y-136677400D02*
X105651300Y-127482600D01*
X105651300Y-127482600D02*
X106372112Y-127482600D01*
X106372112Y-136677400D02*
X105651300Y-136677400D01*
X114058700Y-126159799D02*
G75*
G03*
X114058700Y-126159799I-381000J0D01*
G01*
%TO.C,JP2*%
X114853800Y-151494800D02*
X113523800Y-151494800D01*
X113523800Y-151494800D02*
X113523800Y-150164800D01*
X116123800Y-151494800D02*
X118723800Y-151494800D01*
X118723800Y-151494800D02*
X118723800Y-148834800D01*
X116123800Y-151494800D02*
X116123800Y-148834800D01*
X116123800Y-148834800D02*
X118723800Y-148834800D01*
%TO.C,Q3*%
X182511000Y-58661600D02*
X182511000Y-57161600D01*
X182511000Y-57161600D02*
X180701000Y-57161600D01*
X180701000Y-57161600D02*
X180701000Y-52036600D01*
X172111000Y-57161600D02*
X173921000Y-57161600D01*
X172111000Y-58661600D02*
X172111000Y-57161600D01*
X173921000Y-57161600D02*
X173921000Y-56061600D01*
%TO.C,R24*%
X155228936Y-134260000D02*
X156683064Y-134260000D01*
X155228936Y-132440000D02*
X156683064Y-132440000D01*
%TO.C,J22*%
X107654400Y-109205000D02*
X107654400Y-104065000D01*
X104994400Y-109205000D02*
X104994400Y-104065000D01*
X107654400Y-110475000D02*
X107654400Y-111805000D01*
X107654400Y-109205000D02*
X104994400Y-109205000D01*
X107654400Y-104065000D02*
X104994400Y-104065000D01*
X107654400Y-111805000D02*
X106324400Y-111805000D01*
%TO.C,TP8*%
X194159800Y-120294400D02*
G75*
G03*
X194159800Y-120294400I-1450000J0D01*
G01*
D13*
%TO.C,C27*%
X148190400Y-91531600D02*
X148190400Y-94091600D01*
X142690400Y-91531600D02*
X142690400Y-94091600D01*
D12*
%TO.C,Q5*%
X141278400Y-64656600D02*
X142378400Y-64656600D01*
X139778400Y-73246600D02*
X141278400Y-73246600D01*
X141278400Y-73246600D02*
X141278400Y-71436600D01*
X139778400Y-62846600D02*
X141278400Y-62846600D01*
X141278400Y-62846600D02*
X141278400Y-64656600D01*
X141278400Y-71436600D02*
X146403400Y-71436600D01*
D13*
%TO.C,C30*%
X148190400Y-121218800D02*
X148190400Y-118658800D01*
X142690400Y-121218800D02*
X142690400Y-118658800D01*
D12*
%TO.C,Q10*%
X184795600Y-130123600D02*
X184795600Y-130773600D01*
X184795600Y-130123600D02*
X184795600Y-129473600D01*
X181675600Y-130123600D02*
X181675600Y-131798600D01*
X181675600Y-130123600D02*
X181675600Y-129473600D01*
%TO.C,TP13*%
X189918000Y-115595400D02*
G75*
G03*
X189918000Y-115595400I-1450000J0D01*
G01*
%TO.C,IC1*%
X166689800Y-97412200D02*
X166239800Y-97412200D01*
X173459800Y-97412200D02*
X173459800Y-96962200D01*
X173009800Y-90192200D02*
X173459800Y-90192200D01*
X173009800Y-97412200D02*
X173459800Y-97412200D01*
X166239800Y-97412200D02*
X166239800Y-96962200D01*
X166239800Y-90642200D02*
X164949800Y-90642200D01*
X166239800Y-90192200D02*
X166239800Y-90642200D01*
X166689800Y-90192200D02*
X166239800Y-90192200D01*
X173459800Y-90192200D02*
X173459800Y-90642200D01*
%TO.C,TP5*%
X155856600Y-142341600D02*
G75*
G03*
X155856600Y-142341600I-1450000J0D01*
G01*
%TO.C,C11*%
X177538748Y-98931400D02*
X178061252Y-98931400D01*
X177538748Y-97461400D02*
X178061252Y-97461400D01*
%TO.C,R8*%
X171448400Y-82904064D02*
X171448400Y-82449936D01*
X169978400Y-82904064D02*
X169978400Y-82449936D01*
%TO.C,R26*%
X128285864Y-125074000D02*
X126831736Y-125074000D01*
X128285864Y-126894000D02*
X126831736Y-126894000D01*
%TO.C,Q7*%
X195024800Y-81261600D02*
X195024800Y-83071600D01*
X193524800Y-81261600D02*
X195024800Y-81261600D01*
X195024800Y-83071600D02*
X196124800Y-83071600D01*
X193524800Y-91661600D02*
X195024800Y-91661600D01*
X195024800Y-91661600D02*
X195024800Y-89851600D01*
X195024800Y-89851600D02*
X200149800Y-89851600D01*
%TO.C,R5*%
X159126600Y-96154864D02*
X159126600Y-94700736D01*
X157306600Y-96154864D02*
X157306600Y-94700736D01*
%TO.C,C14*%
X179686852Y-88800000D02*
X179164348Y-88800000D01*
X179686852Y-90270000D02*
X179164348Y-90270000D01*
%TO.C,JP4*%
X203898236Y-93945401D02*
X201238236Y-93945401D01*
X203898236Y-97815401D02*
X203898236Y-99145401D01*
X203898236Y-96545401D02*
X203898236Y-93945401D01*
X203898236Y-99145401D02*
X202568236Y-99145401D01*
X201238236Y-96545401D02*
X201238236Y-93945401D01*
X203898236Y-96545401D02*
X201238236Y-96545401D01*
%TO.C,R12*%
X149915200Y-91347936D02*
X149915200Y-92802064D01*
X151735200Y-91347936D02*
X151735200Y-92802064D01*
%TO.C,C19*%
X176531600Y-84676348D02*
X176531600Y-85198852D01*
X178001600Y-84676348D02*
X178001600Y-85198852D01*
%TO.C,R23*%
X120583336Y-103788800D02*
X122037464Y-103788800D01*
X120583336Y-105608800D02*
X122037464Y-105608800D01*
%TO.C,TP17*%
X148211200Y-139293600D02*
G75*
G03*
X148211200Y-139293600I-1450000J0D01*
G01*
%TO.C,R17*%
X173607400Y-82929464D02*
X173607400Y-82475336D01*
X172137400Y-82929464D02*
X172137400Y-82475336D01*
%TO.C,C15*%
X181257752Y-93648200D02*
X180735248Y-93648200D01*
X181257752Y-92178200D02*
X180735248Y-92178200D01*
%TO.C,D3*%
X107373800Y-91520000D02*
X107373800Y-95580000D01*
X109643800Y-91520000D02*
X107373800Y-91520000D01*
X109643800Y-95580000D02*
X109643800Y-91520000D01*
%TO.C,TP6*%
X161419200Y-155143200D02*
G75*
G03*
X161419200Y-155143200I-1450000J0D01*
G01*
%TO.C,R11*%
X152257136Y-95940200D02*
X153711264Y-95940200D01*
X152257136Y-97760200D02*
X153711264Y-97760200D01*
%TO.C,D2*%
X140700000Y-126020000D02*
X138700000Y-126020000D01*
X138700000Y-126020000D02*
X138700000Y-129920000D01*
X140700000Y-126020000D02*
X140700000Y-129920000D01*
%TO.C,TP11*%
X193804200Y-106019600D02*
G75*
G03*
X193804200Y-106019600I-1450000J0D01*
G01*
%TO.C,R9*%
X161248736Y-96499000D02*
X162702864Y-96499000D01*
X161248736Y-98319000D02*
X162702864Y-98319000D01*
%TO.C,TP4*%
X179123000Y-157099000D02*
G75*
G03*
X179123000Y-157099000I-1450000J0D01*
G01*
%TO.C,U1*%
X175056800Y-156636800D02*
X175056800Y-144394000D01*
X167406857Y-156636800D02*
X172706857Y-156636800D01*
X175056800Y-144394000D02*
X172706857Y-144394000D01*
X165163943Y-144394000D02*
X162814000Y-144394000D01*
X172706857Y-156636800D02*
X175056800Y-156636800D01*
X170463942Y-144394000D02*
X167406857Y-144394000D01*
X162814000Y-156636800D02*
X167406857Y-156636800D01*
X162814000Y-144394000D02*
X162814000Y-156636800D01*
X166488600Y-158414800D02*
G75*
G03*
X166488600Y-158414800I-203200J0D01*
G01*
%TO.C,R20*%
X130754800Y-136890136D02*
X130754800Y-138344264D01*
X128934800Y-136890136D02*
X128934800Y-138344264D01*
%TO.C,C29*%
X126484748Y-94413400D02*
X127007252Y-94413400D01*
X126484748Y-95883400D02*
X127007252Y-95883400D01*
%TO.C,U6*%
X123882000Y-103272000D02*
X123882000Y-103002000D01*
X123882000Y-96642000D02*
X124982000Y-96642000D01*
X123882000Y-103002000D02*
X126712000Y-103002000D01*
X122382000Y-103272000D02*
X123882000Y-103272000D01*
X123882000Y-96372000D02*
X123882000Y-96642000D01*
X122382000Y-96372000D02*
X123882000Y-96372000D01*
%TO.C,JP10*%
X140148000Y-152395000D02*
X140148000Y-151065000D01*
X140148000Y-151065000D02*
X141478000Y-151065000D01*
X140148000Y-156265000D02*
X142808000Y-156265000D01*
X140148000Y-153665000D02*
X142808000Y-153665000D01*
X142808000Y-153665000D02*
X142808000Y-156265000D01*
X140148000Y-153665000D02*
X140148000Y-156265000D01*
%TO.C,JP1*%
X113528800Y-155203200D02*
X113528800Y-153873200D01*
X118728800Y-155203200D02*
X118728800Y-152543200D01*
X116128800Y-152543200D02*
X118728800Y-152543200D01*
X116128800Y-155203200D02*
X116128800Y-152543200D01*
X116128800Y-155203200D02*
X118728800Y-155203200D01*
X114858800Y-155203200D02*
X113528800Y-155203200D01*
%TO.C,J24*%
X185817200Y-131419600D02*
X188477200Y-131419600D01*
X185817200Y-131479600D02*
X188477200Y-131479600D01*
X185817200Y-130149600D02*
X185817200Y-128819600D01*
X185817200Y-131419600D02*
X185817200Y-131479600D01*
X188477200Y-131419600D02*
X188477200Y-131479600D01*
X185817200Y-128819600D02*
X187147200Y-128819600D01*
%TO.C,J12*%
X136635800Y-149215800D02*
X136635800Y-150545800D01*
X134035800Y-149215800D02*
X126355800Y-149215800D01*
X126355800Y-149215800D02*
X126355800Y-151875800D01*
X134035800Y-151875800D02*
X126355800Y-151875800D01*
X135305800Y-149215800D02*
X136635800Y-149215800D01*
X134035800Y-149215800D02*
X134035800Y-151875800D01*
%TO.C,C6*%
X150792548Y-103401800D02*
X151315052Y-103401800D01*
X150792548Y-101931800D02*
X151315052Y-101931800D01*
%TO.C,R32*%
X126831736Y-127766400D02*
X128285864Y-127766400D01*
X126831736Y-129586400D02*
X128285864Y-129586400D01*
%TO.C,TP2*%
X157456800Y-151434800D02*
G75*
G03*
X157456800Y-151434800I-1450000J0D01*
G01*
%TO.C,C1*%
X181363252Y-136294800D02*
X180840748Y-136294800D01*
X181363252Y-134824800D02*
X180840748Y-134824800D01*
D13*
%TO.C,C28*%
X124470000Y-81947200D02*
X121910000Y-81947200D01*
X124470000Y-76447200D02*
X121910000Y-76447200D01*
D12*
%TO.C,TP7*%
X189994200Y-120319800D02*
G75*
G03*
X189994200Y-120319800I-1450000J0D01*
G01*
%TO.C,U8*%
X124548900Y-129866260D02*
X124548900Y-129197100D01*
X124548900Y-134454900D02*
X124548900Y-133785740D01*
X123879740Y-134454900D02*
X124548900Y-134454900D01*
X119960260Y-129197100D02*
X119291100Y-129197100D01*
X119291100Y-133785740D02*
X119291100Y-134454900D01*
X119291100Y-134454900D02*
X119960260Y-134454900D01*
X119291100Y-129197100D02*
X119291100Y-129866260D01*
X124548900Y-129197100D02*
X123879740Y-129197100D01*
G36*
X125234700Y-131016499D02*
G01*
X124980700Y-131016499D01*
X124980700Y-130635499D01*
X125234700Y-130635499D01*
X125234700Y-131016499D01*
G37*
D14*
X125234700Y-131016499D02*
X124980700Y-131016499D01*
X124980700Y-130635499D01*
X125234700Y-130635499D01*
X125234700Y-131016499D01*
G36*
X121610501Y-135140700D02*
G01*
X121229501Y-135140700D01*
X121229501Y-134886700D01*
X121610501Y-134886700D01*
X121610501Y-135140700D01*
G37*
X121610501Y-135140700D02*
X121229501Y-135140700D01*
X121229501Y-134886700D01*
X121610501Y-134886700D01*
X121610501Y-135140700D01*
D12*
%TO.C,C12*%
X165152400Y-102093752D02*
X165152400Y-101571248D01*
X166622400Y-102093752D02*
X166622400Y-101571248D01*
%TO.C,C16*%
X164390400Y-88729452D02*
X164390400Y-88206948D01*
X165860400Y-88729452D02*
X165860400Y-88206948D01*
%TO.C,JP7*%
X150282600Y-151070000D02*
X151612600Y-151070000D01*
X150282600Y-153670000D02*
X150282600Y-156270000D01*
X152942600Y-153670000D02*
X152942600Y-156270000D01*
X150282600Y-156270000D02*
X152942600Y-156270000D01*
X150282600Y-152400000D02*
X150282600Y-151070000D01*
X150282600Y-153670000D02*
X152942600Y-153670000D01*
%TO.C,J15*%
X199761800Y-107492800D02*
X199761800Y-155812800D01*
X199761800Y-106222800D02*
X199761800Y-104892800D01*
X202421800Y-107492800D02*
X202421800Y-155812800D01*
X199761800Y-107492800D02*
X202421800Y-107492800D01*
X199761800Y-104892800D02*
X201091800Y-104892800D01*
X199761800Y-155812800D02*
X202421800Y-155812800D01*
%TO.C,J11*%
X134025800Y-154524400D02*
X126345800Y-154524400D01*
X135295800Y-154524400D02*
X136625800Y-154524400D01*
X134025800Y-154524400D02*
X134025800Y-157184400D01*
X136625800Y-154524400D02*
X136625800Y-155854400D01*
X126345800Y-154524400D02*
X126345800Y-157184400D01*
X134025800Y-157184400D02*
X126345800Y-157184400D01*
%TO.C,TP9*%
X193931200Y-115544600D02*
G75*
G03*
X193931200Y-115544600I-1450000J0D01*
G01*
%TO.C,C37*%
X114835000Y-135577948D02*
X114835000Y-136100452D01*
X116305000Y-135577948D02*
X116305000Y-136100452D01*
%TO.C,D6*%
X115678000Y-133794400D02*
X116478000Y-133794400D01*
X116478000Y-132494400D02*
X116478000Y-133794400D01*
X115678000Y-132494400D02*
X115678000Y-133794400D01*
%TO.C,J6*%
X159969200Y-44698600D02*
X153034200Y-44698600D01*
X153034200Y-44698600D02*
X152034200Y-46698600D01*
X152034200Y-50983600D02*
X152034200Y-54818600D01*
X159969200Y-44698600D02*
X166904200Y-44698600D01*
X154464200Y-54818600D02*
X154464200Y-56278600D01*
X166904200Y-44698600D02*
X167904200Y-46698600D01*
X167904200Y-54818600D02*
X165474200Y-54818600D01*
X152034200Y-46698600D02*
X152034200Y-47683600D01*
X167904200Y-50983600D02*
X167904200Y-54818600D01*
X167904200Y-46698600D02*
X167904200Y-47683600D01*
X152034200Y-54818600D02*
X154464200Y-54818600D01*
%TO.C,TP15*%
X157373573Y-146743450D02*
G75*
G03*
X157373573Y-146743450I-1450000J0D01*
G01*
%TO.C,J18*%
X108358112Y-141663040D02*
X108358112Y-140738040D01*
X116808112Y-140738040D02*
X116808112Y-140738040D01*
X109778112Y-140738040D02*
X109778112Y-140738040D01*
X110898112Y-145328040D02*
X110898112Y-147438040D01*
X118228112Y-140738040D02*
X116808112Y-140738040D01*
X118228112Y-145328040D02*
X115688112Y-145328040D01*
X109778112Y-140738040D02*
X110898112Y-140738040D01*
X116808112Y-140738040D02*
X115688112Y-140738040D01*
X108358112Y-143833040D02*
X108358112Y-145328040D01*
X118228112Y-141663040D02*
X118228112Y-140738040D01*
X108358112Y-140738040D02*
X109778112Y-140738040D01*
X108358112Y-145328040D02*
X110898112Y-145328040D01*
X118228112Y-143833040D02*
X118228112Y-145328040D01*
%TO.C,U5*%
X120195000Y-93465000D02*
X121695000Y-93465000D01*
X121695000Y-91655000D02*
X126820000Y-91655000D01*
X120195000Y-83065000D02*
X121695000Y-83065000D01*
X121695000Y-93465000D02*
X121695000Y-91655000D01*
X121695000Y-84875000D02*
X122795000Y-84875000D01*
X121695000Y-83065000D02*
X121695000Y-84875000D01*
%TO.C,C8*%
X159513600Y-90482052D02*
X159513600Y-89959548D01*
X160983600Y-90482052D02*
X160983600Y-89959548D01*
%TO.C,R31*%
X119838736Y-126947600D02*
X120292864Y-126947600D01*
X119838736Y-125477600D02*
X120292864Y-125477600D01*
%TO.C,Q8*%
X199840200Y-67744000D02*
X199840200Y-69244000D01*
X189440200Y-67744000D02*
X189440200Y-69244000D01*
X189440200Y-69244000D02*
X191250200Y-69244000D01*
X198030200Y-69244000D02*
X198030200Y-70344000D01*
X199840200Y-69244000D02*
X198030200Y-69244000D01*
X191250200Y-69244000D02*
X191250200Y-74369000D01*
%TO.C,J20*%
X146160800Y-133400800D02*
X143500800Y-133400800D01*
X146160800Y-136000800D02*
X144830800Y-136000800D01*
X146160800Y-133400800D02*
X146160800Y-133340800D01*
X146160800Y-133340800D02*
X143500800Y-133340800D01*
X143500800Y-133400800D02*
X143500800Y-133340800D01*
X146160800Y-134670800D02*
X146160800Y-136000800D01*
%TO.C,R25*%
X135874136Y-116988000D02*
X137328264Y-116988000D01*
X135874136Y-115168000D02*
X137328264Y-115168000D01*
%TO.C,C36*%
X118387800Y-134409548D02*
X118387800Y-134932052D01*
X116917800Y-134409548D02*
X116917800Y-134932052D01*
%TO.C,J5*%
X204130600Y-85308199D02*
X204130600Y-90448199D01*
X204130600Y-90448199D02*
X206790600Y-90448199D01*
X206790600Y-85308199D02*
X206790600Y-90448199D01*
X204130600Y-85308199D02*
X206790600Y-85308199D01*
X204130600Y-84038199D02*
X204130600Y-82708199D01*
X204130600Y-82708199D02*
X205460600Y-82708199D01*
D13*
%TO.C,C32*%
X115170400Y-116423600D02*
X115170400Y-118983600D01*
X109670400Y-116423600D02*
X109670400Y-118983600D01*
D12*
%TO.C,C22*%
X125899000Y-69208563D02*
X124834563Y-70273000D01*
X125899000Y-62617437D02*
X124834563Y-61553000D01*
X126639000Y-68923000D02*
X126639000Y-67923000D01*
X117179000Y-70273000D02*
X117179000Y-67423000D01*
X125899000Y-62617437D02*
X125899000Y-64403000D01*
X117179000Y-61553000D02*
X117179000Y-64403000D01*
X127139000Y-68423000D02*
X126139000Y-68423000D01*
X124834563Y-70273000D02*
X117179000Y-70273000D01*
X125899000Y-69208563D02*
X125899000Y-67423000D01*
X124834563Y-61553000D02*
X117179000Y-61553000D01*
%TO.C,R1*%
X158370600Y-140282664D02*
X158370600Y-139828536D01*
X159840600Y-140282664D02*
X159840600Y-139828536D01*
%TO.C,C18*%
X165158052Y-83666000D02*
X164635548Y-83666000D01*
X165158052Y-82196000D02*
X164635548Y-82196000D01*
%TO.C,C13*%
X178747052Y-96289800D02*
X178224548Y-96289800D01*
X178747052Y-94819800D02*
X178224548Y-94819800D01*
%TO.C,R4*%
X157862536Y-143838600D02*
X158316664Y-143838600D01*
X157862536Y-142368600D02*
X158316664Y-142368600D01*
%TO.C,R10*%
X153750600Y-91398736D02*
X153750600Y-92852864D01*
X155570600Y-91398736D02*
X155570600Y-92852864D01*
%TO.C,Q1*%
X141339400Y-84873400D02*
X141339400Y-83063400D01*
X141339400Y-76283400D02*
X142439400Y-76283400D01*
X141339400Y-83063400D02*
X146464400Y-83063400D01*
X141339400Y-74473400D02*
X141339400Y-76283400D01*
X139839400Y-84873400D02*
X141339400Y-84873400D01*
X139839400Y-74473400D02*
X141339400Y-74473400D01*
%TO.C,TP12*%
X193829600Y-110921800D02*
G75*
G03*
X193829600Y-110921800I-1450000J0D01*
G01*
%TO.C,JP9*%
X147768000Y-153670000D02*
X147768000Y-156270000D01*
X147768000Y-151070000D02*
X149098000Y-151070000D01*
X147768000Y-152400000D02*
X147768000Y-151070000D01*
X147768000Y-156270000D02*
X150428000Y-156270000D01*
X150428000Y-153670000D02*
X150428000Y-156270000D01*
X147768000Y-153670000D02*
X150428000Y-153670000D01*
%TO.C,J21*%
X111769200Y-110525800D02*
X111769200Y-111855800D01*
X111769200Y-104115800D02*
X109109200Y-104115800D01*
X111769200Y-109255800D02*
X109109200Y-109255800D01*
X109109200Y-109255800D02*
X109109200Y-104115800D01*
X111769200Y-111855800D02*
X110439200Y-111855800D01*
X111769200Y-109255800D02*
X111769200Y-104115800D01*
%TO.C,C21*%
X140532800Y-60388600D02*
X140532800Y-59388600D01*
X139792800Y-60674163D02*
X139792800Y-58888600D01*
X138728363Y-61738600D02*
X131072800Y-61738600D01*
X139792800Y-60674163D02*
X138728363Y-61738600D01*
X131072800Y-61738600D02*
X131072800Y-58888600D01*
X139792800Y-54083037D02*
X138728363Y-53018600D01*
X139792800Y-54083037D02*
X139792800Y-55868600D01*
X138728363Y-53018600D02*
X131072800Y-53018600D01*
X141032800Y-59888600D02*
X140032800Y-59888600D01*
X131072800Y-53018600D02*
X131072800Y-55868600D01*
%TO.C,C9*%
X156135400Y-90696148D02*
X156135400Y-91218652D01*
X157605400Y-90696148D02*
X157605400Y-91218652D01*
%TO.C,C17*%
X177030748Y-81078400D02*
X177553252Y-81078400D01*
X177030748Y-82548400D02*
X177553252Y-82548400D01*
%TO.C,C10*%
X161805252Y-94613400D02*
X161282748Y-94613400D01*
X161805252Y-93143400D02*
X161282748Y-93143400D01*
%TO.C,J3*%
X183652000Y-152975000D02*
X191332000Y-152975000D01*
X183652000Y-155635000D02*
X183652000Y-152975000D01*
X182382000Y-155635000D02*
X181052000Y-155635000D01*
X183652000Y-155635000D02*
X191332000Y-155635000D01*
X181052000Y-155635000D02*
X181052000Y-154305000D01*
X191332000Y-155635000D02*
X191332000Y-152975000D01*
%TO.C,TP16*%
X151056000Y-125679200D02*
G75*
G03*
X151056000Y-125679200I-1450000J0D01*
G01*
%TO.C,R7*%
X161825000Y-88720664D02*
X161825000Y-88266536D01*
X163295000Y-88720664D02*
X163295000Y-88266536D01*
%TO.C,C23*%
X139362548Y-96188200D02*
X139885052Y-96188200D01*
X139362548Y-94718200D02*
X139885052Y-94718200D01*
%TO.C,J1*%
X121234200Y-156251600D02*
X121234200Y-158911600D01*
X122504200Y-156251600D02*
X123834200Y-156251600D01*
X121234200Y-158911600D02*
X116094200Y-158911600D01*
X116094200Y-156251600D02*
X116094200Y-158911600D01*
X121234200Y-156251600D02*
X116094200Y-156251600D01*
X123834200Y-156251600D02*
X123834200Y-157581600D01*
%TO.C,JP11*%
X156306600Y-101228200D02*
X156306600Y-98568200D01*
X156306600Y-98568200D02*
X158906600Y-98568200D01*
X155036600Y-101228200D02*
X153706600Y-101228200D01*
X153706600Y-101228200D02*
X153706600Y-99898200D01*
X158906600Y-101228200D02*
X158906600Y-98568200D01*
X156306600Y-101228200D02*
X158906600Y-101228200D01*
%TO.C,SW1*%
X121716112Y-140738040D02*
X121716112Y-140738040D01*
X130166112Y-145328040D02*
X127626112Y-145328040D01*
X130166112Y-143833040D02*
X130166112Y-145328040D01*
X128746112Y-140738040D02*
X127626112Y-140738040D01*
X120296112Y-140738040D02*
X121716112Y-140738040D01*
X122836112Y-145328040D02*
X122836112Y-147438040D01*
X121716112Y-140738040D02*
X122836112Y-140738040D01*
X120296112Y-141663040D02*
X120296112Y-140738040D01*
X128746112Y-140738040D02*
X128746112Y-140738040D01*
X120296112Y-143833040D02*
X120296112Y-145328040D01*
X130166112Y-140738040D02*
X128746112Y-140738040D01*
X130166112Y-141663040D02*
X130166112Y-140738040D01*
X120296112Y-145328040D02*
X122836112Y-145328040D01*
%TO.C,Q4*%
X181673200Y-69634800D02*
X183173200Y-69634800D01*
X183173200Y-78224800D02*
X188298200Y-78224800D01*
X183173200Y-71444800D02*
X184273200Y-71444800D01*
X183173200Y-80034800D02*
X183173200Y-78224800D01*
X183173200Y-69634800D02*
X183173200Y-71444800D01*
X181673200Y-80034800D02*
X183173200Y-80034800D01*
%TO.C,TP3*%
X157456800Y-155346400D02*
G75*
G03*
X157456800Y-155346400I-1450000J0D01*
G01*
%TO.C,R29*%
X133365864Y-129586400D02*
X131911736Y-129586400D01*
X133365864Y-127766400D02*
X131911736Y-127766400D01*
%TO.C,J19*%
X152086000Y-127609600D02*
X154746000Y-127609600D01*
X154746000Y-127609600D02*
X154746000Y-127669600D01*
X152086000Y-126339600D02*
X152086000Y-125009600D01*
X152086000Y-127669600D02*
X154746000Y-127669600D01*
X152086000Y-127609600D02*
X152086000Y-127669600D01*
X152086000Y-125009600D02*
X153416000Y-125009600D01*
%TO.C,J17*%
X187620600Y-100618600D02*
X190280600Y-100618600D01*
X187620600Y-95478600D02*
X187620600Y-100618600D01*
X187620600Y-95478600D02*
X190280600Y-95478600D01*
X190280600Y-95478600D02*
X190280600Y-100618600D01*
X187620600Y-94208600D02*
X187620600Y-92878600D01*
X187620600Y-92878600D02*
X188950600Y-92878600D01*
%TO.C,C31*%
X126122152Y-103963800D02*
X125599648Y-103963800D01*
X126122152Y-105433800D02*
X125599648Y-105433800D01*
%TO.C,R16*%
X174820336Y-88190400D02*
X175274464Y-88190400D01*
X174820336Y-89660400D02*
X175274464Y-89660400D01*
%TO.C,J8*%
X164724000Y-141715800D02*
X164724000Y-139055800D01*
X164724000Y-141715800D02*
X174944000Y-141715800D01*
X162124000Y-141715800D02*
X162124000Y-140385800D01*
X163454000Y-141715800D02*
X162124000Y-141715800D01*
X174944000Y-141715800D02*
X174944000Y-139055800D01*
X164724000Y-139055800D02*
X174944000Y-139055800D01*
%TO.C,C35*%
X121876452Y-135663000D02*
X121353948Y-135663000D01*
X121876452Y-137133000D02*
X121353948Y-137133000D01*
%TO.C,R30*%
X116866936Y-129462200D02*
X117321064Y-129462200D01*
X116866936Y-127992200D02*
X117321064Y-127992200D01*
%TO.C,R28*%
X133365864Y-126894000D02*
X131911736Y-126894000D01*
X133365864Y-125074000D02*
X131911736Y-125074000D01*
%TO.C,C4*%
X157117148Y-125452200D02*
X157639652Y-125452200D01*
X157117148Y-126922200D02*
X157639652Y-126922200D01*
%TO.C,C5*%
X151122748Y-140282600D02*
X151645252Y-140282600D01*
X151122748Y-138812600D02*
X151645252Y-138812600D01*
%TO.C,R18*%
X148667736Y-67994200D02*
X149121864Y-67994200D01*
X148667736Y-66524200D02*
X149121864Y-66524200D01*
%TO.C,JP3*%
X201202601Y-99145401D02*
X199872601Y-99145401D01*
X201202601Y-96545401D02*
X198542601Y-96545401D01*
X201202601Y-97815401D02*
X201202601Y-99145401D01*
X201202601Y-96545401D02*
X201202601Y-93945401D01*
X198542601Y-96545401D02*
X198542601Y-93945401D01*
X201202601Y-93945401D02*
X198542601Y-93945401D01*
%TO.C,U4*%
X123882000Y-112924000D02*
X123882000Y-112654000D01*
X123882000Y-112654000D02*
X126712000Y-112654000D01*
X122382000Y-112924000D02*
X123882000Y-112924000D01*
X123882000Y-106024000D02*
X123882000Y-106294000D01*
X123882000Y-106294000D02*
X124982000Y-106294000D01*
X122382000Y-106024000D02*
X123882000Y-106024000D01*
%TO.C,Q11*%
X158430400Y-116814000D02*
X158430400Y-115139000D01*
X155310400Y-116814000D02*
X155310400Y-117464000D01*
X155310400Y-116814000D02*
X155310400Y-116164000D01*
X158430400Y-116814000D02*
X158430400Y-117464000D01*
%TO.C,J16*%
X183505800Y-94284800D02*
X183505800Y-92954800D01*
X186165800Y-95554800D02*
X186165800Y-100694800D01*
X183505800Y-95554800D02*
X183505800Y-100694800D01*
X183505800Y-100694800D02*
X186165800Y-100694800D01*
X183505800Y-92954800D02*
X184835800Y-92954800D01*
X183505800Y-95554800D02*
X186165800Y-95554800D01*
%TO.C,Q9*%
X142379000Y-136562000D02*
X140569000Y-136562000D01*
X131979000Y-138062000D02*
X131979000Y-136562000D01*
X133789000Y-136562000D02*
X133789000Y-135462000D01*
X140569000Y-136562000D02*
X140569000Y-131437000D01*
X142379000Y-138062000D02*
X142379000Y-136562000D01*
X131979000Y-136562000D02*
X133789000Y-136562000D01*
%TO.C,C33*%
X157981563Y-112741200D02*
X156196000Y-112741200D01*
X159046000Y-104021200D02*
X156196000Y-104021200D01*
X152176000Y-113981200D02*
X152176000Y-112981200D01*
X151390437Y-112741200D02*
X150326000Y-111676763D01*
X151390437Y-112741200D02*
X153176000Y-112741200D01*
X159046000Y-111676763D02*
X159046000Y-104021200D01*
X157981563Y-112741200D02*
X159046000Y-111676763D01*
X150326000Y-111676763D02*
X150326000Y-104021200D01*
X150326000Y-104021200D02*
X153176000Y-104021200D01*
X151676000Y-113481200D02*
X152676000Y-113481200D01*
%TO.C,J23*%
X151781200Y-121818400D02*
X151781200Y-120488400D01*
X151781200Y-123088400D02*
X154441200Y-123088400D01*
X151781200Y-123148400D02*
X154441200Y-123148400D01*
X151781200Y-123088400D02*
X151781200Y-123148400D01*
X151781200Y-120488400D02*
X153111200Y-120488400D01*
X154441200Y-123088400D02*
X154441200Y-123148400D01*
%TO.C,R22*%
X130145200Y-101634936D02*
X130145200Y-103089064D01*
X128325200Y-101634936D02*
X128325200Y-103089064D01*
%TO.C,JP8*%
X145228000Y-152395000D02*
X145228000Y-151065000D01*
X145228000Y-153665000D02*
X145228000Y-156265000D01*
X145228000Y-151065000D02*
X146558000Y-151065000D01*
X145228000Y-153665000D02*
X147888000Y-153665000D01*
X145228000Y-156265000D02*
X147888000Y-156265000D01*
X147888000Y-153665000D02*
X147888000Y-156265000D01*
%TO.C,J2*%
X206536600Y-100355400D02*
X206536600Y-101685400D01*
X206536600Y-93945400D02*
X203876600Y-93945400D01*
X206536600Y-99085400D02*
X203876600Y-99085400D01*
X206536600Y-99085400D02*
X206536600Y-93945400D01*
X206536600Y-101685400D02*
X205206600Y-101685400D01*
X203876600Y-99085400D02*
X203876600Y-93945400D01*
D13*
%TO.C,C26*%
X148241200Y-102829200D02*
X148241200Y-100269200D01*
X142741200Y-102829200D02*
X142741200Y-100269200D01*
D12*
%TO.C,TP14*%
X189841800Y-110794800D02*
G75*
G03*
X189841800Y-110794800I-1450000J0D01*
G01*
%TO.C,R15*%
X201641064Y-78363400D02*
X200186936Y-78363400D01*
X201641064Y-80183400D02*
X200186936Y-80183400D01*
%TO.C,JP5*%
X137481000Y-151065000D02*
X138811000Y-151065000D01*
X137481000Y-152395000D02*
X137481000Y-151065000D01*
X137481000Y-156265000D02*
X140141000Y-156265000D01*
X140141000Y-153665000D02*
X140141000Y-156265000D01*
X137481000Y-153665000D02*
X140141000Y-153665000D01*
X137481000Y-153665000D02*
X137481000Y-156265000D01*
%TO.C,U7*%
X123882000Y-116692000D02*
X123882000Y-116962000D01*
X123882000Y-123592000D02*
X123882000Y-123322000D01*
X123882000Y-123322000D02*
X126712000Y-123322000D01*
X123882000Y-116962000D02*
X124982000Y-116962000D01*
X122382000Y-123592000D02*
X123882000Y-123592000D01*
X122382000Y-116692000D02*
X123882000Y-116692000D01*
%TO.C,TP1*%
X161368400Y-151282400D02*
G75*
G03*
X161368400Y-151282400I-1450000J0D01*
G01*
%TO.C,Q2*%
X156075800Y-73850800D02*
X156075800Y-68725800D01*
X147485800Y-75350800D02*
X147485800Y-73850800D01*
X157885800Y-75350800D02*
X157885800Y-73850800D01*
X147485800Y-73850800D02*
X149295800Y-73850800D01*
X157885800Y-73850800D02*
X156075800Y-73850800D01*
X149295800Y-73850800D02*
X149295800Y-72750800D01*
%TO.C,R14*%
X139023736Y-86516800D02*
X140477864Y-86516800D01*
X139023736Y-88336800D02*
X140477864Y-88336800D01*
%TO.C,TP10*%
X189841800Y-106070400D02*
G75*
G03*
X189841800Y-106070400I-1450000J0D01*
G01*
%TD*%
M02*
