%TF.GenerationSoftware,KiCad,Pcbnew,6.0.4-6f826c9f35~116~ubuntu20.04.1*%
%TF.CreationDate,2022-04-10T19:12:30+02:00*%
%TF.ProjectId,THEIA,54484549-412e-46b6-9963-61645f706362,rev?*%
%TF.SameCoordinates,Original*%
%TF.FileFunction,Paste,Top*%
%TF.FilePolarity,Positive*%
%FSLAX46Y46*%
G04 Gerber Fmt 4.6, Leading zero omitted, Abs format (unit mm)*
G04 Created by KiCad (PCBNEW 6.0.4-6f826c9f35~116~ubuntu20.04.1) date 2022-04-10 19:12:30*
%MOMM*%
%LPD*%
G01*
G04 APERTURE LIST*
G04 Aperture macros list*
%AMRoundRect*
0 Rectangle with rounded corners*
0 $1 Rounding radius*
0 $2 $3 $4 $5 $6 $7 $8 $9 X,Y pos of 4 corners*
0 Add a 4 corners polygon primitive as box body*
4,1,4,$2,$3,$4,$5,$6,$7,$8,$9,$2,$3,0*
0 Add four circle primitives for the rounded corners*
1,1,$1+$1,$2,$3*
1,1,$1+$1,$4,$5*
1,1,$1+$1,$6,$7*
1,1,$1+$1,$8,$9*
0 Add four rect primitives between the rounded corners*
20,1,$1+$1,$2,$3,$4,$5,0*
20,1,$1+$1,$4,$5,$6,$7,0*
20,1,$1+$1,$6,$7,$8,$9,0*
20,1,$1+$1,$8,$9,$2,$3,0*%
%AMFreePoly0*
4,1,57,0.310398,0.500898,0.314705,0.501203,0.317021,0.499938,0.323018,0.499068,0.347252,0.483421,0.372568,0.469589,0.469589,0.372568,0.482067,0.355857,0.485330,0.353026,0.486073,0.350492,0.489698,0.345638,0.495769,0.317441,0.503891,0.289756,0.503891,-0.289756,0.500898,-0.310398,0.501203,-0.314705,0.499938,-0.317021,0.499068,-0.323018,0.483421,-0.347252,0.469589,-0.372568,
0.372568,-0.469589,0.355856,-0.482069,0.353026,-0.485330,0.350494,-0.486073,0.345638,-0.489699,0.317434,-0.495771,0.289756,-0.503891,-0.289756,-0.503891,-0.310398,-0.500898,-0.314705,-0.501203,-0.317021,-0.499938,-0.323018,-0.499068,-0.347252,-0.483421,-0.372568,-0.469589,-0.469589,-0.372568,-0.482069,-0.355856,-0.485330,-0.353026,-0.486073,-0.350494,-0.489699,-0.345638,-0.495771,-0.317434,
-0.503891,-0.289756,-0.503891,0.289756,-0.500898,0.310398,-0.501203,0.314705,-0.499938,0.317021,-0.499068,0.323018,-0.483421,0.347252,-0.469589,0.372568,-0.372568,0.469589,-0.355857,0.482067,-0.353026,0.485330,-0.350492,0.486073,-0.345638,0.489698,-0.317441,0.495769,-0.289756,0.503891,0.289756,0.503891,0.310398,0.500898,0.310398,0.500898,$1*%
G04 Aperture macros list end*
%ADD10C,0.100000*%
%ADD11R,1.500000X0.900000*%
%ADD12R,0.900000X1.500000*%
%ADD13R,1.050000X1.050000*%
%ADD14RoundRect,0.250000X-0.400000X-0.625000X0.400000X-0.625000X0.400000X0.625000X-0.400000X0.625000X0*%
%ADD15RoundRect,0.250001X0.462499X0.624999X-0.462499X0.624999X-0.462499X-0.624999X0.462499X-0.624999X0*%
%ADD16RoundRect,0.250000X0.400000X0.625000X-0.400000X0.625000X-0.400000X-0.625000X0.400000X-0.625000X0*%
%ADD17R,1.100000X1.100000*%
%ADD18R,5.250000X4.550000*%
%ADD19R,1.100000X4.600000*%
%ADD20R,0.250000X0.360000*%
%ADD21R,5.520000X2.000000*%
%ADD22RoundRect,0.250000X0.574524X0.097227X0.097227X0.574524X-0.574524X-0.097227X-0.097227X-0.574524X0*%
%ADD23RoundRect,0.250000X0.625000X-0.400000X0.625000X0.400000X-0.625000X0.400000X-0.625000X-0.400000X0*%
%ADD24RoundRect,0.250000X-0.337500X-0.475000X0.337500X-0.475000X0.337500X0.475000X-0.337500X0.475000X0*%
%ADD25R,0.965200X0.254000*%
%ADD26R,0.254000X0.965200*%
%ADD27RoundRect,0.250000X-0.350000X-0.450000X0.350000X-0.450000X0.350000X0.450000X-0.350000X0.450000X0*%
%ADD28RoundRect,0.250000X1.100000X-0.412500X1.100000X0.412500X-1.100000X0.412500X-1.100000X-0.412500X0*%
%ADD29RoundRect,0.250000X-0.475000X0.337500X-0.475000X-0.337500X0.475000X-0.337500X0.475000X0.337500X0*%
%ADD30RoundRect,0.250000X0.337500X0.475000X-0.337500X0.475000X-0.337500X-0.475000X0.337500X-0.475000X0*%
%ADD31RoundRect,0.250000X0.350000X0.450000X-0.350000X0.450000X-0.350000X-0.450000X0.350000X-0.450000X0*%
%ADD32R,0.762000X0.330200*%
%ADD33R,0.762000X1.041400*%
%ADD34R,4.550000X5.250000*%
%ADD35R,4.600000X1.100000*%
%ADD36RoundRect,0.150000X0.150000X-0.587500X0.150000X0.587500X-0.150000X0.587500X-0.150000X-0.587500X0*%
%ADD37FreePoly0,0.000000*%
%ADD38RoundRect,0.075000X-0.662500X-0.075000X0.662500X-0.075000X0.662500X0.075000X-0.662500X0.075000X0*%
%ADD39RoundRect,0.075000X-0.075000X-0.662500X0.075000X-0.662500X0.075000X0.662500X-0.075000X0.662500X0*%
%ADD40RoundRect,0.250000X0.450000X-0.350000X0.450000X0.350000X-0.450000X0.350000X-0.450000X-0.350000X0*%
%ADD41RoundRect,0.250000X-0.625000X0.400000X-0.625000X-0.400000X0.625000X-0.400000X0.625000X0.400000X0*%
%ADD42RoundRect,0.250001X-0.624999X0.462499X-0.624999X-0.462499X0.624999X-0.462499X0.624999X0.462499X0*%
%ADD43R,1.200000X0.900000*%
%ADD44R,3.050000X2.750000*%
%ADD45R,2.200000X1.200000*%
%ADD46R,2.000000X5.520000*%
%ADD47RoundRect,0.250000X0.475000X-0.337500X0.475000X0.337500X-0.475000X0.337500X-0.475000X-0.337500X0*%
%ADD48R,1.270000X2.920000*%
%ADD49R,1.270000X2.540000*%
%ADD50RoundRect,0.250000X1.950000X1.000000X-1.950000X1.000000X-1.950000X-1.000000X1.950000X-1.000000X0*%
%ADD51RoundRect,0.150000X-0.150000X0.587500X-0.150000X-0.587500X0.150000X-0.587500X0.150000X0.587500X0*%
%ADD52RoundRect,0.250000X1.000000X-1.950000X1.000000X1.950000X-1.000000X1.950000X-1.000000X-1.950000X0*%
G04 APERTURE END LIST*
%TO.C,U8*%
G36*
X123495589Y-133396667D02*
G01*
X122019189Y-133396667D01*
X122019189Y-131920267D01*
X123495589Y-131920267D01*
X123495589Y-133396667D01*
G37*
D10*
X123495589Y-133396667D02*
X122019189Y-133396667D01*
X122019189Y-131920267D01*
X123495589Y-131920267D01*
X123495589Y-133396667D01*
G36*
X123495589Y-131720267D02*
G01*
X122019189Y-131720267D01*
X122019189Y-130243867D01*
X123495589Y-130243867D01*
X123495589Y-131720267D01*
G37*
X123495589Y-131720267D02*
X122019189Y-131720267D01*
X122019189Y-130243867D01*
X123495589Y-130243867D01*
X123495589Y-131720267D01*
G36*
X121819189Y-133396667D02*
G01*
X120342789Y-133396667D01*
X120342789Y-131920267D01*
X121819189Y-131920267D01*
X121819189Y-133396667D01*
G37*
X121819189Y-133396667D02*
X120342789Y-133396667D01*
X120342789Y-131920267D01*
X121819189Y-131920267D01*
X121819189Y-133396667D01*
G36*
X121819189Y-131720267D02*
G01*
X120342789Y-131720267D01*
X120342789Y-130243867D01*
X121819189Y-130243867D01*
X121819189Y-131720267D01*
G37*
X121819189Y-131720267D02*
X120342789Y-131720267D01*
X120342789Y-130243867D01*
X121819189Y-130243867D01*
X121819189Y-131720267D01*
G36*
X121820000Y-131726000D02*
G01*
X120343600Y-131726000D01*
X120343600Y-130249600D01*
X121820000Y-130249600D01*
X121820000Y-131726000D01*
G37*
X121820000Y-131726000D02*
X120343600Y-131726000D01*
X120343600Y-130249600D01*
X121820000Y-130249600D01*
X121820000Y-131726000D01*
G36*
X121820000Y-133402400D02*
G01*
X120343600Y-133402400D01*
X120343600Y-131926000D01*
X121820000Y-131926000D01*
X121820000Y-133402400D01*
G37*
X121820000Y-133402400D02*
X120343600Y-133402400D01*
X120343600Y-131926000D01*
X121820000Y-131926000D01*
X121820000Y-133402400D01*
G36*
X123496400Y-131726000D02*
G01*
X122020000Y-131726000D01*
X122020000Y-130249600D01*
X123496400Y-130249600D01*
X123496400Y-131726000D01*
G37*
X123496400Y-131726000D02*
X122020000Y-131726000D01*
X122020000Y-130249600D01*
X123496400Y-130249600D01*
X123496400Y-131726000D01*
G36*
X123496400Y-133402400D02*
G01*
X122020000Y-133402400D01*
X122020000Y-131926000D01*
X123496400Y-131926000D01*
X123496400Y-133402400D01*
G37*
X123496400Y-133402400D02*
X122020000Y-133402400D01*
X122020000Y-131926000D01*
X123496400Y-131926000D01*
X123496400Y-133402400D01*
%TD*%
D11*
%TO.C,U3*%
X161050000Y-111690000D03*
X161050000Y-112960000D03*
X161050000Y-114230000D03*
X161050000Y-115500000D03*
X161050000Y-116770000D03*
X161050000Y-118040000D03*
X161050000Y-119310000D03*
X161050000Y-120580000D03*
X161050000Y-121850000D03*
X161050000Y-123120000D03*
X161050000Y-124390000D03*
X161050000Y-125660000D03*
X161050000Y-126930000D03*
X161050000Y-128200000D03*
D12*
X164080000Y-129450000D03*
X165350000Y-129450000D03*
X166620000Y-129450000D03*
X167890000Y-129450000D03*
X169160000Y-129450000D03*
X170430000Y-129450000D03*
X171700000Y-129450000D03*
X172970000Y-129450000D03*
X174240000Y-129450000D03*
X175510000Y-129450000D03*
D11*
X178550000Y-128200000D03*
X178550000Y-126930000D03*
X178550000Y-125660000D03*
X178550000Y-124390000D03*
X178550000Y-123120000D03*
X178550000Y-121850000D03*
X178550000Y-120580000D03*
X178550000Y-119310000D03*
X178550000Y-118040000D03*
X178550000Y-116770000D03*
X178550000Y-115500000D03*
X178550000Y-114230000D03*
X178550000Y-112960000D03*
X178550000Y-111690000D03*
D13*
X169120000Y-120555000D03*
X167595000Y-120555000D03*
X169120000Y-119030000D03*
X167595000Y-119030000D03*
X170645000Y-119030000D03*
X169120000Y-117505000D03*
X167595000Y-117505000D03*
X170645000Y-120555000D03*
X170645000Y-117505000D03*
%TD*%
D14*
%TO.C,R3*%
X170611200Y-135051800D03*
X173711200Y-135051800D03*
%TD*%
D15*
%TO.C,D1*%
X167908300Y-134874000D03*
X164933300Y-134874000D03*
%TD*%
D16*
%TO.C,R27*%
X130352800Y-132181600D03*
X127252800Y-132181600D03*
%TD*%
D17*
%TO.C,D4*%
X118798800Y-139039600D03*
X115998800Y-139039600D03*
%TD*%
D18*
%TO.C,Q6*%
X167316200Y-78469400D03*
X161766200Y-73619400D03*
X167316200Y-73619400D03*
X161766200Y-78469400D03*
D19*
X167081200Y-66894400D03*
X162001200Y-66894400D03*
%TD*%
D14*
%TO.C,R21*%
X111683200Y-95199200D03*
X114783200Y-95199200D03*
%TD*%
D20*
%TO.C,D5*%
X116078000Y-130745600D03*
X116078000Y-131585600D03*
%TD*%
D21*
%TO.C,C25*%
X145440400Y-113042200D03*
X145440400Y-107836200D03*
%TD*%
D22*
%TO.C,C7*%
X139877800Y-106705400D03*
X138410554Y-105238154D03*
%TD*%
D23*
%TO.C,R2*%
X150444200Y-117475600D03*
X150444200Y-114375600D03*
%TD*%
D24*
%TO.C,C2*%
X175873500Y-134848600D03*
X177948500Y-134848600D03*
%TD*%
D25*
%TO.C,U8*%
X119595089Y-130320267D03*
X119595089Y-130820266D03*
X119595089Y-131320268D03*
X119595089Y-131820267D03*
X119595089Y-132320266D03*
X119595089Y-132820268D03*
X119595089Y-133320267D03*
D26*
X120419189Y-134144367D03*
X120919188Y-134144367D03*
X121419190Y-134144367D03*
X121919189Y-134144367D03*
X122419188Y-134144367D03*
X122919190Y-134144367D03*
X123419189Y-134144367D03*
D25*
X124243289Y-133320267D03*
X124243289Y-132820268D03*
X124243289Y-132320266D03*
X124243289Y-131820267D03*
X124243289Y-131320268D03*
X124243289Y-130820266D03*
X124243289Y-130320267D03*
D26*
X123419189Y-129496167D03*
X122919190Y-129496167D03*
X122419188Y-129496167D03*
X121919189Y-129496167D03*
X121419190Y-129496167D03*
X120919188Y-129496167D03*
X120419189Y-129496167D03*
%TD*%
D27*
%TO.C,R13*%
X189804800Y-79425800D03*
X191804800Y-79425800D03*
%TD*%
D28*
%TO.C,C20*%
X204012800Y-66332500D03*
X204012800Y-63207500D03*
%TD*%
D29*
%TO.C,C24*%
X185039000Y-63046700D03*
X185039000Y-65121700D03*
%TD*%
D24*
%TO.C,C3*%
X172241300Y-137414000D03*
X174316300Y-137414000D03*
%TD*%
D30*
%TO.C,C34*%
X122652700Y-138531600D03*
X120577700Y-138531600D03*
%TD*%
D27*
%TO.C,R6*%
X155362400Y-65303400D03*
X157362400Y-65303400D03*
%TD*%
D31*
%TO.C,R19*%
X166760400Y-62687200D03*
X164760400Y-62687200D03*
%TD*%
D32*
%TO.C,J25*%
X113467701Y-129080000D03*
X113467701Y-129579999D03*
X113467701Y-130080001D03*
X113467701Y-130580000D03*
X113467701Y-131079999D03*
X113467701Y-131580000D03*
X113467701Y-132580000D03*
X113467701Y-133080001D03*
X113467701Y-133580000D03*
X113467701Y-134079999D03*
X113467701Y-134580001D03*
X113467701Y-135080000D03*
D33*
X112167699Y-135180000D03*
D32*
X112167699Y-134330001D03*
X112167699Y-133829999D03*
X112167699Y-133330000D03*
X112167699Y-132830001D03*
X112167699Y-132330000D03*
X112167699Y-131830000D03*
X112167699Y-131329999D03*
X112167699Y-130830000D03*
X112167699Y-130330001D03*
X112167699Y-129829999D03*
D33*
X112167699Y-128980000D03*
%TD*%
D18*
%TO.C,Q3*%
X174536000Y-65911600D03*
X174536000Y-61061600D03*
X180086000Y-61061600D03*
X180086000Y-65911600D03*
D19*
X179851000Y-54336600D03*
X174771000Y-54336600D03*
%TD*%
D14*
%TO.C,R24*%
X154406000Y-133350000D03*
X157506000Y-133350000D03*
%TD*%
D21*
%TO.C,C27*%
X145440400Y-90208600D03*
X145440400Y-95414600D03*
%TD*%
D34*
%TO.C,Q5*%
X132528400Y-65271600D03*
X137378400Y-70821600D03*
X137378400Y-65271600D03*
X132528400Y-70821600D03*
D35*
X144103400Y-70586600D03*
X144103400Y-65506600D03*
%TD*%
D21*
%TO.C,C30*%
X145440400Y-122541800D03*
X145440400Y-117335800D03*
%TD*%
D36*
%TO.C,Q10*%
X182285600Y-131061100D03*
X184185600Y-131061100D03*
X183235600Y-129186100D03*
%TD*%
D37*
%TO.C,IC1*%
X168162300Y-93239700D03*
X171537300Y-92114700D03*
X170412300Y-92114700D03*
X171537300Y-94364700D03*
X169287300Y-93239700D03*
X169287300Y-95489700D03*
X170412300Y-94364700D03*
X168162300Y-95489700D03*
X170412300Y-93239700D03*
X171537300Y-95489700D03*
X168162300Y-94364700D03*
X170412300Y-95489700D03*
X169287300Y-94364700D03*
X168162300Y-92114700D03*
X169287300Y-92114700D03*
X171537300Y-93239700D03*
D38*
X165687300Y-91052200D03*
X165687300Y-91552200D03*
X165687300Y-92052200D03*
X165687300Y-92552200D03*
X165687300Y-93052200D03*
X165687300Y-93552200D03*
X165687300Y-94052200D03*
X165687300Y-94552200D03*
X165687300Y-95052200D03*
X165687300Y-95552200D03*
X165687300Y-96052200D03*
X165687300Y-96552200D03*
D39*
X167099800Y-97964700D03*
X167599800Y-97964700D03*
X168099800Y-97964700D03*
X168599800Y-97964700D03*
X169099800Y-97964700D03*
X169599800Y-97964700D03*
X170099800Y-97964700D03*
X170599800Y-97964700D03*
X171099800Y-97964700D03*
X171599800Y-97964700D03*
X172099800Y-97964700D03*
X172599800Y-97964700D03*
D38*
X174012300Y-96552200D03*
X174012300Y-96052200D03*
X174012300Y-95552200D03*
X174012300Y-95052200D03*
X174012300Y-94552200D03*
X174012300Y-94052200D03*
X174012300Y-93552200D03*
X174012300Y-93052200D03*
X174012300Y-92552200D03*
X174012300Y-92052200D03*
X174012300Y-91552200D03*
X174012300Y-91052200D03*
D39*
X172599800Y-89639700D03*
X172099800Y-89639700D03*
X171599800Y-89639700D03*
X171099800Y-89639700D03*
X170599800Y-89639700D03*
X170099800Y-89639700D03*
X169599800Y-89639700D03*
X169099800Y-89639700D03*
X168599800Y-89639700D03*
X168099800Y-89639700D03*
X167599800Y-89639700D03*
X167099800Y-89639700D03*
%TD*%
D24*
%TO.C,C11*%
X176762500Y-98196400D03*
X178837500Y-98196400D03*
%TD*%
D40*
%TO.C,R8*%
X170713400Y-83677000D03*
X170713400Y-81677000D03*
%TD*%
D16*
%TO.C,R26*%
X129108800Y-125984000D03*
X126008800Y-125984000D03*
%TD*%
D34*
%TO.C,Q7*%
X191124800Y-89236600D03*
X186274800Y-89236600D03*
X186274800Y-83686600D03*
X191124800Y-83686600D03*
D35*
X197849800Y-89001600D03*
X197849800Y-83921600D03*
%TD*%
D23*
%TO.C,R5*%
X158216600Y-96977800D03*
X158216600Y-93877800D03*
%TD*%
D30*
%TO.C,C14*%
X180463100Y-89535000D03*
X178388100Y-89535000D03*
%TD*%
D41*
%TO.C,R12*%
X150825200Y-90525000D03*
X150825200Y-93625000D03*
%TD*%
D29*
%TO.C,C19*%
X177266600Y-83900100D03*
X177266600Y-85975100D03*
%TD*%
D14*
%TO.C,R23*%
X119760400Y-104698800D03*
X122860400Y-104698800D03*
%TD*%
D40*
%TO.C,R17*%
X172872400Y-83702400D03*
X172872400Y-81702400D03*
%TD*%
D30*
%TO.C,C15*%
X182034000Y-92913200D03*
X179959000Y-92913200D03*
%TD*%
D42*
%TO.C,D3*%
X108508800Y-92492500D03*
X108508800Y-95467500D03*
%TD*%
D14*
%TO.C,R11*%
X151434200Y-96850200D03*
X154534200Y-96850200D03*
%TD*%
D43*
%TO.C,D2*%
X139700000Y-126620000D03*
X139700000Y-129920000D03*
%TD*%
D14*
%TO.C,R9*%
X160425800Y-97409000D03*
X163525800Y-97409000D03*
%TD*%
D41*
%TO.C,R20*%
X129844800Y-136067200D03*
X129844800Y-139167200D03*
%TD*%
D24*
%TO.C,C29*%
X125708500Y-95148400D03*
X127783500Y-95148400D03*
%TD*%
D44*
%TO.C,U6*%
X120987000Y-101347000D03*
X117637000Y-101347000D03*
X117637000Y-98297000D03*
X120987000Y-98297000D03*
D45*
X125612000Y-102102000D03*
X125612000Y-99822000D03*
X125612000Y-97542000D03*
%TD*%
D24*
%TO.C,C6*%
X150016300Y-102666800D03*
X152091300Y-102666800D03*
%TD*%
D14*
%TO.C,R32*%
X126008800Y-128676400D03*
X129108800Y-128676400D03*
%TD*%
D30*
%TO.C,C1*%
X182139500Y-135559800D03*
X180064500Y-135559800D03*
%TD*%
D46*
%TO.C,C28*%
X125793000Y-79197200D03*
X120587000Y-79197200D03*
%TD*%
D25*
%TO.C,U8*%
X119595900Y-130326000D03*
X119595900Y-130825999D03*
X119595900Y-131326001D03*
X119595900Y-131826000D03*
X119595900Y-132325999D03*
X119595900Y-132826001D03*
X119595900Y-133326000D03*
D26*
X120420000Y-134150100D03*
X120919999Y-134150100D03*
X121420001Y-134150100D03*
X121920000Y-134150100D03*
X122419999Y-134150100D03*
X122920001Y-134150100D03*
X123420000Y-134150100D03*
D25*
X124244100Y-133326000D03*
X124244100Y-132826001D03*
X124244100Y-132325999D03*
X124244100Y-131826000D03*
X124244100Y-131326001D03*
X124244100Y-130825999D03*
X124244100Y-130326000D03*
D26*
X123420000Y-129501900D03*
X122920001Y-129501900D03*
X122419999Y-129501900D03*
X121920000Y-129501900D03*
X121420001Y-129501900D03*
X120919999Y-129501900D03*
X120420000Y-129501900D03*
%TD*%
D47*
%TO.C,C12*%
X165887400Y-102870000D03*
X165887400Y-100795000D03*
%TD*%
%TO.C,C16*%
X165125400Y-89505700D03*
X165125400Y-87430700D03*
%TD*%
D29*
%TO.C,C37*%
X115570000Y-134801700D03*
X115570000Y-136876700D03*
%TD*%
D20*
%TO.C,D6*%
X116078000Y-133414400D03*
X116078000Y-132574400D03*
%TD*%
D48*
%TO.C,J6*%
X155469200Y-54878600D03*
X158469200Y-54878600D03*
X161469200Y-54878600D03*
X164469200Y-54878600D03*
%TD*%
D49*
%TO.C,J18*%
X111793112Y-146168040D03*
X114793112Y-146168040D03*
%TD*%
D34*
%TO.C,U5*%
X112945000Y-91040000D03*
X117795000Y-85490000D03*
X112945000Y-85490000D03*
X117795000Y-91040000D03*
D35*
X124520000Y-90805000D03*
X124520000Y-88265000D03*
X124520000Y-85725000D03*
%TD*%
D47*
%TO.C,C8*%
X160248600Y-91258300D03*
X160248600Y-89183300D03*
%TD*%
D27*
%TO.C,R31*%
X119065800Y-126212600D03*
X121065800Y-126212600D03*
%TD*%
D18*
%TO.C,Q8*%
X197415200Y-65344000D03*
X191865200Y-60494000D03*
X197415200Y-60494000D03*
X191865200Y-65344000D03*
D19*
X192100200Y-72069000D03*
X197180200Y-72069000D03*
%TD*%
D14*
%TO.C,R25*%
X135051200Y-116078000D03*
X138151200Y-116078000D03*
%TD*%
D29*
%TO.C,C36*%
X117652800Y-133633300D03*
X117652800Y-135708300D03*
%TD*%
D21*
%TO.C,C32*%
X112420400Y-115100600D03*
X112420400Y-120306600D03*
%TD*%
D50*
%TO.C,C22*%
X125239000Y-65913000D03*
X117839000Y-65913000D03*
%TD*%
D40*
%TO.C,R1*%
X159105600Y-141055600D03*
X159105600Y-139055600D03*
%TD*%
D30*
%TO.C,C18*%
X165934300Y-82931000D03*
X163859300Y-82931000D03*
%TD*%
%TO.C,C13*%
X179523300Y-95554800D03*
X177448300Y-95554800D03*
%TD*%
D27*
%TO.C,R4*%
X157089600Y-143103600D03*
X159089600Y-143103600D03*
%TD*%
D41*
%TO.C,R10*%
X154660600Y-90575800D03*
X154660600Y-93675800D03*
%TD*%
D34*
%TO.C,Q1*%
X132589400Y-76898400D03*
X137439400Y-76898400D03*
X132589400Y-82448400D03*
X137439400Y-82448400D03*
D35*
X144164400Y-82213400D03*
X144164400Y-77133400D03*
%TD*%
D50*
%TO.C,C21*%
X139132800Y-57378600D03*
X131732800Y-57378600D03*
%TD*%
D29*
%TO.C,C9*%
X156870400Y-89919900D03*
X156870400Y-91994900D03*
%TD*%
D24*
%TO.C,C17*%
X176254500Y-81813400D03*
X178329500Y-81813400D03*
%TD*%
D30*
%TO.C,C10*%
X162581500Y-93878400D03*
X160506500Y-93878400D03*
%TD*%
D40*
%TO.C,R7*%
X162560000Y-89493600D03*
X162560000Y-87493600D03*
%TD*%
D24*
%TO.C,C23*%
X138586300Y-95453200D03*
X140661300Y-95453200D03*
%TD*%
D49*
%TO.C,SW1*%
X123731112Y-146168040D03*
X126731112Y-146168040D03*
%TD*%
D34*
%TO.C,Q4*%
X174423200Y-72059800D03*
X179273200Y-72059800D03*
X174423200Y-77609800D03*
X179273200Y-77609800D03*
D35*
X185998200Y-77374800D03*
X185998200Y-72294800D03*
%TD*%
D16*
%TO.C,R29*%
X134188800Y-128676400D03*
X131088800Y-128676400D03*
%TD*%
D30*
%TO.C,C31*%
X126898400Y-104698800D03*
X124823400Y-104698800D03*
%TD*%
D27*
%TO.C,R16*%
X174047400Y-88925400D03*
X176047400Y-88925400D03*
%TD*%
D30*
%TO.C,C35*%
X122652700Y-136398000D03*
X120577700Y-136398000D03*
%TD*%
D27*
%TO.C,R30*%
X116094000Y-128727200D03*
X118094000Y-128727200D03*
%TD*%
D16*
%TO.C,R28*%
X134188800Y-125984000D03*
X131088800Y-125984000D03*
%TD*%
D24*
%TO.C,C4*%
X156340900Y-126187200D03*
X158415900Y-126187200D03*
%TD*%
%TO.C,C5*%
X150346500Y-139547600D03*
X152421500Y-139547600D03*
%TD*%
D27*
%TO.C,R18*%
X147894800Y-67259200D03*
X149894800Y-67259200D03*
%TD*%
D44*
%TO.C,U4*%
X117637000Y-110999000D03*
X120987000Y-110999000D03*
X120987000Y-107949000D03*
X117637000Y-107949000D03*
D45*
X125612000Y-111754000D03*
X125612000Y-107194000D03*
%TD*%
D51*
%TO.C,Q11*%
X157820400Y-115876500D03*
X155920400Y-115876500D03*
X156870400Y-117751500D03*
%TD*%
D18*
%TO.C,Q9*%
X134404000Y-145312000D03*
X139954000Y-145312000D03*
X134404000Y-140462000D03*
X139954000Y-140462000D03*
D19*
X139719000Y-133737000D03*
X134639000Y-133737000D03*
%TD*%
D52*
%TO.C,C33*%
X154686000Y-112081200D03*
X154686000Y-104681200D03*
%TD*%
D41*
%TO.C,R22*%
X129235200Y-100812000D03*
X129235200Y-103912000D03*
%TD*%
D21*
%TO.C,C26*%
X145491200Y-104152200D03*
X145491200Y-98946200D03*
%TD*%
D16*
%TO.C,R15*%
X202464000Y-79273400D03*
X199364000Y-79273400D03*
%TD*%
D44*
%TO.C,U7*%
X120987000Y-118617000D03*
X117637000Y-118617000D03*
X120987000Y-121667000D03*
X117637000Y-121667000D03*
D45*
X125612000Y-122422000D03*
X125612000Y-117862000D03*
%TD*%
D18*
%TO.C,Q2*%
X149910800Y-82600800D03*
X155460800Y-82600800D03*
X155460800Y-77750800D03*
X149910800Y-77750800D03*
D19*
X155225800Y-71025800D03*
X150145800Y-71025800D03*
%TD*%
D14*
%TO.C,R14*%
X138200800Y-87426800D03*
X141300800Y-87426800D03*
%TD*%
M02*
