M48
; DRILL file {KiCad 6.0.4-6f826c9f35~116~ubuntu20.04.1} date So 10 Apr 2022 19:12:07 CEST
; FORMAT={-:-/ absolute / inch / decimal}
; #@! TF.CreationDate,2022-04-10T19:12:07+02:00
; #@! TF.GenerationSoftware,Kicad,Pcbnew,6.0.4-6f826c9f35~116~ubuntu20.04.1
; #@! TF.FileFunction,Plated,1,4,PTH
FMAT,2
INCH
; #@! TA.AperFunction,Plated,PTH,ComponentDrill
T1C0.0010
; #@! TA.AperFunction,Plated,PTH,ViaDrill
T2C0.0079
; #@! TA.AperFunction,Plated,PTH,ComponentDrill
T3C0.0079
; #@! TA.AperFunction,Plated,PTH,ViaDrill
T4C0.0100
; #@! TA.AperFunction,Plated,PTH,ComponentDrill
T5C0.0236
; #@! TA.AperFunction,Plated,PTH,ViaDrill
T6C0.0295
; #@! TA.AperFunction,Plated,PTH,ViaDrill
T7C0.0303
; #@! TA.AperFunction,Plated,PTH,ComponentDrill
T8C0.0394
; #@! TA.AperFunction,Plated,PTH,ComponentDrill
T9C0.0470
; #@! TA.AperFunction,Plated,PTH,ComponentDrill
T10C0.0472
; #@! TA.AperFunction,Plated,PTH,ComponentDrill
T11C0.0949
; #@! TA.AperFunction,Plated,PTH,ComponentDrill
T12C0.1693
%
G90
G05
T1
X4.2413Y-5.0299
X4.2413Y-5.3701
X4.4523Y-5.0299
X4.4523Y-5.3701
T2
X4.4291Y-5.2087
X4.46Y-5.18
T3
X6.5984Y-3.6044
X6.5984Y-3.6487
X6.5984Y-3.693
X6.5984Y-3.7373
X6.5984Y-3.7816
X6.6427Y-3.6044
X6.6427Y-3.6487
X6.6427Y-3.693
X6.6427Y-3.7373
X6.6427Y-3.7816
X6.687Y-3.6044
X6.687Y-3.6487
X6.687Y-3.693
X6.687Y-3.7373
X6.687Y-3.7816
X6.7313Y-3.6044
X6.7313Y-3.6487
X6.7313Y-3.693
X6.7313Y-3.7373
X6.7313Y-3.7816
X6.7756Y-3.6044
X6.7756Y-3.6487
X6.7756Y-3.693
X6.7756Y-3.7373
X6.7756Y-3.7816
T4
X4.2874Y-3.5551
X4.426Y-4.5315
X4.437Y-4.8071
X4.4488Y-5.6614
X4.4768Y-5.3315
X4.4961Y-5.0748
X4.5157Y-4.8425
X4.5354Y-5.2559
X4.5906Y-5.1299
X4.6024Y-5.4055
X4.6868Y-5.0984
X4.6876Y-4.969
X4.695Y-5.345
X4.708Y-5.306
X4.75Y-2.755
X4.7537Y-5.0587
X4.7962Y-5.0442
X4.8Y-5.1898
X4.8189Y-4.9331
X4.8543Y-6.126
X4.8622Y-4.2992
X4.865Y-5.53
X4.8701Y-4.1969
X4.8898Y-5.4567
X4.8976Y-5.3819
X4.91Y-2.26
X4.9528Y-6.1614
X4.9528Y-6.1614
X4.961Y-5.066
X5.0276Y-3.4331
X5.0354Y-5.4764
X5.058Y-5.154
X5.083Y-5.066
X5.0945Y-3.7205
X5.112Y-5.357
X5.1496Y-5.5906
X5.1614Y-4.0157
X5.2034Y-4.958
X5.4134Y-4.0906
X5.432Y-5.306
X5.4646Y-3.5197
X5.5472Y-3.689
X5.564Y-3.457
X5.629Y-3.62
X5.645Y-5.5747
X5.6734Y-2.779
X5.6758Y-3.2367
X5.68Y-5.43
X5.7Y-2.35
X5.726Y-3.8244
X5.7345Y-3.5555
X5.76Y-2.84
X5.7745Y-3.4825
X5.805Y-5.165
X5.833Y-3.474
X5.836Y-5.404
X5.836Y-5.404
X5.855Y-5.12
X5.865Y-5.455
X5.868Y-3.648
X5.868Y-3.952
X5.88Y-5.18
X5.8819Y-4.6929
X5.9016Y-4.1299
X5.9478Y-4.0837
X5.9528Y-2.5787
X5.995Y-5.035
X6.004Y-4.526
X6.004Y-4.625
X6.0113Y-3.1565
X6.02Y-3.515
X6.0748Y-5.4646
X6.076Y-4.406
X6.08Y-5.25
X6.0906Y-4.5984
X6.1038Y-4.0014
X6.106Y-4.279
X6.111Y-2.667
X6.112Y-2.566
X6.1181Y-4.5591
X6.1277Y-3.6046
X6.1339Y-5.6811
X6.1552Y-4.968
X6.178Y-4.71
X6.185Y-4.418
X6.1978Y-4.781
X6.228Y-3.821
X6.2343Y-4.0666
X6.254Y-5.037
X6.2598Y-2.5079
X6.2611Y-5.6317
X6.262Y-3.204
X6.265Y-5.202
X6.2653Y-4.0695
X6.283Y-5.113
X6.2944Y-4.387
X6.299Y-4.94
X6.302Y-4.895
X6.309Y-3.592
X6.323Y-5.652
X6.3294Y-3.7223
X6.3435Y-4.496
X6.356Y-5.222
X6.3622Y-3.811
X6.386Y-3.644
X6.392Y-5.086
X6.393Y-4.549
X6.396Y-4.807
X6.3976Y-4.5906
X6.3978Y-4.058
X6.3993Y-5.6887
X6.401Y-4.64
X6.401Y-5.046
X6.4016Y-4.4055
X6.402Y-5.2698
X6.413Y-3.129
X6.422Y-4.382
X6.439Y-4.887
X6.4449Y-3.4528
X6.4449Y-5.9961
X6.45Y-3.485
X6.45Y-5.765
X6.4512Y-3.265
X6.457Y-4.499
X6.462Y-4.937
X6.4692Y-4.8474
X6.471Y-5.447
X6.476Y-3.6046
X6.491Y-5.31
X6.4921Y-5.0236
X6.514Y-3.892
X6.5157Y-2.5827
X6.526Y-4.0093
X6.533Y-5.595
X6.5405Y-3.2565
X6.5433Y-4.748
X6.5472Y-3.9252
X6.566Y-5.435
X6.5669Y-3.6772
X6.572Y-5.152
X6.578Y-2.6336
X6.578Y-3.405
X6.579Y-3.911
X6.596Y-5.439
X6.6005Y-3.4869
X6.6063Y-4.0627
X6.623Y-5.154
X6.626Y-4.3661
X6.628Y-5.671
X6.629Y-4.499
X6.6378Y-3.4472
X6.647Y-4.041
X6.655Y-2.78
X6.659Y-5.352
X6.66Y-5.382
X6.6666Y-3.9744
X6.677Y-5.145
X6.6772Y-3.8221
X6.6824Y-3.381
X6.686Y-3.465
X6.6969Y-3.9606
X6.6969Y-5.9409
X6.7089Y-3.8121
X6.711Y-3.419
X6.7144Y-3.478
X6.717Y-3.9684
X6.721Y-3.2944
X6.7244Y-3.1535
X6.7323Y-2.8937
X6.7353Y-5.3672
X6.737Y-3.574
X6.75Y-2.825
X6.7795Y-4.626
X6.7802Y-3.1811
X6.782Y-5.152
X6.7953Y-3.4503
X6.806Y-3.2954
X6.8062Y-3.6891
X6.8126Y-3.1748
X6.824Y-5.422
X6.828Y-3.39
X6.8311Y-3.861
X6.854Y-5.655
X6.86Y-5.156
X6.869Y-3.897
X6.871Y-3.361
X6.8858Y-3.5433
X6.8858Y-5.3307
X6.8979Y-3.457
X6.899Y-5.136
X6.9094Y-3.8583
X6.9113Y-3.3207
X6.914Y-3.782
X6.9188Y-4.8672
X6.932Y-4.967
X6.937Y-3.722
X6.939Y-5.152
X6.9392Y-3.221
X6.9488Y-4.4724
X6.949Y-3.014
X6.953Y-3.64
X6.96Y-4.887
X6.966Y-3.425
X6.968Y-5.4501
X6.9685Y-3.815
X6.9724Y-4.4213
X6.979Y-3.3032
X6.9798Y-5.035
X6.9828Y-3.9552
X6.983Y-5.13
X6.9875Y-4.9749
X6.9885Y-2.5375
X7.0Y-3.874
X7.0058Y-5.309
X7.0081Y-3.3468
X7.0208Y-3.221
X7.0273Y-4.3685
X7.0325Y-4.896
X7.0325Y-5.046
X7.049Y-4.014
X7.058Y-5.152
X7.0697Y-4.2571
X7.0779Y-5.0262
X7.0807Y-2.1392
X7.0817Y-4.3755
X7.082Y-4.447
X7.0866Y-4.6378
X7.0893Y-4.4106
X7.0903Y-4.3108
X7.092Y-5.222
X7.093Y-4.857
X7.0932Y-4.8252
X7.0945Y-4.937
X7.096Y-3.975
X7.098Y-4.041
X7.098Y-4.76
X7.1017Y-4.5147
X7.1042Y-4.2547
X7.118Y-4.582
X7.118Y-5.202
X7.122Y-5.5236
X7.1238Y-4.4607
X7.139Y-3.434
X7.1417Y-4.6416
X7.144Y-4.121
X7.1614Y-4.8898
X7.1632Y-5.1012
X7.1649Y-5.0659
X7.165Y-4.759
X7.185Y-3.5787
X7.1858Y-4.111
X7.1858Y-4.6031
X7.1858Y-4.6847
X7.189Y-4.9409
X7.193Y-4.785
X7.2008Y-3.9528
X7.214Y-4.875
X7.2168Y-4.1132
X7.2205Y-5.1535
X7.237Y-4.826
X7.249Y-4.113
X7.2559Y-2.622
X7.2568Y-4.2913
X7.2568Y-4.561
X7.259Y-4.711
X7.261Y-4.467
X7.2702Y-2.3873
X7.275Y-4.7864
X7.279Y-5.059
X7.2992Y-4.2874
X7.308Y-5.163
X7.31Y-5.33
X7.311Y-4.685
X7.3228Y-2.8463
X7.3295Y-4.2841
X7.3375Y-4.8465
X7.338Y-4.932
X7.338Y-4.9
X7.3504Y-4.1969
X7.356Y-3.139
X7.3622Y-3.9055
X7.378Y-4.2677
X7.4291Y-4.9764
X7.4528Y-5.0433
X7.4606Y-5.1969
X7.4815Y-5.3925
X7.4843Y-2.8465
X7.4921Y-4.2152
X7.5Y-4.5197
X7.51Y-5.105
X7.51Y-5.1871
X7.51Y-5.3
X7.5315Y-5.4843
X7.5551Y-3.9291
X7.563Y-4.826
X7.5726Y-4.2541
X7.595Y-5.62
X7.619Y-5.752
X7.626Y-3.0512
X7.6496Y-4.2565
X7.6654Y-5.5157
X7.6693Y-4.4094
X7.6693Y-4.5157
X7.67Y-5.7602
X7.6732Y-3.4331
X7.674Y-2.362
X7.6919Y-4.5394
X7.6929Y-4.6339
X7.6953Y-4.39
X7.7129Y-5.6099
X7.724Y-4.6382
X7.7397Y-4.3331
X7.811Y-4.811
X7.8268Y-4.8701
X8.0079Y-3.3307
X8.0472Y-3.0827
X8.1181Y-2.6772
T5
X4.1801Y-6.1614
X4.188Y-1.9606
X4.2173Y-6.0716
X4.2173Y-6.2512
X4.2252Y-1.8708
X4.2252Y-2.0504
X4.3071Y-6.0344
X4.3071Y-6.2884
X4.315Y-1.8337
X4.315Y-2.0876
X4.3969Y-6.0716
X4.3969Y-6.2512
X4.4047Y-1.8708
X4.4047Y-2.0504
X4.4341Y-6.1614
X4.4419Y-1.9606
X8.0581Y-6.1575
X8.0659Y-1.9488
X8.0953Y-6.0677
X8.0953Y-6.2473
X8.1031Y-1.859
X8.1031Y-2.0386
X8.185Y-6.0305
X8.185Y-6.2844
X8.1929Y-1.8219
X8.1929Y-2.0758
X8.2748Y-6.0677
X8.2748Y-6.2473
X8.2827Y-1.859
X8.2827Y-2.0386
X8.312Y-6.1575
X8.3199Y-1.9488
T6
X4.5204Y-5.7712
X4.8704Y-5.7712
T7
X4.818Y-3.374
X4.945Y-4.4
X4.954Y-3.194
X4.98Y-3.575
X5.048Y-3.844
X5.058Y-4.22
X5.072Y-4.822
X5.29Y-3.806
X5.296Y-4.796
X5.298Y-4.168
X5.3Y-5.205
X5.478Y-4.7
T8
X4.186Y-4.1494
X4.186Y-4.2494
X4.186Y-4.3494
X4.348Y-4.1514
X4.348Y-4.2514
X4.348Y-4.3514
X4.5218Y-5.912
X4.522Y-6.058
X4.6218Y-5.912
X4.622Y-6.058
X4.623Y-6.204
X4.723Y-6.204
X4.823Y-6.204
X5.0266Y-6.136
X5.027Y-5.927
X5.027Y-6.032
X5.1266Y-6.136
X5.127Y-5.927
X5.127Y-6.032
X5.2266Y-6.136
X5.227Y-5.927
X5.227Y-6.032
X5.3266Y-6.136
X5.327Y-5.927
X5.327Y-6.032
X5.465Y-5.9998
X5.465Y-6.0998
X5.469Y-6.205
X5.569Y-6.205
X5.57Y-5.9998
X5.57Y-6.0998
X5.669Y-6.205
X5.67Y-6.0
X5.67Y-6.1
X5.702Y-5.302
X5.769Y-6.205
X5.77Y-5.9998
X5.77Y-6.0998
X5.869Y-6.205
X5.87Y-6.0
X5.87Y-6.1
X5.969Y-6.0
X5.969Y-6.1
X5.969Y-6.205
X6.028Y-4.796
X6.04Y-4.974
X6.1038Y-3.933
X6.2038Y-3.933
X6.4352Y-5.527
X6.5352Y-5.527
X6.6352Y-5.527
X6.7352Y-5.527
X6.8352Y-5.527
X7.1804Y-6.075
X7.277Y-3.712
X7.277Y-3.812
X7.277Y-3.912
X7.2804Y-6.075
X7.368Y-5.124
X7.3804Y-6.075
X7.439Y-3.709
X7.439Y-3.809
X7.439Y-3.909
X7.4804Y-6.075
X7.755Y-4.18
X7.755Y-4.28
X7.755Y-4.38
X7.755Y-4.48
X7.755Y-4.58
X7.755Y-4.68
X7.755Y-4.78
X7.755Y-4.88
X7.755Y-4.98
X7.755Y-5.08
X7.755Y-5.18
X7.755Y-5.28
X7.755Y-5.38
X7.755Y-5.48
X7.755Y-5.58
X7.755Y-5.68
X7.755Y-5.78
X7.755Y-5.88
X7.755Y-5.98
X7.755Y-6.08
X7.869Y-3.751
X7.869Y-3.851
X7.917Y-4.182
X7.917Y-4.282
X7.917Y-4.382
X7.917Y-4.482
X7.917Y-4.582
X7.917Y-4.682
X7.917Y-4.782
X7.917Y-4.882
X7.917Y-4.982
X7.917Y-5.082
X7.917Y-5.182
X7.917Y-5.282
X7.917Y-5.382
X7.917Y-5.482
X7.917Y-5.582
X7.917Y-5.682
X7.917Y-5.782
X7.917Y-5.882
X7.917Y-5.982
X7.917Y-6.082
X7.9751Y-3.751
X7.9751Y-3.851
X8.075Y-5.38
X8.075Y-5.48
X8.075Y-5.58
X8.079Y-3.751
X8.079Y-3.851
X8.079Y-3.951
X8.08Y-4.785
X8.08Y-4.885
X8.08Y-4.985
X8.08Y-5.085
X8.08Y-5.185
X8.085Y-4.185
X8.085Y-4.285
X8.085Y-4.385
X8.085Y-4.485
X8.085Y-4.585
X8.089Y-3.3086
X8.089Y-3.4086
X8.089Y-3.5086
T9
X6.5467Y-5.6618
X6.7553Y-5.6618
X7.0987Y-5.4358
X7.3073Y-5.4358
T10
X5.778Y-5.484
X5.89Y-4.948
X6.079Y-5.604
X6.1387Y-5.7773
X6.142Y-5.962
X6.142Y-6.116
X6.296Y-5.956
X6.298Y-6.108
X6.995Y-6.185
X7.417Y-4.176
X7.417Y-4.362
X7.42Y-4.551
X7.423Y-4.737
X7.573Y-4.174
X7.574Y-4.367
X7.578Y-4.549
X7.587Y-4.736
T11
X6.0362Y-1.9452
X6.5598Y-1.9452
T12
X4.3071Y-6.1614
X4.315Y-1.9606
X8.185Y-6.1575
X8.1929Y-1.9488
T0
M30
