%TF.GenerationSoftware,KiCad,Pcbnew,6.0.4-6f826c9f35~116~ubuntu20.04.1*%
%TF.CreationDate,2022-04-10T19:12:30+02:00*%
%TF.ProjectId,THEIA,54484549-412e-46b6-9963-61645f706362,rev?*%
%TF.SameCoordinates,Original*%
%TF.FileFunction,Soldermask,Top*%
%TF.FilePolarity,Negative*%
%FSLAX46Y46*%
G04 Gerber Fmt 4.6, Leading zero omitted, Abs format (unit mm)*
G04 Created by KiCad (PCBNEW 6.0.4-6f826c9f35~116~ubuntu20.04.1) date 2022-04-10 19:12:30*
%MOMM*%
%LPD*%
G01*
G04 APERTURE LIST*
G04 Aperture macros list*
%AMRoundRect*
0 Rectangle with rounded corners*
0 $1 Rounding radius*
0 $2 $3 $4 $5 $6 $7 $8 $9 X,Y pos of 4 corners*
0 Add a 4 corners polygon primitive as box body*
4,1,4,$2,$3,$4,$5,$6,$7,$8,$9,$2,$3,0*
0 Add four circle primitives for the rounded corners*
1,1,$1+$1,$2,$3*
1,1,$1+$1,$4,$5*
1,1,$1+$1,$6,$7*
1,1,$1+$1,$8,$9*
0 Add four rect primitives between the rounded corners*
20,1,$1+$1,$2,$3,$4,$5,0*
20,1,$1+$1,$4,$5,$6,$7,0*
20,1,$1+$1,$6,$7,$8,$9,0*
20,1,$1+$1,$8,$9,$2,$3,0*%
G04 Aperture macros list end*
%ADD10R,1.500000X0.900000*%
%ADD11R,0.900000X1.500000*%
%ADD12R,1.050000X1.050000*%
%ADD13R,1.700000X1.700000*%
%ADD14O,1.700000X1.700000*%
%ADD15RoundRect,0.250000X-0.400000X-0.625000X0.400000X-0.625000X0.400000X0.625000X-0.400000X0.625000X0*%
%ADD16RoundRect,0.250001X0.462499X0.624999X-0.462499X0.624999X-0.462499X-0.624999X0.462499X-0.624999X0*%
%ADD17C,1.701800*%
%ADD18C,0.900000*%
%ADD19C,8.600000*%
%ADD20RoundRect,0.250000X0.400000X0.625000X-0.400000X0.625000X-0.400000X-0.625000X0.400000X-0.625000X0*%
%ADD21R,1.100000X1.100000*%
%ADD22R,1.100000X4.600000*%
%ADD23R,10.800000X9.400000*%
%ADD24R,0.250000X0.360000*%
%ADD25R,5.520000X2.000000*%
%ADD26RoundRect,0.250000X0.574524X0.097227X0.097227X0.574524X-0.574524X-0.097227X-0.097227X-0.574524X0*%
%ADD27RoundRect,0.250000X0.625000X-0.400000X0.625000X0.400000X-0.625000X0.400000X-0.625000X-0.400000X0*%
%ADD28RoundRect,0.250000X-0.337500X-0.475000X0.337500X-0.475000X0.337500X0.475000X-0.337500X0.475000X0*%
%ADD29R,0.965200X0.254000*%
%ADD30R,0.254000X0.965200*%
%ADD31R,3.352800X3.352800*%
%ADD32RoundRect,0.250000X-0.350000X-0.450000X0.350000X-0.450000X0.350000X0.450000X-0.350000X0.450000X0*%
%ADD33RoundRect,0.250000X1.100000X-0.412500X1.100000X0.412500X-1.100000X0.412500X-1.100000X-0.412500X0*%
%ADD34RoundRect,0.250000X-0.475000X0.337500X-0.475000X-0.337500X0.475000X-0.337500X0.475000X0.337500X0*%
%ADD35RoundRect,0.250000X0.337500X0.475000X-0.337500X0.475000X-0.337500X-0.475000X0.337500X-0.475000X0*%
%ADD36RoundRect,0.250000X0.350000X0.450000X-0.350000X0.450000X-0.350000X-0.450000X0.350000X-0.450000X0*%
%ADD37C,0.660400*%
%ADD38O,2.667000X1.168400*%
%ADD39O,2.159000X1.168400*%
%ADD40R,0.762000X0.330200*%
%ADD41R,0.762000X1.041400*%
%ADD42C,2.500000*%
%ADD43R,4.600000X1.100000*%
%ADD44R,9.400000X10.800000*%
%ADD45RoundRect,0.150000X0.150000X-0.587500X0.150000X0.587500X-0.150000X0.587500X-0.150000X-0.587500X0*%
%ADD46RoundRect,0.075000X-0.662500X-0.075000X0.662500X-0.075000X0.662500X0.075000X-0.662500X0.075000X0*%
%ADD47RoundRect,0.075000X-0.075000X-0.662500X0.075000X-0.662500X0.075000X0.662500X-0.075000X0.662500X0*%
%ADD48R,5.000000X5.000000*%
%ADD49RoundRect,0.250000X0.450000X-0.350000X0.450000X0.350000X-0.450000X0.350000X-0.450000X-0.350000X0*%
%ADD50RoundRect,0.250000X-0.625000X0.400000X-0.625000X-0.400000X0.625000X-0.400000X0.625000X0.400000X0*%
%ADD51RoundRect,0.250001X-0.624999X0.462499X-0.624999X-0.462499X0.624999X-0.462499X0.624999X0.462499X0*%
%ADD52R,1.200000X0.900000*%
%ADD53R,2.200000X1.200000*%
%ADD54R,6.400000X5.800000*%
%ADD55R,2.000000X5.520000*%
%ADD56RoundRect,0.250000X0.475000X-0.337500X0.475000X0.337500X-0.475000X0.337500X-0.475000X-0.337500X0*%
%ADD57R,1.270000X2.920000*%
%ADD58C,2.710000*%
%ADD59C,2.410000*%
%ADD60R,1.270000X2.540000*%
%ADD61RoundRect,0.250000X1.950000X1.000000X-1.950000X1.000000X-1.950000X-1.000000X1.950000X-1.000000X0*%
%ADD62RoundRect,0.150000X-0.150000X0.587500X-0.150000X-0.587500X0.150000X-0.587500X0.150000X0.587500X0*%
%ADD63RoundRect,0.250000X1.000000X-1.950000X1.000000X1.950000X-1.000000X1.950000X-1.000000X-1.950000X0*%
G04 APERTURE END LIST*
D10*
%TO.C,U3*%
X161050000Y-111690000D03*
X161050000Y-112960000D03*
X161050000Y-114230000D03*
X161050000Y-115500000D03*
X161050000Y-116770000D03*
X161050000Y-118040000D03*
X161050000Y-119310000D03*
X161050000Y-120580000D03*
X161050000Y-121850000D03*
X161050000Y-123120000D03*
X161050000Y-124390000D03*
X161050000Y-125660000D03*
X161050000Y-126930000D03*
X161050000Y-128200000D03*
D11*
X164080000Y-129450000D03*
X165350000Y-129450000D03*
X166620000Y-129450000D03*
X167890000Y-129450000D03*
X169160000Y-129450000D03*
X170430000Y-129450000D03*
X171700000Y-129450000D03*
X172970000Y-129450000D03*
X174240000Y-129450000D03*
X175510000Y-129450000D03*
D10*
X178550000Y-128200000D03*
X178550000Y-126930000D03*
X178550000Y-125660000D03*
X178550000Y-124390000D03*
X178550000Y-123120000D03*
X178550000Y-121850000D03*
X178550000Y-120580000D03*
X178550000Y-119310000D03*
X178550000Y-118040000D03*
X178550000Y-116770000D03*
X178550000Y-115500000D03*
X178550000Y-114230000D03*
X178550000Y-112960000D03*
X178550000Y-111690000D03*
D12*
X169120000Y-120555000D03*
X167595000Y-120555000D03*
X169120000Y-119030000D03*
X167595000Y-119030000D03*
X170645000Y-119030000D03*
X169120000Y-117505000D03*
X167595000Y-117505000D03*
X170645000Y-120555000D03*
X170645000Y-117505000D03*
%TD*%
D13*
%TO.C,J7*%
X205232000Y-121539000D03*
D14*
X205232000Y-124079000D03*
X205232000Y-126619000D03*
X205232000Y-129159000D03*
X205232000Y-131699000D03*
%TD*%
D13*
%TO.C,J9*%
X205359000Y-106299000D03*
D14*
X205359000Y-108839000D03*
X205359000Y-111379000D03*
X205359000Y-113919000D03*
X205359000Y-116459000D03*
%TD*%
D15*
%TO.C,R3*%
X170611200Y-135051800D03*
X173711200Y-135051800D03*
%TD*%
D16*
%TO.C,D1*%
X167908300Y-134874000D03*
X164933300Y-134874000D03*
%TD*%
D17*
%TO.C,U2*%
X180306200Y-138069000D03*
X185606200Y-138069000D03*
%TD*%
D18*
%TO.C,H3*%
X208100000Y-52725000D03*
X211325000Y-49500000D03*
X205819581Y-47219581D03*
X210380419Y-47219581D03*
D19*
X208100000Y-49500000D03*
D18*
X208100000Y-46275000D03*
X210380419Y-51780419D03*
X205819581Y-51780419D03*
X204875000Y-49500000D03*
%TD*%
D20*
%TO.C,R27*%
X130352800Y-132181600D03*
X127252800Y-132181600D03*
%TD*%
D21*
%TO.C,D4*%
X118798800Y-139039600D03*
X115998800Y-139039600D03*
%TD*%
D22*
%TO.C,Q6*%
X167081200Y-66894400D03*
D23*
X164541200Y-76044400D03*
D22*
X162001200Y-66894400D03*
%TD*%
D15*
%TO.C,R21*%
X111683200Y-95199200D03*
X114783200Y-95199200D03*
%TD*%
D24*
%TO.C,D5*%
X116078000Y-130745600D03*
X116078000Y-131585600D03*
%TD*%
D18*
%TO.C,H4*%
X106175000Y-156500000D03*
X111680419Y-158780419D03*
X107119581Y-158780419D03*
X112625000Y-156500000D03*
X107119581Y-154219581D03*
D19*
X109400000Y-156500000D03*
D18*
X109400000Y-159725000D03*
X111680419Y-154219581D03*
X109400000Y-153275000D03*
%TD*%
D13*
%TO.C,JP6*%
X144018000Y-152400000D03*
D14*
X144018000Y-154940000D03*
%TD*%
D25*
%TO.C,C25*%
X145440400Y-113042200D03*
X145440400Y-107836200D03*
%TD*%
D26*
%TO.C,C7*%
X139877800Y-106705400D03*
X138410554Y-105238154D03*
%TD*%
D27*
%TO.C,R2*%
X150444200Y-117475600D03*
X150444200Y-114375600D03*
%TD*%
D28*
%TO.C,C2*%
X175873500Y-134848600D03*
X177948500Y-134848600D03*
%TD*%
D29*
%TO.C,U8*%
X119595089Y-130320267D03*
X119595089Y-130820266D03*
X119595089Y-131320268D03*
X119595089Y-131820267D03*
X119595089Y-132320266D03*
X119595089Y-132820268D03*
X119595089Y-133320267D03*
D30*
X120419189Y-134144367D03*
X120919188Y-134144367D03*
X121419190Y-134144367D03*
X121919189Y-134144367D03*
X122419188Y-134144367D03*
X122919190Y-134144367D03*
X123419189Y-134144367D03*
D29*
X124243289Y-133320267D03*
X124243289Y-132820268D03*
X124243289Y-132320266D03*
X124243289Y-131820267D03*
X124243289Y-131320268D03*
X124243289Y-130820266D03*
X124243289Y-130320267D03*
D30*
X123419189Y-129496167D03*
X122919190Y-129496167D03*
X122419188Y-129496167D03*
X121919189Y-129496167D03*
X121419190Y-129496167D03*
X120919188Y-129496167D03*
X120419189Y-129496167D03*
D31*
X121919189Y-131820267D03*
%TD*%
D13*
%TO.C,J13*%
X135305800Y-153212800D03*
D14*
X132765800Y-153212800D03*
X130225800Y-153212800D03*
X127685800Y-153212800D03*
%TD*%
D13*
%TO.C,J10*%
X138912600Y-157607000D03*
D14*
X141452600Y-157607000D03*
X143992600Y-157607000D03*
X146532600Y-157607000D03*
X149072600Y-157607000D03*
X151612600Y-157607000D03*
%TD*%
D32*
%TO.C,R13*%
X189804800Y-79425800D03*
X191804800Y-79425800D03*
%TD*%
D33*
%TO.C,C20*%
X204012800Y-66332500D03*
X204012800Y-63207500D03*
%TD*%
D34*
%TO.C,C24*%
X185039000Y-63046700D03*
X185039000Y-65121700D03*
%TD*%
D13*
%TO.C,J4*%
X205105000Y-136652000D03*
D14*
X205105000Y-139192000D03*
X205105000Y-141732000D03*
%TD*%
D28*
%TO.C,C3*%
X172241300Y-137414000D03*
X174316300Y-137414000D03*
%TD*%
D35*
%TO.C,C34*%
X122652700Y-138531600D03*
X120577700Y-138531600D03*
%TD*%
D13*
%TO.C,J14*%
X196977000Y-106172000D03*
D14*
X196977000Y-108712000D03*
X196977000Y-111252000D03*
X196977000Y-113792000D03*
X196977000Y-116332000D03*
X196977000Y-118872000D03*
X196977000Y-121412000D03*
X196977000Y-123952000D03*
X196977000Y-126492000D03*
X196977000Y-129032000D03*
X196977000Y-131572000D03*
X196977000Y-134112000D03*
X196977000Y-136652000D03*
X196977000Y-139192000D03*
X196977000Y-141732000D03*
X196977000Y-144272000D03*
X196977000Y-146812000D03*
X196977000Y-149352000D03*
X196977000Y-151892000D03*
X196977000Y-154432000D03*
%TD*%
D32*
%TO.C,R6*%
X155362400Y-65303400D03*
X157362400Y-65303400D03*
%TD*%
D36*
%TO.C,R19*%
X166760400Y-62687200D03*
X164760400Y-62687200D03*
%TD*%
D18*
%TO.C,H1*%
X205619581Y-154119581D03*
X207900000Y-153175000D03*
X207900000Y-159625000D03*
D19*
X207900000Y-156400000D03*
D18*
X210180419Y-154119581D03*
X210180419Y-158680419D03*
X204675000Y-156400000D03*
X205619581Y-158680419D03*
X211125000Y-156400000D03*
%TD*%
D37*
%TO.C,J25*%
X112593400Y-136400002D03*
X113584000Y-127759998D03*
X108478000Y-136400002D03*
X106979400Y-136400002D03*
X112593400Y-127759998D03*
X113584000Y-136400002D03*
X106979400Y-127759998D03*
X108478000Y-127759998D03*
D38*
X107728700Y-127759998D03*
X107728700Y-136400002D03*
D39*
X113088700Y-127759998D03*
X113088700Y-136400002D03*
D40*
X113467701Y-129080000D03*
X113467701Y-129579999D03*
X113467701Y-130080001D03*
X113467701Y-130580000D03*
X113467701Y-131079999D03*
X113467701Y-131580000D03*
X113467701Y-132580000D03*
X113467701Y-133080001D03*
X113467701Y-133580000D03*
X113467701Y-134079999D03*
X113467701Y-134580001D03*
X113467701Y-135080000D03*
D41*
X112167699Y-135180000D03*
D40*
X112167699Y-134330001D03*
X112167699Y-133829999D03*
X112167699Y-133330000D03*
X112167699Y-132830001D03*
X112167699Y-132330000D03*
X112167699Y-131830000D03*
X112167699Y-131329999D03*
X112167699Y-130830000D03*
X112167699Y-130330001D03*
X112167699Y-129829999D03*
D41*
X112167699Y-128980000D03*
%TD*%
D13*
%TO.C,JP2*%
X114853800Y-150164800D03*
D14*
X117393800Y-150164800D03*
%TD*%
D22*
%TO.C,Q3*%
X179851000Y-54336600D03*
D23*
X177311000Y-63486600D03*
D22*
X174771000Y-54336600D03*
%TD*%
D15*
%TO.C,R24*%
X154406000Y-133350000D03*
X157506000Y-133350000D03*
%TD*%
D13*
%TO.C,J22*%
X106324400Y-110475000D03*
D14*
X106324400Y-107935000D03*
X106324400Y-105395000D03*
%TD*%
D42*
%TO.C,TP8*%
X192709800Y-120294400D03*
%TD*%
D25*
%TO.C,C27*%
X145440400Y-90208600D03*
X145440400Y-95414600D03*
%TD*%
D43*
%TO.C,Q5*%
X144103400Y-70586600D03*
D44*
X134953400Y-68046600D03*
D43*
X144103400Y-65506600D03*
%TD*%
D25*
%TO.C,C30*%
X145440400Y-122541800D03*
X145440400Y-117335800D03*
%TD*%
D45*
%TO.C,Q10*%
X182285600Y-131061100D03*
X184185600Y-131061100D03*
X183235600Y-129186100D03*
%TD*%
D42*
%TO.C,TP13*%
X188468000Y-115595400D03*
%TD*%
D46*
%TO.C,IC1*%
X165687300Y-91052200D03*
X165687300Y-91552200D03*
X165687300Y-92052200D03*
X165687300Y-92552200D03*
X165687300Y-93052200D03*
X165687300Y-93552200D03*
X165687300Y-94052200D03*
X165687300Y-94552200D03*
X165687300Y-95052200D03*
X165687300Y-95552200D03*
X165687300Y-96052200D03*
X165687300Y-96552200D03*
D47*
X167099800Y-97964700D03*
X167599800Y-97964700D03*
X168099800Y-97964700D03*
X168599800Y-97964700D03*
X169099800Y-97964700D03*
X169599800Y-97964700D03*
X170099800Y-97964700D03*
X170599800Y-97964700D03*
X171099800Y-97964700D03*
X171599800Y-97964700D03*
X172099800Y-97964700D03*
X172599800Y-97964700D03*
D46*
X174012300Y-96552200D03*
X174012300Y-96052200D03*
X174012300Y-95552200D03*
X174012300Y-95052200D03*
X174012300Y-94552200D03*
X174012300Y-94052200D03*
X174012300Y-93552200D03*
X174012300Y-93052200D03*
X174012300Y-92552200D03*
X174012300Y-92052200D03*
X174012300Y-91552200D03*
X174012300Y-91052200D03*
D47*
X172599800Y-89639700D03*
X172099800Y-89639700D03*
X171599800Y-89639700D03*
X171099800Y-89639700D03*
X170599800Y-89639700D03*
X170099800Y-89639700D03*
X169599800Y-89639700D03*
X169099800Y-89639700D03*
X168599800Y-89639700D03*
X168099800Y-89639700D03*
X167599800Y-89639700D03*
X167099800Y-89639700D03*
D48*
X169849800Y-93802200D03*
%TD*%
D42*
%TO.C,TP5*%
X154406600Y-142341600D03*
%TD*%
D28*
%TO.C,C11*%
X176762500Y-98196400D03*
X178837500Y-98196400D03*
%TD*%
D49*
%TO.C,R8*%
X170713400Y-83677000D03*
X170713400Y-81677000D03*
%TD*%
D20*
%TO.C,R26*%
X129108800Y-125984000D03*
X126008800Y-125984000D03*
%TD*%
D18*
%TO.C,H2*%
X109600000Y-53025000D03*
X112825000Y-49800000D03*
X111880419Y-47519581D03*
X106375000Y-49800000D03*
D19*
X109600000Y-49800000D03*
D18*
X111880419Y-52080419D03*
X107319581Y-52080419D03*
X109600000Y-46575000D03*
X107319581Y-47519581D03*
%TD*%
D43*
%TO.C,Q7*%
X197849800Y-89001600D03*
D44*
X188699800Y-86461600D03*
D43*
X197849800Y-83921600D03*
%TD*%
D27*
%TO.C,R5*%
X158216600Y-96977800D03*
X158216600Y-93877800D03*
%TD*%
D35*
%TO.C,C14*%
X180463100Y-89535000D03*
X178388100Y-89535000D03*
%TD*%
D13*
%TO.C,JP4*%
X202568236Y-97815401D03*
D14*
X202568236Y-95275401D03*
%TD*%
D50*
%TO.C,R12*%
X150825200Y-90525000D03*
X150825200Y-93625000D03*
%TD*%
D34*
%TO.C,C19*%
X177266600Y-83900100D03*
X177266600Y-85975100D03*
%TD*%
D15*
%TO.C,R23*%
X119760400Y-104698800D03*
X122860400Y-104698800D03*
%TD*%
D42*
%TO.C,TP17*%
X146761200Y-139293600D03*
%TD*%
D49*
%TO.C,R17*%
X172872400Y-83702400D03*
X172872400Y-81702400D03*
%TD*%
D35*
%TO.C,C15*%
X182034000Y-92913200D03*
X179959000Y-92913200D03*
%TD*%
D51*
%TO.C,D3*%
X108508800Y-92492500D03*
X108508800Y-95467500D03*
%TD*%
D42*
%TO.C,TP6*%
X159969200Y-155143200D03*
%TD*%
D15*
%TO.C,R11*%
X151434200Y-96850200D03*
X154534200Y-96850200D03*
%TD*%
D52*
%TO.C,D2*%
X139700000Y-126620000D03*
X139700000Y-129920000D03*
%TD*%
D42*
%TO.C,TP11*%
X192354200Y-106019600D03*
%TD*%
D15*
%TO.C,R9*%
X160425800Y-97409000D03*
X163525800Y-97409000D03*
%TD*%
D42*
%TO.C,TP4*%
X177673000Y-157099000D03*
%TD*%
D17*
%TO.C,U1*%
X166285400Y-143809400D03*
X171585400Y-143809400D03*
%TD*%
D50*
%TO.C,R20*%
X129844800Y-136067200D03*
X129844800Y-139167200D03*
%TD*%
D28*
%TO.C,C29*%
X125708500Y-95148400D03*
X127783500Y-95148400D03*
%TD*%
D53*
%TO.C,U6*%
X125612000Y-102102000D03*
D54*
X119312000Y-99822000D03*
D53*
X125612000Y-99822000D03*
X125612000Y-97542000D03*
%TD*%
D13*
%TO.C,JP10*%
X141478000Y-152395000D03*
D14*
X141478000Y-154935000D03*
%TD*%
D13*
%TO.C,JP1*%
X114858800Y-153873200D03*
D14*
X117398800Y-153873200D03*
%TD*%
D13*
%TO.C,J24*%
X187147200Y-130149600D03*
%TD*%
%TO.C,J12*%
X135305800Y-150545800D03*
D14*
X132765800Y-150545800D03*
X130225800Y-150545800D03*
X127685800Y-150545800D03*
%TD*%
D28*
%TO.C,C6*%
X150016300Y-102666800D03*
X152091300Y-102666800D03*
%TD*%
D15*
%TO.C,R32*%
X126008800Y-128676400D03*
X129108800Y-128676400D03*
%TD*%
D42*
%TO.C,TP2*%
X156006800Y-151434800D03*
%TD*%
D35*
%TO.C,C1*%
X182139500Y-135559800D03*
X180064500Y-135559800D03*
%TD*%
D55*
%TO.C,C28*%
X125793000Y-79197200D03*
X120587000Y-79197200D03*
%TD*%
D42*
%TO.C,TP7*%
X188544200Y-120319800D03*
%TD*%
D29*
%TO.C,U8*%
X119595900Y-130326000D03*
X119595900Y-130825999D03*
X119595900Y-131326001D03*
X119595900Y-131826000D03*
X119595900Y-132325999D03*
X119595900Y-132826001D03*
X119595900Y-133326000D03*
D30*
X120420000Y-134150100D03*
X120919999Y-134150100D03*
X121420001Y-134150100D03*
X121920000Y-134150100D03*
X122419999Y-134150100D03*
X122920001Y-134150100D03*
X123420000Y-134150100D03*
D29*
X124244100Y-133326000D03*
X124244100Y-132826001D03*
X124244100Y-132325999D03*
X124244100Y-131826000D03*
X124244100Y-131326001D03*
X124244100Y-130825999D03*
X124244100Y-130326000D03*
D30*
X123420000Y-129501900D03*
X122920001Y-129501900D03*
X122419999Y-129501900D03*
X121920000Y-129501900D03*
X121420001Y-129501900D03*
X120919999Y-129501900D03*
X120420000Y-129501900D03*
D31*
X121920000Y-131826000D03*
%TD*%
D56*
%TO.C,C12*%
X165887400Y-102870000D03*
X165887400Y-100795000D03*
%TD*%
%TO.C,C16*%
X165125400Y-89505700D03*
X165125400Y-87430700D03*
%TD*%
D13*
%TO.C,JP7*%
X151612600Y-152400000D03*
D14*
X151612600Y-154940000D03*
%TD*%
D13*
%TO.C,J15*%
X201091800Y-106222800D03*
D14*
X201091800Y-108762800D03*
X201091800Y-111302800D03*
X201091800Y-113842800D03*
X201091800Y-116382800D03*
X201091800Y-118922800D03*
X201091800Y-121462800D03*
X201091800Y-124002800D03*
X201091800Y-126542800D03*
X201091800Y-129082800D03*
X201091800Y-131622800D03*
X201091800Y-134162800D03*
X201091800Y-136702800D03*
X201091800Y-139242800D03*
X201091800Y-141782800D03*
X201091800Y-144322800D03*
X201091800Y-146862800D03*
X201091800Y-149402800D03*
X201091800Y-151942800D03*
X201091800Y-154482800D03*
%TD*%
D13*
%TO.C,J11*%
X135295800Y-155854400D03*
D14*
X132755800Y-155854400D03*
X130215800Y-155854400D03*
X127675800Y-155854400D03*
%TD*%
D42*
%TO.C,TP9*%
X192481200Y-115544600D03*
%TD*%
D34*
%TO.C,C37*%
X115570000Y-134801700D03*
X115570000Y-136876700D03*
%TD*%
D24*
%TO.C,D6*%
X116078000Y-133414400D03*
X116078000Y-132574400D03*
%TD*%
D57*
%TO.C,J6*%
X155469200Y-54878600D03*
X158469200Y-54878600D03*
X161469200Y-54878600D03*
X164469200Y-54878600D03*
D58*
X166619200Y-49408600D03*
X153319200Y-49408600D03*
%TD*%
D42*
%TO.C,TP15*%
X155923573Y-146743450D03*
%TD*%
D59*
%TO.C,J18*%
X116943112Y-142748040D03*
X109643112Y-142748040D03*
D60*
X111793112Y-146168040D03*
X114793112Y-146168040D03*
%TD*%
D43*
%TO.C,U5*%
X124520000Y-90805000D03*
D44*
X115370000Y-88265000D03*
D43*
X124520000Y-88265000D03*
X124520000Y-85725000D03*
%TD*%
D56*
%TO.C,C8*%
X160248600Y-91258300D03*
X160248600Y-89183300D03*
%TD*%
D32*
%TO.C,R31*%
X119065800Y-126212600D03*
X121065800Y-126212600D03*
%TD*%
D22*
%TO.C,Q8*%
X192100200Y-72069000D03*
D23*
X194640200Y-62919000D03*
D22*
X197180200Y-72069000D03*
%TD*%
D13*
%TO.C,J20*%
X144830800Y-134670800D03*
%TD*%
D15*
%TO.C,R25*%
X135051200Y-116078000D03*
X138151200Y-116078000D03*
%TD*%
D34*
%TO.C,C36*%
X117652800Y-133633300D03*
X117652800Y-135708300D03*
%TD*%
D13*
%TO.C,J5*%
X205460600Y-84038199D03*
D14*
X205460600Y-86578199D03*
X205460600Y-89118199D03*
%TD*%
D25*
%TO.C,C32*%
X112420400Y-115100600D03*
X112420400Y-120306600D03*
%TD*%
D61*
%TO.C,C22*%
X125239000Y-65913000D03*
X117839000Y-65913000D03*
%TD*%
D49*
%TO.C,R1*%
X159105600Y-141055600D03*
X159105600Y-139055600D03*
%TD*%
D35*
%TO.C,C18*%
X165934300Y-82931000D03*
X163859300Y-82931000D03*
%TD*%
%TO.C,C13*%
X179523300Y-95554800D03*
X177448300Y-95554800D03*
%TD*%
D32*
%TO.C,R4*%
X157089600Y-143103600D03*
X159089600Y-143103600D03*
%TD*%
D50*
%TO.C,R10*%
X154660600Y-90575800D03*
X154660600Y-93675800D03*
%TD*%
D43*
%TO.C,Q1*%
X144164400Y-82213400D03*
D44*
X135014400Y-79673400D03*
D43*
X144164400Y-77133400D03*
%TD*%
D42*
%TO.C,TP12*%
X192379600Y-110921800D03*
%TD*%
D13*
%TO.C,JP9*%
X149098000Y-152400000D03*
D14*
X149098000Y-154940000D03*
%TD*%
D13*
%TO.C,J21*%
X110439200Y-110525800D03*
D14*
X110439200Y-107985800D03*
X110439200Y-105445800D03*
%TD*%
D61*
%TO.C,C21*%
X139132800Y-57378600D03*
X131732800Y-57378600D03*
%TD*%
D34*
%TO.C,C9*%
X156870400Y-89919900D03*
X156870400Y-91994900D03*
%TD*%
D28*
%TO.C,C17*%
X176254500Y-81813400D03*
X178329500Y-81813400D03*
%TD*%
D35*
%TO.C,C10*%
X162581500Y-93878400D03*
X160506500Y-93878400D03*
%TD*%
D13*
%TO.C,J3*%
X182382000Y-154305000D03*
D14*
X184922000Y-154305000D03*
X187462000Y-154305000D03*
X190002000Y-154305000D03*
%TD*%
D42*
%TO.C,TP16*%
X149606000Y-125679200D03*
%TD*%
D49*
%TO.C,R7*%
X162560000Y-89493600D03*
X162560000Y-87493600D03*
%TD*%
D28*
%TO.C,C23*%
X138586300Y-95453200D03*
X140661300Y-95453200D03*
%TD*%
D13*
%TO.C,J1*%
X122504200Y-157581600D03*
D14*
X119964200Y-157581600D03*
X117424200Y-157581600D03*
%TD*%
D13*
%TO.C,JP11*%
X155036600Y-99898200D03*
D14*
X157576600Y-99898200D03*
%TD*%
D59*
%TO.C,SW1*%
X121581112Y-142748040D03*
X128881112Y-142748040D03*
D60*
X123731112Y-146168040D03*
X126731112Y-146168040D03*
%TD*%
D43*
%TO.C,Q4*%
X185998200Y-77374800D03*
D44*
X176848200Y-74834800D03*
D43*
X185998200Y-72294800D03*
%TD*%
D42*
%TO.C,TP3*%
X156006800Y-155346400D03*
%TD*%
D20*
%TO.C,R29*%
X134188800Y-128676400D03*
X131088800Y-128676400D03*
%TD*%
D13*
%TO.C,J19*%
X153416000Y-126339600D03*
%TD*%
%TO.C,J17*%
X188950600Y-94208600D03*
D14*
X188950600Y-96748600D03*
X188950600Y-99288600D03*
%TD*%
D35*
%TO.C,C31*%
X126898400Y-104698800D03*
X124823400Y-104698800D03*
%TD*%
D32*
%TO.C,R16*%
X174047400Y-88925400D03*
X176047400Y-88925400D03*
%TD*%
D13*
%TO.C,J8*%
X163454000Y-140385800D03*
D14*
X165994000Y-140385800D03*
X168534000Y-140385800D03*
X171074000Y-140385800D03*
X173614000Y-140385800D03*
%TD*%
D35*
%TO.C,C35*%
X122652700Y-136398000D03*
X120577700Y-136398000D03*
%TD*%
D32*
%TO.C,R30*%
X116094000Y-128727200D03*
X118094000Y-128727200D03*
%TD*%
D20*
%TO.C,R28*%
X134188800Y-125984000D03*
X131088800Y-125984000D03*
%TD*%
D28*
%TO.C,C4*%
X156340900Y-126187200D03*
X158415900Y-126187200D03*
%TD*%
%TO.C,C5*%
X150346500Y-139547600D03*
X152421500Y-139547600D03*
%TD*%
D32*
%TO.C,R18*%
X147894800Y-67259200D03*
X149894800Y-67259200D03*
%TD*%
D13*
%TO.C,JP3*%
X199872601Y-97815401D03*
D14*
X199872601Y-95275401D03*
%TD*%
D53*
%TO.C,U4*%
X125612000Y-111754000D03*
D54*
X119312000Y-109474000D03*
D53*
X125612000Y-107194000D03*
%TD*%
D62*
%TO.C,Q11*%
X157820400Y-115876500D03*
X155920400Y-115876500D03*
X156870400Y-117751500D03*
%TD*%
D13*
%TO.C,J16*%
X184835800Y-94284800D03*
D14*
X184835800Y-96824800D03*
X184835800Y-99364800D03*
%TD*%
D22*
%TO.C,Q9*%
X139719000Y-133737000D03*
D23*
X137179000Y-142887000D03*
D22*
X134639000Y-133737000D03*
%TD*%
D63*
%TO.C,C33*%
X154686000Y-112081200D03*
X154686000Y-104681200D03*
%TD*%
D13*
%TO.C,J23*%
X153111200Y-121818400D03*
%TD*%
D50*
%TO.C,R22*%
X129235200Y-100812000D03*
X129235200Y-103912000D03*
%TD*%
D13*
%TO.C,JP8*%
X146558000Y-152395000D03*
D14*
X146558000Y-154935000D03*
%TD*%
D13*
%TO.C,J2*%
X205206600Y-100355400D03*
D14*
X205206600Y-97815400D03*
X205206600Y-95275400D03*
%TD*%
D25*
%TO.C,C26*%
X145491200Y-104152200D03*
X145491200Y-98946200D03*
%TD*%
D42*
%TO.C,TP14*%
X188391800Y-110794800D03*
%TD*%
D20*
%TO.C,R15*%
X202464000Y-79273400D03*
X199364000Y-79273400D03*
%TD*%
D13*
%TO.C,JP5*%
X138811000Y-152395000D03*
D14*
X138811000Y-154935000D03*
%TD*%
D53*
%TO.C,U7*%
X125612000Y-122422000D03*
D54*
X119312000Y-120142000D03*
D53*
X125612000Y-117862000D03*
%TD*%
D42*
%TO.C,TP1*%
X159918400Y-151282400D03*
%TD*%
D22*
%TO.C,Q2*%
X155225800Y-71025800D03*
D23*
X152685800Y-80175800D03*
D22*
X150145800Y-71025800D03*
%TD*%
D15*
%TO.C,R14*%
X138200800Y-87426800D03*
X141300800Y-87426800D03*
%TD*%
D42*
%TO.C,TP10*%
X188391800Y-106070400D03*
%TD*%
M02*
